<svg width="383" height="132" fill="none" xmlns="http://www.w3.org/2000/svg"><path d="M50.702 1.269v44.335H38.801V28.15L25.724 41.206a.543.543 0 0 1-.757 0L11.89 28.15v17.454H0V1.269A.485.485 0 0 1 .808.918l24.536 24.507L49.891.917c.2-.18.508-.163.686.04a.472.472 0 0 1 .125.312Zm85.112-.486V21.85S110.145 1.106 109.875.903a.526.526 0 0 0-.865.406v44.295h11.889V24.535l25.911 20.948a.527.527 0 0 0 .868-.405V.783h-11.864Zm195.513 0V21.85L305.431.903a.528.528 0 0 0-.868.406v44.295h11.901V24.535l25.897 20.948a.527.527 0 0 0 .868-.405V.783h-11.902ZM103.121 23.2c0 12.813-10.405 23.203-23.238 23.203-12.834 0-23.236-10.39-23.236-23.203C56.647 10.393 67.042.007 79.871 0c12.833-.01 23.24 10.372 23.25 23.186v.014Zm-11.672 0c.01-6.376-5.164-11.553-11.55-11.558-6.385-.009-11.571 5.157-11.576 11.532-.007 6.375 5.164 11.553 11.55 11.559h.014c6.378-.008 11.543-5.167 11.55-11.532h.012ZM189.245.783h-36.596v11.439h12.347v33.384h11.888V12.22h12.348l.013-11.438Zm38.165 31.791a12.7 12.7 0 0 1-3.758 9.238c-2.538 2.535-5.634 3.844-10.902 3.844h-18.588V.782h16.104c3.756 0 7.917-.308 11.834 2.7a12.704 12.704 0 0 1 4.864 9.834 12.328 12.328 0 0 1-4.23 9.252 12.523 12.523 0 0 1 4.676 10.006ZM205.16 9.766v8.7h6.579a4.358 4.358 0 1 0-.003-8.7h-6.576Zm11.105 21.257a4.494 4.494 0 0 0-4.498-4.491h-6.605v8.97h6.605a4.495 4.495 0 0 0 4.498-4.479Zm29.274 3.141V.783h-11.888v44.823h24.005V34.164h-12.117Zm35.127-33.085-20.832 44.525h12.875l8.376-18.383 8.471 18.383h12.874l-20.791-44.51a.499.499 0 0 0-.986-.013l.013-.002ZM361.318 23.2c.099-6.533 5.488-11.744 12.031-11.643.042.001.085.001.126.003a14.89 14.89 0 0 1 6.283 1.35A16.469 16.469 0 0 1 383 14.812V2.267A24.846 24.846 0 0 0 372.531.001c-12.83.308-22.98 10.94-22.67 23.75.301 12.375 10.274 22.335 22.67 22.634 3.595.015 7.151-.76 10.415-2.267v-12.5a16.556 16.556 0 0 1-3.243 1.903 14.914 14.914 0 0 1-6.282 1.348c-6.541.151-11.968-5.025-12.117-11.555l-.003-.112.017-.002ZM88.56 111.515a3.357 3.357 0 0 1-2.311-.876A4.035 4.035 0 0 1 85 108.221V74.637h5.208v30.449c-.01.842.026 1.685.106 2.524.014.515.201 1.011.531 1.408 0 .496 2.144.744 6.43.744h9.246v1.753h-17.96ZM120.353 111.518a3.774 3.774 0 0 1-2.391-.744 2.583 2.583 0 0 1-.957-2.179V74.693h19.237a.997.997 0 0 1 .691.238.849.849 0 0 1 .265.665.993.993 0 0 1-.621.936.997.997 0 0 1-.388.073h-10.097a9.403 9.403 0 0 0-1.913.16 2.59 2.59 0 0 0-1.196.558c-.31.281-.524.653-.611 1.063a7.353 7.353 0 0 0-.159 1.673v11.16h13.072v1.913h-13.072v12.966c-.015.65.039 1.3.159 1.939.074.422.29.807.611 1.09.345.265.762.422 1.196.451.654.06 1.31.087 1.966.08h12.01v1.86h-17.802ZM176.212 109.922c-4.535 1.453-8.485 2.18-11.85 2.179-5.314 0-9.202-1.594-11.664-4.783-2.463-3.188-3.694-8.112-3.693-14.772a35.025 35.025 0 0 1 .877-8.396 14.425 14.425 0 0 1 2.736-5.766 10.871 10.871 0 0 1 4.783-3.321c1.948-.708 4.303-1.063 7.067-1.063 1.54-.004 3.078.12 4.597.372 1.494.255 2.962.646 4.384 1.17v6.057h-.744a5.305 5.305 0 0 0-2.338-4.304c-1.488-1.063-3.56-1.594-6.217-1.594-1.913 0-3.499.345-4.756 1.036a7.744 7.744 0 0 0-3.056 3.162 15.94 15.94 0 0 0-1.647 5.34 52.255 52.255 0 0 0-.479 7.572c0 5.952.913 10.354 2.737 13.205 1.824 2.853 4.703 4.279 8.635 4.278 2.267 0 3.879-.381 4.836-1.142.957-.762 1.435-2.134 1.435-4.118V93.13h-5.845v-1.913h10.202v18.705ZM195.353 111.518a3.774 3.774 0 0 1-2.391-.744 2.583 2.583 0 0 1-.957-2.179V74.693h19.237a.992.992 0 0 1 .69.238.851.851 0 0 1 .266.665.994.994 0 0 1-1.01 1.01h-10.096a9.39 9.39 0 0 0-1.913.159 2.59 2.59 0 0 0-1.196.558c-.31.28-.524.653-.611 1.063a7.353 7.353 0 0 0-.159 1.673v11.16h13.072v1.913h-13.072v12.966c-.015.65.039 1.3.159 1.939.074.422.289.807.611 1.09.345.265.761.422 1.196.451.653.06 1.31.087 1.966.08h12.01v1.86h-17.802ZM253.251 111.515c-2.055 0-3.729-.274-5.022-.823a5.877 5.877 0 0 1-2.949-2.684l-15.039-28.376h-.744v31.139a1.283 1.283 0 0 1-.372.957 1.172 1.172 0 0 1-.85.372 1.19 1.19 0 0 1-.903-.399 1.317 1.317 0 0 1-.372-.93V74.637h5.208L249 106.308h.584V74.637h4.198v36.878h-.531ZM279.619 74.637c3.117 0 5.774.327 7.971.983a12.025 12.025 0 0 1 5.393 3.188 13.35 13.35 0 0 1 3.083 5.713c.655 2.338.982 5.172.983 8.502 0 3.968-.452 7.254-1.355 9.857-.904 2.604-2.347 4.597-4.331 5.978a13.336 13.336 0 0 1-5.686 2.179c-2.64.383-5.304.561-7.971.532h-4.411a2.983 2.983 0 0 1-2.311-1.037 4.212 4.212 0 0 1-.983-2.789V74.637h9.618Zm-.319 35.072c2.444 0 4.472-.301 6.084-.904a8.288 8.288 0 0 0 3.88-2.896c.973-1.328 1.655-3.038 2.045-5.128.424-2.51.62-5.053.585-7.599a45.904 45.904 0 0 0-.558-7.758c-.372-2.126-1.01-3.853-1.913-5.181a7.74 7.74 0 0 0-3.64-2.896c-1.524-.602-3.437-.903-5.739-.904h-4.836v33.266h4.092ZM238.345 124.341c.848 0 1.49-.174 1.926-.523.449-.362.674-.88.674-1.553 0-1.484-.936-2.226-2.806-2.226h-7.894v4.302h8.1Zm2.413 7.202-3.667-5.163h-6.846v5.163H228V118h10.681c1.434 0 2.551.38 3.349 1.141.81.761 1.216 1.802 1.216 3.124 0 .599-.088 1.129-.262 1.59a3.47 3.47 0 0 1-.749 1.197 3.63 3.63 0 0 1-1.122.786 5.44 5.44 0 0 1-1.384.43l3.629 5.275h-2.6ZM255 131.543V118h13.656v2.039h-11.411v3.461h7.931v2.039h-7.931v3.965h11.934v2.039H255ZM290.685 129.504c.673 0 1.29-.112 1.852-.336a4.292 4.292 0 0 0 1.459-.973c.411-.412.729-.898.954-1.459a4.852 4.852 0 0 0 .355-1.871c0-.723-.125-1.378-.374-1.964a4.209 4.209 0 0 0-1.029-1.534 4.372 4.372 0 0 0-1.59-.973c-.611-.237-1.297-.355-2.057-.355h-6.51v9.465h6.94ZM290.067 118c1.185 0 2.251.168 3.199.505.948.324 1.752.786 2.413 1.384a5.913 5.913 0 0 1 1.516 2.189c.361.848.542 1.796.542 2.843 0 .961-.187 1.846-.561 2.657-.362.81-.904 1.533-1.628 2.17a6.976 6.976 0 0 1-2.282 1.346c-.86.3-1.783.449-2.768.449H281.5V118h8.567Z" fill="#fff"/></svg>
