<svg id="Calque_1" data-name="Calque 1" xmlns="http://www.w3.org/2000/svg" viewBox="0 0 153.8 153.35"><defs><style>.cls-1{fill:#fff;}</style></defs><path class="cls-1" d="M41.5,24.6l-7-10.52L31,16.4l-.76-1.15,8.36-5.56.77,1.15-3.49,2.31,7,10.52Z"/><path class="cls-1" d="M48.84,20,43.68,7l1.57-.62,2.27,5.74,6.75-2.67L52,3.72l1.56-.62,5.15,13-1.56.62-2.37-6L48,13.43l2.37,6Z"/><path class="cls-1" d="M62.28,15.25,60,1.45,68.49,0l.23,1.36L61.84,2.53l.81,4.81,6.29-1.06.22,1.34L62.87,8.68l.83,4.93,6.89-1.16.23,1.36Z"/><path class="cls-1" d="M85,14.44a6,6,0,0,1-2.59-.89,4.19,4.19,0,0,1-1.55-1.77A4.36,4.36,0,0,1,80.5,9.4l1.75.22a3.11,3.11,0,0,0,.18,1.55,2.82,2.82,0,0,0,1,1.23,3.64,3.64,0,0,0,1.74.63,3.26,3.26,0,0,0,2.27-.39,2.21,2.21,0,0,0,1-1.59,2.35,2.35,0,0,0-.19-1.39,2.65,2.65,0,0,0-.86-.94A7.46,7.46,0,0,0,86,8c-.5-.23-1-.48-1.57-.75a5.85,5.85,0,0,1-2.21-1.68,3.07,3.07,0,0,1-.5-2.25,3.58,3.58,0,0,1,.77-1.91A3.63,3.63,0,0,1,84.21.25,5.15,5.15,0,0,1,86.6.05a5.33,5.33,0,0,1,2.25.79A3.87,3.87,0,0,1,90.2,2.4a3.86,3.86,0,0,1,.32,2.06l-1.75-.22a2.44,2.44,0,0,0-.15-1.18,2.4,2.4,0,0,0-.79-1,3,3,0,0,0-1.47-.54,2.74,2.74,0,0,0-1.93.34,2,2,0,0,0-.93,1.55,1.79,1.79,0,0,0,.33,1.44,4,4,0,0,0,1.32,1l2,1A9.84,9.84,0,0,1,88.85,7.8a3.52,3.52,0,0,1,1.08,1.38,3.69,3.69,0,0,1,.2,2A3.65,3.65,0,0,1,89.38,13a4,4,0,0,1-1.74,1.24A5.6,5.6,0,0,1,85,14.44Z"/><path class="cls-1" d="M97.4,17.37A6,6,0,0,1,95.12,16a4.32,4.32,0,0,1-1.18-2.28,6.06,6.06,0,0,1,.34-3.12l2.9-8.35,1.59.55-2.91,8.37a3.91,3.91,0,0,0,0,3.12A3.6,3.6,0,0,0,97.93,16a3.53,3.53,0,0,0,2.7,0,3.93,3.93,0,0,0,1.88-2.48l2.91-8.37,1.59.55L104.11,14a6.06,6.06,0,0,1-1.67,2.66,4.34,4.34,0,0,1-2.36,1.06A6,6,0,0,1,97.4,17.37Z"/><path class="cls-1" d="M105.6,20.44l7.26-12,3.86,2.35a5.61,5.61,0,0,1,2,1.85,3.49,3.49,0,0,1,.55,2.06,4.3,4.3,0,0,1-.65,2,4.23,4.23,0,0,1-1.84,1.67,3.82,3.82,0,0,1-2.67.13l-.5,6.74-1.7-1,.57-6.41-.1-.07L110,16.37l-3,4.94Zm5.12-5.2L113,16.65a3.12,3.12,0,0,0,2.42.56,2.8,2.8,0,0,0,1.67-1.32,2.69,2.69,0,0,0,.4-2.07A3.26,3.26,0,0,0,115.87,12l-2.31-1.4Z"/><path class="cls-1" d="M116.16,27.28,125.65,17,129,20.05a5.88,5.88,0,0,1,1.61,2.22,3.55,3.55,0,0,1,.12,2.13,4.36,4.36,0,0,1-1,1.87,4.14,4.14,0,0,1-2.13,1.26,3.83,3.83,0,0,1-2.64-.39l-1.83,6.5L121.6,32.3l1.83-6.18-.09-.08-2-1.87-3.92,4.25Zm6-4.08,2,1.84a3.07,3.07,0,0,0,2.26,1,2.78,2.78,0,0,0,1.9-1,2.65,2.65,0,0,0,.8-1.94A3.31,3.31,0,0,0,127.91,21l-2-1.83Z"/><path class="cls-1" d="M125.16,36.11l11.31-8.25,5.11,7-1.12.81L136.34,30l-3.94,2.88,3.77,5.15-1.1.8-3.76-5.15-4,2.95,4.12,5.63-1.12.82Z"/><path class="cls-1" d="M131.65,45.15l14.88-1.06.73,1.62L136.62,56.16l-.73-1.62,2.75-2.65-2.45-5.43-3.82.29Zm6,1.2,2,4.52L145,45.76Z"/><path class="cls-1" d="M137.3,58.9,151,55.81l.37,1.64L139,60.24l1.44,6.36-1.31.3Z"/><path class="cls-1" d="M139.36,70.15,153.31,69l.14,1.67-13.94,1.21Z"/><path class="cls-1" d="M139.32,80.15A6.13,6.13,0,0,1,140,77.5a4.17,4.17,0,0,1,1.66-1.67,4.33,4.33,0,0,1,2.35-.49l-.1,1.76a3.15,3.15,0,0,0-1.53.29,2.85,2.85,0,0,0-1.16,1,3.67,3.67,0,0,0-.51,1.79,3.21,3.21,0,0,0,.56,2.23,2.16,2.16,0,0,0,1.65.87,2.31,2.31,0,0,0,1.37-.28,2.68,2.68,0,0,0,.88-.92,7.93,7.93,0,0,0,.64-1.37q.28-.78.63-1.62A5.87,5.87,0,0,1,148,76.82a3,3,0,0,1,2.21-.66,3.6,3.6,0,0,1,2,.63,3.65,3.65,0,0,1,1.27,1.61,5.2,5.2,0,0,1,.36,2.37,5.12,5.12,0,0,1-.63,2.3,3.79,3.79,0,0,1-1.46,1.46,3.85,3.85,0,0,1-2,.46l.1-1.76a2.45,2.45,0,0,0,1.16-.24,2.28,2.28,0,0,0,1-.85,3.09,3.09,0,0,0,.45-1.51,2.81,2.81,0,0,0-.48-1.9,2,2,0,0,0-1.62-.82,1.81,1.81,0,0,0-1.4.43,3.77,3.77,0,0,0-.87,1.39l-.83,2.07a9.31,9.31,0,0,1-.94,1.75,3.41,3.41,0,0,1-1.3,1.18,4,4,0,0,1-3.82-.28,3.8,3.8,0,0,1-1.36-1.65A5.43,5.43,0,0,1,139.32,80.15Z"/><path class="cls-1" d="M138,90.83l12.24,3,1-4.06,1.34.33-2.42,9.74-1.34-.33,1-4-12.25-3Z"/><path class="cls-1" d="M133,105l12.06,7.1-4.33,7.34-1.19-.7,3.48-5.89-4.24-2.5-3,5-1.17-.69,3-5-5.47-3.22Z"/><path class="cls-1" d="M126.86,114.67l10.59,9.16-1.1,1.27-9.58-8.29-4.26,4.94-1-.88Z"/><path class="cls-1" d="M119,123l9.26,10.5L127,134.62l-9.26-10.5Z"/><path class="cls-1" d="M109.74,129.7a6.38,6.38,0,0,1,3.4-1,6,6,0,0,1,3.29,1,9.06,9.06,0,0,1,4,6.43,6.26,6.26,0,0,1-.66,3.42,6.9,6.9,0,0,1-2.59,2.68,6.55,6.55,0,0,1-4,1.09,5.14,5.14,0,0,1-3.37-1.61l1.65-1a3.22,3.22,0,0,0,2.18,1,4.62,4.62,0,0,0,2.68-.78,5.16,5.16,0,0,0,1.92-2,4.67,4.67,0,0,0,.47-2.6,6.9,6.9,0,0,0-1.07-2.94,7.06,7.06,0,0,0-2.14-2.28,4.58,4.58,0,0,0-2.49-.77,4.64,4.64,0,0,0-2.55.76,4.18,4.18,0,0,0-2.18,2.89,6,6,0,0,0,.77,3.73l3.44-2.12.7,1.13-4.91,3-3.92-6.37,1.31-.8,1.32,1.88a5.7,5.7,0,0,1,.6-2.58A5.58,5.58,0,0,1,109.74,129.7Z"/><path class="cls-1" d="M101.32,134.56l4.32,13.32-1.6.52-1.91-5.88-6.9,2.24,1.9,5.88-1.59.52-4.32-13.32,1.6-.52,2,6.13,6.91-2.24-2-6.13Z"/><path class="cls-1" d="M84.34,138.82l1.31,12.55,4.16-.44.14,1.38-10,1L79.83,152l4.15-.44L82.67,139Z"/><path class="cls-1" d="M69.31,138.94l-2.59,13.75-8.51-1.6.25-1.35L65.32,151l.91-4.8L60,145.05l.25-1.33,6.27,1.18L67.4,140l-6.86-1.29.26-1.35Z"/><path class="cls-1" d="M58.23,136.66l-6.61,4.94,1.36,8-1.76-.71-1.09-6.48-5.14,4-1.74-.71,6.6-4.9-1.37-8.08,1.76.71,1.1,6.51,5.13-4Z"/><path class="cls-1" d="M45.89,131.25l-7.72,11.67-3.84-2.54a5.88,5.88,0,0,1-1.95-1.93,3.68,3.68,0,0,1-.51-2.09,4.21,4.21,0,0,1,.73-2,4.13,4.13,0,0,1,1.55-1.45,3.61,3.61,0,0,1,2.11-.36,5.83,5.83,0,0,1,2.57,1l2.44,1.61,3.22-4.87Zm-5.41,5.12-2.4-1.58a3.31,3.31,0,0,0-2.38-.73A2.62,2.62,0,0,0,34,135.29a2.66,2.66,0,0,0-.49,2,3.29,3.29,0,0,0,1.6,1.91l2.4,1.59Z"/><path class="cls-1" d="M35.81,124.13,26,134.1,19.82,128l1-1,5,4.89,3.42-3.48L24.63,124l1-1,4.55,4.48,3.5-3.57-5-4.89,1-1Z"/><path class="cls-1" d="M27.48,115.46l-11.57,7.89-2.54-3.74a5.83,5.83,0,0,1-1.07-2.52,3.54,3.54,0,0,1,.36-2.1,4.43,4.43,0,0,1,1.43-1.59,4.26,4.26,0,0,1,2.37-.75,3.85,3.85,0,0,1,2.49,1l3.25-5.92,1.11,1.64L20.14,115l.06.1,1.56,2.28,4.77-3.26Zm-6.81,2.61-1.54-2.24a3.1,3.1,0,0,0-2-1.52,2.8,2.8,0,0,0-2.07.52,2.68,2.68,0,0,0-1.22,1.71,3.31,3.31,0,0,0,.75,2.39l1.52,2.23Z"/><path class="cls-1" d="M20.75,104.61l-12.6,6.12-.73-1.51L20,103.1Z"/><path class="cls-1" d="M18.16,99.79,4.65,103.48l-.51-1.89,8.08-7.43L1.49,91.91,1,90l13.51-3.69.44,1.62L4.31,90.83,14.22,93l.33,1.21-7.43,6.89,10.6-2.9Z"/><path class="cls-1" d="M14.27,82.7l-14,.45L0,74.5l1.38,0,.23,7,4.87-.16-.2-6.37,1.36-.05.2,6.38,5-.16-.23-7L14,74Z"/><path class="cls-1" d="M14.13,70.71.35,68.25l.29-1.66L13,61.22l-11-2,.3-1.65L16,60.05l-.29,1.66L3.38,67.08l11.05,2Z"/><path class="cls-1" d="M18.42,53.54,6.73,48.77,5.15,52.64l-1.27-.52,3.79-9.3L9,43.34,7.37,47.21,19.05,52Z"/><path class="cls-1" d="M21.29,37.31l-1.11-.89,4.94-6.19,1.11.88Z"/></svg>