<?xml version="1.0" encoding="UTF-8"?>
<svg version="1.1" xmlns="http://www.w3.org/2000/svg" xmlns:xlink="http://www.w3.org/1999/xlink">
<defs>

</defs>
<symbol id="i-closedhand" viewBox="0 0 35 35" fill="none" xmlns="http://www.w3.org/2000/svg"><path fill-rule="evenodd" clip-rule="evenodd" d="M13.573 14.036c.48-.178 1.427-.069 1.677.473.213.462.396 1.241.406 1.075.024-.369-.024-1.167.137-1.584.117-.304.347-.59.686-.69.285-.087.62-.117.916-.056.313.064.642.287.765.5.362.622.368 1.898.385 1.83.064-.272.07-1.229.283-1.584.141-.235.497-.445.687-.479.294-.052.656-.068.964-.008.25.05.586.344.677.487.22.344.342 1.316.38 1.658.015.141.073-.393.292-.736.406-.639 1.844-.763 1.898.64.026.653.02.623.02 1.063 0 .516-.012.828-.04 1.202-.03.4-.116 1.304-.24 1.742-.087.301-.372.978-.654 1.384 0 0-1.074 1.25-1.19 1.812-.118.563-.079.567-.103.965-.023.4.121.923.121.923s-.8.104-1.234.034c-.39-.062-.875-.84-1-1.078-.172-.328-.539-.265-.682-.023-.224.383-.709 1.07-1.05 1.113-.669.084-2.055.03-3.14.02 0 0 .185-1.01-.227-1.358-.305-.26-.83-.784-1.144-1.06l-.832-.92c-.283-.36-1.002-.93-1.243-1.986-.213-.936-.192-1.395.037-1.77.232-.38.67-.589.854-.625.208-.042.692-.039.875.062.223.123.313.16.488.391.23.307.312.456.213.121-.076-.262-.322-.595-.434-.97-.109-.36-.4-.943-.38-1.526.008-.22.103-.77.832-1.042" fill="#fff"/><path clip-rule="evenodd" d="M13.573 14.036c.48-.178 1.427-.069 1.677.473.213.462.396 1.241.406 1.075.024-.369-.024-1.167.137-1.584.117-.304.347-.59.686-.69.285-.087.62-.117.916-.056.313.064.642.287.765.5.362.622.368 1.898.385 1.83.064-.272.07-1.229.283-1.584.141-.235.497-.445.687-.479.294-.052.656-.068.964-.008.25.05.586.344.677.487.22.344.342 1.316.38 1.658.015.141.073-.393.292-.736.406-.639 1.844-.763 1.898.64.026.653.02.623.02 1.063 0 .516-.012.828-.04 1.202-.03.4-.116 1.304-.24 1.742-.087.301-.372.978-.654 1.384 0 0-1.074 1.25-1.19 1.812-.118.563-.079.567-.103.965-.023.4.121.923.121.923s-.8.104-1.234.034c-.39-.062-.875-.84-1-1.078-.172-.328-.539-.265-.682-.023-.224.383-.709 1.07-1.05 1.113-.669.084-2.055.03-3.14.02 0 0 .185-1.01-.227-1.358-.305-.26-.83-.784-1.144-1.06l-.832-.92c-.283-.36-1.002-.93-1.243-1.986-.213-.936-.192-1.395.037-1.77.232-.38.67-.589.854-.625.208-.042.692-.039.875.062.223.123.313.16.488.391.23.307.312.456.213.121-.076-.262-.322-.595-.434-.97-.109-.36-.4-.943-.38-1.526.008-.22.103-.77.832-1.042v0z" stroke="#000" stroke-width=".75" stroke-linejoin="round"/><path d="M20.566 21.734v-3.459M18.55 21.746l-.015-3.473M16.555 18.305l.02 3.426" stroke="#000" stroke-width=".75" stroke-linecap="round"/></symbol>
<symbol id="i-instagram" viewBox="0 0 24 24"><path d="M12 2.163c3.204 0 3.584.012 4.85.07 3.252.148 4.771 1.691 4.919 4.919.058 1.265.069 1.645.069 4.849 0 3.205-.012 3.584-.069 4.849-.149 3.225-1.664 4.771-4.919 4.919-1.266.058-1.644.07-4.85.07-3.204 0-3.584-.012-4.849-.07-3.26-.149-4.771-1.699-4.919-4.92-.058-1.265-.07-1.644-.07-4.849 0-3.204.013-3.583.07-4.849.149-3.227 1.664-4.771 4.919-4.919 1.266-.057 1.645-.069 4.849-.069zM12 0C8.741 0 8.333.014 7.053.072 2.695.272.273 2.69.073 7.052.014 8.333 0 8.741 0 12c0 3.259.014 3.668.072 4.948.2 4.358 2.618 6.78 6.98 6.98C8.333 23.986 8.741 24 12 24c3.259 0 3.668-.014 4.948-.072 4.354-.2 6.782-2.618 6.979-6.98.059-1.28.073-1.689.073-4.948 0-3.259-.014-3.667-.072-4.947-.196-4.354-2.617-6.78-6.979-6.98C15.668.014 15.259 0 12 0zm0 5.838a6.162 6.162 0 100 12.324 6.162 6.162 0 000-12.324zM12 16a4 4 0 110-8 4 4 0 010 8zm6.406-11.845a1.44 1.44 0 100 2.881 1.44 1.44 0 000-2.881z"/></symbol>
<symbol id="i-linkedin" viewBox="0 0 24 24"><path d="M19 0H5a5 5 0 00-5 5v14a5 5 0 005 5h14a5 5 0 005-5V5a5 5 0 00-5-5zM8 19H5V8h3v11zM6.5 6.732c-.966 0-1.75-.79-1.75-1.764s.784-1.764 1.75-1.764 1.75.79 1.75 1.764-.783 1.764-1.75 1.764zM20 19h-3v-5.604c0-3.368-4-3.113-4 0V19h-3V8h3v1.765c1.396-2.586 7-2.777 7 2.476V19z"/></symbol>
<symbol id="i-openhand" viewBox="0 0 35 35" fill="none" xmlns="http://www.w3.org/2000/svg"><path fill-rule="evenodd" clip-rule="evenodd" d="M13.556 17.574c-.098-.375-.196-.847-.406-1.552-.167-.557-.342-.859-.47-1.233-.155-.455-.303-.72-.496-1.18a12.1 12.1 0 01-.457-1.44 1.427 1.427 0 01.244-1.207c.253-.339.962-.49 1.357-.35.37.13.744.511.916.787.288.46.357.632.717 1.542.393.992.564 1.918.61 2.231l.086.452-.044-1.162a49.535 49.535 0 01-.038-2.939c.002-.126.064-.587.084-.715.078-.5.305-.8.673-.979a1.71 1.71 0 011.4-.017c.424.173.627.55.688 1.022.014.11.094.987.093 1.107-.013 1.025.006 1.641.015 2.174.004.231.003 1.625.017 1.47.06-.657.094-3.19.344-3.943.144-.433.405-.746.794-.929.43-.203 1.113-.07 1.404.243.285.305.446.692.482 1.153.032.405-.02.897-.02 1.245 0 .867-.021 1.324-.037 2.121-.001.038-.015.298.023.182a16.413 16.413 0 01.625-1.604c.114-.234.21-.369.415-.688.2-.313.415-.448.668-.56.54-.236 1.109.111 1.3.59.087.215.01.713-.027 1.105-.061.647-.254 1.306-.352 1.648-.128.447-.274 1.235-.34 1.601-.072.394-.234 1.382-.36 1.82-.085.301-.37.978-.651 1.384 0 0-1.074 1.25-1.192 1.812-.117.563-.078.567-.101.965-.024.4.12.923.12.923s-.801.104-1.233.034c-.391-.062-.875-.84-1-1.078-.172-.328-.54-.265-.682-.023-.225.383-.71 1.07-1.051 1.113-.668.084-2.054.03-3.14.02 0 0 .186-1.01-.226-1.358-.305-.26-.83-.784-1.144-1.06l-.832-.92c-.284-.36-.63-1.094-1.243-1.986-.348-.504-1.027-1.085-1.284-1.579-.223-.425-.331-.954-.19-1.325.225-.594.675-.897 1.362-.832.519.05.848.206 1.238.537.225.19.573.534.75.748.163.195.203.276.377.51.23.306.302.458.214.12" fill="#fff"/><path d="M13.556 17.574c-.098-.375-.196-.847-.406-1.552-.167-.557-.342-.859-.47-1.233-.155-.455-.303-.72-.496-1.18a12.1 12.1 0 01-.457-1.44 1.427 1.427 0 01.244-1.207c.253-.339.962-.49 1.357-.35.37.13.744.511.916.787.288.46.357.632.717 1.542.393.992.564 1.918.61 2.231l.086.452-.044-1.162a49.535 49.535 0 01-.038-2.939c.002-.126.064-.587.084-.715.078-.5.305-.8.673-.979a1.71 1.71 0 011.4-.017c.424.173.627.55.688 1.022.014.11.094.987.093 1.107-.013 1.025.006 1.641.015 2.174.004.231.003 1.625.017 1.47.06-.657.094-3.19.344-3.943.144-.433.405-.746.794-.929.43-.203 1.113-.07 1.404.243.285.305.446.692.482 1.153.032.405-.02.897-.02 1.245 0 .867-.021 1.324-.037 2.121-.001.038-.015.298.023.182a16.413 16.413 0 01.625-1.604c.114-.234.21-.369.415-.688.2-.313.415-.448.668-.56.54-.236 1.109.111 1.3.59.087.215.01.713-.027 1.105-.061.647-.254 1.306-.352 1.648-.128.447-.274 1.235-.34 1.601-.072.394-.234 1.382-.36 1.82-.085.301-.37.978-.651 1.384 0 0-1.074 1.25-1.192 1.812-.117.563-.078.567-.101.965-.024.4.12.923.12.923s-.801.104-1.233.034c-.391-.062-.875-.84-1-1.078-.172-.328-.54-.265-.682-.023-.225.383-.71 1.07-1.051 1.113-.668.084-2.054.03-3.14.02 0 0 .186-1.01-.226-1.358-.305-.26-.83-.784-1.144-1.06l-.832-.92c-.284-.36-.63-1.094-1.243-1.986-.348-.504-1.027-1.085-1.284-1.579-.223-.425-.331-.954-.19-1.325.225-.594.675-.897 1.362-.832.519.05.848.206 1.238.537.225.19.573.534.75.748.163.195.203.276.377.51.23.306.302.458.214.12" stroke="#000" stroke-width=".75" stroke-linecap="round" stroke-linejoin="round"/><path d="M20.566 21.734v-3.459M18.55 21.746l-.015-3.473M16.555 18.305l.02 3.426" stroke="#000" stroke-width=".75" stroke-linecap="round"/></symbol>
<symbol id="i-pinkyellow" viewBox="0 0 3000 1298" xmlns="http://www.w3.org/2000/svg"><path d="M2998.99 621.499c5.27 24.856-10.61 49.274-35.47 54.539-24.86 5.266-49.27-10.616-54.54-35.472-5.27-24.856 10.62-49.274 35.47-54.539 24.86-5.265 49.28 10.616 54.54 35.472zM745.786 1292.94c91.867-19.46 138.124-78.01 158.115-145.48l129.589-431.214c2.67-8.947-2.1-17.079-13.76-14.608l-73.643 15.599c-6.562 1.39-11.048 5.388-13.724 14.335L872.692 960.57c-1.681 6.45-6.785 7.531-8.749 1.853l-70.11-201.507c-3.312-8.44-7.421-9.855-13.983-8.465l-68.536 14.518c-11.666 2.471-17.258 12.035-13.946 20.476l120.494 313.485c2.119 6.41 2.737 9.33.482 16.66l-10.858 35.06c-8.181 26.11-25.396 41.95-54.561 48.12l-27.706 5.87c-8.02 1.7-14.075 9.08-14.409 18.29l-.194 60.23c.241 8.33 6.734 13.81 14.755 12.11l20.415-4.33zM1280.21 1034.99c88.22-18.69 122.66-75.499 132.93-149.287 1.48-10.979-5.28-14.119-12.57-12.574l-62.7 13.282c-4.38.927-12.09 4.084-16.33 16.41-10.48 29.646-27.01 41.528-56.18 47.705-34.99 7.414-51.21-4.389-58.31-37.927-1.08-5.104-2.32-10.937-2.25-17.808.18-9.942 4.25-12.327 10.81-13.717l185.19-39.229c8.02-1.699 13.92-9.805 14.41-18.288 1.95-33.934.88-64.18-4.53-89.699-15.9-75.098-66.42-108.583-162.66-88.196-47.39 10.039-82.26 28.852-107.5 71.529-22.53 37.529-30.3 87.169-30.25 155.724-.23 31.283 1.8 55.232 5.97 74.918 16.37 77.287 80.85 104.767 163.97 87.157zm-65.62-230.644c-4.37.926-7.18-1.527-7.53-6.785-.75-14.316.43-26.754 10.46-44.116 10.04-17.363 19.16-24.629 46.87-30.498 30.62-6.486 53.17 10.068 53.49 51.138.09 7.6-2.67 8.947-7.05 9.874l-96.24 20.387zM1618.01 955.817c8.02-1.699 14.65-9.96 14.41-18.289l.79-510.587c-.24-8.33-6.74-13.81-14.76-12.112l-65.62 13.901c-8.02 1.698-14.65 9.959-14.41 18.288l-.05 510.434c.24 8.329 6 13.964 14.02 12.265l65.62-13.9zM1848.74 906.943c8.02-1.699 14.65-9.96 14.41-18.289l.78-510.588c-.24-8.329-6.73-13.81-14.75-12.111l-65.62 13.9c-8.02 1.699-14.65 9.96-14.41 18.289l-.05 510.433c.24 8.329 6 13.965 14.02 12.266l65.62-13.9zM2158.37 848.974c49.58-10.503 81.64-31.769 103.7-71.486 22.37-38.258 30.18-84.099 29.67-154.84-.15-25.871-1.2-41.646-4.91-59.144-21.78-102.804-100.87-116.524-170.13-101.852-49.58 10.502-81.64 31.769-103.7 71.485-22.37 38.259-30.18 84.099-29.67 154.841.14 25.871 1.2 41.645 4.91 59.144 21.77 102.804 100.86 116.524 170.13 101.852zm-17.16-95.402c-25.52 5.405-48.21 2.593-57.63-41.882-2.16-10.208-3.95-25.828-4.01-44.099-.74-39.458 2.18-65.217 12.79-83.463 7.16-12.944 17.44-21.978 41.5-27.074 25.52-5.406 48.21-2.594 57.63 41.882 2.16 10.207 3.95 25.828 4.01 44.098.74 39.459-2.19 65.218-12.8 83.464-7.16 12.944-17.43 21.977-41.49 27.074zM2543.86 759.698c6.56-1.39 13.08-6.58 14.45-14.489l36.04-185.902c.69-3.954 6.52-5.19 7.6-.086l40.21 168.227c1.54 7.291 6.69 10.01 13.25 8.62l83.12-17.607c6.56-1.39 12.35-6.426 14.45-14.489l93.43-371.752c2.1-8.064-2.09-17.079-13.76-14.608l-64.16 13.592c-6.56 1.39-12.51 5.696-14.45 14.488l-53.76 235.363c-1.1 5.567-6.94 6.802-8.02 1.698l-45.4-214.357c-1.7-8.02-6.69-10.01-13.26-8.62l-73.64 15.599c-6.56 1.39-12.5 5.696-14.45 14.489L2504.15 622.6c-1.1 5.567-6.78 7.532-8.02 1.699l-54.15-212.504c-1.7-8.02-6.69-10.01-13.26-8.62l-60.51 12.819c-11.67 2.471-16.22 13.339-13.95 20.476l95.42 331.751c2.27 7.137 6.69 10.01 13.25 8.62l80.93-17.143zM79.645 923.539c8.02-1.699 15.38-10.114 15.139-18.443l.078-121.908c.248-16.813 9.684-22.621 21.547-20.563 10.25 1.638 25.759 2.924 51.278-2.482 42.288-8.958 81.531-28.698 106.773-71.374 22.523-37.529 25.917-86.243 25.87-154.797.23-31.284-1.796-55.233-5.966-74.919-17.143-80.931-77.936-105.383-133.348-93.645-53.954 11.429-60.523 37.961-81.667 42.44-7.291 1.544-13.785-3.937-17.783-8.423-2.788-3.129-6.251-4.008-10.56-3.096l-36.455 7.723c-8.02 1.698-14.65 9.959-14.41 18.288L0 925.174c.24 8.329 6.005 13.964 14.025 12.265l65.62-13.9zm67.853-255.109c-24.061 5.097-37.116 1.006-45.884-11.612-9.805-13.921-9.137-32.346-9.08-78.83.057-46.483-.733-64.599 9.148-82.69 8.731-16.325 22.652-26.13 46.713-31.227 31.352-6.641 46.218 2.399 52.241 30.835 3.089 14.582 3.459 34.311 3.452 59.452-.144 38.884-.571 65.638-11.91 84.038-8.002 16.17-21.349 25.092-44.68 30.034zM516.239 309.97c.223-6.142-4.658-11.203-11.22-9.813l-71.453 15.136c-6.562 1.39-11.888 8.613-12.111 14.755l.098 356.512c-.222 6.142 5.388 11.048 11.95 9.658l71.453-15.136c6.561-1.39 11.159-8.458 11.381-14.6l-.098-356.512zM731.691 633.054c8.02-1.699 14.65-9.96 14.41-18.289l.793-226.43c-.08-32.741 20.274-55.337 54.542-62.595 34.997-7.414 54.324 8.3 54.095 39.583l-.064 226.275c.24 8.329 6.734 13.81 14.754 12.111l65.62-13.9c8.02-1.699 14.65-9.96 14.41-18.289l.793-226.429c.2-85.367-61.889-133.922-131.154-119.25-51.038 10.811-63.285 39.307-84.429 43.786-9.479 2.008-13.056-4.091-18.512-8.268-3.688-3.027-7.068-4.597-14.359-3.053l-36.456 7.723c-8.02 1.699-14.65 9.959-14.409 18.288l-.408 350.526c.24 8.329 6.734 13.81 14.754 12.111l65.62-13.9zM1162.86 541.72c8.02-1.699 14.65-9.96 14.41-18.289l.04-125.708c.06-6.871 4.59-7.068 7.55-3.886l105.47 109.455c4.72 4.332 8.15 9.701 19.08 7.385l67.81-14.364c16.04-3.397 20.24-19.524 11.67-27.612l-133.16-128.729c-8.57-8.088-7.31-12.926-.99-22.645l127.33-179.336c7.05-9.874-.41-23.529-15.72-20.286l-78.75 16.68c-10.93 2.317-13.65 7.464-17.68 13.648l-84.36 126.812c-2.87 4.418-7.25 5.344-7.03-.797l-.47-261.204c-.25-8.33-6.74-13.81-14.76-12.112l-65.62 13.9c-8.02 1.7-14.65 9.96-14.41 18.29l-.78 510.587c.24 8.329 6.73 13.81 14.75 12.111l65.62-13.9z"/></symbol>
</svg>