<svg width="50" height="58" viewBox="0 0 50 58" fill="none" xmlns="http://www.w3.org/2000/svg">
<path d="M33.051 19.4303C31.7791 26.9674 29.6755 34.5671 28.9382 42.2298C29.9641 38.5894 31.6142 35.3341 32.5 31.6332C33.8111 26.1556 35.7592 20.8312 37.911 15.6808C39.0195 13.0277 39.9468 10.3687 39.5287 7.38004C39.4538 6.84438 38.9394 4.13043 38.0009 4.59282C36.9693 5.10104 36.5746 6.68338 36.1209 7.74006C34.6088 11.2622 33.7011 15.5773 33.051 19.4303Z" fill="#DCDCDC"/>
<path d="M27.0999 57.1167C27.9671 53.4935 28.571 49.4504 28.7053 45.7024C29.0219 36.8617 31.5872 28.1046 33.051 19.4303C33.7011 15.5773 34.6088 11.2622 36.1209 7.74006C36.5746 6.68338 36.9693 5.10104 38.0009 4.59282C38.9394 4.13043 39.4538 6.84438 39.5287 7.38004C39.9468 10.3687 39.0195 13.0277 37.911 15.6808C35.7592 20.8312 33.8111 26.1556 32.5 31.6332C31.5279 35.6947 29.6353 39.2196 28.6573 43.3056" stroke="#727272" stroke-linecap="round"/>
<path d="M14.282 20.6341C16.7336 27.7857 18.5101 35.4922 21.4732 42.4275C20.6378 38.7249 20.5112 34.9717 19.5288 31.3024C18.0746 25.8716 17.2317 20.186 16.6429 14.5248C16.3396 11.6085 15.8801 8.79672 14.1267 6.51765C13.8124 6.10918 12.106 4.12095 11.5276 5.0791C10.8918 6.13219 11.2984 7.71066 11.4088 8.87948C11.7771 12.7754 13.0287 16.9782 14.282 20.6341Z" fill="#DCDCDC"/>
<path d="M26.8863 56.1462C25.9244 52.554 24.543 48.765 22.9018 45.5093C19.0307 37.8302 17.1035 28.8646 14.282 20.6341C13.0287 16.9782 11.7771 12.7754 11.4088 8.87948C11.2984 7.71066 10.8918 6.13219 11.5276 5.0791C12.106 4.12095 13.8124 6.10918 14.1267 6.51765C15.8801 8.79672 16.3396 11.6085 16.6429 14.5248C17.2317 20.186 18.0746 25.8716 19.5288 31.3024C20.607 35.3292 20.6543 39.4571 21.739 43.5083" stroke="#727272" stroke-linecap="round"/>
</svg>
