<svg width="50" height="57" viewBox="0 0 50 57" fill="none" xmlns="http://www.w3.org/2000/svg">
<path d="M24.3243 43.4591C24.6603 45.2506 25.132 47.0422 25.5547 48.8442C25.5961 47.3081 25.7077 45.7581 25.7077 44.263C25.7077 43.3661 26.0442 42.4917 26.0442 41.6364C26.0442 40.7262 26.3807 39.8558 26.3807 38.9444V36.4113C26.3807 35.9967 26.5566 34.7441 25.876 35.0466C25.3916 35.2619 25.1359 35.4014 24.8665 35.9253C23.7442 38.1075 23.8853 41.1177 24.3243 43.4591Z" fill="#E8E8E8"/>
<path d="M26.549 55.7788C26.549 51.5921 25.0867 47.5253 24.3243 43.4591C23.8853 41.1177 23.7442 38.1075 24.8665 35.9253C25.1359 35.4014 25.3916 35.2619 25.876 35.0466C26.5566 34.7441 26.3807 35.9967 26.3807 36.4113C26.3807 37.2557 26.3807 38.1001 26.3807 38.9444C26.3807 39.8558 26.0442 40.7262 26.0442 41.6364C26.0442 42.4917 25.7077 43.3661 25.7077 44.263C25.7077 46.0984 25.5395 48.0166 25.5395 49.8901" stroke="#727272" stroke-linecap="round"/>
</svg>
