<svg width="50" height="57" viewBox="0 0 50 57" fill="none" xmlns="http://www.w3.org/2000/svg">
<path d="M25.5503 56C25.4667 52.4014 24.5619 48.708 24.4304 45.1069C24.3518 42.9537 23.9499 40.9088 23.8704 38.8084C23.8405 38.0195 24.3753 34.1639 23.5904 33.7575C22.2669 33.0722 20.2043 33.1017 19.1728 31.8405C18.6973 31.2592 19.3093 30.3766 19.7327 30.0453C20.1605 29.7106 21.9926 31.3305 22.4082 31.6275C22.7144 31.8464 23.9161 33.4991 24.337 33.3619C25.4582 32.9964 26.3114 31.8592 27.4481 31.4145C28.2112 31.116 28.9949 30.8952 29.7813 30.6539C32.1342 29.9319 32.835 33.3414 30.808 33.2706C28.3859 33.186 26.043 32.7229 23.5904 32.7229" stroke="#727272" stroke-linecap="round"/>
</svg>
