<svg width="50" height="57" viewBox="0 0 50 57" fill="none" xmlns="http://www.w3.org/2000/svg">
<path d="M25.5503 56C25.4667 53.9239 24.5619 51.7931 24.4304 49.7155C24.3518 48.4733 23.9499 47.2936 23.8704 46.0818C23.8405 45.6266 24.3753 43.4022 23.5904 43.1678C22.2669 42.7724 20.2043 42.7894 19.1728 42.0618C18.6973 41.7265 19.3093 41.2173 19.7327 41.0261C20.1605 40.833 21.9926 41.7676 22.4082 41.939C22.7144 42.0652 23.9161 43.0187 24.337 42.9396C25.4582 42.7287 26.3114 42.0726 27.4481 41.8161C28.2112 41.6438 28.9949 41.5164 29.7813 41.3772C32.1342 40.9607 32.835 42.9277 30.808 42.8869C28.3859 42.8381 26.043 42.5709 23.5904 42.5709" stroke="#727272" stroke-linecap="round"/>
</svg>
