<svg width="50" height="58" viewBox="0 0 50 58" fill="none" xmlns="http://www.w3.org/2000/svg">
<path d="M23.1906 26.6658C23.6532 32.7518 23.4058 39.0828 24.3594 45.1387C24.4939 42.1017 25.2512 39.2124 25.2512 36.1621C25.2512 31.6475 25.837 27.0996 26.6362 22.637C27.0479 20.3381 27.3008 18.0777 26.3153 15.8829C26.1386 15.4895 25.1265 13.5283 24.4067 14.1055C23.6155 14.7398 23.6016 16.0478 23.427 16.9663C22.8452 20.0277 22.954 23.5545 23.1906 26.6658Z" fill="#DCDCDC"/>
<path d="M25.8592 57C25.8592 54.0138 25.5429 50.7676 24.8796 47.8591C23.315 40.9988 23.723 33.67 23.1906 26.6658C22.954 23.5545 22.8452 20.0277 23.427 16.9663C23.6016 16.0478 23.6155 14.7398 24.4067 14.1055C25.1265 13.5283 26.1386 15.4895 26.3153 15.8829C27.3008 18.0777 27.0479 20.3381 26.6362 22.637C25.837 27.0996 25.2512 31.6475 25.2512 36.1621C25.2512 39.5096 24.3391 42.6632 24.3391 46.0309" stroke="#727272" stroke-linecap="round"/>
</svg>
