<svg xmlns="http://www.w3.org/2000/svg" width="64.719" height="44.6" viewBox="0 0 64.719 44.6">
  <defs>
    <style>
      .cls-1 {
        fill: #8996a2;
        fill-rule: evenodd;
      }
    </style>
  </defs>
  <path id="hitotema_logo.svg" class="cls-1" d="M869.085,10058.7a0.628,0.628,0,0,1-.428-0.1,0.835,0.835,0,0,1-.186-0.5,0.443,0.443,0,0,1,.19-0.4,0.731,0.731,0,0,1,.424-0.2,0.747,0.747,0,0,1,.441.2,0.445,0.445,0,0,1,.19.4,0.835,0.835,0,0,1-.186.5A0.659,0.659,0,0,1,869.085,10058.7Zm-0.363,10.4v-8.3h0.743v8.3h-0.743Zm6.667-.1a2.4,2.4,0,0,1-1.091.3c-1.223,0-1.834-.8-1.834-2.2v-5.6h-1.487v-0.7h1.487v-2.1c0.118-.1.242-0.1,0.371-0.2a0.516,0.516,0,0,0,.372-0.1v2.4h2.182v0.7h-2.182v5.5a2.308,2.308,0,0,0,.271,1.2,0.954,0.954,0,0,0,.917.4,2.049,2.049,0,0,0,.994-0.3v0.7Zm4.962,0.3a3.619,3.619,0,0,1-2.865-1.2,5.14,5.14,0,0,1,.049-6.3,3.757,3.757,0,0,1,2.905-1.2,3.486,3.486,0,0,1,2.8,1.2,5.3,5.3,0,0,1-.02,6.3A3.6,3.6,0,0,1,880.351,10069.3Zm0.057-8a2.833,2.833,0,0,0-2.332,1,3.917,3.917,0,0,0-.869,2.7,3.7,3.7,0,0,0,.849,2.6,2.784,2.784,0,0,0,2.319,1,2.7,2.7,0,0,0,2.3-1,3.829,3.829,0,0,0,.808-2.6,4.423,4.423,0,0,0-.8-2.8A2.893,2.893,0,0,0,880.408,10061.3Zm9.182,7.7a2.393,2.393,0,0,1-1.09.3c-1.224,0-1.837-.8-1.837-2.2v-5.6h-1.487v-0.7h1.487v-2.1c0.119-.1.243-0.1,0.373-0.2a0.516,0.516,0,0,0,.372-0.1v2.4h2.182v0.7h-2.182v5.5a2.318,2.318,0,0,0,.271,1.2,0.954,0.954,0,0,0,.917.4,2.046,2.046,0,0,0,.994-0.3v0.7Zm1.819-4a4.373,4.373,0,0,0,.788,2.7,2.722,2.722,0,0,0,2.161.9,4.272,4.272,0,0,0,2.716-1v0.8a4.887,4.887,0,0,1-2.869.9,3.42,3.42,0,0,1-2.586-1.1,5.052,5.052,0,0,1-.986-3.3,4.442,4.442,0,0,1,1.03-3,3.172,3.172,0,0,1,2.679-1.3,2.868,2.868,0,0,1,2.368,1.1,4.762,4.762,0,0,1,.824,3v0.3h-6.125Zm5.35-.7a3.656,3.656,0,0,0-.687-2.2,2.228,2.228,0,0,0-1.762-.8,2.681,2.681,0,0,0-1.928.8,3.512,3.512,0,0,0-.941,2.2h5.318Zm13.205,4.8v-5a3.754,3.754,0,0,0-.489-2.2,1.882,1.882,0,0,0-1.548-.6,2.3,2.3,0,0,0-1.689.8,3.289,3.289,0,0,0-.711,2.1v4.9h-0.743v-5c0-1.9-.7-2.8-2.1-2.8a2.207,2.207,0,0,0-1.681.8,3.512,3.512,0,0,0-.671,2.2v4.8h-0.744v-8.3h0.744v1.4h0.032a2.747,2.747,0,0,1,4.077-1.1,2.713,2.713,0,0,1,.869,1.4,3.011,3.011,0,0,1,1.111-1.4,2.972,2.972,0,0,1,1.572-.5c1.81,0,2.715,1.1,2.715,3.4v5.1h-0.743Zm8.17,0v-1.7H918.1a2.986,2.986,0,0,1-1.151,1.4,3.26,3.26,0,0,1-1.677.5,2.373,2.373,0,0,1-1.867-.7,2.116,2.116,0,0,1-.687-1.6q0-2.25,2.869-2.7l2.545-.3q0-2.7-2-2.7a4.256,4.256,0,0,0-2.658,1.1v-0.9a6.646,6.646,0,0,1,1.248-.6,4.178,4.178,0,0,1,1.483-.3,2.6,2.6,0,0,1,1.976.8,3.334,3.334,0,0,1,.7,2.3v5.4h-0.744Zm-2.279-4.1a3.476,3.476,0,0,0-1.826.6,1.574,1.574,0,0,0-.526,1.3,1.556,1.556,0,0,0,.489,1.2,1.6,1.6,0,0,0,1.362.5,2.535,2.535,0,0,0,1.988-.9,3.155,3.155,0,0,0,.792-2.2v-0.9Zm-57.372-7.5h-0.8v3.3H855.26v0.7h2.422v7.6h0.8v-7.6h5.651v-0.7h-5.651v-3.3Zm6.634,0v11.6h0.792v-11.6h-0.792Zm10.1-2.3v-2.1c0-.1.008-0.2,0.023-0.5h-0.008a1.535,1.535,0,0,1-.109.3l-1.067,2.3h-0.067l-1.071-2.3q-0.053-.15-0.1-0.3h-0.01c0.009,0.2.014,0.3,0.014,0.4v2.2h-0.207v-3h0.193l1.119,2.4c0.007,0,.015.1,0.023,0.1s0.018,0,.027.1c0.014,0,.029,0,0.044.1h0.013l0.023-.1a1.429,1.429,0,0,1,.071-0.2l1.1-2.4h0.184v3h-0.2Zm2.923,0-0.343-.9h-1.3l-0.344.9h-0.228l1.132-3h0.2l1.12,3h-0.233Zm-0.92-2.5a0.681,0.681,0,0,1-.038-0.1c-0.01-.1-0.02-0.1-0.031-0.1h-0.009c-0.024.1-.047,0.1-0.069,0.2l-0.5,1.4h1.157Zm1.661,2.5v-3h0.751a1.4,1.4,0,0,1,1.136.4,1.361,1.361,0,0,1,.39,1.1,1.613,1.613,0,0,1-.418,1.1,1.466,1.466,0,0,1-1.152.4h-0.707Zm0.207-2.8v2.6h0.471a1.553,1.553,0,0,0,1.025-.3,1.5,1.5,0,0,0,.358-1,1.154,1.154,0,0,0-1.341-1.3h-0.513Zm2.681,2.8v-3h1.4v0.2h-1.2v1.2h1.109v0.2h-1.109v1.2h1.264v0.2h-1.471Zm3.316,0v-3h0.208v3h-0.208Zm3.1,0-1.787-2.4c-0.036-.1-0.068-0.1-0.1-0.2h-0.036s0,0.1,0,.1v2.5h-0.207v-3h0.159l1.774,2.4c0.04,0.1.082,0.1,0.128,0.2h0.011c-0.007-.1-0.011-0.2-0.011-0.2v-2.4h0.207v3h-0.146Zm2.724-1c0,0.7-.251,1.1-0.753,1.1a0.237,0.237,0,0,1-.228-0.1v-0.2a0.254,0.254,0,0,0,.232.1,0.545,0.545,0,0,0,.417-0.2,1.669,1.669,0,0,0,.127-0.7v-2h0.205v2Zm2.71,1-0.343-.9h-1.3l-0.343.9H891.4l1.132-3h0.2l1.119,3h-0.232Zm-0.921-2.5a0.674,0.674,0,0,1-.037-0.1c-0.01-.1-0.021-0.1-0.032-0.1h-0.008c-0.024.1-.047,0.1-0.069,0.2l-0.5,1.4H893.2Zm1.869,1.3v1.2h-0.207v-3h0.724a1.335,1.335,0,0,1,.707.2,1.015,1.015,0,0,1,.245.7,0.738,0.738,0,0,1-.273.6,0.982,0.982,0,0,1-.765.3h-0.431Zm0-1.6v1.4h0.427a0.65,0.65,0,0,0,.617-0.2,0.612,0.612,0,0,0,.211-0.5,0.641,0.641,0,0,0-.776-0.7h-0.479Zm3.95,2.8-0.343-.9h-1.3l-0.343.9H896.3l1.132-3h0.2l1.12,3h-0.233Zm-0.92-2.5a0.681,0.681,0,0,1-.038-0.1c-0.01-.1-0.02-0.1-0.031-0.1h-0.009c-0.023.1-.046,0.1-0.069,0.2l-0.5,1.4H898.1Zm3.783,2.5-1.787-2.4c-0.036-.1-0.068-0.1-0.1-0.2h-0.036s0,0.1,0,.1v2.5h-0.207v-3h0.159l1.774,2.4c0.04,0.1.082,0.1,0.128,0.2h0.011c-0.007-.1-0.011-0.2-0.011-0.2v-2.4h0.207v3h-0.146Zm18.045-30.5H854.714v13.6h64.709v-13.6h0Zm-6.949.6c-0.41.1-.809,0.2-1.171,0.3a15.775,15.775,0,0,0-1.883.6c-2.065.6-5.186,1.6-8.7,2.5a46.558,46.558,0,0,1-12.615,1.9h-2.071a46.572,46.572,0,0,1-12.617-1.9c-3.513-.9-6.634-1.9-8.7-2.5a15.775,15.775,0,0,0-1.883-.6c-0.363-.1-0.761-0.2-1.172-0.3h50.811Zm-50.811,12.4c0.411-.1.809-0.2,1.172-0.3,0.443-.1,1.078-0.3,1.883-0.5,2.065-.7,5.186-1.6,8.7-2.5a42.978,42.978,0,0,1,12.617-1.9h2.071a42.961,42.961,0,0,1,12.615,1.9c3.513,0.9,6.634,1.8,8.7,2.5,0.805,0.2,1.441.4,1.884,0.5,0.362,0.1.761,0.2,1.172,0.3H861.663Zm54.422,0a19.367,19.367,0,0,1-4.616-.9c-0.438-.1-1.071-0.3-1.873-0.5-2.07-.7-5.2-1.6-8.723-2.5a43.888,43.888,0,0,0-12.768-1.9h-2.071a43.9,43.9,0,0,0-12.77,1.9c-3.525.9-6.653,1.8-8.724,2.5-0.8.2-1.434,0.4-1.871,0.5a19.367,19.367,0,0,1-4.616.9h-2.734v-12.4h2.735a26.141,26.141,0,0,1,4.616.9,15.852,15.852,0,0,1,1.871.6c2.07,0.6,5.2,1.5,8.724,2.5a47.565,47.565,0,0,0,12.77,1.9h2.071a47.551,47.551,0,0,0,12.768-1.9c3.526-1,6.654-1.9,8.724-2.5a15.914,15.914,0,0,1,1.872-.6,26.107,26.107,0,0,1,4.616-.9h2.734v12.4h-2.734Z" transform="translate(-854.719 -10024.7)"/>
</svg>
