<svg width="50" height="57" viewBox="0 0 50 57" fill="none" xmlns="http://www.w3.org/2000/svg">
<path fill-rule="evenodd" clip-rule="evenodd" d="M22.0566 20.0154C21.9609 19.7203 22.0151 19.6193 22.0235 19.6056C22.0335 19.5891 22.076 19.5383 22.2292 19.5127C22.3798 19.4874 22.5764 19.4999 22.773 19.5503C22.9736 19.6018 23.1223 19.6793 23.1945 19.7398C23.335 19.8577 23.5227 20.0032 23.7258 20.1605L23.7258 20.1605L23.726 20.1606C23.8067 20.2232 23.8899 20.2876 23.9735 20.353C24.2759 20.5893 24.6017 20.8508 24.9037 21.1235C25.2077 21.398 25.4739 21.6717 25.6642 21.9299C25.8613 22.1971 25.9376 22.3951 25.9446 22.5246C25.955 22.7148 25.9883 22.917 26.0844 23.0892C26.1969 23.2908 26.3895 23.4361 26.638 23.4607C26.8435 23.481 27.0244 23.4112 27.1429 23.3533C27.2708 23.2908 27.3954 23.2069 27.5065 23.1252C27.6194 23.0422 27.7353 22.9486 27.844 22.8603L27.8821 22.8293L27.8821 22.8293C27.9799 22.7498 28.0725 22.6744 28.164 22.6041C28.3896 22.4309 28.5285 22.3537 28.5981 22.337C28.9111 22.262 29.2045 22.1687 29.4674 22.085L29.5425 22.0612C29.8322 21.9693 30.0793 21.894 30.3151 21.8499C30.7558 21.7676 31.1348 21.7968 31.5717 22.0968C31.9202 22.3361 32.431 22.7398 32.7445 23.1782C32.9004 23.3961 32.9808 23.5862 32.9974 23.7407C33.0117 23.8734 32.9836 24.0087 32.8483 24.1633C32.8483 24.1632 32.8482 24.1633 32.8479 24.1636C32.8424 24.168 32.7779 24.2209 32.5816 24.2832C32.3926 24.3433 32.1384 24.3946 31.8305 24.4322C31.2163 24.5072 30.4425 24.5209 29.6647 24.4687C28.8854 24.4163 28.127 24.2993 27.5388 24.1237C27.2441 24.0358 27.0093 23.9382 26.8405 23.8375C26.6651 23.733 26.6052 23.6516 26.5893 23.6173C26.4732 23.3668 26.176 23.2578 25.9254 23.3739C25.6749 23.49 25.5659 23.7872 25.682 24.0378C25.818 24.3311 26.0704 24.5426 26.3283 24.6964C26.5927 24.8541 26.9121 24.9803 27.2528 25.082C27.9354 25.2857 28.7729 25.411 29.5976 25.4664C30.424 25.522 31.2623 25.509 31.9516 25.4248C32.2953 25.3829 32.6157 25.3216 32.8844 25.2363C33.1348 25.1567 33.4153 25.0338 33.6007 24.8219C33.9183 24.4592 34.036 24.047 33.9917 23.634C33.9497 23.2428 33.7671 22.889 33.5579 22.5965C33.1414 22.014 32.5144 21.531 32.1377 21.2724C31.4345 20.7896 30.7705 20.7476 30.1315 20.8669C29.8273 20.9237 29.5254 21.0175 29.2401 21.108L29.1681 21.1308C28.9005 21.2159 28.6408 21.2985 28.3649 21.3646C28.0629 21.437 27.7701 21.6457 27.5549 21.8111C27.4514 21.8905 27.3472 21.9753 27.2508 22.0537L27.2133 22.0843C27.108 22.1698 27.0132 22.2461 26.9255 22.3112C26.8659 21.9534 26.6787 21.6207 26.4691 21.3364C26.222 21.0013 25.9006 20.6764 25.5738 20.3813C25.245 20.0844 24.8969 19.8055 24.5893 19.5651C24.4939 19.4905 24.4038 19.4207 24.3196 19.3555L24.3194 19.3553L24.3194 19.3553C24.1249 19.2047 23.962 19.0784 23.8373 18.9738C23.6151 18.7874 23.3144 18.6568 23.0215 18.5817C22.7247 18.5055 22.3838 18.4728 22.0639 18.5264C21.7466 18.5796 21.3855 18.7316 21.1701 19.0843C20.953 19.4398 20.9596 19.8745 21.1054 20.324C21.4419 21.3612 21.8324 22.1406 22.4146 22.7731C22.679 23.0604 22.976 23.3097 23.3122 23.5369C23.1772 23.5919 23.0674 23.7052 23.022 23.8557C22.8521 24.419 22.5898 24.906 22.2909 25.4609C22.2286 25.5764 22.1648 25.6948 22.1 25.8175C20.4613 28.9159 19.0571 32.0882 17.8794 35.4412C15.8979 41.0832 15.9603 47.119 16.0211 52.9936C16.0315 54.0014 16.0419 55.0045 16.0419 56C16.0419 56.2761 16.2658 56.5 16.5419 56.5C16.818 56.5 17.0419 56.2761 17.0419 56C17.0419 54.9836 17.0318 53.967 17.0216 52.9517C16.9629 47.0693 16.9047 41.2342 18.8229 35.7725C19.9832 32.4689 21.3672 29.342 22.9839 26.285C23.0406 26.1779 23.099 26.0699 23.1581 25.9605C23.4588 25.4038 23.7777 24.8134 23.9794 24.1444C23.9996 24.0776 24.0051 24.0099 23.9978 23.9447C24.2172 24.0608 24.4504 24.1729 24.6987 24.284C24.9507 24.3967 25.2465 24.2838 25.3593 24.0317C25.472 23.7797 25.3591 23.4839 25.107 23.3711C24.198 22.9645 23.5996 22.584 23.1503 22.0959C22.7025 21.6093 22.3692 20.979 22.0566 20.0154ZM26.6704 22.4689L26.6728 22.4682C26.6712 22.4687 26.6704 22.4689 26.6704 22.4689Z" fill="#727272"/>
</svg>
