{
    "asset" : {
        "generator" : "Khronos glTF Blender I/O v1.3.48",
        "version" : "2.0"
    },
    "scene" : 0,
    "scenes" : [
        {
            "name" : "Scene",
            "nodes" : [
                3
            ]
        }
    ],
    "nodes" : [
        {
            "mesh" : 0,
            "name" : "netting"
        },
        {
            "children" : [
                0
            ],
            "mesh" : 1,
            "name" : "chute"
        },
        {
            "children" : [
                1
            ],
            "mesh" : 2,
            "name" : "ventRopes"
        },
        {
            "children" : [
                2
            ],
            "mesh" : 3,
            "name" : "_root_chute",
            "translation" : [
                0,
                0.054627999663352966,
                0
            ]
        }
    ],
    "materials" : [
        {
            "alphaMode" : "BLEND",
            "emissiveFactor" : [
                0,
                0,
                0
            ],
            "name" : "tex_a_",
            "pbrMetallicRoughness" : {
                "baseColorTexture" : {
                    "index" : 0,
                    "texCoord" : 0
                },
                "metallicFactor" : 0,
                "roughnessFactor" : 0.5
            }
        },
        {
            "emissiveFactor" : [
                0,
                0,
                0
            ],
            "name" : "tex",
            "pbrMetallicRoughness" : {
                "baseColorTexture" : {
                    "index" : 1,
                    "texCoord" : 0
                },
                "metallicFactor" : 0,
                "roughnessFactor" : 0.5
            }
        },
        {
            "emissiveFactor" : [
                0,
                0,
                0
            ],
            "name" : "newChute",
            "pbrMetallicRoughness" : {
                "baseColorTexture" : {
                    "index" : 2,
                    "texCoord" : 0
                },
                "metallicFactor" : 0,
                "roughnessFactor" : 0.5
            }
        },
        {
            "doubleSided" : true,
            "emissiveFactor" : [
                0,
                0,
                0
            ],
            "name" : "tex.001",
            "pbrMetallicRoughness" : {
                "baseColorTexture" : {
                    "index" : 3,
                    "texCoord" : 0
                },
                "metallicFactor" : 0,
                "roughnessFactor" : 0.5
            }
        },
        {
            "alphaMode" : "BLEND",
            "emissiveFactor" : [
                0,
                0,
                0
            ],
            "name" : "newChuteTrans",
            "pbrMetallicRoughness" : {
                "baseColorTexture" : {
                    "index" : 4,
                    "texCoord" : 0
                },
                "metallicFactor" : 0,
                "roughnessFactor" : 0.5
            }
        },
        {
            "alphaMode" : "BLEND",
            "doubleSided" : true,
            "emissiveFactor" : [
                0,
                0,
                0
            ],
            "name" : "transparent",
            "pbrMetallicRoughness" : {
                "baseColorTexture" : {
                    "index" : 5,
                    "texCoord" : 0
                },
                "metallicFactor" : 0,
                "roughnessFactor" : 0.5
            }
        }
    ],
    "meshes" : [
        {
            "name" : "Sphere.005",
            "primitives" : [
                {
                    "attributes" : {
                        "POSITION" : 0,
                        "NORMAL" : 1,
                        "TEXCOORD_0" : 2
                    },
                    "indices" : 3,
                    "material" : 0
                }
            ]
        },
        {
            "name" : "Sphere.006",
            "primitives" : [
                {
                    "attributes" : {
                        "POSITION" : 4,
                        "NORMAL" : 5,
                        "TEXCOORD_0" : 6
                    },
                    "indices" : 7,
                    "material" : 1
                },
                {
                    "attributes" : {
                        "POSITION" : 8,
                        "NORMAL" : 9,
                        "TEXCOORD_0" : 10
                    },
                    "indices" : 11,
                    "material" : 2
                },
                {
                    "attributes" : {
                        "POSITION" : 12,
                        "NORMAL" : 13,
                        "TEXCOORD_0" : 14
                    },
                    "indices" : 15,
                    "material" : 3
                }
            ]
        },
        {
            "name" : "Sphere.008",
            "primitives" : [
                {
                    "attributes" : {
                        "POSITION" : 16,
                        "NORMAL" : 17,
                        "TEXCOORD_0" : 18
                    },
                    "indices" : 19,
                    "material" : 4
                }
            ]
        },
        {
            "name" : "Cube.023",
            "primitives" : [
                {
                    "attributes" : {
                        "POSITION" : 20,
                        "NORMAL" : 21
                    },
                    "indices" : 22,
                    "material" : 5
                }
            ]
        }
    ],
    "textures" : [
        {
            "source" : 0
        },
        {
            "source" : 0
        },
        {
            "source" : 1
        },
        {
            "source" : 2
        },
        {
            "source" : 3
        },
        {
            "source" : 4
        }
    ],
    "images" : [
        {
            "mimeType" : "image/png",
            "name" : "tex_01_chute",
            "uri" : "tex_01_chute.png"
        },
        {
            "mimeType" : "image/jpeg",
            "name" : "newChuteCode_diff",
            "uri" : "newChuteCode_diff.jpg"
        },
        {
            "mimeType" : "image/png",
            "name" : "tex_01_chute.png",
            "uri" : "tex_01_chute_png.png"
        },
        {
            "mimeType" : "image/png",
            "name" : "newChutediff",
            "uri" : "newChutediff.png"
        },
        {
            "mimeType" : "image/png",
            "name" : "clear",
            "uri" : "clear.png"
        }
    ],
    "accessors" : [
        {
            "bufferView" : 0,
            "componentType" : 5126,
            "count" : 1440,
            "max" : [
                7.964661598205566,
                44.90606689453125,
                7.964659690856934
            ],
            "min" : [
                -7.96466064453125,
                44.136837005615234,
                -7.964661598205566
            ],
            "type" : "VEC3"
        },
        {
            "bufferView" : 1,
            "componentType" : 5126,
            "count" : 1440,
            "type" : "VEC3"
        },
        {
            "bufferView" : 2,
            "componentType" : 5126,
            "count" : 1440,
            "type" : "VEC2"
        },
        {
            "bufferView" : 3,
            "componentType" : 5123,
            "count" : 3840,
            "type" : "SCALAR"
        },
        {
            "bufferView" : 4,
            "componentType" : 5126,
            "count" : 624,
            "max" : [
                0.35533371567726135,
                8.614433288574219,
                0.31898361444473267
            ],
            "min" : [
                -0.19724179804325104,
                1.0703086853027344,
                -0.3190480172634125
            ],
            "type" : "VEC3"
        },
        {
            "bufferView" : 5,
            "componentType" : 5126,
            "count" : 624,
            "type" : "VEC3"
        },
        {
            "bufferView" : 6,
            "componentType" : 5126,
            "count" : 624,
            "type" : "VEC2"
        },
        {
            "bufferView" : 7,
            "componentType" : 5123,
            "count" : 1686,
            "type" : "SCALAR"
        },
        {
            "bufferView" : 8,
            "componentType" : 5126,
            "count" : 3456,
            "max" : [
                7.964661598205566,
                52.675758361816406,
                7.964661598205566
            ],
            "min" : [
                -7.964667320251465,
                44.90605926513672,
                -7.964661598205566
            ],
            "type" : "VEC3"
        },
        {
            "bufferView" : 9,
            "componentType" : 5126,
            "count" : 3456,
            "type" : "VEC3"
        },
        {
            "bufferView" : 10,
            "componentType" : 5126,
            "count" : 3456,
            "type" : "VEC2"
        },
        {
            "bufferView" : 11,
            "componentType" : 5123,
            "count" : 15600,
            "type" : "SCALAR"
        },
        {
            "bufferView" : 12,
            "componentType" : 5126,
            "count" : 960,
            "max" : [
                7.912380218505859,
                48.53382110595703,
                7.912370204925537
            ],
            "min" : [
                -7.912367820739746,
                8.614662170410156,
                -7.9123663902282715
            ],
            "type" : "VEC3"
        },
        {
            "bufferView" : 13,
            "componentType" : 5126,
            "count" : 960,
            "type" : "VEC3"
        },
        {
            "bufferView" : 14,
            "componentType" : 5126,
            "count" : 960,
            "type" : "VEC2"
        },
        {
            "bufferView" : 15,
            "componentType" : 5123,
            "count" : 2880,
            "type" : "SCALAR"
        },
        {
            "bufferView" : 16,
            "componentType" : 5126,
            "count" : 320,
            "max" : [
                1.029977560043335,
                52.675758361816406,
                1.0299779176712036
            ],
            "min" : [
                -1.0299824476242065,
                52.675750732421875,
                -1.0299774408340454
            ],
            "type" : "VEC3"
        },
        {
            "bufferView" : 17,
            "componentType" : 5126,
            "count" : 320,
            "type" : "VEC3"
        },
        {
            "bufferView" : 18,
            "componentType" : 5126,
            "count" : 320,
            "type" : "VEC2"
        },
        {
            "bufferView" : 19,
            "componentType" : 5123,
            "count" : 948,
            "type" : "SCALAR"
        },
        {
            "bufferView" : 20,
            "componentType" : 5126,
            "count" : 8,
            "max" : [
                0.5000002384185791,
                0.5,
                0.5000002980232239
            ],
            "min" : [
                -0.5000001788139343,
                -0.5,
                -0.5000001788139343
            ],
            "type" : "VEC3"
        },
        {
            "bufferView" : 21,
            "componentType" : 5126,
            "count" : 8,
            "type" : "VEC3"
        },
        {
            "bufferView" : 22,
            "componentType" : 5123,
            "count" : 36,
            "type" : "SCALAR"
        }
    ],
    "bufferViews" : [
        {
            "buffer" : 0,
            "byteLength" : 17280,
            "byteOffset" : 0
        },
        {
            "buffer" : 0,
            "byteLength" : 17280,
            "byteOffset" : 17280
        },
        {
            "buffer" : 0,
            "byteLength" : 11520,
            "byteOffset" : 34560
        },
        {
            "buffer" : 0,
            "byteLength" : 7680,
            "byteOffset" : 46080
        },
        {
            "buffer" : 0,
            "byteLength" : 7488,
            "byteOffset" : 53760
        },
        {
            "buffer" : 0,
            "byteLength" : 7488,
            "byteOffset" : 61248
        },
        {
            "buffer" : 0,
            "byteLength" : 4992,
            "byteOffset" : 68736
        },
        {
            "buffer" : 0,
            "byteLength" : 3372,
            "byteOffset" : 73728
        },
        {
            "buffer" : 0,
            "byteLength" : 41472,
            "byteOffset" : 77100
        },
        {
            "buffer" : 0,
            "byteLength" : 41472,
            "byteOffset" : 118572
        },
        {
            "buffer" : 0,
            "byteLength" : 27648,
            "byteOffset" : 160044
        },
        {
            "buffer" : 0,
            "byteLength" : 31200,
            "byteOffset" : 187692
        },
        {
            "buffer" : 0,
            "byteLength" : 11520,
            "byteOffset" : 218892
        },
        {
            "buffer" : 0,
            "byteLength" : 11520,
            "byteOffset" : 230412
        },
        {
            "buffer" : 0,
            "byteLength" : 7680,
            "byteOffset" : 241932
        },
        {
            "buffer" : 0,
            "byteLength" : 5760,
            "byteOffset" : 249612
        },
        {
            "buffer" : 0,
            "byteLength" : 3840,
            "byteOffset" : 255372
        },
        {
            "buffer" : 0,
            "byteLength" : 3840,
            "byteOffset" : 259212
        },
        {
            "buffer" : 0,
            "byteLength" : 2560,
            "byteOffset" : 263052
        },
        {
            "buffer" : 0,
            "byteLength" : 1896,
            "byteOffset" : 265612
        },
        {
            "buffer" : 0,
            "byteLength" : 96,
            "byteOffset" : 267508
        },
        {
            "buffer" : 0,
            "byteLength" : 96,
            "byteOffset" : 267604
        },
        {
            "buffer" : 0,
            "byteLength" : 72,
            "byteOffset" : 267700
        }
    ],
    "buffers" : [
        {
            "byteLength" : 267772,
            "uri" : "edl2020_chute.bin"
        }
    ]
}
