# WaveFront *.obj file (generated by CINEMA 4D) 
 
mtllib ./glasses.mtl 
 
v 2.04 25.93 5.98 
v 2.04 25.70 6.08 
v 1.30 25.72 5.98 
v 1.41 25.52 6.08 
v 0.76 25.15 5.98 
v 0.95 25.03 6.07 
v 0.57 24.37 5.98 
v 0.78 24.37 6.07 
v 0.76 23.58 5.98 
v 0.95 23.70 6.07 
v 1.30 23.01 5.98 
v 1.41 23.21 6.08 
v 2.04 22.80 5.98 
v 2.04 23.03 6.08 
v 2.77 23.01 5.98 
v 2.66 23.21 6.08 
v 3.31 23.58 5.98 
v 3.12 23.70 6.07 
v 3.51 24.37 5.98 
v 3.29 24.37 6.07 
v 3.31 25.15 5.98 
v 3.12 25.03 6.07 
v 2.77 25.72 5.98 
v 2.66 25.52 6.08 
v 2.04 25.93 5.87 
v 2.04 25.70 5.77 
v 1.30 25.72 5.87 
v 1.41 25.52 5.77 
v 0.76 25.15 5.87 
v 0.95 25.03 5.77 
v 0.57 24.37 5.87 
v 0.78 24.37 5.77 
v 0.76 23.58 5.87 
v 0.95 23.70 5.77 
v 1.30 23.01 5.87 
v 1.41 23.21 5.77 
v 2.04 22.80 5.87 
v 2.04 23.03 5.77 
v 2.77 23.01 5.87 
v 2.66 23.21 5.77 
v 3.31 23.58 5.87 
v 3.12 23.70 5.77 
v 3.51 24.37 5.87 
v 3.29 24.37 5.77 
v 3.31 25.15 5.87 
v 3.12 25.03 5.77 
v 2.77 25.72 5.87 
v 2.66 25.52 5.77 
v -1.86 25.93 5.98 
v -1.86 25.70 6.08 
v -2.60 25.72 5.98 
v -2.49 25.52 6.08 
v -3.14 25.15 5.98 
v -2.95 25.03 6.07 
v -3.33 24.37 5.98 
v -3.12 24.37 6.07 
v -3.14 23.58 5.98 
v -2.95 23.70 6.07 
v -2.60 23.01 5.98 
v -2.49 23.21 6.08 
v -1.86 22.80 5.98 
v -1.86 23.03 6.08 
v -1.13 23.01 5.98 
v -1.24 23.21 6.08 
v -0.59 23.58 5.98 
v -0.78 23.70 6.07 
v -0.39 24.37 5.98 
v -0.61 24.37 6.07 
v -0.59 25.15 5.98 
v -0.78 25.03 6.07 
v -1.13 25.72 5.98 
v -1.24 25.52 6.08 
v -1.86 25.93 5.87 
v -1.86 25.70 5.77 
v -2.60 25.72 5.87 
v -2.49 25.52 5.77 
v -3.14 25.15 5.87 
v -2.95 25.03 5.77 
v -3.33 24.37 5.87 
v -3.12 24.37 5.77 
v -3.14 23.58 5.87 
v -2.95 23.70 5.77 
v -2.60 23.01 5.87 
v -2.49 23.21 5.77 
v -1.86 22.80 5.87 
v -1.86 23.03 5.77 
v -1.13 23.01 5.87 
v -1.24 23.21 5.77 
v -0.59 23.58 5.87 
v -0.78 23.70 5.77 
v -0.39 24.37 5.87 
v -0.61 24.37 5.77 
v -0.59 25.15 5.87 
v -0.78 25.03 5.77 
v -1.13 25.72 5.87 
v -1.24 25.52 5.77 
v -0.61 24.80 5.98 
v 0.89 24.94 5.78 
v -0.61 24.94 5.78 
v 0.89 25.08 5.99 
v -0.61 25.09 5.98 
v 0.89 24.80 5.99 
# 102 vertices 
 
vn 0.73 0.68 0 
vn 0.27 0.96 0 
vn -0.27 0.96 0 
vn -0.73 0.68 0 
vn -0.97 0.24 0 
vn -0.97 -0.24 0 
vn 0 0.48 0.88 
vn -0.25 0.41 0.88 
vn 0 -1 0 
vn 0.52 -0.85 0 
vn 0 0.48 -0.88 
vn -0.25 0.41 -0.88 
vn -0.43 0.24 0.87 
vn 0.88 -0.48 0 
vn -0.43 0.24 -0.87 
vn -0.50 0 0.87 
vn 1 0 0 
vn -0.50 0 -0.87 
vn -0.43 -0.24 0.87 
vn 0.88 0.48 0 
vn -0.43 -0.24 -0.87 
vn -0.25 -0.41 0.88 
vn 0.52 0.85 0 
vn -0.25 -0.41 -0.88 
vn 0 -0.48 0.88 
vn 0 1 0 
vn 0 -0.48 -0.88 
vn 0.25 -0.41 0.88 
vn -0.52 0.85 0 
vn 0.25 -0.41 -0.88 
vn 0.43 -0.24 0.87 
vn -0.88 0.48 0 
vn 0.43 -0.24 -0.87 
vn 0.50 0 0.87 
vn -1 0 0 
vn 0.50 0 -0.87 
vn 0.43 0.24 0.87 
vn -0.88 -0.48 0 
vn 0.43 0.24 -0.87 
vn 0.25 0.41 0.88 
vn -0.52 -0.85 0 
vn 0.25 0.41 -0.88 
vn -0.73 -0.68 0 
vn -0.27 -0.96 0 
vn 0.27 -0.96 0 
vn 0.73 -0.68 0 
vn 0.97 -0.24 0 
vn 0.97 0.24 0 
vn 0 0.85 -0.52 
vn 0 0 1 
vn 0 -0.85 -0.52 
# 51 normals 
 
o glasses 
usemtl default 
f 47//1 23//1 21//1 45//1 
f 25//2 1//2 23//2 47//2 
f 27//3 3//3 1//3 25//3 
f 29//4 5//4 3//4 27//4 
f 31//5 7//5 5//5 29//5 
f 33//6 9//6 7//6 31//6 
f 3//8 4//8 2//7 1//7 
f 4//10 28//10 26//9 2//9 
f 28//12 27//12 25//11 26//11 
f 5//13 6//13 4//8 3//8 
f 6//14 30//14 28//10 4//10 
f 30//15 29//15 27//12 28//12 
f 7//16 8//16 6//13 5//13 
f 8//17 32//17 30//14 6//14 
f 32//18 31//18 29//15 30//15 
f 9//19 10//19 8//16 7//16 
f 10//20 34//20 32//17 8//17 
f 34//21 33//21 31//18 32//18 
f 11//22 12//22 10//19 9//19 
f 12//23 36//23 34//20 10//20 
f 36//24 35//24 33//21 34//21 
f 13//25 14//25 12//22 11//22 
f 14//26 38//26 36//23 12//23 
f 38//27 37//27 35//24 36//24 
f 15//28 16//28 14//25 13//25 
f 16//29 40//29 38//26 14//26 
f 40//30 39//30 37//27 38//27 
f 17//31 18//31 16//28 15//28 
f 18//32 42//32 40//29 16//29 
f 42//33 41//33 39//30 40//30 
f 19//34 20//34 18//31 17//31 
f 20//35 44//35 42//32 18//32 
f 44//36 43//36 41//33 42//33 
f 21//37 22//37 20//34 19//34 
f 22//38 46//38 44//35 20//35 
f 46//39 45//39 43//36 44//36 
f 23//40 24//40 22//37 21//37 
f 24//41 48//41 46//38 22//38 
f 48//42 47//42 45//39 46//39 
f 1//7 2//7 24//40 23//40 
f 2//9 26//9 48//41 24//41 
f 26//11 25//11 47//42 48//42 
f 35//43 11//43 9//43 33//43 
f 37//44 13//44 11//44 35//44 
f 39//45 15//45 13//45 37//45 
f 41//46 17//46 15//46 39//46 
f 43//47 19//47 17//47 41//47 
f 45//48 21//48 19//48 43//48 
f 95//1 71//1 69//1 93//1 
f 73//2 49//2 71//2 95//2 
f 75//3 51//3 49//3 73//3 
f 77//4 53//4 51//4 75//4 
f 79//5 55//5 53//5 77//5 
f 81//6 57//6 55//6 79//6 
f 51//8 52//8 50//7 49//7 
f 52//10 76//10 74//9 50//9 
f 76//12 75//12 73//11 74//11 
f 53//13 54//13 52//8 51//8 
f 54//14 78//14 76//10 52//10 
f 78//15 77//15 75//12 76//12 
f 55//16 56//16 54//13 53//13 
f 56//17 80//17 78//14 54//14 
f 80//18 79//18 77//15 78//15 
f 57//19 58//19 56//16 55//16 
f 58//20 82//20 80//17 56//17 
f 82//21 81//21 79//18 80//18 
f 59//22 60//22 58//19 57//19 
f 60//23 84//23 82//20 58//20 
f 84//24 83//24 81//21 82//21 
f 61//25 62//25 60//22 59//22 
f 62//26 86//26 84//23 60//23 
f 86//27 85//27 83//24 84//24 
f 63//28 64//28 62//25 61//25 
f 64//29 88//29 86//26 62//26 
f 88//30 87//30 85//27 86//27 
f 65//31 66//31 64//28 63//28 
f 66//32 90//32 88//29 64//29 
f 90//33 89//33 87//30 88//30 
f 67//34 68//34 66//31 65//31 
f 68//35 92//35 90//32 66//32 
f 92//36 91//36 89//33 90//33 
f 69//37 70//37 68//34 67//34 
f 70//38 94//38 92//35 68//35 
f 94//39 93//39 91//36 92//36 
f 71//40 72//40 70//37 69//37 
f 72//41 96//41 94//38 70//38 
f 96//42 95//42 93//39 94//39 
f 49//7 50//7 72//40 71//40 
f 50//9 74//9 96//41 72//41 
f 74//11 73//11 95//42 96//42 
f 83//43 59//43 57//43 81//43 
f 85//44 61//44 59//44 83//44 
f 87//45 63//45 61//45 85//45 
f 89//46 65//46 63//46 87//46 
f 91//47 67//47 65//47 89//47 
f 93//48 69//48 67//48 91//48 
f 101//49 100//49 98//49 99//49 
f 97//50 102//50 100//50 101//50 
f 99//51 98//51 102//51 97//51 
 
