<svg width="74" height="16" viewBox="0 0 74 16" fill="none" xmlns="http://www.w3.org/2000/svg">
<path d="M17.96 1.16L17.7 3.06H16.18L15.6 7.24H17.5L17.22 9.14H15.32L14.48 15.18H10.68L11.52 9.14H6.02L4.22 15.18H0.42L2.22 9.14H0.5L0.78 7.24H2.78L4.02 3.06H1.74L2 1.16H17.96ZM6.58 7.24H11.8L12.38 3.06H7.82L6.58 7.24ZM21.0584 3.12L21.3984 0.779999H23.9784L23.6384 3.12H24.4384L24.7584 0.799999H27.3384L27.0184 3.12H27.6184L27.3584 5.02H26.7384L26.0984 9.7L24.2384 11.96L25.8984 15.16H23.1384L22.5184 14.06L21.6184 15.16H18.7184L21.3184 11.98L20.1184 9.84L20.7984 5.02H20.1584L20.4184 3.12H21.0584ZM35.9784 7.98L35.0184 14.84H26.3584L27.3184 7.98H35.9784ZM36.1784 2.66L36.4784 7.6H33.5584L33.5184 7L27.0584 7.52L27.3384 5.54L29.8384 1.32L29.3784 0.779999H33.3784L30.6984 5.32L33.4184 5.14L33.2784 2.66H36.1784ZM32.4584 12.98L32.8984 9.84H29.9184L29.4784 12.98H32.4584ZM23.5984 9.18L24.1784 5.02H23.3784L22.7984 9.18L23.0984 9.78L23.5984 9.18ZM39.3969 3.36L39.6769 1.4L39.1969 0.819999H43.1369L42.7769 3.36H43.4569L43.1969 5.14H42.5169L42.2169 7.3L42.7369 7.14L42.4369 9.22L41.9169 9.38L41.2969 13.84C41.2435 14.2267 41.0702 14.5467 40.7769 14.8C40.4835 15.04 40.1502 15.16 39.7769 15.16H36.6769L37.9969 13.36L38.3969 10.5L37.2769 10.84L37.5769 8.74L38.6969 8.4L39.1569 5.14H38.0969L38.3569 3.36H39.3969ZM46.0569 15.18L46.9169 9.14H43.2769L43.5369 7.24H47.1769L47.3969 5.72H51.0369L50.8169 7.24H54.4569L54.1969 9.14H50.5569L49.6969 15.18H46.0569ZM51.6769 6.48L50.3969 3.82H51.8569L51.9769 3.06H47.2369L47.1169 3.82H48.5569L46.5769 6.48H43.6569L45.3569 4.2H43.9769L44.3169 1.72L43.8569 1.16H55.3369L54.9169 4.2H53.4969L54.5769 6.48H51.6769ZM50.9369 15.18L50.9969 9.72H53.5769L53.5369 15.18H50.9369ZM42.2369 15.18L43.7769 9.72H46.3569L44.8169 15.18H42.2369ZM57.0753 9.86L59.8153 8.74H57.1953L57.3353 7.62L58.7953 7.02H56.7153L57.1353 4.02H63.4953L63.5953 3.42H57.5753L57.8353 1.52H63.8153L63.1953 0.799999H67.4553L67.3553 1.52H73.0553L72.7953 3.42H67.0753L66.9953 4.02H73.1353L72.7153 7.04H69.4153L69.5953 5.72H60.1353L60.0153 6.52L61.0353 6.1H65.2353L62.4153 7.22H71.8953L71.6953 8.74H63.9953L61.2353 9.86H67.8953L67.7753 9.12H71.5753L71.9953 11.78H68.1953L68.1353 11.38H65.9553L65.5553 14.22C65.5153 14.4867 65.3553 14.7067 65.0753 14.88C64.7953 15.04 64.462 15.12 64.0753 15.12H60.4953L62.1953 13.84L62.5353 11.38H56.8553L57.0753 9.86ZM71.5753 14.8H68.1553L66.9953 12.14H70.4153L71.5753 14.8ZM59.0553 14.82H55.6353L57.9153 12.16H61.3153L59.0553 14.82Z" fill="#0576F4"/>
</svg>
