<svg xmlns="http://www.w3.org/2000/svg" viewBox="0 0 816.8 178.43"><defs><clipPath id="a" transform="translate(-.85 -2.37)"><path fill="none" d="M0 0h822v184H0z"/></clipPath></defs><g data-name="Layer 2"><g data-name="Layer 1" fill="#fff"><g clip-path="url(#a)"><path d="M0 0h22.48v6.68h-6.67v36.5H6.64V6.68H0zM32.34 0h8.9v17.1h6.09V0h8.9v43.18h-8.9V23.74h-6.09v19.44h-8.9zM68.31 0h17.71v6.68h-8.81v10.59h8.2v6.68h-8.2v12.58h9.57v6.65H68.31zM318.94 135.25h22.49v6.68h-6.68v36.5h-9.16v-36.5h-6.65zM351.28 135.25h8.87v17.1h6.09v-17.1h8.91v43.18h-8.9v-19.44h-6.1v19.44h-8.9zM387.2 135.25h17.71v6.68h-8.82v10.59h8.2v6.68h-8.2v12.59h9.58v6.64H387.2z"/></g><path d="M345.15 88.54v13.91q0 8.78-2.65 12.07t-9.35 3.29q-6.79 0-9.42-3.26t-2.64-12.1V88.54q0-8.75 2.64-12t9.42-3.28q6.8 0 9.43 3.26t2.57 12.02zm-8.87-2q0-4.19-.68-5.43a2.62 2.62 0 00-2.45-1.21 2.59 2.59 0 00-2.49 1.29c-.46.86-.7 2.66-.7 5.39v17.86q0 4.16.69 5.4a3.11 3.11 0 005 0q.71-1.28.7-5.37zM357.07 73.9h18.08v6.73h-9.16v11.16h8.61v6.64h-8.61v18.65h-8.9z"/><g clip-path="url(#a)"><path d="M1.28 64.95h56.53v16.78H41.03v91.78h-23V81.73H1.28zM75.06 64.95h22.38v76.77q0 10.38 1.62 13.54t5.89 3.17c2.79 0 4.72-1.06 5.77-3.17s1.59-6.62 1.59-13.54V64.95h22.44v71.76q0 22-6.58 30.33t-23.37 8.31q-16.71 0-23.22-8.2t-6.52-30.44zM157.52 64.95h27.16q16 0 22.93 5.89t6.95 19.28v4.57q0 11.7-5 17.37T193 119.42q12 1 16.78 7t4.78 20.46v26.64h-22.41v-33.35q0-8.16-2.25-10.34c-1.49-1.45-4.5-2.17-9-2.17h-2.43v45.85h-21zm21 16.19v30.55h2q6.54 0 9-2.69t2.5-9.68v-5.81q0-7-2.5-9.68t-9-2.69zM236.08 64.95h29.3l16.11 91.86h1.48l-1.62-91.86h18.25v108.56h-29.59l-15.86-91.88h-1.47l1.47 91.88h-18.07zM478.49 89.09v8.17h-21.86v-9.63c0-2.89-.41-4.93-1.25-6.11s-2.28-1.76-4.34-1.76-3.41.57-4.19 1.72-1.18 3.21-1.18 6.15v7.07a13.4 13.4 0 002 7.32q2 3.2 7.77 7.47l9.2 6.92c.49.34 1.22.88 2.21 1.62q6.61 4.86 9 8.9a22 22 0 012.65 6.74 42.62 42.62 0 01.81 8.94v6.62q0 12.6-7.77 19.36t-22.19 6.77q-14.72 0-21.16-6.33t-6.44-21v-8h22.45v9.2q0 5 1.47 7.11t5 2.1c2.35 0 4-.65 4.93-2s1.4-3.71 1.4-7.25v-4.16a15.26 15.26 0 00-2-7.91q-2-3.35-9.42-8.8l-9.2-7a31.12 31.12 0 01-9.5-10.6 29.54 29.54 0 01-2.73-13.46v-9.49q0-11 7.92-17.7t21.08-6.74q12.51 0 18.91 6.52t6.43 19.24zM558.68 94.98v4.2h-21.72v-2.36q0-10.38-1.62-13.58t-5.74-3.2q-4.19 0-5.81 3.2t-1.64 13.58v44.9q0 10.23 1.69 13.54t5.89 3.31q4 0 5.63-3.09t1.6-11.85v-6.11h21.72v6q0 17.82-6.33 24.85t-22.16 7q-17.07 0-23.7-8.2t-6.62-30.44v-35q0-22.08 6.66-30.25t23.81-8.17q15.67 0 22 7t6.34 24.67zM579.15 64.95h27.16q16 0 22.93 5.89t6.95 19.28v4.57q0 11.7-5 17.37t-16.56 7.36q12 1 16.78 7t4.78 20.46v26.64h-22.36v-33.35q0-8.16-2.25-10.34c-1.49-1.45-4.5-2.17-9-2.17h-2.43v45.85h-21zm21 16.19v30.55h2q6.54 0 9-2.69t2.5-9.68v-5.81q0-7-2.5-9.68t-9-2.69zM657.72 64.95h44.53v16.78h-22.1v26.65h20.61v16.78h-20.61v31.65h24v16.7h-46.43zM720.15 64.95h21.86l2.73 73.31h1l9.64-73.31h26.27l10.23 73.31h1l4.42-73.31h19.43l-13.58 108.56h-23.3L767.78 88.8h-1l-11.19 84.71h-23.8z"/></g></g></g></svg>