{
    "asset" : {
        "generator" : "Khronos glTF Blender I/O v1.1.46",
        "version" : "2.0"
    },
    "scene" : 0,
    "scenes" : [
        {
            "name" : "Scene",
            "nodes" : [
                2
            ]
        }
    ],
    "nodes" : [
        {
            "mesh" : 0,
            "name" : "frame_etc",
            "rotation" : [
                0,
                -0.258819043636322,
                0,
                0.9659258127212524
            ],
            "translation" : [
                -0.0038177669048309326,
                0.6194792985916138,
                0.006414830684661865
            ]
        },
        {
            "mesh" : 1,
            "name" : "solar_panels.",
            "rotation" : [
                0,
                -0.5,
                0,
                0.8660253882408142
            ],
            "translation" : [
                0,
                1.024376392364502,
                0
            ]
        },
        {
            "children" : [
                0,
                1
            ],
            "mesh" : 2,
            "name" : "_root_cruise"
        }
    ],
    "materials" : [
        {
            "doubleSided" : true,
            "emissiveFactor" : [
                0,
                0,
                0
            ],
            "name" : "tex_01",
            "pbrMetallicRoughness" : {
                "baseColorTexture" : {
                    "index" : 0,
                    "texCoord" : 0
                },
                "metallicFactor" : 1,
                "roughnessFactor" : 0.5
            }
        },
        {
            "doubleSided" : true,
            "emissiveFactor" : [
                0,
                0,
                0
            ],
            "name" : "sides_AO",
            "pbrMetallicRoughness" : {
                "baseColorTexture" : {
                    "index" : 1,
                    "texCoord" : 0
                },
                "metallicFactor" : 0,
                "roughnessFactor" : 0.5
            }
        },
        {
            "doubleSided" : true,
            "emissiveFactor" : [
                0,
                0,
                0
            ],
            "name" : "foil_gold",
            "normalTexture" : {
                "index" : 2,
                "texCoord" : 0
            },
            "pbrMetallicRoughness" : {
                "baseColorFactor" : [
                    0.6196078658103943,
                    0.4588235318660736,
                    0.062745101749897,
                    1
                ],
                "metallicFactor" : 1,
                "roughnessFactor" : 0.20000000298023224
            }
        },
        {
            "doubleSided" : true,
            "emissiveFactor" : [
                0,
                0,
                0
            ],
            "name" : "supports_2",
            "pbrMetallicRoughness" : {
                "baseColorTexture" : {
                    "index" : 3,
                    "texCoord" : 0
                },
                "metallicFactor" : 1,
                "roughnessFactor" : 0.30000001192092896
            }
        },
        {
            "doubleSided" : true,
            "emissiveFactor" : [
                0,
                0,
                0
            ],
            "name" : "supports",
            "pbrMetallicRoughness" : {
                "baseColorTexture" : {
                    "index" : 4,
                    "texCoord" : 0
                },
                "metallicFactor" : 1,
                "roughnessFactor" : 0.30000001192092896
            }
        },
        {
            "doubleSided" : true,
            "emissiveFactor" : [
                0,
                0,
                0
            ],
            "name" : "shiny_panel.001",
            "pbrMetallicRoughness" : {
                "baseColorTexture" : {
                    "index" : 5,
                    "texCoord" : 0
                },
                "metallicFactor" : 0.5,
                "metallicRoughnessTexture" : {
                    "index" : 6,
                    "texCoord" : 0
                }
            }
        }
    ],
    "meshes" : [
        {
            "name" : "Cylinder.005",
            "primitives" : [
                {
                    "attributes" : {
                        "POSITION" : 0,
                        "NORMAL" : 1,
                        "TEXCOORD_0" : 2
                    },
                    "indices" : 3,
                    "material" : 0
                },
                {
                    "attributes" : {
                        "POSITION" : 4,
                        "NORMAL" : 5,
                        "TEXCOORD_0" : 6
                    },
                    "indices" : 7,
                    "material" : 1
                },
                {
                    "attributes" : {
                        "POSITION" : 8,
                        "NORMAL" : 9,
                        "TEXCOORD_0" : 10
                    },
                    "indices" : 11,
                    "material" : 2
                },
                {
                    "attributes" : {
                        "POSITION" : 12,
                        "NORMAL" : 13,
                        "TEXCOORD_0" : 14
                    },
                    "indices" : 15,
                    "material" : 3
                },
                {
                    "attributes" : {
                        "POSITION" : 16,
                        "NORMAL" : 17,
                        "TEXCOORD_0" : 18
                    },
                    "indices" : 19,
                    "material" : 4
                }
            ]
        },
        {
            "name" : "Cylinder.011",
            "primitives" : [
                {
                    "attributes" : {
                        "POSITION" : 20,
                        "NORMAL" : 21,
                        "TEXCOORD_0" : 22
                    },
                    "indices" : 23,
                    "material" : 0
                },
                {
                    "attributes" : {
                        "POSITION" : 24,
                        "NORMAL" : 25,
                        "TEXCOORD_0" : 26
                    },
                    "indices" : 27,
                    "material" : 5
                }
            ]
        },
        {
            "name" : "Cube.001",
            "primitives" : [
                {
                    "attributes" : {
                        "POSITION" : 28,
                        "NORMAL" : 29
                    },
                    "indices" : 30
                }
            ]
        }
    ],
    "textures" : [
        {
            "source" : 0
        },
        {
            "source" : 1
        },
        {
            "source" : 2
        },
        {
            "source" : 3
        },
        {
            "source" : 4
        },
        {
            "source" : 0
        },
        {
            "source" : 5
        }
    ],
    "images" : [
        {
            "mimeType" : "image/png",
            "name" : "tex_01",
            "uri" : "tex_01.png"
        },
        {
            "mimeType" : "image/png",
            "name" : "fins_AO",
            "uri" : "fins_AO.png"
        },
        {
            "mimeType" : "image/png",
            "name" : "foil_n",
            "uri" : "foil_n.png"
        },
        {
            "mimeType" : "image/png",
            "name" : "supports_2_AO",
            "uri" : "supports_2_AO.png"
        },
        {
            "mimeType" : "image/png",
            "name" : "supports_AO",
            "uri" : "supports_AO.png"
        },
        {
            "mimeType" : "image/png",
            "name" : "tex_01",
            "uri" : "tex_01-1.png"
        }
    ],
    "accessors" : [
        {
            "bufferView" : 0,
            "componentType" : 5126,
            "count" : 1572,
            "max" : [
                1.0354033708572388,
                0.5437114238739014,
                1.0281076431274414
            ],
            "min" : [
                -1.0354030132293701,
                0.0915290117263794,
                -1.0426987409591675
            ],
            "type" : "VEC3"
        },
        {
            "bufferView" : 1,
            "componentType" : 5126,
            "count" : 1572,
            "type" : "VEC3"
        },
        {
            "bufferView" : 2,
            "componentType" : 5126,
            "count" : 1572,
            "type" : "VEC2"
        },
        {
            "bufferView" : 3,
            "componentType" : 5123,
            "count" : 4896,
            "type" : "SCALAR"
        },
        {
            "bufferView" : 4,
            "componentType" : 5126,
            "count" : 508,
            "max" : [
                2.190605878829956,
                0.38768282532691956,
                2.183337450027466
            ],
            "min" : [
                -2.190605878829956,
                -0.2201286256313324,
                -2.197901725769043
            ],
            "type" : "VEC3"
        },
        {
            "bufferView" : 5,
            "componentType" : 5126,
            "count" : 508,
            "type" : "VEC3"
        },
        {
            "bufferView" : 6,
            "componentType" : 5126,
            "count" : 508,
            "type" : "VEC2"
        },
        {
            "bufferView" : 7,
            "componentType" : 5123,
            "count" : 1176,
            "type" : "SCALAR"
        },
        {
            "bufferView" : 8,
            "componentType" : 5126,
            "count" : 5374,
            "max" : [
                2.041552782058716,
                0.3942500054836273,
                2.197901725769043
            ],
            "min" : [
                -2.0413553714752197,
                -0.3634803593158722,
                -1.8841514587402344
            ],
            "type" : "VEC3"
        },
        {
            "bufferView" : 9,
            "componentType" : 5126,
            "count" : 5374,
            "type" : "VEC3"
        },
        {
            "bufferView" : 10,
            "componentType" : 5126,
            "count" : 5374,
            "type" : "VEC2"
        },
        {
            "bufferView" : 11,
            "componentType" : 5123,
            "count" : 17424,
            "type" : "SCALAR"
        },
        {
            "bufferView" : 12,
            "componentType" : 5126,
            "count" : 18155,
            "max" : [
                2.165415048599243,
                0.555389404296875,
                2.1578524112701416
            ],
            "min" : [
                -2.165217638015747,
                -0.555389404296875,
                -2.172780990600586
            ],
            "type" : "VEC3"
        },
        {
            "bufferView" : 13,
            "componentType" : 5126,
            "count" : 18155,
            "type" : "VEC3"
        },
        {
            "bufferView" : 14,
            "componentType" : 5126,
            "count" : 18155,
            "type" : "VEC2"
        },
        {
            "bufferView" : 15,
            "componentType" : 5123,
            "count" : 43566,
            "type" : "SCALAR"
        },
        {
            "bufferView" : 16,
            "componentType" : 5126,
            "count" : 11425,
            "max" : [
                2.1636269092559814,
                0.3942491412162781,
                2.156039237976074
            ],
            "min" : [
                -2.1634299755096436,
                -0.14477401971817017,
                -2.1709930896759033
            ],
            "type" : "VEC3"
        },
        {
            "bufferView" : 17,
            "componentType" : 5126,
            "count" : 11425,
            "type" : "VEC3"
        },
        {
            "bufferView" : 18,
            "componentType" : 5126,
            "count" : 11425,
            "type" : "VEC2"
        },
        {
            "bufferView" : 19,
            "componentType" : 5123,
            "count" : 30120,
            "type" : "SCALAR"
        },
        {
            "bufferView" : 20,
            "componentType" : 5126,
            "count" : 220,
            "max" : [
                2.192564010620117,
                0.009764909744262695,
                2.192564010620117
            ],
            "min" : [
                -2.192564010620117,
                -0.009764909744262695,
                -2.192564010620117
            ],
            "type" : "VEC3"
        },
        {
            "bufferView" : 21,
            "componentType" : 5126,
            "count" : 220,
            "type" : "VEC3"
        },
        {
            "bufferView" : 22,
            "componentType" : 5126,
            "count" : 220,
            "type" : "VEC2"
        },
        {
            "bufferView" : 23,
            "componentType" : 5123,
            "count" : 576,
            "type" : "SCALAR"
        },
        {
            "bufferView" : 24,
            "componentType" : 5126,
            "count" : 228,
            "max" : [
                2.1925644874572754,
                0.009764909744262695,
                2.1925647258758545
            ],
            "min" : [
                -2.1925644874572754,
                -0.009764909744262695,
                -2.1925647258758545
            ],
            "type" : "VEC3"
        },
        {
            "bufferView" : 25,
            "componentType" : 5126,
            "count" : 228,
            "type" : "VEC3"
        },
        {
            "bufferView" : 26,
            "componentType" : 5126,
            "count" : 228,
            "type" : "VEC2"
        },
        {
            "bufferView" : 27,
            "componentType" : 5123,
            "count" : 576,
            "type" : "SCALAR"
        },
        {
            "bufferView" : 28,
            "componentType" : 5126,
            "count" : 8,
            "max" : [
                0.5000002384185791,
                0.5,
                0.5000002980232239
            ],
            "min" : [
                -0.5000001788139343,
                -0.5,
                -0.5000001788139343
            ],
            "type" : "VEC3"
        },
        {
            "bufferView" : 29,
            "componentType" : 5126,
            "count" : 8,
            "type" : "VEC3"
        },
        {
            "bufferView" : 30,
            "componentType" : 5123,
            "count" : 36,
            "type" : "SCALAR"
        }
    ],
    "bufferViews" : [
        {
            "buffer" : 0,
            "byteLength" : 18864,
            "byteOffset" : 0
        },
        {
            "buffer" : 0,
            "byteLength" : 18864,
            "byteOffset" : 18864
        },
        {
            "buffer" : 0,
            "byteLength" : 12576,
            "byteOffset" : 37728
        },
        {
            "buffer" : 0,
            "byteLength" : 9792,
            "byteOffset" : 50304
        },
        {
            "buffer" : 0,
            "byteLength" : 6096,
            "byteOffset" : 60096
        },
        {
            "buffer" : 0,
            "byteLength" : 6096,
            "byteOffset" : 66192
        },
        {
            "buffer" : 0,
            "byteLength" : 4064,
            "byteOffset" : 72288
        },
        {
            "buffer" : 0,
            "byteLength" : 2352,
            "byteOffset" : 76352
        },
        {
            "buffer" : 0,
            "byteLength" : 64488,
            "byteOffset" : 78704
        },
        {
            "buffer" : 0,
            "byteLength" : 64488,
            "byteOffset" : 143192
        },
        {
            "buffer" : 0,
            "byteLength" : 42992,
            "byteOffset" : 207680
        },
        {
            "buffer" : 0,
            "byteLength" : 34848,
            "byteOffset" : 250672
        },
        {
            "buffer" : 0,
            "byteLength" : 217860,
            "byteOffset" : 285520
        },
        {
            "buffer" : 0,
            "byteLength" : 217860,
            "byteOffset" : 503380
        },
        {
            "buffer" : 0,
            "byteLength" : 145240,
            "byteOffset" : 721240
        },
        {
            "buffer" : 0,
            "byteLength" : 87132,
            "byteOffset" : 866480
        },
        {
            "buffer" : 0,
            "byteLength" : 137100,
            "byteOffset" : 953612
        },
        {
            "buffer" : 0,
            "byteLength" : 137100,
            "byteOffset" : 1090712
        },
        {
            "buffer" : 0,
            "byteLength" : 91400,
            "byteOffset" : 1227812
        },
        {
            "buffer" : 0,
            "byteLength" : 60240,
            "byteOffset" : 1319212
        },
        {
            "buffer" : 0,
            "byteLength" : 2640,
            "byteOffset" : 1379452
        },
        {
            "buffer" : 0,
            "byteLength" : 2640,
            "byteOffset" : 1382092
        },
        {
            "buffer" : 0,
            "byteLength" : 1760,
            "byteOffset" : 1384732
        },
        {
            "buffer" : 0,
            "byteLength" : 1152,
            "byteOffset" : 1386492
        },
        {
            "buffer" : 0,
            "byteLength" : 2736,
            "byteOffset" : 1387644
        },
        {
            "buffer" : 0,
            "byteLength" : 2736,
            "byteOffset" : 1390380
        },
        {
            "buffer" : 0,
            "byteLength" : 1824,
            "byteOffset" : 1393116
        },
        {
            "buffer" : 0,
            "byteLength" : 1152,
            "byteOffset" : 1394940
        },
        {
            "buffer" : 0,
            "byteLength" : 96,
            "byteOffset" : 1396092
        },
        {
            "buffer" : 0,
            "byteLength" : 96,
            "byteOffset" : 1396188
        },
        {
            "buffer" : 0,
            "byteLength" : 72,
            "byteOffset" : 1396284
        }
    ],
    "buffers" : [
        {
            "byteLength" : 1396356,
            "uri" : "edl2020_cruiseStage.bin"
        }
    ]
}
