<svg width="45" height="45" version="1.1" viewBox="0 0 45 45" xmlns="http://www.w3.org/2000/svg" xmlns:xlink="http://www.w3.org/1999/xlink">
 <defs>
  <linearGradient id="linearGradient46602" x1="346.26" x2="356.64" y1="352.97" y2="352.97" gradientUnits="userSpaceOnUse">
   <stop stop-color="#fff" offset="0"/>
   <stop stop-color="#fff" stop-opacity="0" offset="1"/>
  </linearGradient>
 </defs>
 <g transform="translate(-277.52 -135.14)">
  <g transform="matrix(3.7795 0 0 3.7795 -1025.8 -1176.6)" shape-rendering="auto">
   <g fill="#fff">
    <path d="m345.56 354.04c-0.0764-0.34523-0.10718-0.66982-0.10718-1.0255 0-1.3008 0.51237-2.5296 1.4429-3.4605 0.93059-0.93057 2.1599-1.443 3.4608-1.443 1.3014 0 2.5303 0.51241 3.4605 1.443 0.27356 0.27333 0.495 0.54245 0.69647 0.86681l-0.0935 0.0583c-0.19757-0.31788-0.41103-0.58294-0.67766-0.84957-0.91104-0.9106-2.1134-1.4119-3.3856-1.4119-1.2727 0-2.4751 0.50129-3.3856 1.4119-0.91013 0.91038-1.4117 2.1125-1.4117 3.385 0 0.34518 0.0287 0.6444 0.10122 0.97533zm0.14842 0.15592c0.20885 0.83938 0.63977 1.5816 1.2625 2.2048 0.0135 0.013 0.0275 0.0285 0.0275 0.0285l-0.0785 0.0682-0.0241-0.022c-0.63438-0.63399-1.0702-1.3786-1.2847-2.2323zm1.4553 2.3893c0.88709 0.80985 2.0022 1.2271 3.193 1.2271 1.2723 0 2.4747-0.50153 3.3856-1.4116 0.91016-0.91103 1.4117-2.1134 1.4117-3.3861 0-0.64508-0.11042-1.2272-0.36226-1.8187l0.0958-0.0819c0.26231 0.60942 0.37289 1.2349 0.37289 1.9006 0 1.3014-0.5124 2.5307-1.4434 3.4608-0.93013 0.93103-2.159 1.4434-3.4605 1.4434-1.2206 0-2.3761-0.42732-3.2832-1.2584z" color="#000000" color-rendering="auto" dominant-baseline="auto" image-rendering="auto" solid-color="#000000" stop-color="#000000" style="font-feature-settings:normal;font-variant-alternates:normal;font-variant-caps:normal;font-variant-east-asian:normal;font-variant-ligatures:normal;font-variant-numeric:normal;font-variant-position:normal;font-variation-settings:normal;inline-size:0;isolation:auto;mix-blend-mode:normal;shape-margin:0;shape-padding:0;text-decoration-color:#000000;text-decoration-line:none;text-decoration-style:solid;text-indent:0;text-orientation:mixed;text-transform:none;white-space:normal"/>
    <path d="m350.36 358c-1.2389 0-2.4144-0.43455-3.336-1.279l-0.0351-0.0326 0.20968-0.17643 0.0215 0.0184c0.89912 0.76708 1.9677 1.2066 3.1402 1.2066 1.2517 0 2.4335-0.49279 3.3302-1.3887 0.89598-0.89684 1.3888-2.0787 1.3888-3.3308 0-0.63614-0.10817-1.206-0.35598-1.788l-0.0225-0.0528 0.22024-0.18836 0.042 0.0977c0.26683 0.61995 0.37923 1.2571 0.37923 1.9315 0 1.3219-0.52109 2.5719-1.4663 3.5162-0.94435 0.94527-2.1939 1.4664-3.516 1.4664zm-3.4678-1.419-0.047-0.0461-1e-3 -1e-3c-0.64338-0.64298-1.0873-1.401-1.3053-2.2686l-8e-3 -0.0246 0.24468-0.10874 0.013 0.0482c0.22113 0.82131 0.62836 1.5544 1.2418 2.1683l-1e-3 -1e-3c0.0163 0.0157 0.0312 0.0323 0.0312 0.0323l0.0265 0.0259zm-1.3907-2.4606-0.0144-0.0605c-0.0833-0.34975-0.10902-0.68225-0.10902-1.0424 0-1.3213 0.5211-2.5708 1.4658-3.5159 0.94482-0.94479 2.1947-1.4659 3.5162-1.4659 1.322 0 2.5714 0.52113 3.5159 1.4659 0.27679 0.27657 0.50286 0.55118 0.70765 0.8809l0.0412 0.0664-0.22636 0.14117-0.0414-0.0666c-0.19452-0.31298-0.40345-0.57245-0.66651-0.83552-0.89684-0.8964-2.0786-1.389-3.3302-1.389-1.2522 0-2.434 0.49257-3.3302 1.389-0.89594 0.89618-1.3888 2.0777-1.3888 3.3297 0 0.34084 0.0281 0.63309 0.0994 0.9586l3e-3 0.0163z" color="#000000" color-rendering="auto" dominant-baseline="auto" image-rendering="auto" solid-color="#000000" stop-color="#000000" style="font-feature-settings:normal;font-variant-alternates:normal;font-variant-caps:normal;font-variant-east-asian:normal;font-variant-ligatures:normal;font-variant-numeric:normal;font-variant-position:normal;font-variation-settings:normal;inline-size:0;isolation:auto;mix-blend-mode:normal;shape-margin:0;shape-padding:0;text-decoration-color:#000000;text-decoration-line:none;text-decoration-style:solid;text-indent:0;text-orientation:mixed;text-transform:none;white-space:normal"/>
    <path d="m350.42 348.61c0 0.0217-0.0178 0.0395-0.0395 0.0395s-0.0395-0.0178-0.0395-0.0395 0.0178-0.0395 0.0395-0.0395 0.0395 0.0178 0.0395 0.0395" color="#000000" color-rendering="auto" dominant-baseline="auto" image-rendering="auto" solid-color="#000000" stop-color="#000000" style="font-feature-settings:normal;font-variant-alternates:normal;font-variant-caps:normal;font-variant-east-asian:normal;font-variant-ligatures:normal;font-variant-numeric:normal;font-variant-position:normal;font-variation-settings:normal;inline-size:0;isolation:auto;mix-blend-mode:normal;shape-margin:0;shape-padding:0;text-decoration-color:#000000;text-decoration-line:none;text-decoration-style:solid;text-indent:0;text-orientation:mixed;text-transform:none;white-space:normal"/>
    <path d="m350.7 349.2c0 0.0267-0.0222 0.0489-0.0486 0.0489-0.0269 0-0.0486-0.0221-0.0486-0.0489 0-0.0265 0.0217-0.0484 0.0486-0.0484 0.0265 0 0.0486 0.0219 0.0486 0.0484" color="#000000" color-rendering="auto" dominant-baseline="auto" image-rendering="auto" solid-color="#000000" stop-color="#000000" style="font-feature-settings:normal;font-variant-alternates:normal;font-variant-caps:normal;font-variant-east-asian:normal;font-variant-ligatures:normal;font-variant-numeric:normal;font-variant-position:normal;font-variation-settings:normal;inline-size:0;isolation:auto;mix-blend-mode:normal;shape-margin:0;shape-padding:0;text-decoration-color:#000000;text-decoration-line:none;text-decoration-style:solid;text-indent:0;text-orientation:mixed;text-transform:none;white-space:normal"/>
    <path d="m351.41 350.18c0 0.0265-0.0217 0.0482-0.0482 0.0482-0.0269 0-0.0486-0.0217-0.0486-0.0482 0-0.0269 0.0217-0.0491 0.0486-0.0491 0.0265 0 0.0482 0.0222 0.0482 0.0491" color="#000000" color-rendering="auto" dominant-baseline="auto" image-rendering="auto" solid-color="#000000" stop-color="#000000" style="font-feature-settings:normal;font-variant-alternates:normal;font-variant-caps:normal;font-variant-east-asian:normal;font-variant-ligatures:normal;font-variant-numeric:normal;font-variant-position:normal;font-variation-settings:normal;inline-size:0;isolation:auto;mix-blend-mode:normal;shape-margin:0;shape-padding:0;text-decoration-color:#000000;text-decoration-line:none;text-decoration-style:solid;text-indent:0;text-orientation:mixed;text-transform:none;white-space:normal"/>
    <path d="m350.26 349.54c0 0.0217-0.0178 0.0395-0.0395 0.0395s-0.0395-0.0178-0.0395-0.0395c0-0.0215 0.0178-0.0395 0.0395-0.0395s0.0395 0.0181 0.0395 0.0395" color="#000000" color-rendering="auto" dominant-baseline="auto" image-rendering="auto" solid-color="#000000" stop-color="#000000" style="font-feature-settings:normal;font-variant-alternates:normal;font-variant-caps:normal;font-variant-east-asian:normal;font-variant-ligatures:normal;font-variant-numeric:normal;font-variant-position:normal;font-variation-settings:normal;inline-size:0;isolation:auto;mix-blend-mode:normal;shape-margin:0;shape-padding:0;text-decoration-color:#000000;text-decoration-line:none;text-decoration-style:solid;text-indent:0;text-orientation:mixed;text-transform:none;white-space:normal"/>
    <path d="m350.69 349.77c0 0.0217-0.0178 0.0395-0.0395 0.0395s-0.0395-0.0178-0.0395-0.0395 0.0178-0.0395 0.0395-0.0395 0.0395 0.0178 0.0395 0.0395" color="#000000" color-rendering="auto" dominant-baseline="auto" image-rendering="auto" solid-color="#000000" stop-color="#000000" style="font-feature-settings:normal;font-variant-alternates:normal;font-variant-caps:normal;font-variant-east-asian:normal;font-variant-ligatures:normal;font-variant-numeric:normal;font-variant-position:normal;font-variation-settings:normal;inline-size:0;isolation:auto;mix-blend-mode:normal;shape-margin:0;shape-padding:0;text-decoration-color:#000000;text-decoration-line:none;text-decoration-style:solid;text-indent:0;text-orientation:mixed;text-transform:none;white-space:normal"/>
    <path d="m350.14 349.14c0 0.0265-0.0221 0.0486-0.0486 0.0486-0.0269 0-0.0486-0.0221-0.0486-0.0486 0-0.0267 0.0217-0.0486 0.0486-0.0486 0.0265 0 0.0486 0.0219 0.0486 0.0486" color="#000000" color-rendering="auto" dominant-baseline="auto" image-rendering="auto" solid-color="#000000" stop-color="#000000" style="font-feature-settings:normal;font-variant-alternates:normal;font-variant-caps:normal;font-variant-east-asian:normal;font-variant-ligatures:normal;font-variant-numeric:normal;font-variant-position:normal;font-variation-settings:normal;inline-size:0;isolation:auto;mix-blend-mode:normal;shape-margin:0;shape-padding:0;text-decoration-color:#000000;text-decoration-line:none;text-decoration-style:solid;text-indent:0;text-orientation:mixed;text-transform:none;white-space:normal"/>
    <path d="m349.49 349.53c0 0.0215-0.0178 0.0393-0.0395 0.0393s-0.0395-0.0178-0.0395-0.0393c0-0.0217 0.0178-0.0398 0.0395-0.0398s0.0395 0.0181 0.0395 0.0398" color="#000000" color-rendering="auto" dominant-baseline="auto" image-rendering="auto" solid-color="#000000" stop-color="#000000" style="font-feature-settings:normal;font-variant-alternates:normal;font-variant-caps:normal;font-variant-east-asian:normal;font-variant-ligatures:normal;font-variant-numeric:normal;font-variant-position:normal;font-variation-settings:normal;inline-size:0;isolation:auto;mix-blend-mode:normal;shape-margin:0;shape-padding:0;text-decoration-color:#000000;text-decoration-line:none;text-decoration-style:solid;text-indent:0;text-orientation:mixed;text-transform:none;white-space:normal"/>
    <path d="m349.61 349.61c0 0.0217-0.0178 0.0398-0.0395 0.0398s-0.0395-0.018-0.0395-0.0398c0-0.0217 0.0178-0.0395 0.0395-0.0395s0.0395 0.0178 0.0395 0.0395" color="#000000" color-rendering="auto" dominant-baseline="auto" image-rendering="auto" solid-color="#000000" stop-color="#000000" style="font-feature-settings:normal;font-variant-alternates:normal;font-variant-caps:normal;font-variant-east-asian:normal;font-variant-ligatures:normal;font-variant-numeric:normal;font-variant-position:normal;font-variation-settings:normal;inline-size:0;isolation:auto;mix-blend-mode:normal;shape-margin:0;shape-padding:0;text-decoration-color:#000000;text-decoration-line:none;text-decoration-style:solid;text-indent:0;text-orientation:mixed;text-transform:none;white-space:normal"/>
    <path d="m349.72 349.69c0 0.0219-0.0178 0.0397-0.0395 0.0397s-0.0395-0.0178-0.0395-0.0397c0-0.0217 0.0178-0.0393 0.0395-0.0393s0.0395 0.0176 0.0395 0.0393" color="#000000" color-rendering="auto" dominant-baseline="auto" image-rendering="auto" solid-color="#000000" stop-color="#000000" style="font-feature-settings:normal;font-variant-alternates:normal;font-variant-caps:normal;font-variant-east-asian:normal;font-variant-ligatures:normal;font-variant-numeric:normal;font-variant-position:normal;font-variation-settings:normal;inline-size:0;isolation:auto;mix-blend-mode:normal;shape-margin:0;shape-padding:0;text-decoration-color:#000000;text-decoration-line:none;text-decoration-style:solid;text-indent:0;text-orientation:mixed;text-transform:none;white-space:normal"/>
    <path d="m349.55 349.84c0 0.0217-0.0178 0.0399-0.0395 0.0399s-0.0395-0.0183-0.0395-0.0399c0-0.0213 0.0178-0.0391 0.0395-0.0391s0.0395 0.0178 0.0395 0.0391" color="#000000" color-rendering="auto" dominant-baseline="auto" image-rendering="auto" solid-color="#000000" stop-color="#000000" style="font-feature-settings:normal;font-variant-alternates:normal;font-variant-caps:normal;font-variant-east-asian:normal;font-variant-ligatures:normal;font-variant-numeric:normal;font-variant-position:normal;font-variation-settings:normal;inline-size:0;isolation:auto;mix-blend-mode:normal;shape-margin:0;shape-padding:0;text-decoration-color:#000000;text-decoration-line:none;text-decoration-style:solid;text-indent:0;text-orientation:mixed;text-transform:none;white-space:normal"/>
    <path d="m348.63 350.48c0 0.0217-0.0178 0.0395-0.0395 0.0395s-0.0395-0.0178-0.0395-0.0395c0-0.0213 0.0178-0.0395 0.0395-0.0395s0.0395 0.0182 0.0395 0.0395" color="#000000" color-rendering="auto" dominant-baseline="auto" image-rendering="auto" solid-color="#000000" stop-color="#000000" style="font-feature-settings:normal;font-variant-alternates:normal;font-variant-caps:normal;font-variant-east-asian:normal;font-variant-ligatures:normal;font-variant-numeric:normal;font-variant-position:normal;font-variation-settings:normal;inline-size:0;isolation:auto;mix-blend-mode:normal;shape-margin:0;shape-padding:0;text-decoration-color:#000000;text-decoration-line:none;text-decoration-style:solid;text-indent:0;text-orientation:mixed;text-transform:none;white-space:normal"/>
    <path d="m348.8 350.69c0 0.0217-0.0178 0.0395-0.0395 0.0395s-0.0395-0.0178-0.0395-0.0395 0.0178-0.0395 0.0395-0.0395 0.0395 0.0178 0.0395 0.0395" color="#000000" color-rendering="auto" dominant-baseline="auto" image-rendering="auto" solid-color="#000000" stop-color="#000000" style="font-feature-settings:normal;font-variant-alternates:normal;font-variant-caps:normal;font-variant-east-asian:normal;font-variant-ligatures:normal;font-variant-numeric:normal;font-variant-position:normal;font-variation-settings:normal;inline-size:0;isolation:auto;mix-blend-mode:normal;shape-margin:0;shape-padding:0;text-decoration-color:#000000;text-decoration-line:none;text-decoration-style:solid;text-indent:0;text-orientation:mixed;text-transform:none;white-space:normal"/>
    <path d="m348.67 354.03c0 0.0217-0.0178 0.0399-0.0395 0.0399s-0.0395-0.0182-0.0395-0.0399c0-0.0213 0.0178-0.0391 0.0395-0.0391s0.0395 0.0178 0.0395 0.0391" color="#000000" color-rendering="auto" dominant-baseline="auto" image-rendering="auto" solid-color="#000000" stop-color="#000000" style="font-feature-settings:normal;font-variant-alternates:normal;font-variant-caps:normal;font-variant-east-asian:normal;font-variant-ligatures:normal;font-variant-numeric:normal;font-variant-position:normal;font-variation-settings:normal;inline-size:0;isolation:auto;mix-blend-mode:normal;shape-margin:0;shape-padding:0;text-decoration-color:#000000;text-decoration-line:none;text-decoration-style:solid;text-indent:0;text-orientation:mixed;text-transform:none;white-space:normal"/>
    <path d="m348.69 354.95c0 0.0269-0.0217 0.0486-0.0486 0.0486-0.0265 0-0.0486-0.0217-0.0486-0.0486 0-0.0265 0.0221-0.0486 0.0486-0.0486 0.0269 0 0.0486 0.0221 0.0486 0.0486" color="#000000" color-rendering="auto" dominant-baseline="auto" image-rendering="auto" solid-color="#000000" stop-color="#000000" style="font-feature-settings:normal;font-variant-alternates:normal;font-variant-caps:normal;font-variant-east-asian:normal;font-variant-ligatures:normal;font-variant-numeric:normal;font-variant-position:normal;font-variation-settings:normal;inline-size:0;isolation:auto;mix-blend-mode:normal;shape-margin:0;shape-padding:0;text-decoration-color:#000000;text-decoration-line:none;text-decoration-style:solid;text-indent:0;text-orientation:mixed;text-transform:none;white-space:normal"/>
    <path d="m348.17 355.42c0 0.0217-0.0178 0.0395-0.0391 0.0395-0.0222 0-0.04-0.0178-0.04-0.0395s0.0178-0.0395 0.04-0.0395c0.0213 0 0.0391 0.0178 0.0391 0.0395" color="#000000" color-rendering="auto" dominant-baseline="auto" image-rendering="auto" solid-color="#000000" stop-color="#000000" style="font-feature-settings:normal;font-variant-alternates:normal;font-variant-caps:normal;font-variant-east-asian:normal;font-variant-ligatures:normal;font-variant-numeric:normal;font-variant-position:normal;font-variation-settings:normal;inline-size:0;isolation:auto;mix-blend-mode:normal;shape-margin:0;shape-padding:0;text-decoration-color:#000000;text-decoration-line:none;text-decoration-style:solid;text-indent:0;text-orientation:mixed;text-transform:none;white-space:normal"/>
    <path d="m347.54 355.61c0 0.0264-0.0221 0.0486-0.0486 0.0486-0.0269 0-0.0487-0.0222-0.0487-0.0486 0-0.0269 0.0217-0.0486 0.0487-0.0486 0.0265 0 0.0486 0.0217 0.0486 0.0486" color="#000000" color-rendering="auto" dominant-baseline="auto" image-rendering="auto" solid-color="#000000" stop-color="#000000" style="font-feature-settings:normal;font-variant-alternates:normal;font-variant-caps:normal;font-variant-east-asian:normal;font-variant-ligatures:normal;font-variant-numeric:normal;font-variant-position:normal;font-variation-settings:normal;inline-size:0;isolation:auto;mix-blend-mode:normal;shape-margin:0;shape-padding:0;text-decoration-color:#000000;text-decoration-line:none;text-decoration-style:solid;text-indent:0;text-orientation:mixed;text-transform:none;white-space:normal"/>
    <path d="m347.41 355.19c0 0.0269-0.0222 0.0486-0.0486 0.0486-0.0269 0-0.0486-0.0217-0.0486-0.0486 0-0.0265 0.0217-0.0486 0.0486-0.0486 0.0265 0 0.0486 0.0221 0.0486 0.0486" color="#000000" color-rendering="auto" dominant-baseline="auto" image-rendering="auto" solid-color="#000000" stop-color="#000000" style="font-feature-settings:normal;font-variant-alternates:normal;font-variant-caps:normal;font-variant-east-asian:normal;font-variant-ligatures:normal;font-variant-numeric:normal;font-variant-position:normal;font-variation-settings:normal;inline-size:0;isolation:auto;mix-blend-mode:normal;shape-margin:0;shape-padding:0;text-decoration-color:#000000;text-decoration-line:none;text-decoration-style:solid;text-indent:0;text-orientation:mixed;text-transform:none;white-space:normal"/>
    <path d="m347.34 355.46c0 0.0217-0.0178 0.0395-0.0395 0.0395s-0.0395-0.0178-0.0395-0.0395 0.0178-0.0395 0.0395-0.0395 0.0395 0.0178 0.0395 0.0395" color="#000000" color-rendering="auto" dominant-baseline="auto" image-rendering="auto" solid-color="#000000" stop-color="#000000" style="font-feature-settings:normal;font-variant-alternates:normal;font-variant-caps:normal;font-variant-east-asian:normal;font-variant-ligatures:normal;font-variant-numeric:normal;font-variant-position:normal;font-variation-settings:normal;inline-size:0;isolation:auto;mix-blend-mode:normal;shape-margin:0;shape-padding:0;text-decoration-color:#000000;text-decoration-line:none;text-decoration-style:solid;text-indent:0;text-orientation:mixed;text-transform:none;white-space:normal"/>
    <path d="m346.87 355.23c0 0.0217-0.0178 0.0395-0.0395 0.0395s-0.0395-0.0178-0.0395-0.0395 0.0178-0.0395 0.0395-0.0395 0.0395 0.0178 0.0395 0.0395" color="#000000" color-rendering="auto" dominant-baseline="auto" image-rendering="auto" solid-color="#000000" stop-color="#000000" style="font-feature-settings:normal;font-variant-alternates:normal;font-variant-caps:normal;font-variant-east-asian:normal;font-variant-ligatures:normal;font-variant-numeric:normal;font-variant-position:normal;font-variation-settings:normal;inline-size:0;isolation:auto;mix-blend-mode:normal;shape-margin:0;shape-padding:0;text-decoration-color:#000000;text-decoration-line:none;text-decoration-style:solid;text-indent:0;text-orientation:mixed;text-transform:none;white-space:normal"/>
    <path d="m348.51 355.99c0 0.0217-0.0178 0.0395-0.0395 0.0395s-0.0395-0.0178-0.0395-0.0395 0.0178-0.0395 0.0395-0.0395 0.0395 0.0178 0.0395 0.0395" color="#000000" color-rendering="auto" dominant-baseline="auto" image-rendering="auto" solid-color="#000000" stop-color="#000000" style="font-feature-settings:normal;font-variant-alternates:normal;font-variant-caps:normal;font-variant-east-asian:normal;font-variant-ligatures:normal;font-variant-numeric:normal;font-variant-position:normal;font-variation-settings:normal;inline-size:0;isolation:auto;mix-blend-mode:normal;shape-margin:0;shape-padding:0;text-decoration-color:#000000;text-decoration-line:none;text-decoration-style:solid;text-indent:0;text-orientation:mixed;text-transform:none;white-space:normal"/>
    <path d="m349 355.63c0 0.0269-0.0217 0.0486-0.0486 0.0486-0.0265 0-0.0487-0.0217-0.0487-0.0486s0.0222-0.0486 0.0487-0.0486c0.0269 0 0.0486 0.0217 0.0486 0.0486" color="#000000" color-rendering="auto" dominant-baseline="auto" image-rendering="auto" solid-color="#000000" stop-color="#000000" style="font-feature-settings:normal;font-variant-alternates:normal;font-variant-caps:normal;font-variant-east-asian:normal;font-variant-ligatures:normal;font-variant-numeric:normal;font-variant-position:normal;font-variation-settings:normal;inline-size:0;isolation:auto;mix-blend-mode:normal;shape-margin:0;shape-padding:0;text-decoration-color:#000000;text-decoration-line:none;text-decoration-style:solid;text-indent:0;text-orientation:mixed;text-transform:none;white-space:normal"/>
    <path d="m349.05 356.09c0 0.0217-0.0178 0.0395-0.0395 0.0395s-0.0395-0.0178-0.0395-0.0395 0.0178-0.0395 0.0395-0.0395 0.0395 0.0178 0.0395 0.0395" color="#000000" color-rendering="auto" dominant-baseline="auto" image-rendering="auto" solid-color="#000000" stop-color="#000000" style="font-feature-settings:normal;font-variant-alternates:normal;font-variant-caps:normal;font-variant-east-asian:normal;font-variant-ligatures:normal;font-variant-numeric:normal;font-variant-position:normal;font-variation-settings:normal;inline-size:0;isolation:auto;mix-blend-mode:normal;shape-margin:0;shape-padding:0;text-decoration-color:#000000;text-decoration-line:none;text-decoration-style:solid;text-indent:0;text-orientation:mixed;text-transform:none;white-space:normal"/>
    <path d="m351.08 355.65c0 0.0217-0.0182 0.0395-0.0395 0.0395-0.0217 0-0.0395-0.0178-0.0395-0.0395s0.0178-0.0395 0.0395-0.0395c0.0213 0 0.0395 0.0178 0.0395 0.0395" color="#000000" color-rendering="auto" dominant-baseline="auto" image-rendering="auto" solid-color="#000000" stop-color="#000000" style="font-feature-settings:normal;font-variant-alternates:normal;font-variant-caps:normal;font-variant-east-asian:normal;font-variant-ligatures:normal;font-variant-numeric:normal;font-variant-position:normal;font-variation-settings:normal;inline-size:0;isolation:auto;mix-blend-mode:normal;shape-margin:0;shape-padding:0;text-decoration-color:#000000;text-decoration-line:none;text-decoration-style:solid;text-indent:0;text-orientation:mixed;text-transform:none;white-space:normal"/>
    <path d="m350.14 355.98c0 0.0217-0.0178 0.0395-0.0395 0.0395s-0.0395-0.0178-0.0395-0.0395 0.0178-0.0395 0.0395-0.0395 0.0395 0.0178 0.0395 0.0395" color="#000000" color-rendering="auto" dominant-baseline="auto" image-rendering="auto" solid-color="#000000" stop-color="#000000" style="font-feature-settings:normal;font-variant-alternates:normal;font-variant-caps:normal;font-variant-east-asian:normal;font-variant-ligatures:normal;font-variant-numeric:normal;font-variant-position:normal;font-variation-settings:normal;inline-size:0;isolation:auto;mix-blend-mode:normal;shape-margin:0;shape-padding:0;text-decoration-color:#000000;text-decoration-line:none;text-decoration-style:solid;text-indent:0;text-orientation:mixed;text-transform:none;white-space:normal"/>
    <path d="m352.67 356.47c0 0.0217-0.0178 0.0395-0.0395 0.0395s-0.0395-0.0178-0.0395-0.0395 0.0178-0.0395 0.0395-0.0395 0.0395 0.0178 0.0395 0.0395" color="#000000" color-rendering="auto" dominant-baseline="auto" image-rendering="auto" solid-color="#000000" stop-color="#000000" style="font-feature-settings:normal;font-variant-alternates:normal;font-variant-caps:normal;font-variant-east-asian:normal;font-variant-ligatures:normal;font-variant-numeric:normal;font-variant-position:normal;font-variation-settings:normal;inline-size:0;isolation:auto;mix-blend-mode:normal;shape-margin:0;shape-padding:0;text-decoration-color:#000000;text-decoration-line:none;text-decoration-style:solid;text-indent:0;text-orientation:mixed;text-transform:none;white-space:normal"/>
    <path d="m352.88 354.6c0 0.0269-0.0217 0.0486-0.0486 0.0486-0.0265 0-0.0486-0.0217-0.0486-0.0486 0-0.0265 0.0222-0.0486 0.0486-0.0486 0.0269 0 0.0486 0.0222 0.0486 0.0486" color="#000000" color-rendering="auto" dominant-baseline="auto" image-rendering="auto" solid-color="#000000" stop-color="#000000" style="font-feature-settings:normal;font-variant-alternates:normal;font-variant-caps:normal;font-variant-east-asian:normal;font-variant-ligatures:normal;font-variant-numeric:normal;font-variant-position:normal;font-variation-settings:normal;inline-size:0;isolation:auto;mix-blend-mode:normal;shape-margin:0;shape-padding:0;text-decoration-color:#000000;text-decoration-line:none;text-decoration-style:solid;text-indent:0;text-orientation:mixed;text-transform:none;white-space:normal"/>
    <path d="m352.49 354.86c0 0.0217-0.0178 0.0395-0.0395 0.0395s-0.0395-0.0178-0.0395-0.0395 0.0178-0.0395 0.0395-0.0395 0.0395 0.0178 0.0395 0.0395" color="#000000" color-rendering="auto" dominant-baseline="auto" image-rendering="auto" solid-color="#000000" stop-color="#000000" style="font-feature-settings:normal;font-variant-alternates:normal;font-variant-caps:normal;font-variant-east-asian:normal;font-variant-ligatures:normal;font-variant-numeric:normal;font-variant-position:normal;font-variation-settings:normal;inline-size:0;isolation:auto;mix-blend-mode:normal;shape-margin:0;shape-padding:0;text-decoration-color:#000000;text-decoration-line:none;text-decoration-style:solid;text-indent:0;text-orientation:mixed;text-transform:none;white-space:normal"/>
    <path d="m352.87 354.94c0 0.0265-0.0222 0.0486-0.0486 0.0486-0.0265 0-0.0486-0.0222-0.0486-0.0486 0-0.0265 0.0221-0.0486 0.0486-0.0486 0.0264 0 0.0486 0.0221 0.0486 0.0486" color="#000000" color-rendering="auto" dominant-baseline="auto" image-rendering="auto" solid-color="#000000" stop-color="#000000" style="font-feature-settings:normal;font-variant-alternates:normal;font-variant-caps:normal;font-variant-east-asian:normal;font-variant-ligatures:normal;font-variant-numeric:normal;font-variant-position:normal;font-variation-settings:normal;inline-size:0;isolation:auto;mix-blend-mode:normal;shape-margin:0;shape-padding:0;text-decoration-color:#000000;text-decoration-line:none;text-decoration-style:solid;text-indent:0;text-orientation:mixed;text-transform:none;white-space:normal"/>
    <path d="m352.49 355.41c0 0.0217-0.0178 0.0395-0.0395 0.0395s-0.0395-0.0178-0.0395-0.0395 0.0178-0.0395 0.0395-0.0395 0.0395 0.0178 0.0395 0.0395" color="#000000" color-rendering="auto" dominant-baseline="auto" image-rendering="auto" solid-color="#000000" stop-color="#000000" style="font-feature-settings:normal;font-variant-alternates:normal;font-variant-caps:normal;font-variant-east-asian:normal;font-variant-ligatures:normal;font-variant-numeric:normal;font-variant-position:normal;font-variation-settings:normal;inline-size:0;isolation:auto;mix-blend-mode:normal;shape-margin:0;shape-padding:0;text-decoration-color:#000000;text-decoration-line:none;text-decoration-style:solid;text-indent:0;text-orientation:mixed;text-transform:none;white-space:normal"/>
    <path d="m353.48 354.33c0 0.0217-0.0178 0.0395-0.0395 0.0395s-0.0395-0.0178-0.0395-0.0395 0.0178-0.0395 0.0395-0.0395 0.0395 0.0178 0.0395 0.0395" color="#000000" color-rendering="auto" dominant-baseline="auto" image-rendering="auto" solid-color="#000000" stop-color="#000000" style="font-feature-settings:normal;font-variant-alternates:normal;font-variant-caps:normal;font-variant-east-asian:normal;font-variant-ligatures:normal;font-variant-numeric:normal;font-variant-position:normal;font-variation-settings:normal;inline-size:0;isolation:auto;mix-blend-mode:normal;shape-margin:0;shape-padding:0;text-decoration-color:#000000;text-decoration-line:none;text-decoration-style:solid;text-indent:0;text-orientation:mixed;text-transform:none;white-space:normal"/>
    <path d="m353.58 354.57c0 0.0269-0.0221 0.0486-0.0486 0.0486-0.0269 0-0.0486-0.0217-0.0486-0.0486 0-0.0265 0.0217-0.0486 0.0486-0.0486 0.0265 0 0.0486 0.0222 0.0486 0.0486" color="#000000" color-rendering="auto" dominant-baseline="auto" image-rendering="auto" solid-color="#000000" stop-color="#000000" style="font-feature-settings:normal;font-variant-alternates:normal;font-variant-caps:normal;font-variant-east-asian:normal;font-variant-ligatures:normal;font-variant-numeric:normal;font-variant-position:normal;font-variation-settings:normal;inline-size:0;isolation:auto;mix-blend-mode:normal;shape-margin:0;shape-padding:0;text-decoration-color:#000000;text-decoration-line:none;text-decoration-style:solid;text-indent:0;text-orientation:mixed;text-transform:none;white-space:normal"/>
    <path d="m354.26 354.86c0 0.0265-0.0222 0.0486-0.0486 0.0486-0.0269 0-0.0487-0.0222-0.0487-0.0486 0-0.0265 0.0217-0.0482 0.0487-0.0482 0.0265 0 0.0486 0.0217 0.0486 0.0482" color="#000000" color-rendering="auto" dominant-baseline="auto" image-rendering="auto" solid-color="#000000" stop-color="#000000" style="font-feature-settings:normal;font-variant-alternates:normal;font-variant-caps:normal;font-variant-east-asian:normal;font-variant-ligatures:normal;font-variant-numeric:normal;font-variant-position:normal;font-variation-settings:normal;inline-size:0;isolation:auto;mix-blend-mode:normal;shape-margin:0;shape-padding:0;text-decoration-color:#000000;text-decoration-line:none;text-decoration-style:solid;text-indent:0;text-orientation:mixed;text-transform:none;white-space:normal"/>
    <path d="m353.57 355.36c0 0.0217-0.0178 0.0395-0.0395 0.0395s-0.0395-0.0178-0.0395-0.0395 0.0178-0.0395 0.0395-0.0395 0.0395 0.0178 0.0395 0.0395" color="#000000" color-rendering="auto" dominant-baseline="auto" image-rendering="auto" solid-color="#000000" stop-color="#000000" style="font-feature-settings:normal;font-variant-alternates:normal;font-variant-caps:normal;font-variant-east-asian:normal;font-variant-ligatures:normal;font-variant-numeric:normal;font-variant-position:normal;font-variation-settings:normal;inline-size:0;isolation:auto;mix-blend-mode:normal;shape-margin:0;shape-padding:0;text-decoration-color:#000000;text-decoration-line:none;text-decoration-style:solid;text-indent:0;text-orientation:mixed;text-transform:none;white-space:normal"/>
    <path d="m354 354.95c0 0.0217-0.0178 0.0395-0.0395 0.0395s-0.0395-0.0178-0.0395-0.0395 0.0178-0.0395 0.0395-0.0395 0.0395 0.0178 0.0395 0.0395" color="#000000" color-rendering="auto" dominant-baseline="auto" image-rendering="auto" solid-color="#000000" stop-color="#000000" style="font-feature-settings:normal;font-variant-alternates:normal;font-variant-caps:normal;font-variant-east-asian:normal;font-variant-ligatures:normal;font-variant-numeric:normal;font-variant-position:normal;font-variation-settings:normal;inline-size:0;isolation:auto;mix-blend-mode:normal;shape-margin:0;shape-padding:0;text-decoration-color:#000000;text-decoration-line:none;text-decoration-style:solid;text-indent:0;text-orientation:mixed;text-transform:none;white-space:normal"/>
    <path d="m353.92 355.59c0 0.0217-0.0178 0.0395-0.0395 0.0395s-0.0395-0.0178-0.0395-0.0395 0.0178-0.0395 0.0395-0.0395 0.0395 0.0178 0.0395 0.0395" color="#000000" color-rendering="auto" dominant-baseline="auto" image-rendering="auto" solid-color="#000000" stop-color="#000000" style="font-feature-settings:normal;font-variant-alternates:normal;font-variant-caps:normal;font-variant-east-asian:normal;font-variant-ligatures:normal;font-variant-numeric:normal;font-variant-position:normal;font-variation-settings:normal;inline-size:0;isolation:auto;mix-blend-mode:normal;shape-margin:0;shape-padding:0;text-decoration-color:#000000;text-decoration-line:none;text-decoration-style:solid;text-indent:0;text-orientation:mixed;text-transform:none;white-space:normal"/>
    <path d="m351.27 349.09c6e-3 -0.0248 0.0264-0.0441 0.0516-0.0497l0.0139-0.10399 0.0204 0.10508c0.0243 7e-3 0.043 0.0267 0.0486 0.0517l0.10555 0.015-0.10642 0.0187c-7e-3 0.0241-0.026 0.0427-0.0503 0.0488l-0.0178 0.10707-0.0182-0.10794c-0.0234-7e-3 -0.0421-0.026-0.0478-0.0501l-0.10164-0.0165z" color="#000000" color-rendering="auto" dominant-baseline="auto" image-rendering="auto" solid-color="#000000" stop-color="#000000" style="font-feature-settings:normal;font-variant-alternates:normal;font-variant-caps:normal;font-variant-east-asian:normal;font-variant-ligatures:normal;font-variant-numeric:normal;font-variant-position:normal;font-variation-settings:normal;inline-size:0;isolation:auto;mix-blend-mode:normal;shape-margin:0;shape-padding:0;text-decoration-color:#000000;text-decoration-line:none;text-decoration-style:solid;text-indent:0;text-orientation:mixed;text-transform:none;white-space:normal"/>
    <path d="m348.55 356.55c7e-3 -0.0248 0.0265-0.0438 0.0517-0.0495l0.0139-0.10424 0.0204 0.10508c0.0243 7e-3 0.043 0.0269 0.0487 0.0517l0.10505 0.0152-0.10592 0.0187c-7e-3 0.0239-0.0261 0.0426-0.0504 0.0486l-0.0178 0.10682-0.0183-0.1077c-0.0239-7e-3 -0.0421-0.0261-0.0482-0.0499l-0.10162-0.0165z" color="#000000" color-rendering="auto" dominant-baseline="auto" image-rendering="auto" solid-color="#000000" stop-color="#000000" style="font-feature-settings:normal;font-variant-alternates:normal;font-variant-caps:normal;font-variant-east-asian:normal;font-variant-ligatures:normal;font-variant-numeric:normal;font-variant-position:normal;font-variation-settings:normal;inline-size:0;isolation:auto;mix-blend-mode:normal;shape-margin:0;shape-padding:0;text-decoration-color:#000000;text-decoration-line:none;text-decoration-style:solid;text-indent:0;text-orientation:mixed;text-transform:none;white-space:normal"/>
    <path d="m353.56 355.59c7e-3 -0.0248 0.0265-0.0439 0.0517-0.0495l0.0134-0.10424 0.0208 0.10511c0.0243 7e-3 0.043 0.0269 0.0487 0.0521l0.10549 0.0148-0.10639 0.0187c-7e-3 0.0239-0.026 0.0426-0.0504 0.0486l-0.0182 0.10682-0.0178-0.1077c-0.0239-7e-3 -0.0421-0.0261-0.0482-0.0499l-0.10116-0.0165z" color="#000000" color-rendering="auto" dominant-baseline="auto" image-rendering="auto" solid-color="#000000" stop-color="#000000" style="font-feature-settings:normal;font-variant-alternates:normal;font-variant-caps:normal;font-variant-east-asian:normal;font-variant-ligatures:normal;font-variant-numeric:normal;font-variant-position:normal;font-variation-settings:normal;inline-size:0;isolation:auto;mix-blend-mode:normal;shape-margin:0;shape-padding:0;text-decoration-color:#000000;text-decoration-line:none;text-decoration-style:solid;text-indent:0;text-orientation:mixed;text-transform:none;white-space:normal"/>
    <path d="m353.96 354.51c7e-3 -0.0248 0.0269-0.0439 0.0517-0.0495l0.0139-0.10424 0.0204 0.10511c0.0243 7e-3 0.0434 0.0269 0.0491 0.0521l0.1051 0.0148-0.10641 0.0187c-7e-3 0.0239-0.026 0.0425-0.0499 0.0486l-0.0183 0.10728-0.0178-0.10813c-0.0239-7e-3 -0.0421-0.0256-0.0482-0.0499l-0.10162-0.0165z" color="#000000" color-rendering="auto" dominant-baseline="auto" image-rendering="auto" solid-color="#000000" stop-color="#000000" style="font-feature-settings:normal;font-variant-alternates:normal;font-variant-caps:normal;font-variant-east-asian:normal;font-variant-ligatures:normal;font-variant-numeric:normal;font-variant-position:normal;font-variation-settings:normal;inline-size:0;isolation:auto;mix-blend-mode:normal;shape-margin:0;shape-padding:0;text-decoration-color:#000000;text-decoration-line:none;text-decoration-style:solid;text-indent:0;text-orientation:mixed;text-transform:none;white-space:normal"/>
    <path d="m349.03 350.55c7e-3 -0.0248 0.0269-0.0443 0.0521-0.0499l0.0139-0.10377 0.0204 0.10508c0.0243 7e-3 0.043 0.0269 0.0486 0.0517l0.10508 0.0147-0.10593 0.0191c-7e-3 0.0239-0.0261 0.0426-0.0504 0.0486l-0.0178 0.10682-0.0182-0.1077c-0.0239-7e-3 -0.0421-0.0261-0.0482-0.0504l-0.10159-0.0165z" color="#000000" color-rendering="auto" dominant-baseline="auto" image-rendering="auto" solid-color="#000000" stop-color="#000000" style="font-feature-settings:normal;font-variant-alternates:normal;font-variant-caps:normal;font-variant-east-asian:normal;font-variant-ligatures:normal;font-variant-numeric:normal;font-variant-position:normal;font-variation-settings:normal;inline-size:0;isolation:auto;mix-blend-mode:normal;shape-margin:0;shape-padding:0;text-decoration-color:#000000;text-decoration-line:none;text-decoration-style:solid;text-indent:0;text-orientation:mixed;text-transform:none;white-space:normal"/>
    <path d="m349.82 354.33c-0.26443-0.34172-0.57839-0.69736-0.87412-1.1372l-0.10157 0.0247c0.0108 0.017 0.0217 0.0343 0.0326 0.0513 0.27486 0.42509 0.54842 0.78204 0.8311 1.1229 0 0 3e-3 4e-3 7e-3 0.0104z" color="#000000" color-rendering="auto" dominant-baseline="auto" image-rendering="auto" solid-color="#000000" stop-color="#000000" style="font-feature-settings:normal;font-variant-alternates:normal;font-variant-caps:normal;font-variant-east-asian:normal;font-variant-ligatures:normal;font-variant-numeric:normal;font-variant-position:normal;font-variation-settings:normal;inline-size:0;isolation:auto;mix-blend-mode:normal;shape-margin:0;shape-padding:0;text-decoration-color:#000000;text-decoration-line:none;text-decoration-style:solid;text-indent:0;text-orientation:mixed;text-transform:none;white-space:normal"/>
    <path d="m349.83 354.58c0.17807 0.25443 0.50418 0.66478 0.66701 0.51889 0.17543-0.15674-0.22626-0.32132-0.53281-0.60839z" color="#000000" color-rendering="auto" dominant-baseline="auto" image-rendering="auto" solid-color="#000000" stop-color="#000000" style="font-feature-settings:normal;font-variant-alternates:normal;font-variant-caps:normal;font-variant-east-asian:normal;font-variant-ligatures:normal;font-variant-numeric:normal;font-variant-position:normal;font-variation-settings:normal;inline-size:0;isolation:auto;mix-blend-mode:normal;shape-margin:0;shape-padding:0;text-decoration-color:#000000;text-decoration-line:none;text-decoration-style:solid;text-indent:0;text-orientation:mixed;text-transform:none;white-space:normal"/>
    <path d="m350.45 353.91h-0.92883l0.20758-0.20798-0.0738-0.19106h-0.62312l-0.0638 0.21839 0.14853 0.18065h-0.58928l0.2076-0.20798 0.39947-1.3848-0.18021-0.18109h0.8672l0.62178 1.5658 0.12854 0.12895zm-0.9054-0.67306-0.25097-0.63571-0.18414 0.63571z" color="#000000" color-rendering="auto" dominant-baseline="auto" image-rendering="auto" solid-color="#000000" stop-color="#000000" style="font-feature-settings:normal;font-variant-alternates:normal;font-variant-caps:normal;font-variant-east-asian:normal;font-variant-ligatures:normal;font-variant-numeric:normal;font-variant-position:normal;font-variation-settings:normal;inline-size:0;isolation:auto;mix-blend-mode:normal;shape-margin:0;shape-padding:0;text-decoration-color:#000000;text-decoration-line:none;text-decoration-style:solid;text-indent:0;text-orientation:mixed;text-transform:none;white-space:normal"/>
    <path d="m353.05 352.2-0.0712-0.0608h0.15935zm0.47072-0.0608h0.3582l0.62184 1.5658 0.20714 0.20798h-1.129l0.20713-0.20798-0.0734-0.19106h-0.6231l-0.0643 0.21839 0.14894 0.18065h-0.58926l0.2076-0.20798 0.38125-1.3222zm0.0816 1.1008-0.25098-0.63571-0.18408 0.63571z" color="#000000" color-rendering="auto" dominant-baseline="auto" image-rendering="auto" solid-color="#000000" stop-color="#000000" style="font-feature-settings:normal;font-variant-alternates:normal;font-variant-caps:normal;font-variant-east-asian:normal;font-variant-ligatures:normal;font-variant-numeric:normal;font-variant-position:normal;font-variation-settings:normal;inline-size:0;isolation:auto;mix-blend-mode:normal;shape-margin:0;shape-padding:0;text-decoration-color:#000000;text-decoration-line:none;text-decoration-style:solid;text-indent:0;text-orientation:mixed;text-transform:none;white-space:normal"/>
    <path d="m347.77 353.25v-0.92359l-0.18019-0.18107h0.59964l-0.17976 0.18107v1.3848l0.20714 0.20798h-0.78817l-0.6787-1.1485v0.94056l0.17458 0.20798h-0.62704l0.20716-0.20798v-1.3848l-0.17981-0.18107h0.78509z" color="#000000" color-rendering="auto" dominant-baseline="auto" image-rendering="auto" solid-color="#000000" stop-color="#000000" style="font-feature-settings:normal;font-variant-alternates:normal;font-variant-caps:normal;font-variant-east-asian:normal;font-variant-ligatures:normal;font-variant-numeric:normal;font-variant-position:normal;font-variation-settings:normal;inline-size:0;isolation:auto;mix-blend-mode:normal;shape-margin:0;shape-padding:0;text-decoration-color:#000000;text-decoration-line:none;text-decoration-style:solid;text-indent:0;text-orientation:mixed;text-transform:none;white-space:normal"/>
    <path d="m351.03 353.53c-0.0317-0.0243-0.0608-0.0513-0.0873-0.0825l9e-3 0.13414z" color="#000000" color-rendering="auto" dominant-baseline="auto" image-rendering="auto" solid-color="#000000" stop-color="#000000" style="font-feature-settings:normal;font-variant-alternates:normal;font-variant-caps:normal;font-variant-east-asian:normal;font-variant-ligatures:normal;font-variant-numeric:normal;font-variant-position:normal;font-variation-settings:normal;inline-size:0;isolation:auto;mix-blend-mode:normal;shape-margin:0;shape-padding:0;text-decoration-color:#000000;text-decoration-line:none;text-decoration-style:solid;text-indent:0;text-orientation:mixed;text-transform:none;white-space:normal"/>
    <path d="m351.7 353.36c0.12505 0.0486 0.21493 0.0981 0.21277 0.18496-3e-3 0.0969-0.16327 0.16635-0.28834 0.1624-0.0651-2e-3 -0.21362-0.0117-0.36562-0.0629l-0.28788 0.18542 0.0122 0.19667 0.2067-0.15153c0.25143 0.0886 0.55623 0.12592 0.83805 0.0343 0.28009-0.0916 0.57492-0.32567 0.41121-0.73561-0.0313-0.079-0.0881-0.14459-0.15063-0.19673z" color="#000000" color-rendering="auto" dominant-baseline="auto" image-rendering="auto" solid-color="#000000" stop-color="#000000" style="font-feature-settings:normal;font-variant-alternates:normal;font-variant-caps:normal;font-variant-east-asian:normal;font-variant-ligatures:normal;font-variant-numeric:normal;font-variant-position:normal;font-variation-settings:normal;inline-size:0;isolation:auto;mix-blend-mode:normal;shape-margin:0;shape-padding:0;text-decoration-color:#000000;text-decoration-line:none;text-decoration-style:solid;text-indent:0;text-orientation:mixed;text-transform:none;white-space:normal"/>
    <path d="m352.08 352.85c-7e-3 -3e-3 -0.013-6e-3 -0.0191-8e-3 -0.10595-0.043-0.4286-0.17022-0.51888-0.21711-0.10511-0.0547-0.0934-0.22885 0.15978-0.26446 0.22969-0.0317 0.54755 0.152 0.61574 0.23318l-0.0187-0.55231-0.18586 0.12851c-0.26187-0.0916-0.56667-0.0882-0.78035 0.013-0.19929 0.0942-0.4138 0.29311-0.38773 0.57577 0.026 0.28225 0.24533 0.39168 0.4429 0.48113 0.0182 9e-3 0.0382 0.0169 0.0569 0.0243l0.3187-0.20626z" color="#000000" color-rendering="auto" dominant-baseline="auto" image-rendering="auto" solid-color="#000000" stop-color="#000000" style="font-feature-settings:normal;font-variant-alternates:normal;font-variant-caps:normal;font-variant-east-asian:normal;font-variant-ligatures:normal;font-variant-numeric:normal;font-variant-position:normal;font-variation-settings:normal;inline-size:0;isolation:auto;mix-blend-mode:normal;shape-margin:0;shape-padding:0;text-decoration-color:#000000;text-decoration-line:none;text-decoration-style:solid;text-indent:0;text-orientation:mixed;text-transform:none;white-space:normal"/>
   </g>
   <path d="m346.27 357.18-0.01 0.16674c3.8148-3.6345 9.353-5.4491 10.387-8.7398-1.7174 3.3844-6.9004 5.0241-10.378 8.5731" color="#000000" color-rendering="auto" dominant-baseline="auto" fill="url(#linearGradient46602)" image-rendering="auto" solid-color="#000000" stop-color="#000000" style="font-feature-settings:normal;font-variant-alternates:normal;font-variant-caps:normal;font-variant-east-asian:normal;font-variant-ligatures:normal;font-variant-numeric:normal;font-variant-position:normal;font-variation-settings:normal;inline-size:0;isolation:auto;mix-blend-mode:normal;shape-margin:0;shape-padding:0;text-decoration-color:#000000;text-decoration-line:none;text-decoration-style:solid;text-indent:0;text-orientation:mixed;text-transform:none;white-space:normal"/>
   <path d="m348.62 352.84c-0.0404-0.0699-0.0812-0.14157-0.12247-0.21494-0.92708-1.6679-0.79334-3.3699 0.88455-2.6284 1.4239 0.62966 2.7838 2.3952 3.331 3.6489 0.25359 0.581 0.93317 2.8612-1.2554 1.9375l-4e-3 -0.0134c2.0669 0.85109 1.7096-1.3058 0.60362-2.9589-0.62618-0.93575-1.4426-1.7147-1.9576-2.0912-1.7144-1.2518-2.7595-0.48632-1.5563 1.9698 0.0547 0.11116 0.11116 0.21711 0.16935 0.31873z" color="#000000" color-rendering="auto" dominant-baseline="auto" fill="#fff" image-rendering="auto" solid-color="#000000" stop-color="#000000" style="font-feature-settings:normal;font-variant-alternates:normal;font-variant-caps:normal;font-variant-east-asian:normal;font-variant-ligatures:normal;font-variant-numeric:normal;font-variant-position:normal;font-variation-settings:normal;inline-size:0;isolation:auto;mix-blend-mode:normal;shape-margin:0;shape-padding:0;text-decoration-color:#000000;text-decoration-line:none;text-decoration-style:solid;text-indent:0;text-orientation:mixed;text-transform:none;white-space:normal"/>
   <path d="m353.05 351.91c1.4821-0.67826 2.7873-1.6727 3.5902-3.308-0.7764 1.1142-2.126 1.9666-3.6891 2.661-0.25704 0.11375-0.52022 0.22362-0.78729 0.32957-2.489 0.98833-5.5104 1.7221-7.2422 2.8595l0.12467 0.0438c1.8989-1.1559 5.2559-1.3283 8.0037-2.5858" color="#000000" color-rendering="auto" dominant-baseline="auto" fill="#fff" image-rendering="auto" opacity=".7" solid-color="#000000" stop-color="#000000" style="font-feature-settings:normal;font-variant-alternates:normal;font-variant-caps:normal;font-variant-east-asian:normal;font-variant-ligatures:normal;font-variant-numeric:normal;font-variant-position:normal;font-variation-settings:normal;inline-size:0;isolation:auto;mix-blend-mode:normal;shape-margin:0;shape-padding:0;text-decoration-color:#000000;text-decoration-line:none;text-decoration-style:solid;text-indent:0;text-orientation:mixed;text-transform:none;white-space:normal"/>
  </g>
 </g>
</svg>
