<?xml version="1.0" encoding="utf-8"?>
<!-- Generated by IcoMoon.io -->
<svg version="1.1" xmlns="http://www.w3.org/2000/svg" xmlns:xlink="http://www.w3.org/1999/xlink" width="720" height="287" viewBox="0 0 720 287">
<svg id="icon-checkbox-hover" width="15" height="15" viewBox="0 0 15 15" x="0" y="0">
<path fill="#0d67ff" opacity="0.8" d="M3 0h9c1.657 0 3 1.343 3 3v9c0 1.657-1.343 3-3 3h-9c-1.657 0-3-1.343-3-3v-9c0-1.657 1.343-3 3-3z"></path>
</svg>
<svg id="icon-checkbox" width="15" height="15" viewBox="0 0 15 15" x="31" y="0">
<path opacity="0.8" fill="#000" d="M3 0h9c1.657 0 3 1.343 3 3v9c0 1.657-1.343 3-3 3h-9c-1.657 0-3-1.343-3-3v-9c0-1.657 1.343-3 3-3z"></path>
</svg>
<svg id="icon-checkbox-selected" width="15" height="15" viewBox="0 0 15 15" x="62" y="0">
<path fill="#0d67ff" d="M3 0h9c1.657 0 3 1.343 3 3v9c0 1.657-1.343 3-3 3h-9c-1.657 0-3-1.343-3-3v-9c0-1.657 1.343-3 3-3z"></path>
<path fill="#fff" d="M6.771 11l-2.771-2.867 1.138-1.127 1.475 1.526 4.114-5.532 1.273 0.969-5.229 7.031z"></path>
</svg>
<svg id="icon-radio-circle" width="15" height="15" viewBox="0 0 15 15" x="93" y="0">
<path opacity="0.8" fill="#000" d="M7.5 0c4.142 0 7.5 3.358 7.5 7.5s-3.358 7.5-7.5 7.5c-4.142 0-7.5-3.358-7.5-7.5s3.358-7.5 7.5-7.5z"></path>
</svg>
<svg id="icon-radio-circle-hover" width="15" height="15" viewBox="0 0 15 15" x="124" y="0">
<path fill="#0d67ff" opacity="0.8" d="M7.5 0c4.142 0 7.5 3.358 7.5 7.5s-3.358 7.5-7.5 7.5c-4.142 0-7.5-3.358-7.5-7.5s3.358-7.5 7.5-7.5z"></path>
</svg>
<svg id="icon-radio-selected" width="15" height="15" viewBox="0 0 15 15" x="155" y="0">
<path fill="#0d67ff" d="M7.5 0c4.142 0 7.5 3.358 7.5 7.5s-3.358 7.5-7.5 7.5c-4.142 0-7.5-3.358-7.5-7.5s3.358-7.5 7.5-7.5z"></path>
<path fill="#fff" d="M11 7.5c0 1.933-1.567 3.5-3.5 3.5s-3.5-1.567-3.5-3.5c0-1.933 1.567-3.5 3.5-3.5s3.5 1.567 3.5 3.5z"></path>
</svg>
<svg id="icon-backward" width="14" height="14" viewBox="0 0 14 14" x="0" y="31">
<path fill="#fff" d="M8.327 11.816v-3.108l4.833 3.108v-9.632l-4.833 3.108v-3.108l-7.487 4.816 7.487 4.816z"></path>
</svg>
<svg id="icon-forward" width="14" height="14" viewBox="0 0 14 14" x="30" y="31">
<path fill="#fff" d="M5.673 11.816v-3.108l-4.833 3.108v-9.632l4.833 3.108v-3.108l7.487 4.816-7.487 4.816z"></path>
</svg>
<svg id="icon-back-to-live" width="10" height="10" viewBox="0 0 10 10" x="0" y="61">
<path d="M10 5c0 2.761-2.239 5-5 5s-5-2.239-5-5c0-2.761 2.239-5 5-5s5 2.239 5 5z"></path>
</svg>
<svg id="icon-live" width="10" height="10" viewBox="0 0 10 10" x="26" y="61">
<path fill="#47da84" d="M10 5c0 2.761-2.239 5-5 5s-5-2.239-5-5c0-2.761 2.239-5 5-5s5 2.239 5 5z"></path>
</svg>
<svg id="icon-natural-light" width="8" height="16" viewBox="0 0 8 16" x="0" y="87">
<path fill="#fff" d="M8 0c-2.122 0-4.157 0.843-5.657 2.343s-2.343 3.535-2.343 5.657c0 2.122 0.843 4.157 2.343 5.657s3.535 2.343 5.657 2.343v-16z"></path>
</svg>
<svg id="icon-flood-light" width="16" height="16" viewBox="0 0 16 16" x="32" y="87">
<path fill="#fff" d="M16 8c0 4.418-3.582 8-8 8s-8-3.582-8-8c0-4.418 3.582-8 8-8s8 3.582 8 8z"></path>
</svg>
<svg id="icon-shadow-light" width="16" height="16" viewBox="0 0 16 16" x="64" y="87">
<path fill="#fff" opacity="0.4" d="M16 8c0 4.418-3.582 8-8 8s-8-3.582-8-8c0-4.418 3.582-8 8-8s8 3.582 8 8z"></path>
<path fill="#fff" d="M8 0c-2.122 0-4.157 0.843-5.657 2.343s-2.343 3.535-2.343 5.657c0 2.122 0.843 4.157 2.343 5.657s3.535 2.343 5.657 2.343v-16z"></path>
</svg>
<svg id="icon-clock" width="30" height="30" viewBox="0 0 30 30" x="0" y="119">
<path fill="#252527" opacity="0.6" d="M-0.010 3v24c0 1.657 1.343 3 3 3h24c1.657 0 3-1.343 3-3v-24c0-1.657-1.343-3-3-3h-24c-1.657 0-3 1.343-3 3z"></path>
<path fill="#fff" opacity="0.4" d="M14.991 5.005c-5.513 0-10 4.487-10 10s4.487 10 10 10c5.4 0 9.756-4.323 9.935-9.68 0.041-0.094 0.064-0.203 0.064-0.318 0-0.001 0-0.001 0-0.002v0c-0-0.113-0.023-0.22-0.065-0.318l0.002 0.005c-0.175-5.361-4.535-9.688-9.937-9.688zM14.991 6.638c4.63 0 8.367 3.737 8.367 8.367s-3.737 8.367-8.367 8.367c-4.63 0-8.367-3.737-8.367-8.367s3.737-8.367 8.367-8.367z"></path>
<path fill="#fff" opacity="0.4" d="M16.693 15.004c0 0.94-0.762 1.702-1.702 1.702v0c-0.94 0-1.702-0.762-1.702-1.702v0c0-0.94 0.762-1.702 1.702-1.702v0c0.94 0 1.702 0.762 1.702 1.702v0z"></path>
<path fill="#fff" opacity="0.4" d="M14.223 14.4s0.134-4.020 0.758-4.020c0.757 0 0.758 4.020 0.758 4.020z"></path>
<path fill="#fff" opacity="0.4" d="M16.181 15.287c5.183 4.36 4.873 4.787 4.724 4.965-0.203 0.241-0.474 0.592-5.7-3.805z"></path>
<path fill="#fff" opacity="0.4" d="M14.991 5.179c-0.451 0-0.816 0.366-0.817 0.816v1.294c0 0 0 0.001 0 0.001 0 0.451 0.366 0.817 0.817 0.817h0c0.451-0 0.817-0.366 0.817-0.817 0-0 0-0.001 0-0.002v0-1.294c-0-0.451-0.366-0.816-0.817-0.817h-0z"></path>
<path fill="#fff" opacity="0.4" d="M14.991 21.855c-0.451 0-0.816 0.366-0.817 0.817v1.294c0 0.451 0.366 0.816 0.817 0.817h0c0.451-0 0.816-0.366 0.817-0.817v-1.294c-0-0.451-0.366-0.816-0.817-0.817h-0z"></path>
<path fill="#fff" opacity="0.4" d="M5.871 14.19c-0.451 0-0.816 0.366-0.817 0.817v0c0 0.451 0.366 0.816 0.816 0.817h1.294c0.451-0 0.816-0.366 0.817-0.817v-0c-0-0.451-0.366-0.816-0.816-0.817h-0z"></path>
<path fill="#fff" opacity="0.4" d="M22.721 14.19c-0 0-0.001 0-0.001 0-0.451 0-0.817 0.366-0.817 0.817v0c0 0.451 0.366 0.817 0.817 0.817 0 0 0.001 0 0.002 0h1.294c0.451-0 0.816-0.366 0.817-0.817v-0c-0-0.451-0.366-0.816-0.816-0.817h-0z"></path>
</svg>
<svg id="icon-clock-hover" width="30" height="30" viewBox="0 0 30 30" x="46" y="119">
<path fill="#95959d" opacity="0.2" d="M0 3v24c0 1.657 1.343 3 3 3h24c1.657 0 3-1.343 3-3v-24c0-1.657-1.343-3-3-3h-24c-1.657 0-3 1.343-3 3z"></path>
<path fill="#fff" d="M15.001 5.005c-5.513 0-10 4.487-10 10s4.487 10 10 10c5.4 0 9.756-4.323 9.935-9.68 0.041-0.094 0.064-0.203 0.064-0.318 0-0.001 0-0.001 0-0.002v0c-0-0.113-0.023-0.22-0.065-0.318l0.002 0.005c-0.175-5.361-4.535-9.688-9.937-9.688zM15.001 6.638c4.63 0 8.367 3.737 8.367 8.367s-3.737 8.367-8.367 8.367c-4.63 0-8.367-3.737-8.367-8.367s3.737-8.367 8.367-8.367z"></path>
<path fill="#fff" d="M16.703 15.004c0 0.94-0.762 1.702-1.702 1.702v0c-0.94 0-1.702-0.762-1.702-1.702v0c0-0.94 0.762-1.702 1.702-1.702v0c0.94 0 1.702 0.762 1.702 1.702v0z"></path>
<path fill="#fff" d="M14.233 14.4s0.134-4.020 0.758-4.020c0.757 0 0.758 4.020 0.758 4.020z"></path>
<path fill="#fff" d="M16.191 15.287c5.183 4.36 4.873 4.787 4.724 4.965-0.203 0.241-0.474 0.592-5.7-3.805z"></path>
<path fill="#fff" d="M15.001 5.179c-0.451 0-0.816 0.366-0.817 0.816v1.294c0 0 0 0.001 0 0.001 0 0.451 0.366 0.817 0.817 0.817h0c0.451-0 0.817-0.366 0.817-0.817 0-0 0-0.001 0-0.002v0-1.294c-0-0.451-0.366-0.816-0.817-0.817h-0z"></path>
<path fill="#fff" d="M15.001 21.855c-0.451 0-0.816 0.366-0.817 0.817v1.294c0 0.451 0.366 0.816 0.817 0.817h0c0.451-0 0.816-0.366 0.817-0.817v-1.294c-0-0.451-0.366-0.816-0.817-0.817h-0z"></path>
<path fill="#fff" d="M5.881 14.19c-0.451 0-0.816 0.366-0.817 0.817v0c0 0.451 0.366 0.816 0.816 0.817h1.294c0.451-0 0.816-0.366 0.817-0.817v-0c-0-0.451-0.366-0.816-0.816-0.817h-0z"></path>
<path fill="#fff" d="M22.731 14.19c-0 0-0.001 0-0.001 0-0.451 0-0.817 0.366-0.817 0.817v0c0 0.451 0.366 0.817 0.817 0.817 0 0 0.001 0 0.002 0h1.294c0.451-0 0.816-0.366 0.817-0.817v-0c-0-0.451-0.366-0.816-0.816-0.817h-0z"></path>
</svg>
<svg id="icon-story" width="30" height="30" viewBox="0 0 30 30" x="92" y="119">
<path fill="#252527" opacity="0.6" d="M0 3v24c0 1.657 1.343 3 3 3h24c1.657 0 3-1.343 3-3v-24c0-1.657-1.343-3-3-3h-24c-1.657 0-3 1.343-3 3z"></path>
<path fill="#fff" opacity="0.4" d="M13.34 3.71l-2.289 2.764 2.106 2.809h11.178v-5.572h-0.75zM14.045 5.21h8.789v2.572h-8.928l-0.945-1.262z"></path>
<path fill="#fff" opacity="0.4" d="M13.34 10.91l-2.289 2.764 2.106 2.809h11.178v-5.572h-0.75zM14.045 12.41h8.789v2.572h-8.928l-0.945-1.262z"></path>
<path fill="#fff" opacity="0.4" d="M6.51 3.64c-0.345 0-0.625 0.28-0.625 0.625v0 13.654h2.297c0.345 0 0.625-0.28 0.625-0.625v0c0-0.345-0.28-0.625-0.625-0.625v0h-1.047v-12.404c0-0.345-0.28-0.625-0.625-0.625v0z"></path>
<path fill="#fff" opacity="0.4" d="M6.57 13.13c-0.345 0-0.625 0.28-0.625 0.625v0c0 0.345 0.28 0.625 0.625 0.625v0h2.99c0.345 0 0.625-0.28 0.625-0.625v0c0-0.345-0.28-0.625-0.625-0.625v0z"></path>
<path fill="#fff" opacity="0.4" d="M6.57 9.52c-0.345 0-0.625 0.28-0.625 0.625v0c0 0.345 0.28 0.625 0.625 0.625v0h1.328c0.345 0 0.625-0.28 0.625-0.625v0c0-0.345-0.28-0.625-0.625-0.625v0z"></path>
<path fill="#fff" opacity="0.4" d="M6.57 5.91c-0.345 0-0.625 0.28-0.625 0.625v0c0 0.345 0.28 0.625 0.625 0.625v0h2.99c0.345 0 0.625-0.28 0.625-0.625v0c0-0.345-0.28-0.625-0.625-0.625v0z"></path>
<path fill="#fff" opacity="0.4" d="M5.089 26.27h1.12v-6.208h-1.12z"></path>
<path fill="#fff" opacity="0.4" d="M7.089 26.27h1.13v-4.365l3.28 4.365h1.12v-6.208h-1.12v4.365l-3.28-4.365h-1.13z"></path>
<path fill="#fff" opacity="0.4" d="M18.149 21.090v-1.030h-4.672v6.208h1.13v-2.575h3.208v-1.030h-3.208v-1.572z"></path>
<path fill="#fff" opacity="0.4" d="M21.669 26.38c1.762 0 3.253-1.473 3.253-3.217s-1.491-3.208-3.253-3.208c-1.771 0-3.262 1.464-3.262 3.208s1.491 3.217 3.262 3.217zM21.669 25.35c-1.148 0-2.115-0.994-2.115-2.187 0-1.184 0.967-2.178 2.115-2.178 1.139 0 2.096 0.994 2.096 2.178 0 1.193-0.958 2.187-2.096 2.187z"></path>
</svg>
<svg id="icon-story-hover" width="30" height="30" viewBox="0 0 30 30" x="138" y="119">
<path fill="#95959d" opacity="0.2" d="M0 3v24c0 1.657 1.343 3 3 3h24c1.657 0 3-1.343 3-3v-24c0-1.657-1.343-3-3-3h-24c-1.657 0-3 1.343-3 3z"></path>
<path fill="#fff" d="M13.34 3.71l-2.289 2.764 2.106 2.809h11.178v-5.572h-0.75zM14.045 5.21h8.789v2.572h-8.928l-0.945-1.262z"></path>
<path fill="#fff" d="M13.34 10.91l-2.289 2.764 2.106 2.809h11.178v-5.572h-0.75zM14.045 12.41h8.789v2.572h-8.928l-0.945-1.262z"></path>
<path fill="#fff" d="M6.51 3.64c-0.345 0-0.625 0.28-0.625 0.625v0 13.654h2.297c0.345 0 0.625-0.28 0.625-0.625v0c0-0.345-0.28-0.625-0.625-0.625v0h-1.047v-12.404c0-0.345-0.28-0.625-0.625-0.625v0z"></path>
<path fill="#fff" d="M6.57 13.13c-0.345 0-0.625 0.28-0.625 0.625v0c0 0.345 0.28 0.625 0.625 0.625v0h2.99c0.345 0 0.625-0.28 0.625-0.625v0c0-0.345-0.28-0.625-0.625-0.625v0z"></path>
<path fill="#fff" d="M6.57 9.52c-0.345 0-0.625 0.28-0.625 0.625v0c0 0.345 0.28 0.625 0.625 0.625v0h1.328c0.345 0 0.625-0.28 0.625-0.625v0c0-0.345-0.28-0.625-0.625-0.625v0z"></path>
<path fill="#fff" d="M6.57 5.91c-0.345 0-0.625 0.28-0.625 0.625v0c0 0.345 0.28 0.625 0.625 0.625v0h2.99c0.345 0 0.625-0.28 0.625-0.625v0c0-0.345-0.28-0.625-0.625-0.625v0z"></path>
<path fill="#fff" d="M5.089 26.27h1.12v-6.208h-1.12z"></path>
<path fill="#fff" d="M7.089 26.27h1.13v-4.365l3.28 4.365h1.12v-6.208h-1.12v4.365l-3.28-4.365h-1.13z"></path>
<path fill="#fff" d="M18.149 21.090v-1.030h-4.672v6.208h1.13v-2.575h3.208v-1.030h-3.208v-1.572z"></path>
<path fill="#fff" d="M21.669 26.38c1.762 0 3.253-1.473 3.253-3.217s-1.491-3.208-3.253-3.208c-1.771 0-3.262 1.464-3.262 3.208s1.491 3.217 3.262 3.217zM21.669 25.35c-1.148 0-2.115-0.994-2.115-2.187 0-1.184 0.967-2.178 2.115-2.178 1.139 0 2.096 0.994 2.096 2.178 0 1.193-0.958 2.187-2.096 2.187z"></path>
</svg>
<svg id="icon-auto-cam" width="30" height="30" viewBox="0 0 30 30" x="184" y="119">
<path fill="#252527" opacity="0.6" d="M0 3v24c0 1.657 1.343 3 3 3h24c1.657 0 3-1.343 3-3v-24c0-1.657-1.343-3-3-3h-24c-1.657 0-3 1.343-3 3z"></path>
<path fill="#fff" opacity="0.4" d="M8.071 25.458h1.247l-2.593-6.208h-1.256l-2.593 6.208h1.256l0.47-1.12h3zM5.008 23.362l1.093-2.611 1.093 2.611z"></path>
<path fill="#fff" opacity="0.4" d="M12.391 25.568c1.608 0 2.738-1.139 2.738-2.756v-3.56h-1.12v3.524c0 1.030-0.669 1.771-1.618 1.771-0.94 0-1.608-0.741-1.608-1.771v-3.524h-1.13v3.56c0 1.618 1.139 2.756 2.738 2.756z"></path>
<path fill="#fff" opacity="0.4" d="M17.601 25.458h1.12v-5.178h1.988v-1.030h-5.096v1.030h1.988z"></path>
<path fill="#fff" opacity="0.4" d="M23.881 25.568c1.762 0 3.253-1.473 3.253-3.217s-1.491-3.208-3.253-3.208c-1.771 0-3.262 1.464-3.262 3.208s1.491 3.217 3.262 3.217zM23.881 24.538c-1.148 0-2.115-0.994-2.115-2.187 0-1.184 0.967-2.178 2.115-2.178 1.139 0 2.096 0.994 2.096 2.178 0 1.193-0.958 2.187-2.096 2.187z"></path>
<path fill="#fff" opacity="0.4" d="M5.86 6.698v11.424l6.268-3.887v-3.752l-0.389-0.234zM7.465 9.544l3.057 1.846v1.953l-3.057 1.895z"></path>
<path fill="#fff" opacity="0.4" d="M15.84 2.118c-1.844 0-3.355 1.511-3.355 3.355s1.511 3.355 3.355 3.355c1.844 0 3.355-1.511 3.355-3.355s-1.511-3.355-3.355-3.355zM15.84 3.618c1.034 0 1.855 0.822 1.855 1.855s-0.822 1.855-1.855 1.855-1.855-0.822-1.855-1.855 0.822-1.855 1.855-1.855z"></path>
<path fill="#fff" opacity="0.4" d="M21.020 3.448c-1.424 0-2.594 1.171-2.594 2.596s1.169 2.594 2.594 2.594c1.424 0 2.596-1.169 2.596-2.594s-1.171-2.596-2.596-2.596zM21.020 4.948c0.614 0 1.096 0.482 1.096 1.096s-0.482 1.094-1.096 1.094c-0.614 0-1.094-0.48-1.094-1.094s0.48-1.096 1.094-1.096z"></path>
<path fill="#fff" opacity="0.4" d="M12.27 8.048l-0.76 0.76v6.871l0.76 0.76h11.117l0.76-0.76v-6.871l-0.76-0.76zM13.030 9.567h9.598v5.352h-9.598z"></path>
</svg>
<svg id="icon-auto-cam-hover" width="30" height="30" viewBox="0 0 30 30" x="230" y="119">
<path fill="#95959d" opacity="0.2" d="M-0.010 3v24c0 1.657 1.343 3 3 3h24c1.657 0 3-1.343 3-3v-24c0-1.657-1.343-3-3-3h-24c-1.657 0-3 1.343-3 3z"></path>
<path fill="#fff" d="M8.061 25.458h1.247l-2.593-6.208h-1.256l-2.593 6.208h1.256l0.47-1.12h3zM4.997 23.362l1.093-2.611 1.093 2.611z"></path>
<path fill="#fff" d="M12.381 25.568c1.608 0 2.738-1.139 2.738-2.756v-3.56h-1.12v3.524c0 1.030-0.669 1.771-1.618 1.771-0.94 0-1.608-0.741-1.608-1.771v-3.524h-1.13v3.56c0 1.618 1.139 2.756 2.738 2.756z"></path>
<path fill="#fff" d="M17.591 25.458h1.12v-5.178h1.988v-1.030h-5.096v1.030h1.988z"></path>
<path fill="#fff" d="M23.871 25.568c1.762 0 3.253-1.473 3.253-3.217s-1.491-3.208-3.253-3.208c-1.771 0-3.262 1.464-3.262 3.208s1.491 3.217 3.262 3.217zM23.871 24.538c-1.148 0-2.115-0.994-2.115-2.187 0-1.184 0.967-2.178 2.115-2.178 1.139 0 2.096 0.994 2.096 2.178 0 1.193-0.958 2.187-2.096 2.187z"></path>
<path fill="#fff" d="M5.85 6.698v11.424l6.268-3.887v-3.752l-0.389-0.234zM7.455 9.544l3.057 1.846v1.953l-3.057 1.895z"></path>
<path fill="#fff" d="M15.83 2.118c-1.844 0-3.355 1.511-3.355 3.355s1.511 3.355 3.355 3.355c1.844 0 3.355-1.511 3.355-3.355s-1.511-3.355-3.355-3.355zM15.83 3.618c1.034 0 1.855 0.822 1.855 1.855s-0.822 1.855-1.855 1.855-1.855-0.822-1.855-1.855 0.822-1.855 1.855-1.855z"></path>
<path fill="#fff" d="M21.010 3.448c-1.424 0-2.594 1.171-2.594 2.596s1.169 2.594 2.594 2.594c1.424 0 2.596-1.169 2.596-2.594s-1.171-2.596-2.596-2.596zM21.010 4.948c0.614 0 1.096 0.482 1.096 1.096s-0.482 1.094-1.096 1.094c-0.614 0-1.094-0.48-1.094-1.094s0.48-1.096 1.094-1.096z"></path>
<path fill="#fff" d="M12.26 8.048l-0.76 0.76v6.871l0.76 0.76h11.117l0.76-0.76v-6.871l-0.76-0.76zM13.020 9.567h9.598v5.352h-9.598z"></path>
</svg>
<svg id="icon-free-cam-hover" width="30" height="30" viewBox="0 0 30 30" x="276" y="119">
<path fill="#95959d" opacity="0.2" d="M0 3.003v24c0 1.657 1.343 3 3 3h24c1.657 0 3-1.343 3-3v-24c0-1.657-1.343-3-3-3h-24c-1.657 0-3 1.343-3 3z"></path>
<path fill="#fff" d="M8.6 20.283v-1.030h-4.672v6.208h1.13v-2.575h3.208v-1.030h-3.208v-1.572z"></path>
<path fill="#fff" d="M14.67 25.463l-1.554-2.205c0.895-0.28 1.5-1.003 1.5-1.943 0-1.211-0.994-2.060-2.322-2.060h-2.702v6.208h1.13v-2.087h1.202l1.464 2.087zM10.721 20.294h1.446c0.768 0 1.301 0.389 1.301 1.021s-0.533 1.021-1.301 1.021h-1.446z"></path>
<path fill="#fff" d="M20.32 20.283v-1.030h-4.672v6.208h4.672v-1.030h-3.542v-1.618h3.208v-1.030h-3.208v-1.5z"></path>
<path fill="#fff" d="M26.070 20.283v-1.030h-4.672v6.208h4.672v-1.030h-3.542v-1.618h3.208v-1.030h-3.208v-1.5z"></path>
<path fill="#fff" d="M5.86 6.703v11.424l6.268-3.887v-3.752l-0.389-0.234zM7.465 9.548l3.057 1.846v1.953l-3.057 1.895z"></path>
<path fill="#fff" d="M15.84 2.123c-1.844 0-3.355 1.511-3.355 3.355s1.511 3.355 3.355 3.355c1.844 0 3.355-1.511 3.355-3.355s-1.511-3.355-3.355-3.355zM15.84 3.623c1.034 0 1.855 0.822 1.855 1.855s-0.822 1.855-1.855 1.855-1.855-0.822-1.855-1.855 0.822-1.855 1.855-1.855z"></path>
<path fill="#fff" d="M21.020 3.453c-1.424 0-2.594 1.171-2.594 2.596s1.169 2.594 2.594 2.594c1.424 0 2.596-1.169 2.596-2.594s-1.171-2.596-2.596-2.596zM21.020 4.953c0.614 0 1.096 0.482 1.096 1.096s-0.482 1.094-1.096 1.094c-0.614 0-1.094-0.48-1.094-1.094s0.48-1.096 1.094-1.096z"></path>
<path fill="#fff" d="M12.27 8.053l-0.76 0.76v6.871l0.76 0.76h11.117l0.76-0.76v-6.871l-0.76-0.76zM13.030 9.572h9.598v5.352h-9.598z"></path>
</svg>
<svg id="icon-free-cam" width="30" height="30" viewBox="0 0 30 30" x="322" y="119">
<path fill="#252527" opacity="0.6" d="M-0.010 2.995v24c0 1.657 1.343 3 3 3h24c1.657 0 3-1.343 3-3v-24c0-1.657-1.343-3-3-3h-24c-1.657 0-3 1.343-3 3z"></path>
<path fill="#fff" opacity="0.4" d="M8.59 20.275v-1.030h-4.672v6.208h1.13v-2.575h3.208v-1.030h-3.208v-1.572z"></path>
<path fill="#fff" opacity="0.4" d="M14.66 25.455l-1.554-2.205c0.895-0.28 1.5-1.003 1.5-1.943 0-1.211-0.994-2.060-2.322-2.060h-2.702v6.208h1.13v-2.087h1.202l1.464 2.087zM10.711 20.286h1.446c0.768 0 1.301 0.389 1.301 1.021s-0.533 1.021-1.301 1.021h-1.446z"></path>
<path fill="#fff" opacity="0.4" d="M20.31 20.275v-1.030h-4.672v6.208h4.672v-1.030h-3.542v-1.618h3.208v-1.030h-3.208v-1.5z"></path>
<path fill="#fff" opacity="0.4" d="M26.060 20.275v-1.030h-4.672v6.208h4.672v-1.030h-3.542v-1.618h3.208v-1.030h-3.208v-1.5z"></path>
<path fill="#fff" opacity="0.4" d="M5.849 6.695v11.424l6.268-3.887v-3.752l-0.389-0.234zM7.455 9.541l3.057 1.846v1.953l-3.057 1.895z"></path>
<path fill="#fff" opacity="0.4" d="M15.829 2.115c-1.844 0-3.355 1.511-3.355 3.355s1.511 3.355 3.355 3.355c1.844 0 3.355-1.511 3.355-3.355s-1.511-3.355-3.355-3.355zM15.829 3.615c1.034 0 1.855 0.822 1.855 1.855s-0.822 1.855-1.855 1.855-1.855-0.822-1.855-1.855 0.822-1.855 1.855-1.855z"></path>
<path fill="#fff" opacity="0.4" d="M21.009 3.445c-1.424 0-2.594 1.171-2.594 2.596s1.169 2.594 2.594 2.594c1.424 0 2.596-1.169 2.596-2.594s-1.171-2.596-2.596-2.596zM21.009 4.945c0.614 0 1.096 0.482 1.096 1.096s-0.482 1.094-1.096 1.094c-0.614 0-1.094-0.48-1.094-1.094s0.48-1.096 1.094-1.096z"></path>
<path fill="#fff" opacity="0.4" d="M12.259 8.045l-0.76 0.76v6.871l0.76 0.76h11.117l0.76-0.76v-6.871l-0.76-0.76zM13.019 9.564h9.598v5.352h-9.598z"></path>
</svg>
<svg id="icon-box" width="30" height="30" viewBox="0 0 30 30" x="368" y="119">
<path opacity="0.6" fill="#252527" d="M0 3v24c0 1.657 1.343 3 3 3h24c1.657 0 3-1.343 3-3v-24c0-1.657-1.343-3-3-3h-24c-1.657 0-3 1.343-3 3z"></path>
</svg>
<svg id="icon-box-hover" width="30" height="30" viewBox="0 0 30 30" x="414" y="119">
<path fill="#95959d" opacity="0.2" d="M0 3v24c0 1.657 1.343 3 3 3h24c1.657 0 3-1.343 3-3v-24c0-1.657-1.343-3-3-3h-24c-1.657 0-3 1.343-3 3z"></path>
</svg>
<svg id="icon-info" width="30" height="30" viewBox="0 0 30 30" x="460" y="119">
<path fill="#fff" d="M16.315 8.222q0.596 0 1 0.414 0.414 0.414 0.414 1t-0.414 1.001-1 0.414q-0.577 0-0.991-0.414t-0.414-1.001 0.404-1q0.414-0.414 1-0.414zM16.911 12.647l-1.972 6.84q-0.164 0.587-0.164 0.77 0 0.106 0.086 0.202 0.086 0.087 0.183 0.087 0.163 0 0.327-0.144 0.433-0.356 1.039-1.289l0.327 0.193q-1.452 2.53-3.088 2.53-0.625 0-1-0.346-0.365-0.356-0.365-0.895 0-0.356 0.163-0.904l1.337-4.599q0.192-0.664 0.192-1.001 0-0.212-0.183-0.375t-0.5-0.163q-0.144 0-0.346 0.008l0.125-0.385 3.26-0.529z"></path>
<path fill="#fff" d="M15.014 4.037c-6.066 0-10.997 4.933-10.997 11s4.932 11 10.997 11c5.96 0 10.774-4.78 10.942-10.702 0.038-0.088 0.060-0.19 0.061-0.298v-0c-0.001-0.108-0.023-0.21-0.063-0.303l0.002 0.005c-0.168-5.921-4.982-10.702-10.942-10.702zM15.014 5.6c5.221 0 9.44 4.215 9.44 9.437s-4.219 9.437-9.44 9.437c-5.221 0-9.435-4.215-9.435-9.437s4.214-9.437 9.435-9.437z"></path>
</svg>
<svg id="icon-hide" width="30" height="30" viewBox="0 0 30 30" x="506" y="119">
<path fill="#252527" opacity="0.6" d="M3 0h24c1.657 0 3 1.343 3 3v24c0 1.657-1.343 3-3 3h-24c-1.657 0-3-1.343-3-3v-24c0-1.657 1.343-3 3-3z"></path>
<path fill="#fff" opacity="0.4" d="M14.8 7.85c-3.547 0.034-7.060 2.255-9.061 6.772 0.64 1.288 1.375 2.388 2.172 3.32l1.836-1.771c-0.12-0.427-0.189-0.917-0.189-1.423 0-0.001 0-0.002 0-0.002v0c0-3.005 2.436-5.441 5.441-5.441h0c0.576 0 1.131 0.090 1.652 0.257l-0.039-0.011 1.219-1.176c-0.99-0.35-2.011-0.533-3.031-0.523zM22.064 11.274l-1.881 1.816c0.163 0.494 0.258 1.063 0.258 1.654v0c-0 3.005-2.436 5.441-5.441 5.441h-0c-0.661-0-1.294-0.118-1.88-0.334l0.038 0.012-1.176 1.137c4.445 1.826 9.459-0.312 12.277-6.379-0.61-1.307-1.358-2.416-2.195-3.348z"></path>
<path fill="#fff" opacity="0.4" d="M17.546 14.75c0 1.406-1.14 2.546-2.546 2.546s-2.546-1.14-2.546-2.546c0-1.406 1.14-2.546 2.546-2.546s2.546 1.14 2.546 2.546z"></path>
<path fill="#fff" opacity="0.4" d="M22.55 6.24c-0.246-0.004-0.494 0.084-0.686 0.27l-5.148 4.967c0.705 0.375 1.261 0.95 1.604 1.648l0.010 0.022 5.146-4.965c0.384-0.37 0.396-0.976 0.025-1.359l-0.275-0.287c-0.185-0.192-0.43-0.29-0.676-0.295zM11.667 16.347l-5.145 4.963c-0.384 0.37-0.396 0.976-0.025 1.359l0.275 0.287c0.37 0.384 0.978 0.396 1.361 0.025l5.145-4.963c-0.704-0.376-1.26-0.951-1.602-1.65l-0.010-0.022z"></path>
</svg>
<svg id="icon-hide-hover" width="30" height="30" viewBox="0 0 30 30" x="552" y="119">
<path fill="#95959d" opacity="0.2" d="M3 0h24c1.657 0 3 1.343 3 3v24c0 1.657-1.343 3-3 3h-24c-1.657 0-3-1.343-3-3v-24c0-1.657 1.343-3 3-3z"></path>
<path fill="#fff" d="M14.8 7.85c-3.547 0.034-7.060 2.255-9.061 6.772 0.64 1.288 1.375 2.388 2.172 3.32l1.836-1.771c-0.12-0.427-0.189-0.917-0.189-1.423 0-0.001 0-0.002 0-0.002v0c0-3.005 2.436-5.441 5.441-5.441h0c0.576 0 1.131 0.090 1.652 0.257l-0.039-0.011 1.219-1.176c-0.99-0.35-2.011-0.533-3.031-0.523zM22.064 11.274l-1.881 1.816c0.163 0.494 0.258 1.063 0.258 1.654v0c-0 3.005-2.436 5.441-5.441 5.441h-0c-0.661-0-1.294-0.118-1.88-0.334l0.038 0.012-1.176 1.137c4.445 1.826 9.459-0.312 12.277-6.379-0.61-1.307-1.358-2.416-2.195-3.348z"></path>
<path fill="#fff" d="M17.546 14.75c0 1.406-1.14 2.546-2.546 2.546s-2.546-1.14-2.546-2.546c0-1.406 1.14-2.546 2.546-2.546s2.546 1.14 2.546 2.546z"></path>
<path fill="#fff" d="M22.55 6.24c-0.246-0.004-0.494 0.084-0.686 0.27l-5.148 4.967c0.705 0.375 1.261 0.95 1.604 1.648l0.010 0.022 5.146-4.965c0.384-0.37 0.396-0.976 0.025-1.359l-0.275-0.287c-0.185-0.192-0.43-0.29-0.676-0.295zM11.667 16.347l-5.145 4.963c-0.384 0.37-0.396 0.976-0.025 1.359l0.275 0.287c0.37 0.384 0.978 0.396 1.361 0.025l5.145-4.963c-0.704-0.376-1.26-0.951-1.602-1.65l-0.010-0.022z"></path>
</svg>
<svg id="icon-km" width="30" height="30" viewBox="0 0 30 30" x="598" y="119">
<path fill="#252527" opacity="0.6" d="M0 3v24c0 1.657 1.343 3 3 3h24c1.657 0 3-1.343 3-3v-24c0-1.657-1.343-3-3-3h-24c-1.657 0-3 1.343-3 3z"></path>
<path fill="#fff" opacity="0.4" d="M12.4 12.65h-2.019l-3.141 3.435v-5.987h-1.711v9.801h1.711v-1.809l1.024-1.080 2.047 2.888h1.991l-2.888-4.010z"></path>
<path fill="#fff" opacity="0.4" d="M21.82 12.48c-1.080 0-1.991 0.533-2.342 1.374-0.449-0.855-1.29-1.374-2.314-1.374-0.911 0-1.655 0.449-2.019 1.15v-0.982h-1.711v7.249h1.711v-4.445c0-0.883 0.659-1.514 1.584-1.514 0.841 0 1.416 0.673 1.416 1.627v4.333h1.669v-4.445c0-0.883 0.645-1.514 1.584-1.514 0.827 0 1.402 0.673 1.402 1.627v4.333h1.669v-4.613c0-1.641-1.136-2.804-2.65-2.804z"></path>
</svg>
<svg id="icon-km-hover" width="30" height="30" viewBox="0 0 30 30" x="644" y="119">
<path fill="#95959d" opacity="0.2" d="M-0 3.005v24c0 1.657 1.343 3 3 3h24c1.657 0 3-1.343 3-3v-24c0-1.657-1.343-3-3-3h-24c-1.657 0-3 1.343-3 3z"></path>
<path fill="#fff" d="M12.4 12.655h-2.019l-3.141 3.435v-5.987h-1.711v9.801h1.711v-1.809l1.024-1.080 2.047 2.888h1.991l-2.888-4.010z"></path>
<path fill="#fff" d="M21.82 12.485c-1.080 0-1.991 0.533-2.342 1.374-0.449-0.855-1.29-1.374-2.314-1.374-0.911 0-1.655 0.449-2.019 1.15v-0.982h-1.711v7.249h1.711v-4.445c0-0.883 0.659-1.514 1.584-1.514 0.841 0 1.416 0.673 1.416 1.627v4.333h1.669v-4.445c0-0.883 0.645-1.514 1.584-1.514 0.827 0 1.402 0.673 1.402 1.627v4.333h1.669v-4.613c0-1.641-1.136-2.804-2.65-2.804z"></path>
</svg>
<svg id="icon-mi" width="30" height="30" viewBox="0 0 30 30" x="690" y="119">
<path fill="#252527" opacity="0.6" d="M0 3v24c0 1.657 1.343 3 3 3h24c1.657 0 3-1.343 3-3v-24c0-1.657-1.343-3-3-3h-24c-1.657 0-3 1.343-3 3z"></path>
<path fill="#fff" opacity="0.4" d="M16.020 12.729c-1.080 0-1.991 0.533-2.342 1.374-0.449-0.855-1.29-1.374-2.314-1.374-0.911 0-1.655 0.449-2.019 1.15v-0.982h-1.711v7.249h1.711v-4.445c0-0.883 0.659-1.514 1.584-1.514 0.841 0 1.416 0.673 1.416 1.627v4.333h1.669v-4.445c0-0.883 0.645-1.514 1.584-1.514 0.827 0 1.402 0.673 1.402 1.627v4.333h1.669v-4.613c0-1.641-1.136-2.804-2.65-2.804z"></path>
<path fill="#fff" opacity="0.4" d="M21.39 11.799c0.533 0 0.967-0.463 0.967-0.982s-0.435-0.967-0.967-0.967c-0.547 0-0.982 0.449-0.982 0.967s0.435 0.982 0.982 0.982zM20.521 20.142h1.711v-7.249h-1.711z"></path>
</svg>
<svg id="icon-mi-hover" width="30" height="30" viewBox="0 0 30 30" x="0" y="165">
<path fill="#95959d" opacity="0.2" d="M-0 2.996v24c0 1.657 1.343 3 3 3h24c1.657 0 3-1.343 3-3v-24c0-1.657-1.343-3-3-3h-24c-1.657 0-3 1.343-3 3z"></path>
<path fill="#fff" d="M16.020 12.726c-1.080 0-1.991 0.533-2.342 1.374-0.449-0.855-1.29-1.374-2.314-1.374-0.911 0-1.655 0.449-2.019 1.15v-0.982h-1.711v7.249h1.711v-4.445c0-0.883 0.659-1.514 1.584-1.514 0.841 0 1.416 0.673 1.416 1.627v4.333h1.669v-4.445c0-0.883 0.645-1.514 1.584-1.514 0.827 0 1.402 0.673 1.402 1.627v4.333h1.669v-4.613c0-1.641-1.136-2.804-2.65-2.804z"></path>
<path fill="#fff" d="M21.39 11.796c0.533 0 0.967-0.463 0.967-0.982s-0.435-0.967-0.967-0.967c-0.547 0-0.982 0.449-0.982 0.967s0.435 0.982 0.982 0.982zM20.521 20.139h1.711v-7.249h-1.711z"></path>
</svg>
<svg id="icon-lighting-fixed" width="54" height="30" viewBox="0 0 54 30" x="46" y="165">
<path fill="#252527" opacity="0.6" d="M3 0h48c1.657 0 3 1.343 3 3v24c0 1.657-1.343 3-3 3h-48c-1.657 0-3-1.343-3-3v-24c0-1.657 1.343-3 3-3z"></path>
<path fill="#fff" opacity="0.4" d="M37.529 13.904h7.941l-3.971 3.971-3.971-3.971z"></path>
</svg>
<svg id="icon-lighting-hover-fixed" width="54" height="30" viewBox="0 0 54 30" x="138" y="165">
<path fill="#95959d" opacity="0.2" d="M3 0h48c1.657 0 3 1.343 3 3v24c0 1.657-1.343 3-3 3h-48c-1.657 0-3-1.343-3-3v-24c0-1.657 1.343-3 3-3z"></path>
<path fill="#fff" d="M37.529 13.904h7.941l-3.971 3.971-3.971-3.971z"></path>
</svg>
<svg id="icon-fullscreen-fixed" width="30" height="30" viewBox="0 0 30 30" x="230" y="165">
<path fill="#252527" opacity="0.6" d="M3 0h24c1.657 0 3 1.343 3 3v24c0 1.657-1.343 3-3 3h-24c-1.657 0-3-1.343-3-3v-24c0-1.657 1.343-3 3-3z"></path>
<path fill="#fff" opacity="0.4" d="M20.647 13.413c-0.194 0-0.353-0.158-0.353-0.353v-2.641c0-0.023-0.010-0.047-0.026-0.063-0.034-0.034-0.090-0.034-0.124 0l-3.939 3.94c-0.138 0.138-0.361 0.138-0.499 0s-0.138-0.361 0-0.499l3.939-3.94c0.016-0.017 0.025-0.039 0.025-0.062 0-0.048-0.039-0.088-0.088-0.088h-2.64c-0.194 0-0.353-0.159-0.353-0.353s0.159-0.353 0.353-0.353h3.706c0.194 0 0.353 0.159 0.353 0.353v3.707c0 0.194-0.158 0.353-0.353 0.353zM9.353 16.587c0.194 0 0.353 0.158 0.353 0.353v2.641c0 0.023 0.010 0.047 0.026 0.063 0.034 0.034 0.090 0.034 0.124 0l3.94-3.94c0.138-0.138 0.361-0.138 0.499 0s0.138 0.361 0 0.499l-3.94 3.94c-0.017 0.017-0.025 0.039-0.025 0.062 0 0.048 0.039 0.088 0.088 0.088h2.641c0.194 0 0.353 0.159 0.353 0.353s-0.159 0.353-0.353 0.353h-3.707c-0.194 0-0.353-0.158-0.353-0.353v-3.707c0-0.194 0.159-0.353 0.353-0.353z"></path>
<path fill="#fff" opacity="0.4" d="M16.941 8.5c-0.466 0-0.854 0.387-0.854 0.854s0.387 0.852 0.854 0.852h1.647l-3.236 3.238c-0.329 0.329-0.329 0.876 0 1.205s0.878 0.329 1.207 0l3.236-3.236v1.648c0 0.466 0.385 0.854 0.852 0.854s0.854-0.387 0.854-0.854v-3.707c0-0.466-0.387-0.854-0.854-0.854zM13.443 15.352l-3.238 3.236v-1.648c0-0.466-0.385-0.854-0.852-0.854s-0.854 0.387-0.854 0.854v3.707c0 0.466 0.387 0.854 0.854 0.854h3.707c0.466 0 0.854-0.387 0.854-0.854s-0.387-0.852-0.854-0.852h-1.648l3.236-3.238c0.329-0.329 0.329-0.876 0-1.205s-0.876-0.329-1.205 0z"></path>
</svg>
<svg id="icon-fullscreen-hover-fixed" width="30" height="30" viewBox="0 0 30 30" x="276" y="165">
<path fill="#95959d" opacity="0.2" d="M3 0h24c1.657 0 3 1.343 3 3v24c0 1.657-1.343 3-3 3h-24c-1.657 0-3-1.343-3-3v-24c0-1.657 1.343-3 3-3z"></path>
<path fill="#fff" d="M20.647 13.413c-0.194 0-0.353-0.158-0.353-0.353v-2.641c0-0.023-0.010-0.047-0.026-0.063-0.034-0.034-0.090-0.034-0.124 0l-3.939 3.94c-0.138 0.138-0.361 0.138-0.499 0s-0.138-0.361 0-0.499l3.939-3.94c0.016-0.017 0.025-0.039 0.025-0.062 0-0.048-0.039-0.088-0.088-0.088h-2.64c-0.194 0-0.353-0.159-0.353-0.353s0.159-0.353 0.353-0.353h3.706c0.194 0 0.353 0.159 0.353 0.353v3.707c0 0.194-0.158 0.353-0.353 0.353zM9.353 16.587c0.194 0 0.353 0.158 0.353 0.353v2.641c0 0.023 0.010 0.047 0.026 0.063 0.034 0.034 0.090 0.034 0.124 0l3.94-3.94c0.138-0.138 0.361-0.138 0.499 0s0.138 0.361 0 0.499l-3.94 3.94c-0.017 0.017-0.025 0.039-0.025 0.062 0 0.048 0.039 0.088 0.088 0.088h2.641c0.194 0 0.353 0.159 0.353 0.353s-0.159 0.353-0.353 0.353h-3.707c-0.194 0-0.353-0.158-0.353-0.353v-3.707c0-0.194 0.159-0.353 0.353-0.353z"></path>
<path fill="#fff" d="M16.941 8.5c-0.466 0-0.854 0.387-0.854 0.854s0.387 0.852 0.854 0.852h1.647l-3.236 3.238c-0.329 0.329-0.329 0.876 0 1.205s0.878 0.329 1.207 0l3.236-3.236v1.648c0 0.466 0.385 0.854 0.852 0.854s0.854-0.387 0.854-0.854v-3.707c0-0.466-0.387-0.854-0.854-0.854zM13.443 15.352l-3.238 3.236v-1.648c0-0.466-0.385-0.854-0.852-0.854s-0.854 0.387-0.854 0.854v3.707c0 0.466 0.387 0.854 0.854 0.854h3.707c0.466 0 0.854-0.387 0.854-0.854s-0.387-0.852-0.854-0.852h-1.648l3.236-3.238c0.329-0.329 0.329-0.876 0-1.205s-0.876-0.329-1.205 0z"></path>
</svg>
<svg id="icon-expand" width="30" height="30" viewBox="0 0 30 30" x="322" y="165">
<path fill="#252527" opacity="0.6" d="M3 30h24c1.657 0 3-1.343 3-3v-24c0-1.657-1.343-3-3-3h-24c-1.657 0-3 1.343-3 3v24c0 1.657 1.343 3 3 3z"></path>
<path fill="#fff" opacity="0.4" d="M19.135 14.879c0.34-0.34 0.34-0.891 0-1.23l-4.635-4.635-4.635 4.635c-0.34 0.34-0.34 0.891 0 1.23s0.891 0.34 1.23 0l3.404-3.404 3.404 3.404c0.34 0.34 0.891 0.34 1.23 0z"></path>
<path fill="#fff" opacity="0.4" d="M19.135 20.51c0.34-0.34 0.34-0.891 0-1.23l-4.635-4.635-4.635 4.635c-0.34 0.34-0.34 0.891 0 1.23s0.891 0.34 1.23 0l3.404-3.404 3.404 3.404c0.34 0.34 0.891 0.34 1.23 0z"></path>
</svg>
<svg id="icon-expand-hover" width="30" height="30" viewBox="0 0 30 30" x="368" y="165">
<path fill="#95959d" opacity="0.2" d="M3 30h24c1.657 0 3-1.343 3-3v-24c0-1.657-1.343-3-3-3h-24c-1.657 0-3 1.343-3 3v24c0 1.657 1.343 3 3 3z"></path>
<path fill="#fff" d="M19.135 14.879c0.34-0.34 0.34-0.891 0-1.23l-4.635-4.635-4.635 4.635c-0.34 0.34-0.34 0.891 0 1.23s0.891 0.34 1.23 0l3.404-3.404 3.404 3.404c0.34 0.34 0.891 0.34 1.23 0z"></path>
<path fill="#fff" d="M19.135 20.51c0.34-0.34 0.34-0.891 0-1.23l-4.635-4.635-4.635 4.635c-0.34 0.34-0.34 0.891 0 1.23s0.891 0.34 1.23 0l3.404-3.404 3.404 3.404c0.34 0.34 0.891 0.34 1.23 0z"></path>
</svg>
<svg id="icon-arrow-down-fixed" width="30" height="30" viewBox="0 0 30 30" x="414" y="165">
<path fill="#fff" d="M21.407 17.156c0.425-0.412 0.436-1.090 0.024-1.515s-1.090-0.436-1.515-0.024l-3.681 3.564v-11.47c0-0.592-0.48-1.071-1.071-1.071s-1.071 0.48-1.071 1.071v11.788l-4.010-3.883c-0.425-0.412-1.103-0.401-1.515 0.024s-0.401 1.103 0.024 1.515l6.407 6.204 0.745-0.722z"></path>
</svg>
<svg id="icon-arrow-right-fixed" width="30" height="30" viewBox="0 0 30 30" x="460" y="165">
<path fill="#fff" d="M17.156 8.593c-0.412-0.425-1.090-0.436-1.515-0.024s-0.436 1.090-0.024 1.515l3.564 3.681h-11.47c-0.592 0-1.071 0.48-1.071 1.071s0.48 1.071 1.071 1.071h11.789l-3.883 4.010c-0.412 0.425-0.401 1.103 0.024 1.515s1.103 0.401 1.515-0.024l6.204-6.407-0.722-0.745z"></path>
</svg>
<svg id="icon-controls-hover-fixed" width="30" height="30" viewBox="0 0 30 30" x="506" y="165">
<path fill="#95959d" opacity="0.2" d="M3 0h24c1.657 0 3 1.343 3 3v24c0 1.657-1.343 3-3 3h-24c-1.657 0-3-1.343-3-3v-24c0-1.657 1.343-3 3-3z"></path>
<path fill="#fff" d="M9.5 21c0 0.276 0.224 0.5 0.5 0.5s0.5-0.224 0.5-0.5v-6.5h1v-3h-1v-1.5c0-0.276-0.224-0.5-0.5-0.5s-0.5 0.224-0.5 0.5v1.5h-1v3h1v6.5zM14.5 21c0 0.276 0.224 0.5 0.5 0.5s0.5-0.224 0.5-0.5v-4.5h1v-3h-1v-3.5c0-0.276-0.224-0.5-0.5-0.5s-0.5 0.224-0.5 0.5v3.5h-1v3h1v4.5zM20 21.5c-0.276 0-0.5-0.224-0.5-0.5v-1.5h-1v-3h1v-6.5c0-0.276 0.224-0.5 0.5-0.5s0.5 0.224 0.5 0.5v6.5h1v3h-1v1.5c0 0.276-0.224 0.5-0.5 0.5z"></path>
</svg>
<svg id="icon-controls-fixed" width="30" height="30" viewBox="0 0 30 30" x="552" y="165">
<path fill="#252527" opacity="0.6" d="M3 0h24c1.657 0 3 1.343 3 3v24c0 1.657-1.343 3-3 3h-24c-1.657 0-3-1.343-3-3v-24c0-1.657 1.343-3 3-3z"></path>
<path fill="#fff" opacity="0.4" d="M9.5 21c0 0.276 0.224 0.5 0.5 0.5s0.5-0.224 0.5-0.5v-6.5h1v-3h-1v-1.5c0-0.276-0.224-0.5-0.5-0.5s-0.5 0.224-0.5 0.5v1.5h-1v3h1v6.5zM14.5 21c0 0.276 0.224 0.5 0.5 0.5s0.5-0.224 0.5-0.5v-4.5h1v-3h-1v-3.5c0-0.276-0.224-0.5-0.5-0.5s-0.5 0.224-0.5 0.5v3.5h-1v3h1v4.5zM20 21.5c-0.276 0-0.5-0.224-0.5-0.5v-1.5h-1v-3h1v-6.5c0-0.276 0.224-0.5 0.5-0.5s0.5 0.224 0.5 0.5v6.5h1v3h-1v1.5c0 0.276-0.224 0.5-0.5 0.5z"></path>
</svg>
<svg id="icon-expand-side" width="30" height="30" viewBox="0 0 30 30" x="598" y="165">
<path fill="#252527" opacity="0.6" d="M0 3v24c0 1.657 1.343 3 3 3h24c1.657 0 3-1.343 3-3v-24c0-1.657-1.343-3-3-3h-24c-1.657 0-3 1.343-3 3z"></path>
<path fill="#fff" opacity="0.4" d="M15.121 19.135c0.34 0.34 0.891 0.34 1.23 0l4.635-4.635-4.635-4.635c-0.34-0.34-0.891-0.34-1.23 0s-0.34 0.891 0 1.23l3.404 3.404-3.404 3.404c-0.34 0.34-0.34 0.891 0 1.23z"></path>
<path fill="#fff" opacity="0.4" d="M9.49 19.135c0.34 0.34 0.891 0.34 1.23 0l4.635-4.635-4.635-4.635c-0.34-0.34-0.891-0.34-1.23 0s-0.34 0.891 0 1.23l3.404 3.404-3.404 3.404c-0.34 0.34-0.34 0.891 0 1.23z"></path>
</svg>
<svg id="icon-expand-side-hover" width="30" height="30" viewBox="0 0 30 30" x="644" y="165">
<path fill="#95959d" opacity="0.2" d="M0 3v24c0 1.657 1.343 3 3 3h24c1.657 0 3-1.343 3-3v-24c0-1.657-1.343-3-3-3h-24c-1.657 0-3 1.343-3 3z"></path>
<path fill="#fff" d="M15.121 19.135c0.34 0.34 0.891 0.34 1.23 0l4.635-4.635-4.635-4.635c-0.34-0.34-0.891-0.34-1.23 0s-0.34 0.891 0 1.23l3.404 3.404-3.404 3.404c-0.34 0.34-0.34 0.891 0 1.23z"></path>
<path fill="#fff" d="M9.49 19.135c0.34 0.34 0.891 0.34 1.23 0l4.635-4.635-4.635-4.635c-0.34-0.34-0.891-0.34-1.23 0s-0.34 0.891 0 1.23l3.404 3.404-3.404 3.404c-0.34 0.34-0.34 0.891 0 1.23z"></path>
</svg>
<svg id="icon-replay-fixed" width="30" height="30" viewBox="0 0 30 30" x="690" y="165">
<path fill="#fff" d="M21.5 13.088v-3.823l-1.379 1.338c-1.221-1.3-2.994-2.103-4.924-2.103-3.703 0-6.697 2.906-6.697 6.5s2.994 6.5 6.697 6.5c1.891 0 3.585-0.765 4.806-1.988l-1.103-1.109c-0.906 0.956-2.246 1.567-3.704 1.567-2.836 0-5.121-2.217-5.121-4.97s2.285-4.97 5.121-4.97c1.497 0 2.875 0.65 3.821 1.644l-1.457 1.414z"></path>
</svg>
<svg id="icon-menu-fixed" width="30" height="30" viewBox="0 0 30 30" x="0" y="211">
<path fill="#fff" d="M21.522 9.195c0 0.66-0.535 1.195-1.195 1.195h-10.655c-0.66 0-1.195-0.535-1.195-1.195s0.535-1.195 1.195-1.195h10.655c0.66 0 1.195 0.535 1.195 1.195z"></path>
<path fill="#fff" d="M21.522 15c0 0.66-0.535 1.195-1.195 1.195h-10.655c-0.66 0-1.195-0.535-1.195-1.195s0.535-1.195 1.195-1.195h10.655c0.66 0 1.195 0.535 1.195 1.195z"></path>
<path fill="#fff" d="M21.522 20.805c0 0.66-0.535 1.195-1.195 1.195h-10.655c-0.66 0-1.195-0.535-1.195-1.195s0.535-1.195 1.195-1.195h10.655c0.66 0 1.195 0.535 1.195 1.195z"></path>
</svg>
<svg id="icon-search-fixed" width="30" height="30" viewBox="0 0 30 30" x="46" y="211">
<path fill="#fff" d="M22.448 20.79l-3.967-3.985c0.624-0.947 0.988-2.080 0.988-3.301 0-3.306-2.668-5.986-5.958-5.986s-5.958 2.68-5.958 5.986c0 3.305 2.667 5.986 5.958 5.986 1.214 0 2.344-0.366 3.286-0.992l3.966 3.985zM9.24 13.505c0-2.369 1.912-4.289 4.27-4.289s4.271 1.92 4.271 4.289-1.912 4.29-4.271 4.29c-2.358 0-4.27-1.921-4.27-4.29z"></path>
</svg>
<svg id="icon-close-fixed" width="30" height="30" viewBox="0 0 30 30" x="92" y="211">
<path fill="#fff" d="M12.725 11.5l5.775 5.775c0.338 0.338 0.338 0.887 0 1.225v0c-0.338 0.338-0.887 0.338-1.225 0l-5.775-5.775c-0.338-0.338-0.338-0.887 0-1.225v0c0.338-0.338 0.887-0.338 1.225 0z"></path>
<path fill="#fff" d="M11.5 17.275l5.775-5.775c0.338-0.338 0.887-0.338 1.225 0v0c0.338 0.338 0.338 0.887 0 1.225l-5.775 5.775c-0.338 0.338-0.887 0.338-1.225 0v0c-0.338-0.338-0.338-0.887 0-1.225z"></path>
</svg>
<svg id="icon-minus-fixed" width="30" height="30" viewBox="0 0 30 30" x="138" y="211">
<path fill="#fff" d="M10.050 13.95h9.9c0.58 0 1.050 0.47 1.050 1.050s-0.47 1.050-1.050 1.050h-9.9c-0.58 0-1.050-0.47-1.050-1.050s0.47-1.050 1.050-1.050z"></path>
</svg>
<svg id="icon-plus" width="30" height="30" viewBox="0 0 30 30" x="184" y="211">
<path fill="#fff" d="M10.463 14.038h9.075c0.532 0 0.962 0.431 0.962 0.962s-0.431 0.962-0.962 0.962h-9.075c-0.532 0-0.962-0.431-0.962-0.962s0.431-0.962 0.962-0.962z"></path>
<path fill="#fff" d="M14.037 19.538v-9.075c0-0.532 0.431-0.962 0.962-0.962s0.962 0.431 0.962 0.962v9.075c0 0.532-0.431 0.962-0.962 0.962s-0.962-0.431-0.962-0.962z"></path>
</svg>
<svg id="icon-collapse" width="30" height="30" viewBox="0 0 30 30" x="230" y="211">
<path fill="#252527" opacity="0.6" d="M3 0h24c1.657 0 3 1.343 3 3v24c0 1.657-1.343 3-3 3h-24c-1.657 0-3-1.343-3-3v-24c0-1.657 1.343-3 3-3z"></path>
<path fill="#fff" opacity="0.4" d="M19.135 15.121c0.34 0.34 0.34 0.891 0 1.23l-4.635 4.635-4.635-4.635c-0.34-0.34-0.34-0.891 0-1.23s0.891-0.34 1.23 0l3.404 3.404 3.404-3.404c0.34-0.34 0.891-0.34 1.23 0z"></path>
<path fill="#fff" opacity="0.4" d="M19.135 9.49c0.34 0.34 0.34 0.891 0 1.23l-4.635 4.635-4.635-4.635c-0.34-0.34-0.34-0.891 0-1.23s0.891-0.34 1.23 0l3.404 3.404 3.404-3.404c0.34-0.34 0.891-0.34 1.23 0z"></path>
</svg>
<svg id="icon-collapse-hover" width="30" height="30" viewBox="0 0 30 30" x="276" y="211">
<path fill="#95959d" opacity="0.2" d="M3 0h24c1.657 0 3 1.343 3 3v24c0 1.657-1.343 3-3 3h-24c-1.657 0-3-1.343-3-3v-24c0-1.657 1.343-3 3-3z"></path>
<path fill="#fff" d="M19.135 15.121c0.34 0.34 0.34 0.891 0 1.23l-4.635 4.635-4.635-4.635c-0.34-0.34-0.34-0.891 0-1.23s0.891-0.34 1.23 0l3.404 3.404 3.404-3.404c0.34-0.34 0.891-0.34 1.23 0z"></path>
<path fill="#fff" d="M19.135 9.49c0.34 0.34 0.34 0.891 0 1.23l-4.635 4.635-4.635-4.635c-0.34-0.34-0.34-0.891 0-1.23s0.891-0.34 1.23 0l3.404 3.404 3.404-3.404c0.34-0.34 0.891-0.34 1.23 0z"></path>
</svg>
<svg id="icon-collapse-side" width="30" height="30" viewBox="0 0 30 30" x="322" y="211">
<path fill="#252527" opacity="0.6" d="M30 3v24c0 1.657-1.343 3-3 3h-24c-1.657 0-3-1.343-3-3v-24c0-1.657 1.343-3 3-3h24c1.657 0 3 1.343 3 3z"></path>
<path fill="#fff" opacity="0.4" d="M14.879 19.135c-0.34 0.34-0.891 0.34-1.23 0l-4.635-4.635 4.635-4.635c0.34-0.34 0.891-0.34 1.23 0s0.34 0.891 0 1.23l-3.404 3.404 3.404 3.404c0.34 0.34 0.34 0.891 0 1.23z"></path>
<path fill="#fff" opacity="0.4" d="M20.51 19.135c-0.34 0.34-0.891 0.34-1.23 0l-4.635-4.635 4.635-4.635c0.34-0.34 0.891-0.34 1.23 0s0.34 0.891 0 1.23l-3.404 3.404 3.404 3.404c0.34 0.34 0.34 0.891 0 1.23z"></path>
</svg>
<svg id="icon-collapse-side-hover" width="30" height="30" viewBox="0 0 30 30" x="368" y="211">
<path fill="#95959d" opacity="0.2" d="M30 3v24c0 1.657-1.343 3-3 3h-24c-1.657 0-3-1.343-3-3v-24c0-1.657 1.343-3 3-3h24c1.657 0 3 1.343 3 3z"></path>
<path fill="#fff" d="M14.879 19.135c-0.34 0.34-0.891 0.34-1.23 0l-4.635-4.635 4.635-4.635c0.34-0.34 0.891-0.34 1.23 0s0.34 0.891 0 1.23l-3.404 3.404 3.404 3.404c0.34 0.34 0.34 0.891 0 1.23z"></path>
<path fill="#fff" d="M20.51 19.135c-0.34 0.34-0.891 0.34-1.23 0l-4.635-4.635 4.635-4.635c0.34-0.34 0.891-0.34 1.23 0s0.34 0.891 0 1.23l-3.404 3.404 3.404 3.404c0.34 0.34 0.34 0.891 0 1.23z"></path>
</svg>
<svg id="icon-dropdown" width="30" height="30" viewBox="0 0 30 30" x="414" y="211">
<path fill="#fff" d="M8.73 12.48h12.539l-6.27 6.27-6.27-6.27z"></path>
</svg>
<svg id="icon-dropup" width="31" height="30" viewBox="0 0 31 30" x="460" y="211">
<path fill="#fff" d="M8.889 17.52l6.383-6.27 6.383 6.27h-12.767z"></path>
</svg>
<svg id="icon-greater" width="30" height="30" viewBox="0 0 30 30" x="506" y="211">
<path fill="#fff" d="M12.48 7.5l7.5 7.5-7.5 7.5-1.758-1.758 5.742-5.742-5.742-5.742 1.758-1.758z"></path>
</svg>
<svg id="icon-lesser" width="30" height="30" viewBox="0 0 30 30" x="552" y="211">
<path fill="#fff" d="M19.277 9.258l-5.742 5.742 5.742 5.742-1.758 1.758-7.5-7.5 7.5-7.5 1.758 1.758z"></path>
</svg>
<svg id="icon-pause" width="30" height="30" viewBox="0 0 30 30" x="598" y="211">
<path fill="#252527" opacity="0.6" d="M3 0h24c1.657 0 3 1.343 3 3v24c0 1.657-1.343 3-3 3h-24c-1.657 0-3-1.343-3-3v-24c0-1.657 1.343-3 3-3z"></path>
<path fill="#fff" opacity="0.4" d="M9.763 11.57c0-0.867 0.703-1.57 1.57-1.57s1.57 0.703 1.57 1.57v6.859c0 0.867-0.703 1.57-1.57 1.57s-1.57-0.703-1.57-1.57v-6.859z"></path>
<path fill="#fff" opacity="0.4" d="M17 11.57c0-0.867 0.703-1.57 1.57-1.57s1.57 0.703 1.57 1.57v6.859c0 0.867-0.703 1.57-1.57 1.57s-1.57-0.703-1.57-1.57z"></path>
</svg>
<svg id="icon-pause-hover" width="30" height="30" viewBox="0 0 30 30" x="644" y="211">
<path fill="#95959d" opacity="0.2" d="M3 0h24c1.657 0 3 1.343 3 3v24c0 1.657-1.343 3-3 3h-24c-1.657 0-3-1.343-3-3v-24c0-1.657 1.343-3 3-3z"></path>
<path fill="#fff" d="M9.763 11.57c0-0.867 0.703-1.57 1.57-1.57s1.57 0.703 1.57 1.57v6.859c0 0.867-0.703 1.57-1.57 1.57s-1.57-0.703-1.57-1.57v-6.859z"></path>
<path fill="#fff" d="M17 11.57c0-0.867 0.703-1.57 1.57-1.57s1.57 0.703 1.57 1.57v6.859c0 0.867-0.703 1.57-1.57 1.57s-1.57-0.703-1.57-1.57z"></path>
</svg>
<svg id="icon-play" width="30" height="30" viewBox="0 0 30 30" x="690" y="211">
<path fill="#252527" opacity="0.6" d="M3 0h24c1.657 0 3 1.343 3 3v24c0 1.657-1.343 3-3 3h-24c-1.657 0-3-1.343-3-3v-24c0-1.657 1.343-3 3-3z"></path>
<path fill="#fff" opacity="0.4" d="M19.5 14.134c0.667 0.385 0.667 1.347 0 1.732l-6.9 3.984c-0.667 0.385-1.5-0.096-1.5-0.866v-7.967c0-0.77 0.833-1.251 1.5-0.866l6.9 3.984z"></path>
</svg>
<svg id="icon-play-hover" width="30" height="30" viewBox="0 0 30 30" x="0" y="257">
<path fill="#95959d" opacity="0.2" d="M3 0h24c1.657 0 3 1.343 3 3v24c0 1.657-1.343 3-3 3h-24c-1.657 0-3-1.343-3-3v-24c0-1.657 1.343-3 3-3z"></path>
<path fill="#fff" d="M19.5 14.134c0.667 0.385 0.667 1.347 0 1.732l-6.9 3.984c-0.667 0.385-1.5-0.096-1.5-0.866v-7.967c0-0.77 0.833-1.251 1.5-0.866l6.9 3.984z"></path>
</svg>
<svg id="icon-telescope" width="30" height="30" viewBox="0 0 30 30" x="46" y="257">
<path fill="#252527" opacity="0.6" d="M3 0h24c1.657 0 3 1.343 3 3v24c0 1.657-1.343 3-3 3h-24c-1.657 0-3-1.343-3-3v-24c0-1.657 1.343-3 3-3z"></path>
<path fill="#fff" opacity="0.4" d="M22.044 8.343c-0.037-0.144-0.136-0.265-0.27-0.33s-0.29-0.069-0.427-0.010l-2.924 1.292c-0.215 0.098-0.333 0.329-0.289 0.561l-7.616 2.074c-0.131 0.036-0.242 0.122-0.309 0.24s-0.084 0.258-0.047 0.389l0.034 0.102-1.003 0.272c-0.199 0.053-0.347 0.221-0.374 0.425l-1.037 0.272c-0.131 0.036-0.242 0.122-0.309 0.24s-0.084 0.258-0.048 0.389l0.544 1.989c0.061 0.222 0.263 0.375 0.493 0.375h0.136l1.020-0.272 0.153 0.119c0.078 0.045 0.165 0.068 0.255 0.068h0.136l1.003-0.272 0.034 0.102c0.061 0.221 0.263 0.375 0.493 0.374h0.136l3.23-0.884-0.001 2.38-2.737 4.233 0.85 0.544 2.38-3.689 2.38 3.689 0.85-0.544-2.72-4.233v-2.686l3.366-0.918c0.071 0.203 0.262 0.338 0.475 0.34h0.068l3.18-0.374c0.147-0.019 0.279-0.101 0.36-0.225s0.106-0.278 0.065-0.421l-1.53-5.61z"></path>
</svg>
<svg id="icon-telescope-hover" width="30" height="30" viewBox="0 0 30 30" x="92" y="257">
<path fill="#95959d" opacity="0.2" d="M3 0h24c1.657 0 3 1.343 3 3v24c0 1.657-1.343 3-3 3h-24c-1.657 0-3-1.343-3-3v-24c0-1.657 1.343-3 3-3z"></path>
<path fill="#fff" d="M22.044 8.343c-0.037-0.144-0.136-0.265-0.27-0.33s-0.29-0.069-0.427-0.010l-2.924 1.292c-0.215 0.098-0.333 0.329-0.289 0.561l-7.616 2.074c-0.131 0.036-0.242 0.122-0.309 0.24s-0.084 0.258-0.047 0.389l0.034 0.102-1.003 0.272c-0.199 0.053-0.347 0.221-0.374 0.425l-1.037 0.272c-0.131 0.036-0.242 0.122-0.309 0.24s-0.084 0.258-0.048 0.389l0.544 1.989c0.061 0.222 0.263 0.375 0.493 0.375h0.136l1.020-0.272 0.153 0.119c0.078 0.045 0.165 0.068 0.255 0.068h0.136l1.003-0.272 0.034 0.102c0.061 0.221 0.263 0.375 0.493 0.374h0.136l3.23-0.884-0.001 2.38-2.737 4.233 0.85 0.544 2.38-3.689 2.38 3.689 0.85-0.544-2.72-4.233v-2.686l3.366-0.918c0.071 0.203 0.262 0.338 0.475 0.34h0.068l3.18-0.374c0.147-0.019 0.279-0.101 0.36-0.225s0.106-0.278 0.065-0.421l-1.53-5.61z"></path>
</svg>
</svg>
