<?xml version="1.0" encoding="UTF-8" standalone="no"?> <svg height="560pt" viewBox="-17 -27 560 560" width="560pt" xmlns="http://www.w3.org/2000/svg"><path fill="#fff" d="m513.75-.582031h-125c-6.210938 0-11.25 5.039062-11.25 11.25v112.5h-112.5c-6.210938 0-11.25 5.039062-11.25 11.25v120h-118.75c-6.210938 0-11.25 5.039062-11.25 11.25v110h-112.5c-6.210938 0-11.25 5.039062-11.25 11.25v107.5c0 6.210937 5.039062 11.25 11.25 11.25h502.5c6.210938 0 11.25-5.039063 11.25-11.25v-483.75c0-6.210938-5.039062-11.25-11.25-11.25zm-11.25 483.75h-480v-85h112.5c6.210938 0 11.25-5.039063 11.25-11.25v-110h118.75c6.210938 0 11.25-5.039063 11.25-11.25v-120h112.5c6.210938 0 11.25-5.039063 11.25-11.25v-112.5h102.5zm0 0"/><path fill="#fff" d="m48.953125 104.871094v62.5c0 6.210937 5.039063 11.25 11.25 11.25h62.5c6.21875 0 11.25-5.039063 11.25-11.25 0-6.214844-5.03125-11.25-11.25-11.25h-36.65625l111.703125-111.703125c4.394531-4.394531 4.394531-11.519531 0-15.910157-4.394531-4.394531-11.519531-4.394531-15.914062 0l-110.371094 110.375v-34.011718c0-6.214844-5.039063-11.25-11.25-11.25-6.214844 0-11.25 5.035156-11.25 11.25zm0 0"/></svg>