<?xml version="1.0" encoding="utf-8"?>
<svg version="1.1" id="Layer_1" xmlns="http://www.w3.org/2000/svg" xmlns:xlink="http://www.w3.org/1999/xlink" x="0px" y="0px"
	 viewBox="0 0 71 71" style="enable-background:new 0 0 71 71;" xml:space="preserve">
<style type="text/css">
	.st0{fill:#333333;}
	.st1{fill:#FFFFFF;}
</style>
<g>
	<path class="st0" d="M35.5,70.8c-19.4,0-35.3-15.8-35.3-35.3c0-19.4,15.8-35.3,35.3-35.3c19.4,0,35.3,15.8,35.3,35.3
		C70.8,54.9,54.9,70.8,35.5,70.8z M35.5,0.8C16.3,0.8,0.8,16.3,0.8,35.5s15.6,34.8,34.8,34.8s34.8-15.6,34.8-34.8S54.7,0.8,35.5,0.8
		z"/>
</g>
<g>
	<polygon class="st1" points="27.1,32.1 16.4,47.1 16.9,47.4 27.1,33 30.6,38.6 31.1,38.4 	"/>
	<polygon class="st1" points="41.3,27.9 30.6,44.5 31.1,44.7 41.3,28.8 54.1,47.4 54.6,47.1 	"/>
	<path class="st1" d="M23.3,30c1.8,0,3.2-1.4,3.2-3.2c0-1.8-1.4-3.2-3.2-3.2s-3.2,1.4-3.2,3.2C20.2,28.6,21.6,30,23.3,30z
		 M23.3,24.1c1.5,0,2.7,1.2,2.7,2.7c0,1.5-1.2,2.7-2.7,2.7s-2.7-1.2-2.7-2.7C20.7,25.3,21.9,24.1,23.3,24.1z"/>
</g>
</svg>
