<?xml version="1.0" encoding="utf-8"?>
<svg version="1.1" id="Layer_1" xmlns="http://www.w3.org/2000/svg" xmlns:xlink="http://www.w3.org/1999/xlink" x="0px" y="0px"
	 viewBox="0 0 71 71" style="enable-background:new 0 0 71 71;" xml:space="preserve">
<style type="text/css">
	.st0{fill:#333333;}
	.st1{fill:#FFFFFF;}
</style>
<g>
	<path class="st0" d="M35.5,70.8c-19.4,0-35.3-15.8-35.3-35.3c0-19.4,15.8-35.3,35.3-35.3c19.4,0,35.3,15.8,35.3,35.3
		C70.8,54.9,54.9,70.8,35.5,70.8z M35.5,0.8C16.3,0.8,0.8,16.3,0.8,35.5s15.6,34.8,34.8,34.8s34.8-15.6,34.8-34.8S54.7,0.8,35.5,0.8
		z"/>
</g>
<g>
	<polygon class="st1" points="44.4,26.5 30.6,40.3 29.2,38.8 20,48 23.1,51 23.4,50.7 20.8,48 29.2,39.5 30.6,41 44.7,26.9 	"/>
	<polygon class="st1" points="49.4,21 50.3,21.9 48.2,24.8 48.6,25.1 51,21.8 49.4,20.3 46.1,22.7 46.4,23.1 	"/>
	<path class="st1" d="M25.7,27l7.6,7.6l0.4-0.4l-7.9-7.9l-0.2,0.1c-1.3,0.8-3,0.6-4-0.4c-0.5-0.5-0.9-1.2-0.9-1.9l-0.5,0.1
		c0.1,0.8,0.5,1.6,1.1,2.2C22.4,27.5,24.3,27.8,25.7,27z"/>
	<path class="st1" d="M26.2,21.4c0.7,0.7,1,1.7,0.9,2.6l0.5,0.1c0.1-1.1-0.3-2.2-1.1-3c-0.8-0.8-2-1.2-3.1-1.1l0.1,0.5
		C24.5,20.4,25.5,20.7,26.2,21.4z"/>
	<path class="st1" d="M45.3,43.7L38,36.5l-0.4,0.4l7.5,7.5l0.2-0.1c1.3-0.8,3-0.6,4,0.4c0.5,0.5,0.9,1.2,0.9,1.9l0.5-0.1
		c-0.1-0.8-0.5-1.6-1.1-2.2C48.6,43.1,46.7,42.9,45.3,43.7z"/>
	<path class="st1" d="M43.9,46.8l-0.5,0c0,1,0.4,2.1,1.1,2.8c0.7,0.7,1.6,1.1,2.6,1.1v-0.5c-0.9,0-1.7-0.3-2.3-0.9
		C44.2,48.6,43.9,47.7,43.9,46.8z"/>
</g>
</svg>
