<?xml version="1.0" encoding="utf-8"?>
<!-- Generator: Adobe Illustrator 15.1.0, SVG Export Plug-In . SVG Version: 6.00 Build 0)  -->
<!DOCTYPE svg PUBLIC "-//W3C//DTD SVG 1.1//EN" "http://www.w3.org/Graphics/SVG/1.1/DTD/svg11.dtd">
<svg version="1.1" id="Layer_1" xmlns="http://www.w3.org/2000/svg" xmlns:xlink="http://www.w3.org/1999/xlink" x="0px" y="0px"
	 width="80px" height="80px" viewBox="0 0 80 80" enable-background="new 0 0 80 80" xml:space="preserve">
<g>
	<path fill="#333333" d="M40,79.773C18.141,79.773,0.226,61.973,0.226,40C0.226,18.141,18.028,0.226,40,0.226
		c21.859,0,39.773,17.803,39.773,39.774C79.773,61.859,61.859,79.773,40,79.773z M40,0.901C18.366,0.901,0.901,18.366,0.901,40
		s17.578,39.211,39.211,39.211c21.633,0,39.211-17.577,39.211-39.211S61.634,0.901,40,0.901z"/>
</g>
<g>
	<g>
		<defs>
			<rect id="SVGID_1_" x="22.006" y="25.791" width="29.697" height="29.709"/>
		</defs>
		<clipPath id="SVGID_2_">
			<use xlink:href="#SVGID_1_"  overflow="visible"/>
		</clipPath>
		<path clip-path="url(#SVGID_2_)" fill="none" stroke="#FFFFFF" stroke-width="0.5" stroke-miterlimit="10" d="M49.942,51.074
			c0.869,0.271,1.504,1.073,1.504,2.03c0,0.961-0.635,1.766-1.504,2.033c-0.195,0.065-0.408,0.106-0.627,0.106
			c-0.297,0-0.578-0.059-0.831-0.168c-0.13-0.054-0.249-0.12-0.361-0.198c-0.342-0.23-0.611-0.556-0.771-0.94
			c-0.109-0.254-0.17-0.536-0.17-0.833c0-0.295,0.061-0.575,0.17-0.83c0.015-0.044,0.035-0.082,0.051-0.125l-0.337-0.169
			L26.598,41.75l-0.297-0.151c-0.259,0.514-0.719,0.908-1.277,1.08c-0.199,0.063-0.406,0.107-0.629,0.107
			c-0.296,0-0.575-0.063-0.83-0.17c-0.129-0.054-0.25-0.122-0.362-0.196c-0.342-0.231-0.61-0.559-0.773-0.94
			c-0.106-0.259-0.167-0.539-0.167-0.834s0.061-0.576,0.167-0.834c0.163-0.382,0.431-0.709,0.773-0.939
			c0.112-0.077,0.232-0.145,0.362-0.198c0.254-0.108,0.534-0.167,0.83-0.167c0.223,0,0.43,0.043,0.629,0.106
			c0.559,0.173,1.021,0.568,1.277,1.081l0.209-0.107L47.032,29.33l0.377-0.187c-0.02-0.04-0.04-0.08-0.057-0.124
			c-0.107-0.255-0.169-0.536-0.169-0.832"/>
	</g>
	<g>
		<defs>
			<rect id="SVGID_3_" x="22.006" y="25.791" width="29.697" height="29.709"/>
		</defs>
		<clipPath id="SVGID_4_">
			<use xlink:href="#SVGID_3_"  overflow="visible"/>
		</clipPath>
		<path clip-path="url(#SVGID_4_)" fill="none" stroke="#FFFFFF" stroke-width="0.5" stroke-miterlimit="10" d="M47.184,28.186
			c0-0.297,0.062-0.574,0.165-0.833c0.164-0.384,0.433-0.71,0.775-0.939c0.111-0.077,0.232-0.145,0.361-0.2
			c0.257-0.108,0.534-0.169,0.828-0.169c0.225,0,0.429,0.042,0.631,0.107c0.868,0.269,1.504,1.073,1.504,2.033
			c0,0.96-0.636,1.763-1.504,2.034"/>
	</g>
</g>
</svg>
