<?xml version="1.0" encoding="utf-8"?>
<svg version="1.1" id="Layer_1" xmlns="http://www.w3.org/2000/svg" xmlns:xlink="http://www.w3.org/1999/xlink" x="0px" y="0px"
	 viewBox="0 0 71 71" style="enable-background:new 0 0 71 71;" xml:space="preserve">
<style type="text/css">
	.st0{fill:#333333;}
	.st1{fill:#FFFFFF;}
</style>
<g>
	<path class="st0" d="M35.5,70.8c-19.4,0-35.3-15.8-35.3-35.3c0-19.4,15.8-35.3,35.3-35.3c19.4,0,35.3,15.8,35.3,35.3
		C70.8,54.9,54.9,70.8,35.5,70.8z M35.5,0.8C16.3,0.8,0.8,16.3,0.8,35.5s15.6,34.8,34.8,34.8s34.8-15.6,34.8-34.8S54.7,0.8,35.5,0.8
		z"/>
</g>
<g>
	<path class="st1" d="M24.3,35.5c0-2.3-1.8-4.3-4.1-4.7l-0.1,0.5c2.1,0.3,3.6,2.1,3.6,4.2c0,2.1-1.5,3.9-3.6,4.2l0.1,0.5
		C22.6,39.9,24.3,37.9,24.3,35.5z"/>
	<path class="st1" d="M35.5,24.3c2.4,0,4.3-1.7,4.7-4.1l-0.5-0.1c-0.3,2.1-2,3.6-4.2,3.6c-2.1,0-3.9-1.6-4.2-3.6l-0.5,0.1
		C31.1,22.6,33.1,24.3,35.5,24.3z"/>
	<path class="st1" d="M21.4,43l0.3,0.4c1.7-1.3,4-1.1,5.5,0.4c1.5,1.5,1.6,3.8,0.4,5.5l0.4,0.3c1.4-1.9,1.2-4.5-0.4-6.2
		C25.9,41.8,23.3,41.6,21.4,43z"/>
	<path class="st1" d="M27.6,27.6c1.6-1.7,1.8-4.3,0.4-6.2l-0.4,0.3c1.3,1.7,1.1,4-0.4,5.5c-0.8,0.8-1.9,1.2-3,1.2
		c-0.9,0-1.8-0.3-2.5-0.9L21.4,28c0.8,0.6,1.8,1,2.8,1C25.5,29,26.7,28.5,27.6,27.6z"/>
	<path class="st1" d="M43.4,43.4c-1.6,1.7-1.8,4.3-0.4,6.2l0.4-0.3c-1.3-1.7-1.1-4,0.4-5.5c1.5-1.5,3.9-1.6,5.5-0.4l0.3-0.4
		C47.7,41.6,45.1,41.8,43.4,43.4z"/>
	<path class="st1" d="M46.7,28.9c1,0,2-0.3,2.8-1l-0.3-0.4c-0.8,0.6-1.6,0.9-2.5,0.9c-1.1,0-2.2-0.4-3-1.2c-1.5-1.5-1.7-3.8-0.4-5.5
		L43,21.4c-1.4,1.9-1.2,4.5,0.4,6.2C44.3,28.4,45.5,28.9,46.7,28.9z"/>
	<path class="st1" d="M47.2,35.4c0-2.1,1.5-3.9,3.6-4.2l-0.1-0.5c-2.3,0.3-4.1,2.3-4,4.7c0,2.3,1.7,4.3,4.1,4.7l0.1-0.5
		C48.8,39.4,47.2,37.6,47.2,35.4z"/>
	<path class="st1" d="M35.5,46.7c-2.3,0-4.3,1.8-4.7,4.1l0.5,0.1c0.3-2.1,2.1-3.6,4.2-3.6c2.1,0,3.9,1.6,4.2,3.6l0.5-0.1
		C39.9,48.5,37.8,46.7,35.5,46.7z"/>
	<path class="st1" d="M35.5,29.6c-3.3,0-5.9,2.7-5.9,5.9c0,3.3,2.7,5.9,5.9,5.9s5.9-2.7,5.9-5.9C41.4,32.3,38.8,29.6,35.5,29.6z
		 M35.5,41c-3,0-5.4-2.4-5.4-5.4s2.4-5.4,5.4-5.4c3,0,5.4,2.4,5.4,5.4S38.5,41,35.5,41z"/>
</g>
</svg>
