{
    "asset" : {
        "generator" : "Khronos glTF Blender I/O v1.3.48",
        "version" : "2.0"
    },
    "scene" : 0,
    "scenes" : [
        {
            "name" : "Scene",
            "nodes" : [
                1
            ]
        }
    ],
    "nodes" : [
        {
            "mesh" : 0,
            "name" : "chute.003",
            "translation" : [
                1.64144766330719,
                -0.05534840747714043,
                0.08909393846988678
            ]
        },
        {
            "children" : [
                0
            ],
            "mesh" : 1,
            "name" : "_root_chute.001",
            "translation" : [
                0,
                0.054627999663352966,
                0
            ]
        }
    ],
    "materials" : [
        {
            "alphaMode" : "BLEND",
            "emissiveFactor" : [
                0,
                0,
                0
            ],
            "name" : "tex_a_",
            "pbrMetallicRoughness" : {
                "baseColorTexture" : {
                    "index" : 0,
                    "texCoord" : 0
                },
                "metallicFactor" : 0,
                "roughnessFactor" : 0.5
            }
        },
        {
            "alphaMode" : "BLEND",
            "emissiveFactor" : [
                0,
                0,
                0
            ],
            "name" : "ropes",
            "pbrMetallicRoughness" : {
                "baseColorTexture" : {
                    "index" : 1,
                    "texCoord" : 0
                },
                "metallicFactor" : 0,
                "roughnessFactor" : 0.5
            }
        },
        {
            "emissiveFactor" : [
                0,
                0,
                0
            ],
            "name" : "newChute",
            "pbrMetallicRoughness" : {
                "baseColorTexture" : {
                    "index" : 2,
                    "texCoord" : 0
                },
                "metallicFactor" : 0,
                "roughnessFactor" : 0.5
            }
        },
        {
            "emissiveFactor" : [
                0,
                0,
                0
            ],
            "name" : "tex",
            "pbrMetallicRoughness" : {
                "baseColorTexture" : {
                    "index" : 3,
                    "texCoord" : 0
                },
                "metallicFactor" : 0,
                "roughnessFactor" : 0.5
            }
        },
        {
            "alphaMode" : "BLEND",
            "doubleSided" : true,
            "emissiveFactor" : [
                0,
                0,
                0
            ],
            "name" : "transparent",
            "pbrMetallicRoughness" : {
                "baseColorTexture" : {
                    "index" : 4,
                    "texCoord" : 0
                },
                "metallicFactor" : 0,
                "roughnessFactor" : 0.5
            }
        }
    ],
    "meshes" : [
        {
            "name" : "Sphere.004",
            "primitives" : [
                {
                    "attributes" : {
                        "POSITION" : 0,
                        "NORMAL" : 1,
                        "TEXCOORD_0" : 2
                    },
                    "indices" : 3,
                    "material" : 0
                },
                {
                    "attributes" : {
                        "POSITION" : 4,
                        "NORMAL" : 5,
                        "TEXCOORD_0" : 6
                    },
                    "indices" : 7,
                    "material" : 1
                },
                {
                    "attributes" : {
                        "POSITION" : 8,
                        "NORMAL" : 9,
                        "TEXCOORD_0" : 10
                    },
                    "indices" : 11,
                    "material" : 2
                },
                {
                    "attributes" : {
                        "POSITION" : 12,
                        "NORMAL" : 13,
                        "TEXCOORD_0" : 14
                    },
                    "indices" : 15,
                    "material" : 3
                }
            ]
        },
        {
            "name" : "Cube.026",
            "primitives" : [
                {
                    "attributes" : {
                        "POSITION" : 16,
                        "NORMAL" : 17
                    },
                    "indices" : 18,
                    "material" : 4
                }
            ]
        }
    ],
    "textures" : [
        {
            "source" : 0
        },
        {
            "source" : 1
        },
        {
            "source" : 2
        },
        {
            "source" : 0
        },
        {
            "source" : 3
        }
    ],
    "images" : [
        {
            "mimeType" : "image/png",
            "name" : "tex_01_chute",
            "uri" : "tex_01_chute.png"
        },
        {
            "mimeType" : "image/png",
            "name" : "chute_cables_tiling",
            "uri" : "chute_cables_tiling.png"
        },
        {
            "mimeType" : "image/jpeg",
            "name" : "newChuteCode_diff",
            "uri" : "newChuteCode_diff.jpg"
        },
        {
            "mimeType" : "image/png",
            "name" : "clear",
            "uri" : "clear.png"
        }
    ],
    "accessors" : [
        {
            "bufferView" : 0,
            "componentType" : 5126,
            "count" : 2400,
            "max" : [
                34.804725646972656,
                1.6406677961349487,
                3.195413589477539
            ],
            "min" : [
                19.493101119995117,
                0.02045745961368084,
                -6.760775089263916
            ],
            "type" : "VEC3"
        },
        {
            "bufferView" : 1,
            "componentType" : 5126,
            "count" : 2400,
            "type" : "VEC3"
        },
        {
            "bufferView" : 2,
            "componentType" : 5126,
            "count" : 2400,
            "type" : "VEC2"
        },
        {
            "bufferView" : 3,
            "componentType" : 5123,
            "count" : 7680,
            "type" : "SCALAR"
        },
        {
            "bufferView" : 4,
            "componentType" : 5126,
            "count" : 12000,
            "max" : [
                34.80135726928711,
                3.4744527339935303,
                6.209114074707031
            ],
            "min" : [
                -0.026827454566955566,
                0,
                -7.175734996795654
            ],
            "type" : "VEC3"
        },
        {
            "bufferView" : 5,
            "componentType" : 5126,
            "count" : 12000,
            "type" : "VEC3"
        },
        {
            "bufferView" : 6,
            "componentType" : 5126,
            "count" : 12000,
            "type" : "VEC2"
        },
        {
            "bufferView" : 7,
            "componentType" : 5123,
            "count" : 44160,
            "type" : "SCALAR"
        },
        {
            "bufferView" : 8,
            "componentType" : 5126,
            "count" : 5510,
            "max" : [
                34.64213562011719,
                3.492436170578003,
                7.26141357421875
            ],
            "min" : [
                16.610260009765625,
                0.020267805084586143,
                -7.376436233520508
            ],
            "type" : "VEC3"
        },
        {
            "bufferView" : 9,
            "componentType" : 5126,
            "count" : 5510,
            "type" : "VEC3"
        },
        {
            "bufferView" : 10,
            "componentType" : 5126,
            "count" : 5510,
            "type" : "VEC2"
        },
        {
            "bufferView" : 11,
            "componentType" : 5123,
            "count" : 26160,
            "type" : "SCALAR"
        },
        {
            "bufferView" : 12,
            "componentType" : 5126,
            "count" : 756,
            "max" : [
                0.028650760650634766,
                0.12321281433105469,
                0.41380295157432556
            ],
            "min" : [
                -2.644820213317871,
                -0.011666297912597656,
                -0.5338146686553955
            ],
            "type" : "VEC3"
        },
        {
            "bufferView" : 13,
            "componentType" : 5126,
            "count" : 756,
            "type" : "VEC3"
        },
        {
            "bufferView" : 14,
            "componentType" : 5126,
            "count" : 756,
            "type" : "VEC2"
        },
        {
            "bufferView" : 15,
            "componentType" : 5123,
            "count" : 2478,
            "type" : "SCALAR"
        },
        {
            "bufferView" : 16,
            "componentType" : 5126,
            "count" : 8,
            "max" : [
                0.5000002384185791,
                0.5,
                0.5000002980232239
            ],
            "min" : [
                -0.5000001788139343,
                -0.5,
                -0.5000001788139343
            ],
            "type" : "VEC3"
        },
        {
            "bufferView" : 17,
            "componentType" : 5126,
            "count" : 8,
            "type" : "VEC3"
        },
        {
            "bufferView" : 18,
            "componentType" : 5123,
            "count" : 36,
            "type" : "SCALAR"
        }
    ],
    "bufferViews" : [
        {
            "buffer" : 0,
            "byteLength" : 28800,
            "byteOffset" : 0
        },
        {
            "buffer" : 0,
            "byteLength" : 28800,
            "byteOffset" : 28800
        },
        {
            "buffer" : 0,
            "byteLength" : 19200,
            "byteOffset" : 57600
        },
        {
            "buffer" : 0,
            "byteLength" : 15360,
            "byteOffset" : 76800
        },
        {
            "buffer" : 0,
            "byteLength" : 144000,
            "byteOffset" : 92160
        },
        {
            "buffer" : 0,
            "byteLength" : 144000,
            "byteOffset" : 236160
        },
        {
            "buffer" : 0,
            "byteLength" : 96000,
            "byteOffset" : 380160
        },
        {
            "buffer" : 0,
            "byteLength" : 88320,
            "byteOffset" : 476160
        },
        {
            "buffer" : 0,
            "byteLength" : 66120,
            "byteOffset" : 564480
        },
        {
            "buffer" : 0,
            "byteLength" : 66120,
            "byteOffset" : 630600
        },
        {
            "buffer" : 0,
            "byteLength" : 44080,
            "byteOffset" : 696720
        },
        {
            "buffer" : 0,
            "byteLength" : 52320,
            "byteOffset" : 740800
        },
        {
            "buffer" : 0,
            "byteLength" : 9072,
            "byteOffset" : 793120
        },
        {
            "buffer" : 0,
            "byteLength" : 9072,
            "byteOffset" : 802192
        },
        {
            "buffer" : 0,
            "byteLength" : 6048,
            "byteOffset" : 811264
        },
        {
            "buffer" : 0,
            "byteLength" : 4956,
            "byteOffset" : 817312
        },
        {
            "buffer" : 0,
            "byteLength" : 96,
            "byteOffset" : 822268
        },
        {
            "buffer" : 0,
            "byteLength" : 96,
            "byteOffset" : 822364
        },
        {
            "buffer" : 0,
            "byteLength" : 72,
            "byteOffset" : 822460
        }
    ],
    "buffers" : [
        {
            "byteLength" : 822532,
            "uri" : "EDL2020_chuteCrumple.bin"
        }
    ]
}
