<?xml version="1.0" encoding="utf-8"?>
<!DOCTYPE svg PUBLIC "-//W3C//DTD SVG 1.1//EN" "http://www.w3.org/Graphics/SVG/1.1/DTD/svg11.dtd">
<svg version="1.1" id="Layer_1" xmlns="http://www.w3.org/2000/svg" xmlns:xlink="http://www.w3.org/1999/xlink" x="0px" y="0px"
	 width="80px" height="80px" viewBox="0 0 80 80" enable-background="new 0 0 80 80" xml:space="preserve">
<g>
	<polygon fill="#D6D6D6" points="10.545,1.091 10.545,78.909 12.364,78.909 12.364,2.909 69.455,2.909 69.455,1.091 	"/>
	<path fill="#D6D6D6" d="M23.273,33.091h40V15.636h-40V33.091z M25.091,17.455h36.364v13.818H25.091V17.455z"/>
	<polygon fill="#D6D6D6" points="38.545,66.182 40.364,66.182 40.364,59.273 47.273,59.273 47.273,57.455 38.545,57.455 	"/>
	<polygon fill="#D6D6D6" points="38.545,51.273 40.364,51.273 40.364,44 47.273,44 47.273,42.182 38.545,42.182 	"/>
	<polygon fill="#D6D6D6" points="23.273,66.182 25.091,66.182 25.091,59.273 32.364,59.273 32.364,57.455 23.273,57.455 	"/>
	<polygon fill="#D6D6D6" points="53.455,66.182 55.273,66.182 55.273,44 62.545,44 62.545,42.182 53.455,42.182 	"/>
	<polygon fill="#D6D6D6" points="23.273,51.273 25.091,51.273 25.091,44 32.364,44 32.364,42.182 23.273,42.182 	"/>
</g>
</svg>
