<?xml version="1.0" encoding="utf-8"?>
<!DOCTYPE svg PUBLIC "-//W3C//DTD SVG 1.1//EN" "http://www.w3.org/Graphics/SVG/1.1/DTD/svg11.dtd">
<svg version="1.1" id="Layer_1" xmlns="http://www.w3.org/2000/svg" xmlns:xlink="http://www.w3.org/1999/xlink" x="0px" y="0px"
	 width="80px" height="80px" viewBox="0 0 80 80" enable-background="new 0 0 80 80" xml:space="preserve">
<g>
	<polygon fill="#D6D6D6" points="61.455,54.909 60,55.273 68,77.818 12,77.818 20,55.273 18.545,54.909 9.455,79.637 70.545,79.637 
			"/>
	<path fill="#D6D6D6" d="M26.545,7.636c0.728-0.727,1.818-1.455,2.545-2.182c1.091-0.728,2.182-1.091,3.273-1.818
		c2.182-0.727,4.363-1.455,6.909-1.455c9.818,0,17.818,8.364,17.818,18.545c0,5.818-3.272,10.182-6.546,15.637
		c-0.363,0.727-1.09,1.455-1.454,2.545c-0.364,0.727-1.091,1.817-1.454,2.546c-2.182,2.908-3.637,5.818-4.728,8.727
		C41.091,54.909,40,60,39.636,65.455h1.819c0.363-5.455,1.09-10.182,2.908-14.91c1.092-2.908,2.546-5.454,4.363-8.363
		c0.364-0.727,1.092-1.818,1.455-2.545c0.363-0.727,1.092-1.455,1.455-2.182c3.637-5.455,6.908-10.545,6.908-16.728
		c0-11.272-8.727-20.363-19.636-20.363c-2.545,0-5.455,0.727-7.636,1.455C30.182,2.545,29.091,3.273,28,4
		c-0.727,0.727-1.818,1.455-2.909,2.545c-3.636,3.636-5.818,8.728-5.818,14.182h1.818C21.455,16,23.273,11.273,26.545,7.636z"/>
	<path fill="#D6D6D6" d="M46.545,20.364c0-3.273-2.182-5.818-5.09-6.909c-1.819-0.728-3.637-0.364-5.091,0.364
		c-0.364,0-0.728,0.363-1.091,0.363c-1.091,0.728-2.182,1.818-2.546,3.273l0,0C32.364,18.182,32,19.273,32,20.364
		s0.364,1.818,0.727,2.909c0.364,1.091,1.455,2.182,2.546,2.909c0.363,0.364,0.727,0.364,1.091,0.728
		c1.091,0.364,1.818,0.727,2.909,0.727c0.727,0,1.454,0,2.182-0.363C44.363,26.182,46.545,23.636,46.545,20.364z M40.727,25.455
		c-1.454,0.364-2.545,0.364-3.636,0c-0.364,0-0.727-0.364-1.091-0.364c-0.727-0.727-1.455-1.818-1.818-2.545
		c0-0.727-0.363-1.455-0.363-2.182c0-0.728,0-1.455,0.363-2.182c0.364-1.091,1.091-1.818,2.182-2.545
		c0.363-0.363,0.727-0.363,1.091-0.363c1.091-0.364,2.182-0.728,3.636,0c2.183,0.727,4,2.909,4,5.091
		C44.727,22.545,43.273,24.727,40.727,25.455z"/>
</g>
</svg>
