<?xml version="1.0" encoding="utf-8"?>
<svg version="1.1" xmlns="http://www.w3.org/2000/svg" xmlns:xlink="http://www.w3.org/1999/xlink" x="0px" y="0px"
	 viewBox="0 0 191 279.3" xml:space="preserve">
	<g id="ark-logo-background">
		<path style="display:inline;fill:#42CBF8;" d="M87.1,217.8c3.1,0,6.3,0,9.4,0c0.5,0.1,1,0.2,1.5,0.3c5.1,1.1,8,5.9,6.2,10.6
			c-0.7,1.8-2,3-3.8,3.9c0.2,0.2,0.3,0.3,0.4,0.4c1.5,2,2.9,4,4.4,6c-2,0-4.1,0-6.1,0c-0.7-1.1-1.5-2.2-2.2-3.3
			c-1-1.4-2.5-1.8-4.3-1.4c0,0.8,0,1.5,0,2.3c0,0.8,0,1.6,0,2.3c-1.8,0-3.6,0-5.4,0C87.1,231.9,87.1,224.9,87.1,217.8z M92.6,229.3
			c1.3,0,2.6,0.1,3.8,0c2-0.2,3.1-1.4,3.2-3.1c0.1-1.8-1-3.1-3-3.4c-1.3-0.2-2.6,0-4,0C92.6,224.9,92.6,227,92.6,229.3z M170,217.8
			c-1.5,2.2-3,4.5-4.5,6.7c-0.8,1.2-2,1.5-3.5,1.3c0-2.6,0-5.3,0-8c-1.8,0-3.6,0-5.4,0c0,7.1,0,14.2,0,21.3c1.8,0,3.6,0,5.4,0
			c0-2.7,0-5.4,0-8.1c1.8-0.4,2.6-0.1,3.5,1.2c1.6,2.3,3.1,4.6,4.6,7c2,0,4.1,0,6.1,0c-0.1-0.2-0.2-0.5-0.4-0.7
			c-1.5-2.3-3-4.6-4.6-6.8c-0.8-1.2-1.8-2.3-2.5-3.2c0.3-0.4,0.8-0.9,1.2-1.5c2.1-3,4.1-6,6.1-9C174.1,217.8,172,217.8,170,217.8z
			M24.3,217.8c1.1,0,2.2,0,3.4,0c0.9,2.1,1.8,4.2,2.7,6.3c2.1,5,4.2,10,6.3,14.9c-2,0-4.1,0-6.1,0c-0.3-0.8-0.6-1.6-0.9-2.4
			c-0.1-0.4-0.4-0.5-0.8-0.5c-1.9,0-3.9,0-5.8,0c-0.4,0-0.7,0.1-0.8,0.5c-0.3,0.8-0.6,1.6-0.9,2.4c-2,0-4.1,0-6.1,0
			c2.1-4.8,4.2-9.6,6.2-14.5C22.4,222.3,23.3,220,24.3,217.8z M23.5,232.1c1.7,0,3.2,0,4.8,0c-0.8-2-1.5-3.9-2.4-6.1
			C25.1,228.2,24.3,230.1,23.5,232.1z"/>
		<path style="display:inline;fill:#42CBF8;" d="M127,249.2c0,5.4,0,10.7,0,16.1c-0.8,0-1.6,0-2.4,0c0-3.8,0-7.5,0-11.3
			c0,0-0.1,0-0.1-0.1c-1.8,2.2-3.5,4.4-5.3,6.7c-1.8-2.3-3.6-4.5-5.5-6.8c0,3.9,0,7.7,0,11.5c-0.8,0-1.6,0-2.5,0c0-5.4,0-10.7,0-16.1
			c0.8-0.1,1.4-0.1,2,0.7c1.7,2.4,3.6,4.6,5.4,6.9c0.1,0.2,0.3,0.4,0.5,0.6c1.2-1.6,2.5-3.1,3.7-4.6c0.7-0.9,1.5-1.8,2.2-2.8
			C125.5,249.1,126.2,249.1,127,249.2z M95.1,260c1.3-0.7,2.1-1.8,2.5-3.4c0.7-3.4-1-6.6-3.9-7.1c-2-0.4-4.2-0.2-6.2-0.3
			c0,0-0.1,0-0.1,0.1c0,5.4,0,10.7,0,16.1c0.7,0,1.4,0,2.1,0c0-1.4,0-2.8,0-4.2c0.9,0,1.7,0,2.5,0c0.8,0,1.5,0.5,2,1.3
			c0.5,0.8,1,1.7,1.5,2.5c0.1,0.1,0.2,0.3,0.3,0.3c0.7,0,1.4,0,2.1,0c-0.6-1.6-2.2-4.1-3.3-5.1C94.8,260.2,94.9,260.1,95.1,260z
			M89.4,256.3c0-1.4,0-2.9,0-4.3c0-0.2,0.2-0.5,0.3-0.5c1.2,0,2.5,0,3.7,0.2c1.8,0.4,2.8,2.3,2.3,4.4c-0.3,1.3-1.1,2.1-2.1,2.3
			c-0.9,0.2-1.7,0.2-2.6,0.3c-0.5,0-0.9,0-1.5,0C89.4,257.9,89.4,257.1,89.4,256.3z M15.2,262.5c1.9,3.2,6.6,4.1,9.3,1.7
			c1.2-1.1,1.6-2.5,1.5-4.2c-0.2-1.8-1-2.9-2.4-3.5c-0.9-0.4-1.9-0.5-2.9-0.7c-0.8-0.2-1.6-0.3-2.4-0.7c-0.9-0.4-1.1-1.6-0.5-2.5
			c0.3-0.4,0.7-0.8,1.2-0.9c1.8-0.7,3.4-0.1,4.8,1.2c0.1,0.1,0.2,0.2,0.4,0.4c0.5-0.5,0.9-1,1.3-1.5c-0.8-1-1.8-1.8-2.9-2.2
			c-2-0.8-4-0.7-5.7,0.8c-1.2,1-1.7,2.4-1.5,4c0.2,1.7,1,2.6,2.3,3.2c0.7,0.3,1.4,0.4,2,0.6c1,0.2,2,0.4,2.9,0.7
			c0.7,0.2,1.1,0.9,1.2,1.8c0.1,1-0.3,1.7-1,2.1c-0.5,0.3-1.1,0.5-1.7,0.6c-2,0.2-3.6-0.5-4.8-2.5c-0.5,0.5-0.9,1-1.3,1.5
			C15.1,262.3,15.1,262.4,15.2,262.5z M74.6,265c-1.9-5.1-3.9-10.3-5.8-15.4c-0.2-0.6-0.6-0.3-1-0.4c-0.3,0-0.5,0-0.7,0.4
			c-1.5,4-3.1,8.1-4.6,12.1c-0.5,1.2-0.9,2.4-1.4,3.7c0.8,0,1.5,0,2.1,0c0.3,0,0.5-0.1,0.6-0.4c0.3-0.9,0.7-1.8,1-2.8
			c0.1-0.3,0.3-0.4,0.6-0.4c1.7,0,3.4,0,5,0c0.3,0,0.4,0.1,0.6,0.4c0.3,1,0.7,1.9,1.1,2.8c0.1,0.2,0.2,0.4,0.4,0.4c0.7,0,1.5,0,2.3,0
			C74.6,265.2,74.6,265.1,74.6,265z M70,259.4c-1.4,0-2.8,0-4.2,0c0.7-1.8,1.4-3.7,2.1-5.6C68.6,255.7,69.3,257.5,70,259.4z
			M42.5,251.5c0.4,0,0.6,0.1,0.6,0.7c0,4.2,0,8.3,0,12.5c0,0.2,0,0.4,0,0.7c0.7,0,1.4,0,2.1,0c0-4.6,0-9.2,0-13.8c1.3,0,2.6,0,4,0
			c0-0.8,0-1.6,0-2.3c-3.4,0-6.7,0-10,0c0,0.8,0,1.5,0,2.3C40.3,251.5,41.4,251.6,42.5,251.5z M166.3,265.4h1.5
			c0.1,0,0.3-0.1,0.3-0.3v-3.4c0-0.2,0.1-0.3,0.3-0.3c0.3,0,0.6,0,0.8,0c1-0.1,2.1,0,3.1-0.3c2.6-0.6,4.1-2.8,4.2-5.8
			c0.1-2.8-1.4-5-3.9-5.8c-0.4-0.1-0.8-0.2-1.2-0.3c0,0,0,0-0.1,0c-1.7,0-3.3,0-5,0c-0.1,0-0.3,0.1-0.3,0.3v15.6
			C166,265.2,166.1,265.4,166.3,265.4z M168.1,254.4c0-0.8,0-1.7,0-2.5c0-0.1,0.2-0.4,0.3-0.4c1.2,0,2.4,0,3.5,0.2
			c1.9,0.4,2.9,2.4,2.4,4.5c-0.3,1.2-1,2-2,2.4c-0.8,0.2-1.6,0.3-2.5,0.4c-0.5,0-1,0-1.6,0c-0.1,0-0.3-0.1-0.3-0.3
			C168.1,257.2,168.1,255.8,168.1,254.4z M145,249.9c-0.3,0.9-0.7,1.8-1,2.7c-1.6,4.1-3.2,8.2-4.8,12.4c0,0,0,0,0,0
			c-0.1,0.2,0.1,0.4,0.3,0.4h2c0.1,0,0.2-0.1,0.3-0.2c0.4-1.1,0.8-2.1,1.2-3.2c0-0.1,0.3-0.2,0.4-0.2c1.8,0,3.5,0,5.3,0
			c0.1,0,0.4,0.1,0.4,0.2c0.4,1.1,0.8,2.1,1.2,3.2c0,0.1,0.2,0.2,0.3,0.2h2c0.2,0,0.4-0.2,0.3-0.4c-0.6-1.7-1.3-3.3-1.9-5
			c-1.3-3.3-2.6-6.7-3.9-10C146,249.9,146,249.9,145,249.9z M144,258.9c0.6-1.5,1.1-2.9,1.7-4.4c0.1-0.3,0.5-0.3,0.6,0
			c0.6,1.5,1.1,3,1.7,4.4c0.1,0.2-0.1,0.4-0.3,0.4h-3.4C144.1,259.4,144,259.1,144,258.9z"/>
		<path style="display:inline;fill:#42CBF8;" d="M82.1,66.4V28.8l-38,36.6v41.9l42.3,40.9v50.2l-46.7-45.1v-24.3h0.1l4.3,4.3v18.1
			l38,36.6v-38.1l-42.3-40.9V63.6l46.7-45.1v49.7L61.8,93.6l0,0v-6.2L82.1,66.4z M147.3,133.5v18.1l-38,36.6v-38.1l42.3-40.9V63.6
			l-46.7-45.1v49.7l24.7,25.5l0,0v-6.2l-20.3-21V28.8l38,36.6v41.9l-42.3,40.9v50.2l46.7-45.1v-24.3h-0.1L147.3,133.5z"/>
		<path style="display:inline;fill:#42CBF8;" d="M88.4,106.4c2.4-0.2,4.6-2.4,4.9-4.8l2-19.9c0.2-2.4,0.6-2.4,0.9,0l2,19.9
			c0.2,2.4,2.4,4.6,4.9,4.8l20.1,2c2.4,0.2,2.4,0.6,0,0.9l-20.1,2c-2.4,0.2-4.6,2.4-4.9,4.8l-2,19.9c-0.2,2.4-0.6,2.4-0.9,0l-2-19.9
			c-0.2-2.4-2.4-4.6-4.9-4.8l-20.1-2c-2.4-0.2-2.4-0.6,0-0.9L88.4,106.4z"/>
	</g>
	<g id="ark-logo-ark-letters">
		<defs>
			<rect id="ark-logo-ark-letters__shape" x="11.7" y="211.6" width="168.2" height="33.5"/>
		</defs>
		<clipPath id="ark-logo-ark-letters__clip">
			<use id="ark-logo-ark-letters__mask" xlink:href="#ark-logo-ark-letters__shape"  style="overflow:visible;"/>
		</clipPath>
		<path style="clip-path:url(#ark-logo-ark-letters__clip);fill:none;stroke:#42CBF8;stroke-miterlimit:10;" d="M87.1,217.8c3.1,0,6.3,0,9.4,0
			c0.5,0.1,1,0.2,1.5,0.3c5.1,1.1,8,5.9,6.2,10.6c-0.7,1.8-2,3-3.8,3.9c0.2,0.2,0.3,0.3,0.4,0.4c1.5,2,2.9,4,4.4,6c-2,0-4.1,0-6.1,0
			c-0.7-1.1-1.5-2.2-2.2-3.3c-1-1.4-2.5-1.8-4.3-1.4c0,0.8,0,1.5,0,2.3c0,0.8,0,1.6,0,2.3c-1.8,0-3.6,0-5.4,0
			C87.1,231.9,87.1,224.9,87.1,217.8z M92.6,229.3c1.3,0,2.6,0.1,3.8,0c2-0.2,3.1-1.4,3.2-3.1c0.1-1.8-1-3.1-3-3.4
			c-1.3-0.2-2.6,0-4,0C92.6,224.9,92.6,227,92.6,229.3z M170,217.8c-1.5,2.2-3,4.5-4.5,6.7c-0.8,1.2-2,1.5-3.5,1.3c0-2.6,0-5.3,0-8
			c-1.8,0-3.6,0-5.4,0c0,7.1,0,14.2,0,21.3c1.8,0,3.6,0,5.4,0c0-2.7,0-5.4,0-8.1c1.8-0.4,2.6-0.1,3.5,1.2c1.6,2.3,3.1,4.6,4.6,7
			c2,0,4.1,0,6.1,0c-0.1-0.2-0.2-0.5-0.4-0.7c-1.5-2.3-3-4.6-4.6-6.8c-0.8-1.2-1.8-2.3-2.5-3.2c0.3-0.4,0.8-0.9,1.2-1.5
			c2.1-3,4.1-6,6.1-9C174.1,217.8,172,217.8,170,217.8z M24.3,217.8c1.1,0,2.2,0,3.4,0c0.9,2.1,1.8,4.2,2.7,6.3
			c2.1,5,4.2,10,6.3,14.9c-2,0-4.1,0-6.1,0c-0.3-0.8-0.6-1.6-0.9-2.4c-0.1-0.4-0.4-0.5-0.8-0.5c-1.9,0-3.9,0-5.8,0
			c-0.4,0-0.7,0.1-0.8,0.5c-0.3,0.8-0.6,1.6-0.9,2.4c-2,0-4.1,0-6.1,0c2.1-4.8,4.2-9.6,6.2-14.5C22.4,222.3,23.3,220,24.3,217.8z
				M23.5,232.1c1.7,0,3.2,0,4.8,0c-0.8-2-1.5-3.9-2.4-6.1C25.1,228.2,24.3,230.1,23.5,232.1z"/>
	</g>
	<g id="ark-logo-starmap-letters">
		<defs>
			<rect id="ark-logo-starmap-letters__shape" x="11.7" y="245.1" width="168.2" height="25.6"/>
		</defs>
		<clipPath id="ark-logo-starmap-letters__clip">
			<use id="ark-logo-starmap-letters__mask" xlink:href="#ark-logo-starmap-letters__shape"  style="overflow:visible;"/>
		</clipPath>
		<path style="clip-path:url(#ark-logo-starmap-letters__clip);fill:none;stroke:#42CBF8;stroke-miterlimit:10;" d="M127,249.2c0,5.4,0,10.7,0,16.1
			c-0.8,0-1.6,0-2.4,0c0-3.8,0-7.5,0-11.3c0,0-0.1,0-0.1-0.1c-1.8,2.2-3.5,4.4-5.3,6.7c-1.8-2.3-3.6-4.5-5.5-6.8c0,3.9,0,7.7,0,11.5
			c-0.8,0-1.6,0-2.5,0c0-5.4,0-10.7,0-16.1c0.8-0.1,1.4-0.1,2,0.7c1.7,2.4,3.6,4.6,5.4,6.9c0.1,0.2,0.3,0.4,0.5,0.6
			c1.2-1.6,2.5-3.1,3.7-4.6c0.7-0.9,1.5-1.8,2.2-2.8C125.5,249.1,126.2,249.1,127,249.2z M95.1,260c1.3-0.7,2.1-1.8,2.5-3.4
			c0.7-3.4-1-6.6-3.9-7.1c-2-0.4-4.2-0.2-6.2-0.3c0,0-0.1,0-0.1,0.1c0,5.4,0,10.7,0,16.1c0.7,0,1.4,0,2.1,0c0-1.4,0-2.8,0-4.2
			c0.9,0,1.7,0,2.5,0c0.8,0,1.5,0.5,2,1.3c0.5,0.8,1,1.7,1.5,2.5c0.1,0.1,0.2,0.3,0.3,0.3c0.7,0,1.4,0,2.1,0
			c-0.6-1.6-2.2-4.1-3.3-5.1C94.8,260.2,94.9,260.1,95.1,260z M89.4,256.3c0-1.4,0-2.9,0-4.3c0-0.2,0.2-0.5,0.3-0.5
			c1.2,0,2.5,0,3.7,0.2c1.8,0.4,2.8,2.3,2.3,4.4c-0.3,1.3-1.1,2.1-2.1,2.3c-0.9,0.2-1.7,0.2-2.6,0.3c-0.5,0-0.9,0-1.5,0
			C89.4,257.9,89.4,257.1,89.4,256.3z M15.2,262.5c1.9,3.2,6.6,4.1,9.3,1.7c1.2-1.1,1.6-2.5,1.5-4.2c-0.2-1.8-1-2.9-2.4-3.5
			c-0.9-0.4-1.9-0.5-2.9-0.7c-0.8-0.2-1.6-0.3-2.4-0.7c-0.9-0.4-1.1-1.6-0.5-2.5c0.3-0.4,0.7-0.8,1.2-0.9c1.8-0.7,3.4-0.1,4.8,1.2
			c0.1,0.1,0.2,0.2,0.4,0.4c0.5-0.5,0.9-1,1.3-1.5c-0.8-1-1.8-1.8-2.9-2.2c-2-0.8-4-0.7-5.7,0.8c-1.2,1-1.7,2.4-1.5,4
			c0.2,1.7,1,2.6,2.3,3.2c0.7,0.3,1.4,0.4,2,0.6c1,0.2,2,0.4,2.9,0.7c0.7,0.2,1.1,0.9,1.2,1.8c0.1,1-0.3,1.7-1,2.1
			c-0.5,0.3-1.1,0.5-1.7,0.6c-2,0.2-3.6-0.5-4.8-2.5c-0.5,0.5-0.9,1-1.3,1.5C15.1,262.3,15.1,262.4,15.2,262.5z M74.6,265
			c-1.9-5.1-3.9-10.3-5.8-15.4c-0.2-0.6-0.6-0.3-1-0.4c-0.3,0-0.5,0-0.7,0.4c-1.5,4-3.1,8.1-4.6,12.1c-0.5,1.2-0.9,2.4-1.4,3.7
			c0.8,0,1.5,0,2.1,0c0.3,0,0.5-0.1,0.6-0.4c0.3-0.9,0.7-1.8,1-2.8c0.1-0.3,0.3-0.4,0.6-0.4c1.7,0,3.4,0,5,0c0.3,0,0.4,0.1,0.6,0.4
			c0.3,1,0.7,1.9,1.1,2.8c0.1,0.2,0.2,0.4,0.4,0.4c0.7,0,1.5,0,2.3,0C74.6,265.2,74.6,265.1,74.6,265z M70,259.4c-1.4,0-2.8,0-4.2,0
			c0.7-1.8,1.4-3.7,2.1-5.6C68.6,255.7,69.3,257.5,70,259.4z M42.5,251.5c0.4,0,0.6,0.1,0.6,0.7c0,4.2,0,8.3,0,12.5
			c0,0.2,0,0.4,0,0.7c0.7,0,1.4,0,2.1,0c0-4.6,0-9.2,0-13.8c1.3,0,2.6,0,4,0c0-0.8,0-1.6,0-2.3c-3.4,0-6.7,0-10,0c0,0.8,0,1.5,0,2.3
			C40.3,251.5,41.4,251.6,42.5,251.5z M166.3,265.4h1.5c0.1,0,0.3-0.1,0.3-0.3v-3.4c0-0.2,0.1-0.3,0.3-0.3c0.3,0,0.6,0,0.8,0
			c1-0.1,2.1,0,3.1-0.3c2.6-0.6,4.1-2.8,4.2-5.8c0.1-2.8-1.4-5-3.9-5.8c-0.4-0.1-0.8-0.2-1.2-0.3c0,0,0,0-0.1,0c-1.7,0-3.3,0-5,0
			c-0.1,0-0.3,0.1-0.3,0.3v15.6C166,265.2,166.1,265.4,166.3,265.4z M168.1,254.4c0-0.8,0-1.7,0-2.5c0-0.1,0.2-0.4,0.3-0.4
			c1.2,0,2.4,0,3.5,0.2c1.9,0.4,2.9,2.4,2.4,4.5c-0.3,1.2-1,2-2,2.4c-0.8,0.2-1.6,0.3-2.5,0.4c-0.5,0-1,0-1.6,0
			c-0.1,0-0.3-0.1-0.3-0.3C168.1,257.2,168.1,255.8,168.1,254.4z M145,249.9c-0.3,0.9-0.7,1.8-1,2.7c-1.6,4.1-3.2,8.2-4.8,12.4
			c0,0,0,0,0,0c-0.1,0.2,0.1,0.4,0.3,0.4h2c0.1,0,0.2-0.1,0.3-0.2c0.4-1.1,0.8-2.1,1.2-3.2c0-0.1,0.3-0.2,0.4-0.2c1.8,0,3.5,0,5.3,0
			c0.1,0,0.4,0.1,0.4,0.2c0.4,1.1,0.8,2.1,1.2,3.2c0,0.1,0.2,0.2,0.3,0.2h2c0.2,0,0.4-0.2,0.3-0.4c-0.6-1.7-1.3-3.3-1.9-5
			c-1.3-3.3-2.6-6.7-3.9-10C146,249.9,146,249.9,145,249.9z M144,258.9c0.6-1.5,1.1-2.9,1.7-4.4c0.1-0.3,0.5-0.3,0.6,0
			c0.6,1.5,1.1,3,1.7,4.4c0.1,0.2-0.1,0.4-0.3,0.4h-3.4C144.1,259.4,144,259.1,144,258.9z"/>
	</g>
	<g id="ark-logo-right-line-2">
		<path style="fill:none;stroke:#42CBF8;stroke-miterlimit:10;" d="M149.1,131.6 147.3,133.5 147.3,151.6 109.3,188.2 
			109.3,150.2 151.6,109.3 151.6,63.6 104.9,18.5 104.9,68.2 129.6,93.6 129.7,93.6 129.7,90.3 	"/>
	</g>
	<g id="ark-logo-right-line-1">
		<path style="fill:none;stroke:#42CBF8;stroke-miterlimit:10;" d="M129.7,90.3 129.7,87.4 109.3,66.4 109.3,28.8 
			147.3,65.5 147.3,107.4 104.9,148.3 104.9,198.6 151.6,153.4 151.6,129.2 151.6,129.2 149.1,131.6 	"/>
	</g>
	<g id="ark-logo-left-line-1">
		<path style="fill:none;stroke:#42CBF8;stroke-miterlimit:10;" d="M61.8,90.2 61.8,87.4 82.1,66.4 82.1,28.8 44.2,65.5 
			44.2,107.4 86.5,148.3 86.5,198.6 39.8,153.4 39.8,129.2 39.9,129.2 41.9,131.2 	"/>
	</g>
	<g id="ark-logo-left-line-2">
		<path style="fill:none;stroke:#42CBF8;stroke-miterlimit:10;" d="M41.9,131.2 44.2,133.5 44.2,151.6 82.1,188.2 
			82.1,150.2 39.8,109.3 39.8,63.6 86.5,18.5 86.5,68.2 61.8,93.6 61.8,93.6 61.8,90.2 	"/>
	</g>
	<g id="ark-logo-star">
		<path style="fill:none;stroke:#42CBF8;stroke-miterlimit:10;" d="M88.4,106.4c2.4-0.2,4.6-2.4,4.9-4.8l2-19.9
			c0.2-2.4,0.6-2.4,0.9,0l2,19.9c0.2,2.4,2.4,4.6,4.9,4.8l20.1,2c2.4,0.2,2.4,0.6,0,0.9l-20.1,2c-2.4,0.2-4.6,2.4-4.9,4.8l-2,19.9
			c-0.2,2.4-0.6,2.4-0.9,0l-2-19.9c-0.2-2.4-2.4-4.6-4.9-4.8l-20.1-2c-2.4-0.2-2.4-0.6,0-0.9L88.4,106.4z"/>
	</g>
</svg>
