<?xml version="1.0" encoding="UTF-8" standalone="no"?>
<svg id="svg2" xmlns:rdf="http://www.w3.org/1999/02/22-rdf-syntax-ns#" xmlns="http://www.w3.org/2000/svg" xml:space="preserve" height="344.8" viewBox="0 0 883.38971 344.79999" width="883.39" version="1.1" y="0px" x="0px" xmlns:cc="http://creativecommons.org/ns#" xmlns:dc="http://purl.org/dc/elements/1.1/"><metadata id="metadata20"><rdf:RDF><cc:Work rdf:about=""><dc:format>image/svg+xml</dc:format><dc:type rdf:resource="http://purl.org/dc/dcmitype/StillImage"/><dc:title/></cc:Work></rdf:RDF></metadata>
<path id="path5" fill="#42cbf8" d="m553.36 86.779h34.955c1.8052 0.32822 3.6104 0.82054 5.4156 1.1488 19.037 3.9386 29.539 21.826 22.975 39.222-2.4616 6.7284-7.549 11.159-14.113 14.442 0.65644 0.65643 1.1488 0.98464 1.477 1.477 5.4156 7.3849 10.831 14.934 16.083 22.319h-22.483c-2.7898-4.1027-5.4156-8.2054-8.2054-12.144-3.6104-5.0874-9.19-6.8925-15.918-5.0874v8.5336 8.6977h-20.021c-0.16411-26.257-0.16411-52.35-0.16411-78.608zm20.349 42.668c4.9232 0 9.5183 0.32822 14.113 0 7.3849-0.65643 11.488-5.0874 11.652-11.488 0.16411-6.7284-3.6104-11.652-10.995-12.636-4.7591-0.65643-9.6824-0.16411-14.77-0.16411v24.288zm286.21-42.671c-5.5797 8.2054-11.159 16.411-16.575 24.78-2.954 4.595-7.3849 5.4156-12.965 4.595v-29.375h-20.021v78.608h20.021v-30.032c6.5643-1.3129 9.6824-0.49232 12.965 4.2668 5.7438 8.5336 11.488 17.067 17.067 25.765h22.483c-0.49233-0.82054-0.82054-1.8052-1.3129-2.6257-5.5797-8.3695-11.159-16.903-17.067-25.273-3.1181-4.4309-6.5643-8.5336-9.1901-11.98 1.3129-1.477 2.954-3.4463 4.4309-5.4156 7.549-11.159 15.098-22.319 22.647-33.314h-22.483zm-538.77 0h12.472c3.2822 7.7131 6.5643 15.59 9.8465 23.303 7.7131 18.38 15.59 36.76 23.303 55.304h-22.483c-1.1488-2.9539-2.2975-5.9079-3.2822-9.0259-0.49233-1.6411-1.477-1.9693-2.954-1.9693h-21.498c-1.6411 0-2.4616 0.49233-2.954 1.9693-0.98464 2.9539-2.2975 5.9079-3.4463 8.8618h-22.483c7.7131-17.888 15.426-35.611 23.139-53.499 3.2822-8.2054 6.7284-16.575 10.339-24.944zm-2.7898 53.171h17.724c-2.954-7.3849-5.7438-14.442-8.8618-22.483-3.118 8.0413-5.9079 14.934-8.8618 22.483z"/><path id="path8" fill="#42cbf8" d="m700.57 202.31v59.571h-9.0259v-41.683c-0.16411 0-0.32822-0.16411-0.49232-0.16411-6.5643 8.2054-12.965 16.411-19.693 24.78-6.7284-8.3695-13.293-16.575-20.185-25.273v42.504h-9.19v-59.571c2.954-0.32822 5.4156-0.49233 7.549 2.4616 6.4002 8.6977 13.293 17.067 20.021 25.601 0.49233 0.65644 0.98465 1.3129 1.6411 2.1334 4.595-5.7438 9.19-11.488 13.621-17.231 2.6257-3.4463 5.5797-6.7284 8.0413-10.339 2.1334-3.1181 4.595-3.4463 7.7131-2.7898zm-118.16 39.878c4.595-2.6257 7.8772-6.7284 9.19-12.636 2.6257-12.472-3.4463-24.452-14.606-26.421-7.549-1.3129-15.426-0.65643-23.139-0.98465-0.16411 0-0.16411 0.16411-0.32822 0.16411v59.571h7.7131v-15.426h9.3542c3.118 0.16411 5.5797 1.9693 7.2208 4.9232 1.8052 3.1181 3.6104 6.2361 5.4156 9.3542 0.32822 0.49233 0.82054 1.3129 1.3129 1.3129 2.6257 0.16411 5.2515 0 7.8772 0-2.2975-6.072-8.0413-14.934-12.144-18.872 0.98465-0.32821 1.6411-0.65643 2.1334-0.98465zm-21.006-13.785v-15.754c0-0.65643 0.65643-1.8052 0.98464-1.8052 4.595 0.16411 9.19-0.16411 13.621 0.82054 6.8925 1.477 10.175 8.5336 8.3695 16.411-1.1488 4.7591-3.9386 7.549-7.8772 8.5336-3.1181 0.82054-6.4002 0.65643-9.6824 0.98465-1.8052 0.16411-3.4463 0-5.5797 0 0.16411-3.2822 0.16411-6.2361 0.16411-9.19zm-274.55 22.98c6.8925 11.816 24.616 15.098 34.299 6.4002 4.2668-3.9386 6.072-9.19 5.4156-15.59-0.65643-6.5643-3.7745-10.831-8.6977-12.8-3.4463-1.3129-7.0566-1.8052-10.503-2.7898-2.954-0.82054-6.072-1.1488-8.8618-2.4616-3.4463-1.477-4.2668-6.072-1.9693-9.3542 1.1488-1.477 2.7898-2.9539 4.4309-3.4463 6.5643-2.4616 12.472-0.1641 17.888 4.4309 0.49233 0.32822 0.98465 0.82054 1.477 1.3129 1.8052-1.9693 3.2822-3.7745 4.9232-5.5797-3.1181-3.9386-6.5643-6.7284-10.667-8.2054-7.3849-2.7898-14.606-2.6257-21.17 2.7898-4.2668 3.6104-6.072 8.6977-5.5797 14.934 0.49233 6.2361 3.9386 9.8465 8.5336 11.652 2.4616 0.98465 5.0874 1.477 7.549 2.1334 3.6104 0.82054 7.2208 1.3129 10.831 2.4616 2.6257 0.82054 4.2668 3.1181 4.4309 6.5643 0.16411 3.6104-0.98465 6.4002-3.6104 7.8772-1.9693 1.1488-4.1027 1.9693-6.2361 2.1334-7.2208 0.65643-13.457-1.8052-17.888-9.19l-4.9232 5.4156c-0.16411 0.49232 0 0.82054 0.32821 1.3129zm219.58 9.1901c-7.2208-19.037-14.442-38.073-21.662-57.11-0.82054-2.2975-2.2975-1.1488-3.6104-1.477-1.1488-0.1641-1.9693 0-2.6257 1.477-5.5797 14.934-11.323 29.868-17.067 44.801-1.6411 4.4309-3.4463 8.8618-5.2515 13.621h7.8772c1.1488 0 1.6411-0.49232 2.1334-1.6411 1.3129-3.4463 2.6257-6.8925 3.7745-10.339 0.49232-1.1488 0.98465-1.6411 2.1334-1.6411h18.708c1.1488 0 1.6411 0.32822 1.9693 1.477 1.1488 3.6104 2.6257 7.0566 3.9386 10.503 0.16411 0.65643 0.82054 1.3129 1.3129 1.3129 2.7898 0.16411 5.5797 0 8.3695 0 0.16411-0.1641 0.16411-0.49232 0-0.98464zm-16.9-20.84h-15.59c2.6257-6.8925 5.0874-13.457 7.7131-20.678 2.7898 7.0566 5.2515 13.785 7.8772 20.678zm-101.75-29.05c1.6411 0 2.1334 0.49233 2.1334 2.4616v46.278 2.4616h7.8772v-51.202h14.606v-8.5336h-37.088v8.5336c4.2668 0.16411 8.3695 0.16411 12.472 0zm458.03 51.366h5.5797c0.49233 0 0.98465-0.49233 0.98465-1.1488v-12.636c0-0.65643 0.49232-1.1488 0.98465-1.1488h3.118c3.7745-0.32822 7.7131 0 11.488-0.98465 9.5183-2.1334 15.262-10.339 15.426-21.334 0.16411-10.503-5.2515-18.708-14.442-21.662-1.477-0.49232-2.9539-0.82054-4.4309-1.1488h-0.16411-18.38c-0.49233 0-0.98465 0.49233-0.98465 1.1488v57.602c-0.16411 0.82054 0.32821 1.3129 0.82054 1.3129zm6.7284-40.535v-9.19c0-0.49232 0.65643-1.477 0.98465-1.477 4.4309 0.16411 8.8618-0.16411 13.129 0.82054 7.0566 1.477 10.667 8.6977 8.8618 16.739-0.98464 4.595-3.6104 7.549-7.2208 8.6977-2.9539 0.98464-6.072 0.98464-9.0259 1.3129-1.8052 0.16411-3.7745 0-5.7438 0-0.49233 0-0.98465-0.49232-0.98465-1.1488v-15.754zm-85.336-16.739c-1.1488 3.2822-2.4616 6.5643-3.7745 9.8465-5.9079 15.262-11.98 30.524-17.888 45.786-0.32822 0.82054 0.32821 1.6411 0.98464 1.6411h7.3849c0.49232 0 0.82054-0.32822 0.98464-0.82054 1.477-3.9386 2.954-7.8772 4.4309-11.652 0.16411-0.49233 0.98465-0.98465 1.477-0.98465h19.693c0.49232 0 1.3129 0.32821 1.477 0.65643 1.477 3.9386 2.954 7.8772 4.4309 11.98 0.16411 0.49232 0.65643 0.82054 0.98465 0.82054h7.3849c0.82054 0 1.3129-0.82054 0.98465-1.6411-2.2975-6.2361-4.595-12.308-7.0566-18.544-4.7591-12.308-9.6824-24.78-14.442-37.088h-7.0566zm-3.6104 33.314c2.1334-5.4156 4.1027-10.831 6.2361-16.411 0.32821-0.98465 1.6411-0.98465 2.1334 0 2.1334 5.5797 4.2668 10.995 6.4002 16.411 0.32822 0.82054-0.1641 1.6411-0.98464 1.6411h-12.636c-0.82054 0-1.477-0.82054-1.1488-1.6411z"/>
<g id="Shap" transform="translate(-49.3,-44.6)">
	<path id="path11" fill="#42cbf8" d="m130.5 136.4v-72l-72.7 70.2v80.3l81.1 78.3v96.2l-89.5-86.4v-46.5h0.1l8.2 8.2v34.7l72.7 70.2v-72.9l-81.1-78.3v-87.4l89.4-86.4v95.1l-47.3 48.7v-12l39.1-40zm124.7 128.4v34.7l-72.7 70.2v-72.9l81.1-78.3v-87.5l-89.4-86.4v95.1l47.3 48.7v-12l-39-40.1v-71.9l72.7 70.2v80.3l-81.1 78.3v96.2l89.4-86.4v-46.5h-0.1l-8.2 8.3z"/>
</g>
<g id="Star" transform="translate(-49.3,-44.6)">
	<path id="path14" fill="#42cbf8" d="m142.6 212.8c4.7-0.5 8.9-4.6 9.3-9.2l3.8-38c0.5-4.6 1.2-4.6 1.7 0l3.8 38c0.5 4.6 4.7 8.8 9.3 9.2l38.5 3.7c4.7 0.5 4.7 1.2 0 1.7l-38.5 3.7c-4.7 0.5-8.9 4.6-9.3 9.2l-3.8 38c-0.5 4.6-1.2 4.6-1.7 0l-3.8-38c-0.5-4.6-4.7-8.8-9.3-9.2l-38.5-3.7c-4.7-0.5-4.7-1.2 0-1.7l38.5-3.7z"/>
</g>
</svg>
