<?xml version="1.0" encoding="UTF-8" standalone="no"?>
<!-- Created with Inkscape (http://www.inkscape.org/) -->
<svg id="svg2" xmlns:rdf="http://www.w3.org/1999/02/22-rdf-syntax-ns#" xmlns="http://www.w3.org/2000/svg" xml:space="preserve" height="1392.5" viewBox="0 0 1611.1046 1392.4748" width="1611.1" version="1.1" xmlns:cc="http://creativecommons.org/ns#" xmlns:dc="http://purl.org/dc/elements/1.1/"><metadata id="metadata8"><rdf:RDF><cc:Work rdf:about=""><dc:format>image/svg+xml</dc:format><dc:type rdf:resource="http://purl.org/dc/dcmitype/StillImage"/><dc:title/></cc:Work></rdf:RDF></metadata><defs id="defs6"><clipPath id="clipPath16" clipPathUnits="userSpaceOnUse"><path id="path18" d="m0 1114h1288.9v-1114h-1288.9v1114z"/></clipPath></defs><g id="g10" transform="matrix(1.25 0 0 -1.25 0 1392.5)"><g id="g12" stroke="#42cbf8"><g id="g14" stroke="#42cbf8" clip-path="url(#clipPath16)"><g id="g20" transform="translate(334.82 3.0995)"><path id="path22" d="m0 0c12.294-3.175 22.503-3.249 36.357-0.638 31.548 5.946 58.775 20.59 82.839 41.423 4.49 3.887 8.603 8.36 12.18 13.097 2.429 3.216 3.618 7.367 5.373 11.123-7.267 5.449-14.314 4.79-21.159 4.11-22.487-2.232-43.355-9.741-63.223-20.204-17.875-9.413-33.522-21.598-45.633-37.941-2.488-3.357-4.404-7.138-6.734-10.97z" stroke="#42cbf8" stroke-miterlimit="10" fill="none"/></g><g id="g24" transform="translate(818.27 68.194)"><path id="path26" d="m0 0c0.709-8.788 6.456-14.645 12.205-19.99 25.406-23.616 54.757-39.985 89.22-45.971 11.218-1.948 22.709-2.998 35.924 0.973-5.908 7.595-10.523 14.451-16.049 20.47-17.51 19.085-39.488 31.287-63.655 39.844-13.527 4.79-27.303 8.645-41.772 8.971-5.543 0.125-11.388 0.601-15.863-4.297z" stroke="#42cbf8" stroke-miterlimit="10" fill="none"/></g><g id="g28" transform="translate(880.91 90.819)"><path id="path30" d="m0 0c2.341-7.977 3.446-10.928 11.946-16.471 11.931-7.78 24.246-15.222 37.138-21.218 21.707-10.096 44.815-14.69 68.898-13.575 8.174 0.379 16.143 1.525 25.208 5.208-5.32 5.691-9.179 10.724-13.908 14.732-32.01 27.129-69.866 37.478-111.01 37.459-6.381-0.003-13.446-0.512-18.27-6.135z" stroke="#42cbf8" stroke-miterlimit="10" fill="none"/></g><g id="g32" transform="translate(265.59 44.115)"><path id="path34" d="m0 0c4.753-1.208 7.91-2.328 11.16-2.788 46.685-6.617 87.207 7.92 123.62 36.296 2.066 1.611 3.833 3.737 5.351 5.895 4.328 6.15 3.136 9.329-4.218 11.626-1.576 0.494-3.263 0.905-4.896 0.894-10.59-0.065-21.28 0.629-31.746-0.575-28.55-3.283-55.019-12.62-78.36-29.812-7.757-5.713-14.786-12.197-20.904-21.536z" stroke="#42cbf8" stroke-miterlimit="10" fill="none"/></g><g id="g36" transform="translate(1082.6 94.945)"><path id="path38" d="m0 0c-6.719 5.094-12.174 9.998-18.327 13.761-29.134 17.818-61.251 23.104-94.808 21.419-7.262-0.366-14.559-1.53-21.662-3.125-4.658-1.048-9.768-2.44-11.759-7.708 16.5-31.346 108.87-47.365 146.56-24.347z" stroke="#42cbf8" stroke-miterlimit="10" fill="none"/></g><g id="g40" transform="translate(353.57 119.77)"><path id="path42" d="m0 0c-3.772 4.922-8.795 6.54-13.968 7.766-16.72 3.961-33.657 3.628-50.565 1.906-23.426-2.384-45.631-8.799-65.634-21.643-5.765-3.701-11.469-7.583-16.127-14.485 5.773-2.141 10.574-4.237 15.561-5.709 15.87-4.685 32.195-5.136 48.448-3.486 22.654 2.298 44.385 8.354 64.568 19.161 6.981 3.733 14.274 7.368 17.724 16.49z" stroke="#42cbf8" stroke-miterlimit="10" fill="none"/></g><g id="g44" transform="translate(989.29 154.5)"><path id="path46" d="m0 0c3.716-6.634 9.276-9.948 15.248-11.692 13.337-3.895 26.747-8.138 40.434-10.104 24.921-3.579 49.778-2.344 73.571 7.101 5.969 2.368 11.523 5.775 18.943 9.559-5.991 3.833-9.968 6.712-14.24 9.051-16.33 8.943-34.113 12.79-52.471 14.259-21.728 1.739-43.139-0.225-64.011-6.679-6.594-2.039-13.249-4.344-17.468-11.495z" stroke="#42cbf8" stroke-miterlimit="10" fill="none"/></g><g id="g48" transform="translate(152.08 148.85)"><path id="path50" d="m0 0c7.62-3.688 13.358-6.935 19.434-9.324 23.511-9.25 48.069-10.345 72.629-6.849 14.004 1.993 27.697 6.499 41.349 10.495 6.006 1.758 11.495 5.141 14.555 11.785-5.098 7.494-13.085 10.072-21.036 12.17-27.741 7.325-55.767 8.435-83.84 2.042-14.934-3.4-29.13-8.739-43.08-20.319z" stroke="#42cbf8" stroke-miterlimit="10" fill="none"/></g><g id="g52" transform="translate(1039.8 194.19)"><path id="path54" d="m0 0c4.973-2.528 9.099-5.533 13.7-6.766 8.299-2.223 16.818-4.054 25.358-4.872 30.337-2.902 59.724 0.829 87.164 14.879 6.631 3.396 12.583 8.117 20.982 13.629-8.406 3.514-14.264 6.543-20.465 8.453-25.44 7.839-51.211 7.236-76.774 1.058-11.867-2.868-23.443-7.229-34.808-11.77-5.986-2.391-11.978-5.826-15.158-14.611z" stroke="#42cbf8" stroke-miterlimit="10" fill="none"/></g><g id="g56" transform="translate(104.09 211)"><path id="path58" d="m0 0c9.182-9.4 19.795-14.901 31.019-19.068 31.037-11.523 62.845-13.279 95.13-6.267 4.174 0.907 8.335 2.425 12.136 4.374 7.428 3.809 7.867 7.438 1.554 12.601-3.311 2.708-7.026 5.145-10.927 6.871-30.8 13.627-62.875 18.97-96.31 13.468-11.098-1.827-22.017-4.794-32.6-11.979z" stroke="#42cbf8" stroke-miterlimit="10" fill="none"/></g><g id="g60" transform="translate(65.352 277.16)"><path id="path62" d="m0 0c5.477-5.008 9.72-9.668 14.702-13.317 32.819-24.041 70.157-30.924 109.84-27.91 5.706 0.434 11.954 1.535 15.658 7.035-13.03 31.276-99.329 53.072-140.2 34.192z" stroke="#42cbf8" stroke-miterlimit="10" fill="none"/></g><g id="g64" transform="translate(1224 278.14)"><path id="path66" d="m0 0c-5.468 1.691-8.583 2.813-11.779 3.617-14.697 3.694-29.5 4.116-44.543 2.141-24.786-3.254-47.855-11.2-69.011-24.425-4.708-2.943-9.009-6.862-12.682-11.048-3.648-4.157-2.869-7.417 2.319-9.199 5.881-2.021 12.231-3.794 18.363-3.748 13.26 0.098 26.673 0.404 39.732 2.468 25.692 4.059 49.348 13.452 69.063 31.12 2.61 2.34 4.834 5.11 8.538 9.074z" stroke="#42cbf8" stroke-miterlimit="10" fill="none"/></g><g id="g68" transform="translate(168.1 295.63)"><path id="path70" d="m0 0c-1.745 9.035-7.951 14.267-14.097 19.207-24.113 19.38-51.36 32.06-82.159 36.024-11.68 1.503-23.661 2.063-36.123-2.321 4.488-8.017 9.821-14.261 16.105-19.681 28.061-24.204 61.108-35.854 97.681-38.166 6.164-0.388 12.74-0.429 18.599 4.937z" stroke="#42cbf8" stroke-miterlimit="10" fill="none"/></g><g id="g72" transform="translate(1253.6 346.79)"><path id="path74" d="m0 0c-0.379 0.929-0.758 1.857-1.138 2.784-5.224 0.659-10.437 1.771-15.675 1.905-39.912 1.015-73.879-14.186-104.15-38.928-3.784-3.093-6.97-7.194-9.595-11.356-2.886-4.573-1.579-7.745 3.566-9.01 4.469-1.1 9.254-1.821 13.813-1.498 36.135 2.555 69.01 13.817 96.615 37.96 6.124 5.357 11.074 12.06 16.565 18.143z" stroke="#42cbf8" stroke-miterlimit="10" fill="none"/></g><g id="g76" transform="translate(14.071 424.59)"><path id="path78" d="m0 0c3.924-11.031 10.255-19.076 17.351-26.552 21.725-22.887 48.548-36.883 78.864-44.533 5.114-1.291 10.488-1.942 15.763-2.073 3.376-0.084 6.791 1.329 10.085 2.049-1.178 9.258-2.33 12.2-9.004 19.492-22.091 24.133-48.534 41.368-80.448 49.483-10.279 2.614-20.783 4.305-32.612 2.134z" stroke="#42cbf8" stroke-miterlimit="10" fill="none"/></g><g id="g80" transform="translate(1151.1 354.99)"><path id="path82" d="m0 0c9.18-5.242 16.763-3.94 24.177-2.391 21.096 4.411 40.503 12.989 58.389 24.905 15.112 10.067 28.193 22.278 37.499 38.097 1.576 2.677 2.593 5.683 4.239 9.364-4.495 0.253-7.472 0.636-10.431 0.532-3.978-0.14-7.988-0.397-11.91-1.053-37.026-6.2-66.897-25.083-91.651-52.577-4.06-4.51-6.483-10.495-10.309-16.877z" stroke="#42cbf8" stroke-miterlimit="10" fill="none"/></g><g id="g84" transform="translate(2.8268 500.43)"><path id="path86" d="m0 0c1.929-10.621 5.86-17.925 10.398-24.839 19.526-29.751 47.184-49.042 80.121-61.214 4.557-1.684 9.725-2.063 14.647-2.309 4.047-0.202 6.318 2.381 4.989 6.52-1.409 4.389-2.764 9.017-5.261 12.801-20.606 31.209-47.885 54.053-84 65.268-6.198 1.924-12.856 2.367-20.9 3.773z" stroke="#42cbf8" stroke-miterlimit="10" fill="none"/></g><g id="g88" transform="translate(1286.9 499.8)"><path id="path90" d="m0 0c-5.787-0.601-10.063-0.678-14.178-1.53-29.819-6.181-53.542-22.791-73.828-44.585-7.401-7.952-13.485-17.207-19.584-26.263-2.682-3.984-4.713-8.842-2.155-14.267 7.797-3.094 15.091-0.209 22.104 2.422 23.028 8.641 43.228 21.84 60.441 39.409 9.58 9.778 17.736 20.681 23.138 33.4 1.372 3.24 2.373 6.641 4.057 11.414z" stroke="#42cbf8" stroke-miterlimit="10" fill="none"/></g><g id="g92" transform="translate(1.1574 574.85)"><path id="path94" d="m0 0c-0.419-3.436-0.803-4.446-0.603-5.322 0.811-3.557 1.525-7.172 2.766-10.588 13.926-38.356 41.272-64.313 76.759-82.649 2.332-1.206 4.969-2.066 7.558-2.458 2.776-0.419 5.664-0.094 8.297-0.094 1.627 8.186 1.495 11.374-2.709 19.969-14.851 30.361-36.23 54.851-66.253 70.964-7.755 4.162-16.461 6.553-25.815 10.177z" stroke="#42cbf8" stroke-miterlimit="10" fill="none"/></g><g id="g96" transform="translate(1288.4 573.66)"><path id="path98" d="m0 0c-3.578-0.764-6.203-1.035-8.625-1.886-42.048-14.76-69.049-44.924-86.205-84.903-1.569-3.656-1.097-8.189-1.559-12.193 9.358-1.578 11.693-1.567 20.279 3.033 30.157 16.156 54.104 38.672 69.216 69.732 3.743 7.693 7.148 15.734 6.894 26.217z" stroke="#42cbf8" stroke-miterlimit="10" fill="none"/></g><g id="g100" transform="translate(88.381 540.78)"><path id="path102" d="m0 0c-0.403 5.594-0.052 11.268-1.377 16.521-1.778 7.043-4.338 14.001-7.459 20.57-12.795 26.922-30.042 50.204-56.211 65.68-5 2.956-10.563 4.96-16.715 7.795 0-5.197-0.587-8.913 0.09-12.381 8.024-41.173 31.48-71.84 65.541-95.046 3.979-2.706 8.526-5.397 16.131-3.133z" stroke="#42cbf8" stroke-miterlimit="10" fill="none"/></g><g id="g104" transform="translate(1203.9 538.8)"><path id="path106" d="m0 0c3.97 1.465 8.358 2.235 11.784 4.479 34.219 22.407 57.57 52.695 66.316 93.231 0.926 4.297 0.696 8.844 1.117 14.934-6.046-2.598-10.378-4.125-14.393-6.25-12.792-6.766-23.649-16.041-32.997-26.992-16.393-19.2-28.978-40.485-34.548-65.432-0.954-4.271-1.547-8.52 2.721-13.966z" stroke="#42cbf8" stroke-miterlimit="10" fill="none"/></g><g id="g108" transform="translate(19.678 726.04)"><path id="path110" d="m0 0c-0.463-5.662-1.399-9.944-1.065-14.126 3.152-39.437 21.023-71.626 49.451-98.317 3.909-3.67 9.318-5.742 14.446-8.8 5.702 8.213 4.483 16.021 3.065 23.276-5.863 30.007-18.371 56.891-39.603 79.24-7.095 7.464-14.957 14.129-26.294 18.724z" stroke="#42cbf8" stroke-miterlimit="10" fill="none"/></g><g id="g112" transform="translate(1268.8 726.56)"><path id="path114" d="m0 0c-5.756-3.752-10.771-6.352-15.004-9.888-30.122-25.167-45.474-58.304-51.198-96.439-0.736-4.904-0.269-9.937 3.375-13.848 32.15 6.08 70.477 78.087 62.827 120.18z" stroke="#42cbf8" stroke-miterlimit="10" fill="none"/></g><g id="g116" transform="translate(87.112 681.16)"><path id="path118" d="m0 0c1.208 4.568 3.113 8.552 3.194 12.571 0.816 40.677-11.111 76.692-39.939 106.25-2.726 2.796-6.103 4.958-9.754 7.875-1.053-2.686-2.016-4.421-2.416-6.277-2.709-12.555-2.316-25.15-0.143-37.728 4.514-26.129 15.147-49.584 31.361-70.462 4.025-5.183 8.386-10.434 17.697-12.23z" stroke="#42cbf8" stroke-miterlimit="10" fill="none"/></g><g id="g120" transform="translate(1249.2 807.99)"><path id="path122" d="m0 0c-3.547-2.656-6.653-4.479-9.146-6.927-29.48-28.964-40.943-65.113-41.542-105.45-0.073-4.918 0.765-9.947 5.125-14.166 7.338 1.165 11.981 6.435 16.195 11.874 16.792 21.675 27.823 46.035 31.756 73.194 1.934 13.372 2.408 26.989-2.388 41.486z" stroke="#42cbf8" stroke-miterlimit="10" fill="none"/></g><g id="g124" transform="translate(100.69 749.56)"><path id="path126" d="m0 0c5.599 4.051 6.45 10.036 7.447 15.886 2.255 13.234 1.503 26.505-0.165 39.702-2.872 22.738-9.745 44.084-23.559 62.712-3.066 4.134-6.941 7.667-11.042 12.127-1.5-3.573-2.514-5.654-3.263-7.827-4.853-14.085-5.35-28.641-4.207-43.282 1.811-23.202 8.703-44.918 20.26-65.079 3.412-5.957 7.054-12.083 14.529-14.24z" stroke="#42cbf8" stroke-miterlimit="10" fill="none"/></g><g id="g128" transform="translate(1215.2 879.22)"><path id="path130" d="m0 0c-3.245-3.477-6.615-6.573-9.38-10.138-12.928-16.666-19.888-35.923-23.378-56.461-2.902-17.087-3.993-34.306-0.368-51.476 0.953-4.52 1.988-9.164 6.826-11.359 28.733 14.57 45.918 97.433 26.3 129.44z" stroke="#42cbf8" stroke-miterlimit="10" fill="none"/></g><g id="g132" transform="translate(123.17 812.8)"><path id="path134" d="m0 0c7.468 4.59 9.231 10.429 10.795 16.169 5.856 21.485 6.49 43.287 3.099 65.213-2.465 15.929-7.415 31.01-16.586 44.453-1.381 2.023-3.274 3.697-5.67 6.353-2.501-4.956-4.868-8.614-6.281-12.609-13.097-37.034-9.42-73.215 6.269-108.56 1.768-3.986 5.372-7.154 8.374-11.02z" stroke="#42cbf8" stroke-miterlimit="10" fill="none"/></g><g id="g136" transform="translate(1165 813.78)"><path id="path138" d="m0 0c5.716 1.809 8.296 6.724 10.315 11.497 14.322 33.86 17.95 68.524 6.542 104-1.661 5.165-4.636 9.908-7.819 16.548-3.607-5.17-6.415-8.4-8.351-12.08-18.464-35.129-19.739-71.75-8.913-109.27 1.27-4.394 3.267-8.779 8.226-10.7z" stroke="#42cbf8" stroke-miterlimit="10" fill="none"/></g><g id="g140" transform="translate(1065.8 1067.6)"><path id="path142" d="m0 0c-1.974-5.783-3.96-9.995-4.839-14.427-7.44-37.531 1.236-71.963 20.881-104.04 2.45-4.001 6.71-6.894 10.136-10.305 6.243 6.436 7.227 8.269 8.316 16.658 3.551 27.369-0.33 53.757-11.118 79.082-5.112 12.009-11.794 23.059-23.376 33.038z" stroke="#42cbf8" stroke-miterlimit="10" fill="none"/></g><g id="g144" transform="translate(197.51 938.69)"><path id="path146" d="m0 0c3.757 3.933 7.906 6.992 10.379 11.067 19.534 32.191 27.818 66.708 20.159 104.18-0.881 4.308-2.892 8.384-5.036 14.416-5.238-6.37-9.684-10.86-13.087-16.05-19.335-29.444-24.443-62.153-21.025-96.548 0.57-5.728 1.489-11.987 8.61-17.072z" stroke="#42cbf8" stroke-miterlimit="10" fill="none"/></g><g id="g148" transform="translate(1124 1008.6)"><path id="path150" d="m0 0c-2.795-5.693-5.266-9.632-6.746-13.912-12.491-36.105-8.729-71.367 6.168-105.87 1.931-4.475 4.486-9.01 10.283-10.734 6.618 4.296 8.419 11.543 10.089 18.567 4.986 20.977 5.63 42.215 1.711 63.391-3.165 17.095-8.576 33.435-21.505 48.549z" stroke="#42cbf8" stroke-miterlimit="10" fill="none"/></g><g id="g152" transform="translate(155.99 878.06)"><path id="path154" d="m0 0c26.277 18.59 31.669 101.09 8.146 129.88-3.21-4.97-6.743-9.38-9.16-14.34-16.071-32.986-16.763-67.296-7.897-102.2 1.274-5.017 3.23-10.236 8.911-13.34z" stroke="#42cbf8" stroke-miterlimit="10" fill="none"/></g><g id="g156" transform="translate(288.96 1113.2)"><path id="path158" d="m0 0c-3.244-2.454-5.815-4.008-7.915-6.047-28.745-27.921-39.802-62.944-40.386-101.98-0.071-4.725 0.638-9.957 5.018-13.17 30.064 11.37 56.666 85.218 43.283 121.2z" stroke="#42cbf8" stroke-miterlimit="10" fill="none"/></g><g id="g160" transform="translate(999.78 1112.3)"><path id="path162" d="m0 0c-4.3-14.275-4.808-22.028-1.768-41.111 4.064-25.513 14.717-48.221 30.591-68.464 3.82-4.87 8.051-9.746 14.749-10.744 17.83 24.247-10.813 103.64-43.572 120.32z" stroke="#42cbf8" stroke-miterlimit="10" fill="none"/></g></g></g></g></svg>
