<?xml version="1.0" encoding="UTF-8" standalone="no"?>
<svg
   xmlns:dc="http://purl.org/dc/elements/1.1/"
   xmlns:cc="http://creativecommons.org/ns#"
   xmlns:rdf="http://www.w3.org/1999/02/22-rdf-syntax-ns#"
   xmlns:svg="http://www.w3.org/2000/svg"
   xmlns="http://www.w3.org/2000/svg"
   viewBox="0 0 1609.8548 1966.756"
   height="1966.756"
   width="1609.8547"
   xml:space="preserve"
   version="1.1"
   id="svg2"><metadata
     id="metadata8"><rdf:RDF><cc:Work
         rdf:about=""><dc:format>image/svg+xml</dc:format><dc:type
           rdf:resource="http://purl.org/dc/dcmitype/StillImage" /><dc:title></dc:title></cc:Work></rdf:RDF></metadata><defs
     id="defs6"><clipPath
       id="clipPath16"
       clipPathUnits="userSpaceOnUse"><path
         id="path18"
         d="m 0,1830 1517.585,0 0,-1830 L 0,0 0,1830 Z" /></clipPath></defs><g
     transform="matrix(1.25,0,0,-1.25,-150.01309,2064.7833)"
     id="g10"><g
       style="fill:#595959"
       id="g12"><g
         style="fill:#595959"
         clip-path="url(#clipPath16)"
         id="g14"><g
           style="fill:#595959"
           transform="translate(995.0645,1539.3105)"
           id="g20"><path
             id="path22"
             style="fill:#595959;fill-opacity:1;fill-rule:evenodd;stroke:none"
             d="m 0,0 c -0.646,-11.395 -0.578,-21.099 2.899,-30.734 15.365,-42.576 30.588,-85.202 45.698,-127.868 1.631,-4.603 3.829,-8.008 8.16,-10.664 11.068,-6.785 21.767,-14.169 32.646,-21.265 2.036,-1.328 4.218,-2.434 7.816,-4.489 -14.159,52.973 -30.617,103.416 -48.604,154.833 4.212,-1.01 7.019,-1.724 9.843,-2.354 5.194,-1.158 10.351,-2.697 15.611,-3.298 8.121,-0.928 12.691,2.286 14.653,10.21 1.026,4.15 1.432,8.549 1.447,12.837 0.111,33.992 0.122,67.986 -0.005,101.979 -0.018,4.962 -0.524,10.004 -1.514,14.865 -1.924,9.449 -7.95,15.279 -17.422,16.98 -5.217,0.937 -10.587,1.389 -15.891,1.406 -35.325,0.12 -70.651,0.075 -105.978,0.04 -2.894,-0.003 -5.788,-0.333 -9.725,-0.575 1.02,-77.006 2.033,-153.422 3.042,-229.507 15.827,-5.675 30.467,-10.925 44.971,-16.126 0,35.845 -0.079,71.092 0.023,106.338 0.102,35.472 -1.808,70.955 -0.643,107.395 19.661,-1.248 38.08,-2.417 56.976,-3.616 l 0,-85.583 C 29.315,-6.126 15.134,-3.162 0,0" /></g><g
           style="fill:#595959"
           transform="translate(583.8291,1578.1865)"
           id="g24"><path
             id="path26"
             style="fill:#595959;fill-opacity:1;fill-rule:evenodd;stroke:none"
             d="m 0,0 c 0,18.839 0.281,37.116 -0.125,55.378 -0.189,8.532 -5.937,14.556 -14.91,16.377 -5.833,1.184 -11.888,1.791 -17.841,1.784 -29.308,-0.034 -58.614,-0.304 -87.92,-0.601 -18.249,-0.185 -27.049,-8.642 -27.301,-26.972 -0.321,-23.318 -0.044,-46.642 -0.095,-69.963 -0.023,-10.506 3.976,-18.631 13.232,-24.07 17.217,-10.12 34.221,-20.609 51.565,-30.501 11.5,-6.559 23.44,-12.348 34.595,-18.175 l 0,-48.261 c -18.091,-7.966 -35.545,-15.651 -54.053,-23.801 l 0,54.082 c -9.63,-1.463 -35.611,-12.69 -45.239,-19.494 0,-25.001 -0.023,-50.3 0.043,-75.599 0.006,-1.964 0.423,-3.989 1.002,-5.877 2.107,-6.869 6.11,-9.392 12.828,-7.175 4.673,1.542 9.179,3.937 13.35,6.594 28.734,18.294 58.908,33.71 90.492,46.47 6.095,2.463 11.929,5.926 17.295,9.753 7.172,5.115 10.751,12.599 10.841,21.48 0.191,18.985 0.19,37.973 0.4,56.959 0.083,7.489 -3.219,12.655 -9.786,16.014 -5.038,2.577 -10.1,5.134 -14.969,8.008 -22.932,13.537 -45.86,27.084 -68.62,40.907 -2.826,1.717 -6.501,5.021 -6.614,7.722 -0.639,15.213 -0.308,30.466 -0.308,46.151 19.245,2.153 37.217,3.453 56.065,3.411 l 0,-46.227 C -30.505,-3.725 -15.759,-1.924 0,0" /></g><g
           style="fill:#595959"
           transform="translate(1246.6523,153.6816)"
           id="g28"><path
             id="path30"
             style="fill:#595959;fill-opacity:1;fill-rule:evenodd;stroke:none"
             d="m 0,0 c -0.924,-0.134 -1.848,-0.268 -2.77,-0.402 -6.742,12.936 -13.502,25.861 -20.218,38.81 -7.974,15.373 -15.794,30.828 -23.965,46.095 -1.429,2.669 -4.102,6.313 -6.479,6.536 -8.473,0.797 -17.067,0.312 -25.909,0.312 l 0,-165.968 32.371,0 0,94.444 c 0.597,0.093 1.193,0.186 1.788,0.278 16.128,-31.646 32.256,-63.292 48.518,-95.203 9.923,0.019 19.39,-0.541 28.796,0.319 l 0,165.621 L 0,90.842 0,0 Z" /></g><g
           style="fill:#595959"
           transform="translate(753.9678,1651.3457)"
           id="g32"><path
             id="path34"
             style="fill:#595959;fill-opacity:1;fill-rule:evenodd;stroke:none"
             d="m 0,0 -146.828,0 c -0.763,-10.168 -0.798,-19.846 -0.048,-29.665 17.397,-0.356 33.522,1.552 50.207,0.154 -0.667,-61.814 -1.322,-122.565 -1.986,-184.032 16.307,2.364 31.355,4.547 46.74,6.778 0.216,3.07 0.543,5.687 0.563,8.307 0.252,32.941 0.47,65.883 0.676,98.825 0.131,20.968 0.201,41.936 0.37,62.904 0.023,2.849 0.459,5.695 0.798,9.648 L 0,-27.081 0,0 Z" /></g><g
           style="fill:#595959"
           transform="translate(325.2598,135.2891)"
           id="g36"><path
             id="path38"
             style="fill:#595959;fill-opacity:1;fill-rule:evenodd;stroke:none"
             d="m 0,0 0,-34.098 -41.502,0 c -2.291,14.087 -1.509,115.141 0.88,122.049 l 40.752,0 0,-32.106 32.489,0 c 0,14.246 0.081,27.85 -0.038,41.454 -0.051,5.794 -3.736,9.229 -8.813,10.852 -3.43,1.096 -7.185,1.603 -10.798,1.625 -23.326,0.139 -46.654,0.159 -69.98,0.036 -11.673,-0.062 -19.36,-3.501 -19.122,-19.365 0.558,-37.315 0.177,-74.643 0.179,-111.967 0,-6.665 -0.151,-13.334 0.057,-19.993 0.256,-8.262 3.428,-12.15 11.448,-13.957 3.546,-0.8 7.244,-1.26 10.876,-1.28 20.994,-0.118 41.989,-0.127 62.983,0.003 3.965,0.024 8.006,0.486 11.871,1.363 8.062,1.83 11.236,5.722 11.369,13.968 0.184,11.327 0.107,22.66 0.006,33.989 C 32.635,-4.929 32.048,-2.436 31.729,0 L 0,0 Z" /></g><g
           style="fill:#595959"
           transform="translate(1014.6143,244.4814)"
           id="g40"><path
             id="path42"
             style="fill:#595959;fill-opacity:1;fill-rule:evenodd;stroke:none"
             d="m 0,0 0,-165.398 91.371,0 0,22.066 c -10.2,0 -19.786,-0.229 -29.355,0.065 -9.452,0.292 -19.058,-1.37 -28.366,1.135 l 0,50.526 48.654,0 0,21.815 -48.004,0 c -1.996,11.218 -1.705,40.009 0.559,48.148 l 55.497,0 L 90.356,0 0,0 Z" /></g><g
           style="fill:#595959"
           transform="translate(849.5039,79.1973)"
           id="g44"><path
             id="path46"
             style="fill:#595959;fill-opacity:1;fill-rule:evenodd;stroke:none"
             d="m 0,0 100.288,0 0,23.019 -60.342,0 c 1.532,3.288 2.467,5.339 3.439,7.373 18.089,37.855 36.108,75.743 54.343,113.528 3.331,6.903 4.347,13.71 2.591,20.926 -13.782,2.171 -88.722,1.523 -95.4,-0.675 l 0,-21.428 55.402,0 C 58.04,137.648 56.376,133.736 54.556,129.897 37.149,93.193 19.809,56.457 2.204,19.848 -0.852,13.492 -1.562,7.294 0,0" /></g><g
           style="fill:#595959"
           transform="translate(647.25,222.8379)"
           id="g48"><path
             id="path50"
             style="fill:#595959;fill-opacity:1;fill-rule:evenodd;stroke:none"
             d="m 0,0 35.604,0 0,21.651 -104.913,0 0,-22.233 35.7,0 0,-36.954 0,-34.937 c 0,-11.978 -0.072,-23.957 0.02,-35.933 0.09,-11.803 -0.413,-23.643 0.388,-35.875 11.826,0.091 22.294,-0.595 33.201,0.477 L 0,0 Z" /></g><path
           id="path52"
           style="fill:#595959;fill-opacity:1;fill-rule:evenodd;stroke:none"
           d="m 456.28,79.131 32.393,0 0,165.387 -32.393,0 0,-165.387 z" /><path
           id="path54"
           style="fill:#595959;fill-opacity:1;fill-rule:evenodd;stroke:none"
           d="m 784.745,244.543 -32.502,0 0,-165.446 32.502,0 0,165.446 z" /><g
           style="fill:#595959"
           transform="translate(454.333,287.6865)"
           id="g56"><path
             id="path58"
             style="fill:#595959;fill-opacity:1;fill-rule:evenodd;stroke:none"
             d="m 0,0 c 12.294,-3.175 22.502,-3.249 36.357,-0.638 31.548,5.946 58.775,20.59 82.839,41.423 4.49,3.887 8.603,8.36 12.18,13.097 2.429,3.216 3.618,7.367 5.373,11.123 -7.267,5.449 -14.314,4.79 -21.159,4.11 C 93.103,66.883 72.235,59.374 52.367,48.911 34.492,39.498 18.845,27.314 6.734,10.97 4.246,7.613 2.33,3.832 0,0" /></g><g
           style="fill:#595959"
           transform="translate(937.7852,352.7812)"
           id="g60"><path
             id="path62"
             style="fill:#595959;fill-opacity:1;fill-rule:evenodd;stroke:none"
             d="m 0,0 c 0.709,-8.788 6.456,-14.645 12.205,-19.99 25.406,-23.616 54.757,-39.985 89.22,-45.971 11.219,-1.948 22.709,-2.998 35.924,0.973 -5.908,7.596 -10.523,14.451 -16.049,20.471 C 103.777,-25.433 81.802,-13.231 57.635,-4.674 44.108,0.116 30.332,3.971 15.863,4.297 10.32,4.422 4.475,4.898 0,0" /></g><g
           style="fill:#595959"
           transform="translate(1000.4199,375.4062)"
           id="g64"><path
             id="path66"
             style="fill:#595959;fill-opacity:1;fill-rule:evenodd;stroke:none"
             d="m 0,0 c 2.341,-7.977 3.446,-10.928 11.946,-16.471 11.931,-7.78 24.246,-15.222 37.138,-21.218 21.707,-10.096 44.815,-14.69 68.898,-13.575 8.174,0.379 16.143,1.525 25.208,5.208 -5.32,5.691 -9.179,10.724 -13.908,14.732 C 97.27,-4.195 59.414,6.154 18.267,6.135 11.889,6.132 4.824,5.623 0,0" /></g><g
           style="fill:#595959"
           transform="translate(385.104,328.7021)"
           id="g68"><path
             id="path70"
             style="fill:#595959;fill-opacity:1;fill-rule:evenodd;stroke:none"
             d="m 0,0 c 4.753,-1.208 7.91,-2.328 11.16,-2.788 46.685,-6.617 87.207,7.92 123.619,36.296 2.066,1.611 3.833,3.737 5.351,5.895 4.328,6.15 3.136,9.329 -4.218,11.626 -1.576,0.494 -3.263,0.905 -4.896,0.894 C 120.425,51.858 109.733,52.552 99.264,51.348 70.714,48.065 44.245,38.728 20.904,21.536 13.147,15.823 6.118,9.339 0,0" /></g><g
           style="fill:#595959"
           transform="translate(1202.1143,379.5322)"
           id="g72"><path
             id="path74"
             style="fill:#595959;fill-opacity:1;fill-rule:evenodd;stroke:none"
             d="m 0,0 c -6.719,5.094 -12.174,9.998 -18.327,13.761 -29.134,17.818 -61.251,23.104 -94.808,21.419 -7.262,-0.366 -14.559,-1.53 -21.662,-3.125 -4.658,-1.048 -9.768,-2.44 -11.759,-7.708 C -130.065,-6.999 -37.686,-23.018 0,0" /></g><g
           style="fill:#595959"
           transform="translate(473.0781,404.3535)"
           id="g76"><path
             id="path78"
             style="fill:#595959;fill-opacity:1;fill-rule:evenodd;stroke:none"
             d="m 0,0 c -3.772,4.922 -8.795,6.54 -13.968,7.766 -16.72,3.961 -33.657,3.628 -50.565,1.906 -23.426,-2.384 -45.631,-8.799 -65.634,-21.643 -5.765,-3.701 -11.469,-7.583 -16.127,-14.485 5.773,-2.141 10.574,-4.237 15.561,-5.709 15.87,-4.685 32.195,-5.136 48.448,-3.486 22.654,2.298 44.385,8.354 64.568,19.161 C -10.743,-12.757 -3.45,-9.122 0,0" /></g><g
           style="fill:#595959"
           transform="translate(1108.8047,439.0898)"
           id="g80"><path
             id="path82"
             style="fill:#595959;fill-opacity:1;fill-rule:evenodd;stroke:none"
             d="m 0,0 c 3.716,-6.634 9.276,-9.948 15.248,-11.692 13.337,-3.895 26.747,-8.138 40.434,-10.104 24.921,-3.579 49.778,-2.344 73.571,7.101 5.969,2.368 11.523,5.775 18.943,9.559 -5.991,3.833 -9.968,6.712 -14.24,9.051 C 117.625,12.858 99.837,16.705 81.479,18.174 59.751,19.913 38.34,17.949 17.468,11.495 10.874,9.456 4.219,7.151 0,0" /></g><g
           style="fill:#595959"
           transform="translate(271.5913,433.4375)"
           id="g84"><path
             id="path86"
             style="fill:#595959;fill-opacity:1;fill-rule:evenodd;stroke:none"
             d="m 0,0 c 7.62,-3.689 13.358,-6.935 19.434,-9.324 23.511,-9.25 48.069,-10.345 72.629,-6.849 14.004,1.993 27.697,6.499 41.349,10.495 6.006,1.758 11.495,5.141 14.555,11.785 -5.098,7.494 -13.085,10.072 -21.036,12.17 C 99.179,25.602 71.153,26.712 43.08,20.319 28.146,16.919 13.95,11.58 0,0" /></g><g
           style="fill:#595959"
           transform="translate(1159.3594,478.7803)"
           id="g88"><path
             id="path90"
             style="fill:#595959;fill-opacity:1;fill-rule:evenodd;stroke:none"
             d="m 0,0 c 4.973,-2.528 9.099,-5.533 13.7,-6.766 8.299,-2.223 16.818,-4.054 25.358,-4.872 30.337,-2.902 59.724,0.829 87.164,14.879 6.631,3.396 12.583,8.117 20.982,13.629 -8.406,3.514 -14.264,6.543 -20.465,8.453 -25.44,7.839 -51.211,7.236 -76.774,1.058 C 38.099,23.513 26.523,19.152 15.158,14.611 9.172,12.22 3.18,8.785 0,0" /></g><g
           style="fill:#595959"
           transform="translate(223.6035,495.5869)"
           id="g92"><path
             id="path94"
             style="fill:#595959;fill-opacity:1;fill-rule:evenodd;stroke:none"
             d="m 0,0 c 9.182,-9.4 19.794,-14.901 31.019,-19.068 31.037,-11.523 62.845,-13.279 95.13,-6.267 4.174,0.907 8.335,2.425 12.136,4.374 7.428,3.809 7.867,7.438 1.554,12.601 -3.311,2.708 -7.026,5.145 -10.927,6.871 C 98.112,12.138 66.037,17.482 32.602,11.979 21.501,10.152 10.583,7.185 0,0" /></g><g
           style="fill:#595959"
           transform="translate(184.8623,561.7461)"
           id="g96"><path
             id="path98"
             style="fill:#595959;fill-opacity:1;fill-rule:evenodd;stroke:none"
             d="m 0,0 c 5.477,-5.008 9.72,-9.668 14.702,-13.317 32.818,-24.041 70.157,-30.924 109.838,-27.91 5.706,0.434 11.954,1.535 15.658,7.035 C 127.17,-2.916 40.871,18.88 0,0" /></g><g
           style="fill:#595959"
           transform="translate(1343.5566,562.7285)"
           id="g100"><path
             id="path102"
             style="fill:#595959;fill-opacity:1;fill-rule:evenodd;stroke:none"
             d="m 0,0 c -5.468,1.691 -8.583,2.813 -11.779,3.617 -14.697,3.694 -29.5,4.116 -44.543,2.141 -24.786,-3.254 -47.855,-11.2 -69.011,-24.425 -4.708,-2.943 -9.009,-6.862 -12.682,-11.048 -3.648,-4.157 -2.869,-7.417 2.319,-9.199 5.882,-2.021 12.231,-3.794 18.363,-3.748 13.26,0.098 26.673,0.404 39.732,2.468 25.692,4.059 49.348,13.452 69.063,31.12 2.61,2.34 4.834,5.11 8.538,9.074" /></g><g
           style="fill:#595959"
           transform="translate(287.6094,580.2139)"
           id="g104"><path
             id="path106"
             style="fill:#595959;fill-opacity:1;fill-rule:evenodd;stroke:none"
             d="m 0,0 c -1.745,9.035 -7.951,14.267 -14.097,19.207 -24.113,19.38 -51.36,32.06 -82.159,36.024 -11.68,1.503 -23.661,2.063 -36.123,-2.321 4.488,-8.016 9.821,-14.261 16.105,-19.681 C -88.219,9.025 -55.172,-2.625 -18.599,-4.937 -12.435,-5.325 -5.859,-5.366 0,0" /></g><g
           style="fill:#595959"
           transform="translate(1373.0822,631.3779)"
           id="g108"><path
             id="path110"
             style="fill:#595959;fill-opacity:1;fill-rule:evenodd;stroke:none"
             d="m 0,0 c -0.379,0.929 -0.758,1.857 -1.138,2.784 -5.224,0.659 -10.437,1.771 -15.676,1.905 -39.911,1.015 -73.879,-14.186 -104.151,-38.928 -3.784,-3.093 -6.97,-7.194 -9.595,-11.356 -2.886,-4.573 -1.579,-7.745 3.566,-9.01 4.468,-1.1 9.254,-1.821 13.813,-1.498 36.135,2.555 69.01,13.817 96.615,37.96 C -10.441,-12.786 -5.491,-6.083 0,0" /></g><g
           style="fill:#595959"
           transform="translate(133.5816,709.1748)"
           id="g112"><path
             id="path114"
             style="fill:#595959;fill-opacity:1;fill-rule:evenodd;stroke:none"
             d="m 0,0 c 3.924,-11.031 10.255,-19.076 17.351,-26.552 21.725,-22.887 48.548,-36.883 78.864,-44.533 5.114,-1.291 10.488,-1.942 15.762,-2.073 3.377,-0.084 6.792,1.329 10.086,2.049 -1.178,9.258 -2.33,12.2 -9.004,19.492 C 90.969,-27.484 64.526,-10.249 32.612,-2.134 22.332,0.48 11.829,2.171 0,0" /></g><g
           style="fill:#595959"
           transform="translate(1270.5791,639.5742)"
           id="g116"><path
             id="path118"
             style="fill:#595959;fill-opacity:1;fill-rule:evenodd;stroke:none"
             d="m 0,0 c 9.18,-5.242 16.763,-3.94 24.177,-2.391 21.095,4.411 40.503,12.989 58.389,24.905 15.112,10.067 28.193,22.278 37.498,38.097 1.577,2.677 2.594,5.683 4.24,9.364 -4.495,0.253 -7.472,0.636 -10.431,0.532 -3.978,-0.14 -7.988,-0.397 -11.91,-1.053 C 64.934,63.254 35.063,44.371 10.309,16.877 6.249,12.367 3.826,6.382 0,0" /></g><g
           style="fill:#595959"
           transform="translate(122.3374,785.0156)"
           id="g120"><path
             id="path122"
             style="fill:#595959;fill-opacity:1;fill-rule:evenodd;stroke:none"
             d="m 0,0 c 1.929,-10.621 5.86,-17.925 10.398,-24.839 19.526,-29.751 47.184,-49.042 80.121,-61.214 4.557,-1.684 9.725,-2.063 14.647,-2.309 4.047,-0.202 6.318,2.381 4.989,6.52 -1.409,4.389 -2.764,9.017 -5.261,12.801 C 84.294,-37.832 57.015,-14.988 20.9,-3.773 14.702,-1.849 8.044,-1.406 0,0" /></g><g
           style="fill:#595959"
           transform="translate(1406.4453,784.3848)"
           id="g124"><path
             id="path126"
             style="fill:#595959;fill-opacity:1;fill-rule:evenodd;stroke:none"
             d="m 0,0 c -5.787,-0.601 -10.063,-0.678 -14.178,-1.53 -29.819,-6.181 -53.542,-22.791 -73.828,-44.585 -7.401,-7.952 -13.485,-17.207 -19.584,-26.263 -2.682,-3.984 -4.713,-8.842 -2.155,-14.267 7.797,-3.094 15.091,-0.209 22.104,2.422 23.028,8.641 43.228,21.84 60.441,39.409 9.58,9.778 17.736,20.681 23.138,33.4 C -2.686,-8.174 -1.685,-4.773 0,0" /></g><g
           style="fill:#595959"
           transform="translate(120.668,859.4404)"
           id="g128"><path
             id="path130"
             style="fill:#595959;fill-opacity:1;fill-rule:evenodd;stroke:none"
             d="m 0,0 c -0.419,-3.436 -0.803,-4.446 -0.603,-5.322 0.811,-3.557 1.525,-7.172 2.766,-10.588 13.926,-38.356 41.272,-64.313 76.759,-82.649 2.332,-1.206 4.969,-2.066 7.558,-2.458 2.776,-0.419 5.664,-0.094 8.297,-0.094 1.627,8.186 1.495,11.374 -2.709,19.969 C 77.217,-50.78 55.838,-26.29 25.815,-10.177 18.06,-6.015 9.354,-3.624 0,0" /></g><g
           style="fill:#595959"
           transform="translate(1407.8809,858.2461)"
           id="g132"><path
             id="path134"
             style="fill:#595959;fill-opacity:1;fill-rule:evenodd;stroke:none"
             d="m 0,0 c -3.578,-0.764 -6.203,-1.035 -8.625,-1.886 -42.048,-14.76 -69.049,-44.924 -86.205,-84.903 -1.568,-3.656 -1.097,-8.188 -1.559,-12.193 9.358,-1.578 11.693,-1.567 20.279,3.033 30.157,16.156 54.104,38.672 69.216,69.732 C -3.151,-18.524 0.254,-10.483 0,0" /></g><g
           style="fill:#595959"
           transform="translate(207.8911,825.3672)"
           id="g136"><path
             id="path138"
             style="fill:#595959;fill-opacity:1;fill-rule:evenodd;stroke:none"
             d="m 0,0 c -0.403,5.594 -0.052,11.268 -1.377,16.521 -1.778,7.042 -4.338,14.001 -7.459,20.57 -12.795,26.922 -30.042,50.204 -56.211,65.68 -5,2.956 -10.563,4.96 -16.715,7.795 0,-5.197 -0.587,-8.913 0.09,-12.381 8.024,-41.173 31.48,-71.84 65.541,-95.046 C -12.152,0.427 -7.605,-2.264 0,0" /></g><g
           style="fill:#595959"
           transform="translate(1323.4316,823.3916)"
           id="g140"><path
             id="path142"
             style="fill:#595959;fill-opacity:1;fill-rule:evenodd;stroke:none"
             d="M 0,0 C 3.97,1.465 8.358,2.235 11.784,4.479 46.003,26.886 69.355,57.174 78.1,97.71 c 0.926,4.297 0.696,8.844 1.117,14.934 -6.046,-2.598 -10.378,-4.125 -14.393,-6.25 C 52.032,99.624 41.175,90.349 31.827,79.398 15.435,60.198 2.849,38.913 -2.721,13.966 -3.675,9.695 -4.268,5.446 0,0" /></g><g
           style="fill:#595959"
           transform="translate(139.189,1010.625)"
           id="g144"><path
             id="path146"
             style="fill:#595959;fill-opacity:1;fill-rule:evenodd;stroke:none"
             d="m 0,0 c -0.463,-5.662 -1.399,-9.944 -1.065,-14.126 3.152,-39.437 21.023,-71.626 49.451,-98.317 3.909,-3.67 9.318,-5.742 14.446,-8.8 5.702,8.213 4.483,16.021 3.065,23.276 C 60.034,-67.96 47.526,-41.076 26.294,-18.728 19.199,-11.26 11.337,-4.595 0,0" /></g><g
           style="fill:#595959"
           transform="translate(1388.3195,1011.1514)"
           id="g148"><path
             id="path150"
             style="fill:#595959;fill-opacity:1;fill-rule:evenodd;stroke:none"
             d="m 0,0 c -5.756,-3.752 -10.772,-6.352 -15.004,-9.888 -30.122,-25.167 -45.474,-58.304 -51.198,-96.439 -0.737,-4.905 -0.269,-9.937 3.375,-13.848 C -30.677,-114.105 7.65,-42.093 0,0" /></g><g
           style="fill:#595959"
           transform="translate(206.6221,965.7432)"
           id="g152"><path
             id="path154"
             style="fill:#595959;fill-opacity:1;fill-rule:evenodd;stroke:none"
             d="m 0,0 c 1.209,4.568 3.113,8.552 3.194,12.571 0.816,40.677 -11.111,76.692 -39.939,106.246 -2.726,2.796 -6.103,4.958 -9.754,7.875 -1.053,-2.686 -2.016,-4.421 -2.416,-6.277 -2.709,-12.555 -2.316,-25.15 -0.143,-37.728 C -44.544,56.563 -33.911,33.108 -17.697,12.23 -13.672,7.047 -9.311,1.796 0,0" /></g><g
           style="fill:#595959"
           transform="translate(1368.7168,1092.5811)"
           id="g156"><path
             id="path158"
             style="fill:#595959;fill-opacity:1;fill-rule:evenodd;stroke:none"
             d="m 0,0 c -3.547,-2.656 -6.653,-4.479 -9.146,-6.927 -29.48,-28.964 -40.943,-65.113 -41.542,-105.447 -0.073,-4.918 0.765,-9.947 5.125,-14.166 7.338,1.165 11.981,6.436 16.195,11.874 16.792,21.675 27.823,46.035 31.756,73.194 C 4.322,-28.114 4.796,-14.497 0,0" /></g><g
           style="fill:#595959"
           transform="translate(220.2007,1034.1484)"
           id="g160"><path
             id="path162"
             style="fill:#595959;fill-opacity:1;fill-rule:evenodd;stroke:none"
             d="M 0,0 C 5.599,4.051 6.45,10.036 7.447,15.886 9.702,29.12 8.95,42.391 7.282,55.588 4.41,78.326 -2.463,99.672 -16.277,118.296 c -3.066,4.134 -6.941,7.667 -11.042,12.127 -1.5,-3.573 -2.514,-5.654 -3.263,-7.827 -4.853,-14.085 -5.35,-28.641 -4.207,-43.283 1.811,-23.201 8.703,-44.917 20.26,-65.078 C -11.117,8.283 -7.475,2.157 0,0" /></g><g
           style="fill:#595959"
           transform="translate(1334.666,1163.8066)"
           id="g164"><path
             id="path166"
             style="fill:#595959;fill-opacity:1;fill-rule:evenodd;stroke:none"
             d="m 0,0 c -3.245,-3.478 -6.615,-6.573 -9.38,-10.138 -12.928,-16.666 -19.889,-35.924 -23.378,-56.461 -2.902,-17.088 -3.993,-34.306 -0.368,-51.476 0.953,-4.52 1.988,-9.164 6.826,-11.359 C 2.433,-114.868 19.618,-32.007 0,0" /></g><g
           style="fill:#595959"
           transform="translate(242.6792,1097.3867)"
           id="g168"><path
             id="path170"
             style="fill:#595959;fill-opacity:1;fill-rule:evenodd;stroke:none"
             d="m 0,0 c 7.468,4.59 9.232,10.429 10.795,16.169 5.856,21.485 6.49,43.287 3.099,65.213 -2.465,15.929 -7.415,31.01 -16.586,44.453 -1.381,2.023 -3.274,3.697 -5.67,6.353 -2.501,-4.956 -4.867,-8.614 -6.281,-12.609 C -27.74,82.546 -24.063,46.365 -8.374,11.017 -6.606,7.034 -3.002,3.866 0,0" /></g><g
           style="fill:#595959"
           transform="translate(1284.5205,1098.3711)"
           id="g172"><path
             id="path174"
             style="fill:#595959;fill-opacity:1;fill-rule:evenodd;stroke:none"
             d="m 0,0 c 5.716,1.809 8.296,6.724 10.314,11.497 14.323,33.86 17.951,68.524 6.543,103.997 -1.661,5.165 -4.636,9.908 -7.819,16.548 C 5.431,126.88 2.623,123.653 0.687,119.97 -17.777,84.841 -19.052,48.22 -8.226,10.704 -6.956,6.306 -4.959,1.921 0,0" /></g><g
           style="fill:#595959"
           transform="translate(1185.2764,1352.1904)"
           id="g176"><path
             id="path178"
             style="fill:#595959;fill-opacity:1;fill-rule:evenodd;stroke:none"
             d="m 0,0 c -1.975,-5.783 -3.96,-9.995 -4.839,-14.427 -7.44,-37.531 1.236,-71.963 20.881,-104.035 2.45,-4.001 6.71,-6.894 10.136,-10.305 6.243,6.436 7.227,8.269 8.316,16.658 3.551,27.369 -0.33,53.756 -11.118,79.082 C 18.264,-21.029 11.582,-9.979 0,0" /></g><g
           style="fill:#595959"
           transform="translate(317.021,1223.2744)"
           id="g180"><path
             id="path182"
             style="fill:#595959;fill-opacity:1;fill-rule:evenodd;stroke:none"
             d="m 0,0 c 3.757,3.933 7.906,6.992 10.379,11.067 19.534,32.191 27.818,66.708 20.159,104.18 -0.881,4.308 -2.892,8.384 -5.037,14.416 C 20.264,123.305 15.818,118.807 12.415,113.624 -6.92,84.176 -12.028,51.467 -8.61,17.072 -8.04,11.344 -7.121,5.085 0,0" /></g><g
           style="fill:#595959"
           transform="translate(1243.4766,1293.2274)"
           id="g184"><path
             id="path186"
             style="fill:#595959;fill-opacity:1;fill-rule:evenodd;stroke:none"
             d="m 0,0 c -2.795,-5.693 -5.266,-9.632 -6.746,-13.912 -12.491,-36.104 -8.729,-71.367 6.168,-105.87 1.932,-4.475 4.486,-9.01 10.283,-10.734 6.618,4.296 8.419,11.543 10.089,18.567 4.986,20.977 5.63,42.215 1.711,63.392 C 18.34,-31.454 12.929,-15.114 0,0" /></g><g
           style="fill:#595959"
           transform="translate(275.4961,1162.6455)"
           id="g188"><path
             id="path190"
             style="fill:#595959;fill-opacity:1;fill-rule:evenodd;stroke:none"
             d="M 0,0 C 26.277,18.59 31.669,101.088 8.147,129.877 4.936,124.911 1.403,120.496 -1.014,115.536 -17.085,82.554 -17.777,48.244 -8.911,13.337 -7.637,8.323 -5.681,3.104 0,0" /></g><g
           style="fill:#595959"
           transform="translate(408.4678,1397.7637)"
           id="g192"><path
             id="path194"
             style="fill:#595959;fill-opacity:1;fill-rule:evenodd;stroke:none"
             d="m 0,0 c -3.244,-2.454 -5.815,-4.008 -7.915,-6.047 -28.745,-27.921 -39.802,-62.944 -40.386,-101.981 -0.071,-4.725 0.638,-9.957 5.018,-13.17 C -13.219,-109.827 13.383,-35.982 0,0" /></g><g
           style="fill:#595959"
           transform="translate(1119.291,1396.8643)"
           id="g196"><path
             id="path198"
             style="fill:#595959;fill-opacity:1;fill-rule:evenodd;stroke:none"
             d="m 0,0 c -4.3,-14.275 -4.808,-22.028 -1.769,-41.111 4.065,-25.513 14.718,-48.221 30.592,-68.464 3.82,-4.87 8.051,-9.746 14.749,-10.744 C 61.402,-96.073 32.759,-16.681 0,0" /></g><g
           style="fill:#595959"
           transform="translate(521.1719,1355.835)"
           id="g200"><path
             id="path202"
             style="fill:#595959;fill-opacity:1;fill-rule:evenodd;stroke:none"
             d="m 0,0 c -0.25,0.336 -0.501,0.672 -0.752,1.008 -3.064,-1.663 -6.129,-3.326 -9.193,-4.989 0.217,-0.377 0.433,-0.752 0.65,-1.127 C -6.197,-3.405 -3.098,-1.703 0,0" /></g><g
           style="fill:#595959"
           transform="translate(761.2188,1373.8086)"
           id="g204"><path
             id="path206"
             style="fill:#595959;fill-opacity:1;fill-rule:evenodd;stroke:none"
             d="m 0,0 c -5.044,0 -9.362,0.392 -13.59,-0.065 -24.813,-2.68 -49.919,-3.932 -74.351,-8.652 -104,-20.088 -193.152,-68.498 -264.39,-146.891 -111.235,-122.41 -151.912,-266.407 -120.096,-428.467 32.949,-167.827 153.743,-304.011 314.583,-360.881 45.525,-16.097 92.471,-25.128 140.759,-26.919 5.147,-0.191 10.312,0.066 15.037,0.111 l 0,33.529 c -4.013,0.338 -7.266,0.755 -10.529,0.863 -24.354,0.81 -48.533,3.419 -72.381,8.304 -96.363,19.738 -178.24,65.613 -244.754,138.043 -59.879,65.204 -97.732,141.642 -112.092,229.158 -3.601,21.949 -4.747,44.316 -6.577,66.527 -0.395,4.796 -1.495,7.965 -7.32,8.52 6.608,3.961 6.623,3.96 7.183,10.134 0.241,2.652 0.334,5.318 0.614,7.964 2.306,21.838 3.168,43.949 7.217,65.46 18.602,98.85 65.139,182.738 139.516,250.348 81.172,73.786 176.984,113.238 286.901,117.62 4.553,0.182 9.089,0.763 14.27,1.214 L 0,0 Z M 454.77,-488.986 C 451.765,-611.493 409.056,-717.568 322.498,-804.497 236.054,-891.312 130.137,-934.395 7.476,-938.087 l 0,-33.971 c 67.983,0.187 132.416,14.446 193.811,42.287 91.524,41.506 163.786,105.23 216.251,190.904 104.952,171.386 93.138,389.202 -29.853,548.833 C 325.711,-109.597 246.012,-53.783 149.328,-22.63 102.576,-7.565 54.605,0.123 4.444,-0.185 c 0.705,-12.298 1.323,-23.077 1.962,-34.204 123.575,-3.25 229.462,-46.537 316.029,-133.377 86.557,-86.831 129.328,-192.896 132.315,-315.23 2.255,-1.052 4.267,-1.989 7.174,-3.345 -2.938,-1.087 -4.968,-1.837 -7.154,-2.645 M 15.821,-186.11 c 0.494,-6.668 0.747,-12.632 1.412,-18.549 1.637,-14.56 3.187,-29.138 5.267,-43.638 5.536,-38.605 12.868,-76.793 25.62,-113.82 11.284,-32.767 32.13,-57.108 62.287,-73.787 21.506,-11.895 44.58,-19.64 68.65,-23.593 29.219,-4.798 58.666,-8.248 88.057,-11.94 11.437,-1.436 22.99,-1.942 34.571,-2.878 -1.129,148.806 -129.249,285.428 -285.864,288.205 m -312.418,-311.687 c 6.354,-169.174 147.782,-287.56 286.483,-288.349 0,2.261 0.251,4.555 -0.038,6.779 -3.826,29.353 -7.081,58.802 -11.788,88.016 -4.924,30.565 -12.195,60.658 -23.615,89.576 -7.997,20.252 -20.537,37.168 -37.481,50.865 -22.518,18.204 -48.738,28.419 -76.455,35.168 -37.631,9.163 -76.129,12.418 -114.556,16.04 -7.228,0.681 -14.469,1.226 -22.55,1.905 m 598.657,-0.334 c -2.639,0 -4.606,0.178 -6.533,-0.027 -29.792,-3.173 -59.629,-5.994 -89.351,-9.722 -29.482,-3.698 -58.353,-10.085 -85.434,-23.003 -35.001,-16.695 -60.287,-42.182 -72.567,-79.551 -2.701,-8.219 -5.517,-16.414 -7.834,-24.744 -12.806,-46.027 -19.262,-93.148 -23.835,-140.576 -0.341,-3.534 -0.045,-7.13 -0.045,-10.705 153.489,3.714 282.243,134.6 285.599,288.328 M -9.592,-185.909 c -153.074,-3.456 -282.854,-132.93 -286.688,-287.848 2.919,0 5.859,-0.268 8.736,0.041 32.439,3.481 64.936,6.539 97.279,10.759 25.481,3.324 50.242,9.853 73.742,20.731 36.975,17.118 62.996,43.969 75.246,83.342 1.78,5.722 3.864,11.352 5.523,17.107 11.1,38.506 17.529,77.904 22.19,117.625 1.466,12.485 2.607,25.008 3.972,38.243 M 332.658,-499.64 C 327.324,-667.328 186.144,-810.449 14.706,-814.786 11.163,-824.983 7.144,-916.154 9.824,-925.522 c 249.447,2.63 435.056,215.237 431.235,436.444 -36.167,-1.759 -71.944,-6.7 -108.401,-10.562 M -7.004,-814.533 c -87.151,3.582 -161.166,34.765 -222.02,94.891 -60.877,60.148 -92.563,133.99 -97.326,219.883 -36.579,4.067 -72.398,8.783 -108.549,10.704 -3.328,-89.887 34.083,-222.174 140.647,-320.686 98.547,-91.1 223.851,-119.156 292.377,-114.569 -1.691,36.208 -3.384,72.425 -5.129,109.777 m -319.34,341.675 c 4.827,86.597 36.676,160.353 97.563,220.445 60.863,60.068 135.029,90.984 221.097,94.681 3.293,37.394 5.818,74.044 6.62,110.859 -255.389,-0.609 -441.105,-222.769 -433.464,-437.205 35.999,3.733 71.91,7.458 108.184,11.22 m 339.296,315.522 c 6.919,-0.685 12.512,-1.363 18.124,-1.772 43.799,-3.194 85.465,-14.481 123.95,-35.512 103.668,-56.651 162.729,-143.665 175.702,-261.462 0.606,-5.502 1.371,-10.987 2.013,-16.104 29.575,-5.69 100.312,-11.926 108.777,-9.703 0.421,239.174 -201.055,435.939 -435.316,434.94 2.249,-36.777 4.492,-73.471 6.75,-110.387 M 272.381,-31.73 c 3.295,-1.406 6.802,-2.454 9.854,-4.267 90.698,-53.891 161.926,-126.432 209.874,-220.837 26.178,-51.54 42.608,-106.231 48.731,-163.795 9.991,-93.936 0.193,-185.654 -33.624,-274.104 -43.246,-113.111 -120.061,-197.661 -223.744,-258.663 -60.787,-35.763 -126.188,-59.907 -194.608,-76.271 -3.224,-0.771 -6.44,-1.579 -12.049,-2.957 4.51,-1.449 6.914,-2.331 9.378,-2.996 14.46,-3.901 28.98,-7.595 43.385,-11.689 7.044,-2.001 8.07,-3.697 7.039,-10.745 -0.52,-3.555 -1.66,-7.167 -3.254,-10.389 -3.358,-6.788 -5.997,-7.778 -13.599,-5.397 -34.7,10.864 -70.19,18.393 -105.837,25.265 -2.56,0.493 -5.187,0.638 -9.065,1.097 l 0,-48.147 c -0.669,-0.018 -1.339,-0.035 -2.009,-0.054 -0.775,15.83 -1.549,31.659 -2.38,48.64 -12.896,-2.482 -24.996,-4.32 -36.847,-7.192 -25.87,-6.27 -51.63,-12.997 -77.396,-19.685 -8.079,-2.098 -10.508,-1.282 -14.151,6.223 -1.01,2.082 -1.77,4.32 -2.364,6.561 -2.466,9.281 -1.29,11.638 8.201,14.33 13.765,3.906 27.643,7.414 41.462,11.13 2.496,0.671 4.943,1.524 9.52,2.947 -13.243,3.382 -24.396,6.094 -35.474,9.082 -80.168,21.622 -155.229,54.301 -222.214,103.979 -108.246,80.277 -174.069,187.153 -199.177,319.362 -10.064,52.994 -13.311,106.478 -9.092,160.165 7.918,100.761 43.71,190.88 106.325,270.237 44.299,56.145 97.853,101.583 159.893,137.074 3.098,1.772 6.306,3.354 10.199,3.857 -2.12,-1.5 -4.161,-3.132 -6.373,-4.482 -85.658,-52.299 -152.239,-122.564 -198.272,-211.828 -26.322,-51.044 -43.054,-105.253 -50.717,-162.248 -10.714,-79.694 -5.385,-158.302 17.313,-235.383 33.804,-114.803 101.815,-204.815 200.636,-271.698 69.379,-46.958 146.011,-76.586 227.894,-92.975 22.82,-4.567 45.89,-7.887 69.514,-11.892 l 0,38.518 c -160.086,5.559 -290.72,69.035 -388.775,195.088 -71.784,92.28 -105.35,198.416 -101.449,315.061 4.428,132.439 54.633,246.165 149.634,338.665 C -246.511,-39.91 -131.562,5.526 0.912,8.433 1.673,14.38 2.379,19.899 3.085,25.418 3.278,25.416 3.472,25.414 3.665,25.412 4.027,20.004 4.39,14.595 4.785,8.695 160.513,4.059 289.482,-56.121 387.801,-176.934 464.133,-270.729 500.182,-379.483 496.55,-500.442 492.577,-632.763 442.785,-746.164 348.559,-838.75 254.319,-931.349 139.571,-977.405 6.766,-980.603 l 0,-37.774 c 2.134,0.143 4.632,0.182 7.096,0.492 73.152,9.232 143.902,27.184 210.883,58.57 83.622,39.182 154.498,94.138 208.634,169.595 44.473,61.989 71.99,131.036 85.062,206.004 9.273,53.175 11.342,106.722 5.482,160.312 -11.873,108.557 -54.21,203.914 -126.413,285.931 -34.371,39.043 -73.748,72.175 -117.753,99.869 -2.633,1.657 -4.808,4.041 -7.196,6.088 l -0.18,-0.214 z" /></g><g
           style="fill:#595959"
           transform="translate(521.1719,1355.835)"
           id="g208"><path
             id="path210"
             style="fill:#595959;fill-opacity:1;fill-rule:evenodd;stroke:none"
             d="m 0,0 c -3.098,-1.703 -6.197,-3.405 -9.295,-5.108 -0.217,0.375 -0.433,0.75 -0.65,1.127 3.064,1.663 6.129,3.326 9.193,4.989 C -0.501,0.672 -0.25,0.336 0,0" /></g><g
           style="fill:#595959"
           transform="translate(1033.7803,1342.293)"
           id="g212"><path
             id="path214"
             style="fill:#595959;fill-opacity:1;fill-rule:evenodd;stroke:none"
             d="M 0,0 C -4.358,1.823 -8.717,3.647 -13.074,5.471 -7.814,5.45 -3.247,4.054 -0.182,-0.216 -0.181,-0.215 0,0 0,0" /></g><g
           style="fill:#595959"
           transform="translate(827.0528,1597.1514)"
           id="g216"><path
             id="path218"
             style="fill:#595959;fill-opacity:1;fill-rule:evenodd;stroke:none"
             d="m 0,0 c 7.095,-29.03 14.189,-58.062 21.576,-88.287 -15.718,1.161 -29.803,2.201 -44.606,3.295 6.983,28.797 13.764,56.757 20.546,84.717 C -1.656,-0.184 -0.828,-0.092 0,0 m 85.201,-168.045 c -16.238,3.468 -30.77,6.57 -46.545,9.939 -3.279,13.227 -6.684,26.962 -10.346,41.73 -19.068,1.564 -37.847,3.105 -57.389,4.707 -3.373,-13.144 -6.482,-25.259 -9.678,-37.715 l -46.838,0 c 20.185,68.376 40.112,135.88 60.109,203.622 l 48.654,0 C 44.685,-18.648 65.199,-92.211 85.201,-168.045" /></g></g></g></g></svg>