<?xml version="1.0" encoding="utf-8"?>
<svg version="1.1" id="Layer_1" xmlns="http://www.w3.org/2000/svg" xmlns:xlink="http://www.w3.org/1999/xlink" x="0px" y="0px"
	 viewBox="0 0 71 71" style="enable-background:new 0 0 71 71;" xml:space="preserve">
<style type="text/css">
	.st0{fill:#333333;}
	.st1{fill:#FFFFFF;}
</style>
<g>
	<path class="st0" d="M35.5,70.8c-19.4,0-35.3-15.8-35.3-35.3c0-19.4,15.8-35.3,35.3-35.3c19.4,0,35.3,15.8,35.3,35.3
		C70.8,54.9,54.9,70.8,35.5,70.8z M35.5,0.8C16.3,0.8,0.8,16.3,0.8,35.5s15.6,34.8,34.8,34.8s34.8-15.6,34.8-34.8S54.7,0.8,35.5,0.8
		z"/>
</g>
<path class="st1" d="M48.3,31.5L48.1,32c3.1,1.8,5,5.1,5,8.7c0,5.5-4.5,10-10,10c-2.9,0-5.5-1.3-7.3-3.2c1.5-1.8,2.5-4.2,2.5-6.7
	c0,0,0-0.1,0-0.1c4.4-1.2,7.7-5.3,7.7-10.1c0-5.8-4.7-10.5-10.5-10.5S25,24.6,25,30.4c0,3.8,2,7.3,5.3,9.1l0.2-0.4
	c-3.1-1.8-5.1-5.1-5.1-8.7c0-5.5,4.5-10,10-10s10,4.5,10,10c0,4.5-3,8.4-7.2,9.6c-0.1-2.3-1-4.4-2.4-6.1c1.8-2,4.4-3.2,7.3-3.2v-0.5
	c-3,0-5.7,1.3-7.7,3.4c-1.9-2.1-4.6-3.4-7.7-3.4v0.5c2.9,0,5.5,1.3,7.3,3.2c-1.5,1.8-2.5,4.2-2.5,6.7s0.9,4.9,2.5,6.7
	c-1.8,2-4.4,3.2-7.3,3.2c-5.5,0-10-4.5-10-10c0-3.6,1.9-6.9,5-8.7l-0.2-0.4c-3.3,1.9-5.3,5.3-5.3,9.1c0,5.8,4.7,10.5,10.5,10.5
	c3,0,5.7-1.3,7.7-3.4c1.9,2.1,4.6,3.4,7.7,3.4c5.8,0,10.5-4.7,10.5-10.5C53.6,36.9,51.6,33.4,48.3,31.5z M33.2,40.6
	c0-2.4,0.9-4.6,2.3-6.4c1.3,1.6,2.2,3.6,2.3,5.8c-0.7,0.2-1.5,0.3-2.3,0.3v0.5c0.8,0,1.6-0.1,2.3-0.3c0,0,0,0,0,0
	c0,2.4-0.9,4.6-2.3,6.4C34.1,45.2,33.2,43,33.2,40.6z"/>
</svg>
