<svg xmlns="http://www.w3.org/2000/svg" viewBox="0 0 95 34.25"><defs><style>.cls-1{fill:#fff;}.cls-2{fill:red;}</style></defs><title>gr-logo-95px-34px</title><g id="Layer_2" data-name="Layer 2"><g id="Layer_1-2" data-name="Layer 1"><g id="Layer_2-2" data-name="Layer 2"><g id="Layer_1-2-2" data-name="Layer 1-2"><path class="cls-1" d="M47.24,29.44H45a2.32,2.32,0,0,0-2.06.91c-.34.5-1.3,2.38-1.3,2.38h1.58l.48-.91h2.07v.91h1.52l-.07-3.32M44,31.21a7.22,7.22,0,0,1,.43-.76,1.12,1.12,0,0,1,1-.46h.32l0,1.22Z"/><path class="cls-1" d="M32.5,29.44H30.26a2.31,2.31,0,0,0-2.06.91c-.34.5-1.3,2.38-1.3,2.38h1.58l.48-.91H31v.91h1.52Zm-3.24,1.8a7.12,7.12,0,0,1,.46-.76,1.12,1.12,0,0,1,1-.46H31l0,1.22Z"/><path class="cls-1" d="M53.27,32.75l.11-.58h-3s2.88-2,3.25-2.17l.11-.57H48.42l-.08.57h3L48,32.17l-.11.58Z"/><path class="cls-1" d="M58.26,29.44a21,21,0,0,0-2.25,0c-1,.06-1.64.28-1.9,1.13a10.79,10.79,0,0,0-.27,1.21c-.13.78.31.95.83,1,.79,0,2,.05,2.78,0s1.37-.26,1.62-1a7.69,7.69,0,0,0,.29-1.22c.1-.57-.18-1.08-1.11-1.13M56.8,32.19a7,7,0,0,1-.91,0c-.2,0-.54-.07-.5-.46a8,8,0,0,1,.28-1.22.72.72,0,0,1,.74-.46,8,8,0,0,1,.84,0c.49,0,.69.21.6.6a6.58,6.58,0,0,1-.27,1,.8.8,0,0,1-.75.5"/><path class="cls-1" d="M21.09,29.44a21.07,21.07,0,0,0-2.25,0c-1,.06-1.64.29-1.92,1.13a10.89,10.89,0,0,0-.28,1.21c-.13.78.31.95.83,1,.79,0,2,.05,2.78,0s1.37-.26,1.62-1a7.85,7.85,0,0,0,.29-1.22c.1-.57-.18-1.08-1.11-1.13m-1.45,2.74a7,7,0,0,1-.91,0c-.2,0-.54-.07-.5-.46a8,8,0,0,1,.28-1.22.72.72,0,0,1,.74-.46A7.91,7.91,0,0,1,20,30c.49,0,.69.21.61.6a6.37,6.37,0,0,1-.27,1,.8.8,0,0,1-.75.5"/><path class="cls-1" d="M10.21,29.44a21,21,0,0,0-2.25,0c-1,.06-1.64.28-1.9,1.13a10.89,10.89,0,0,0-.27,1.21c-.13.78.31.95.83,1,.79,0,2,.05,2.78,0s1.37-.26,1.62-1a7.91,7.91,0,0,0,.29-1.22c.1-.57-.18-1.08-1.11-1.13M8.75,32.19a7,7,0,0,1-.91,0c-.2,0-.54-.07-.5-.46a7.71,7.71,0,0,1,.29-1.22.71.71,0,0,1,.74-.46,7.94,7.94,0,0,1,.83,0c.5,0,.69.21.61.6a6.5,6.5,0,0,1-.28,1,.79.79,0,0,1-.75.5"/><path class="cls-1" d="M64,29.44a21.07,21.07,0,0,0-2.25,0c-1,.06-1.64.28-1.89,1.13a10.31,10.31,0,0,0-.28,1.21c-.13.78.31.95.83,1,.79,0,2,.05,2.78,0s1.37-.26,1.62-1a7.58,7.58,0,0,0,.3-1.22C65.22,30,65,29.49,64,29.44m-1.45,2.74a7,7,0,0,1-.91,0c-.2,0-.54-.07-.5-.46a7.65,7.65,0,0,1,.28-1.22.71.71,0,0,1,.74-.46,7.93,7.93,0,0,1,.83,0c.5,0,.69.21.61.6a6.52,6.52,0,0,1-.27,1,.79.79,0,0,1-.75.5"/><path class="cls-1" d="M74.63,32.74c-.59,0-.75-.16-.7-.57a2.29,2.29,0,0,1,.11-.54c.15-.43.74-.66,1.48-.66H77s.16-.42-.37-.42H74.58L74.7,30h2.58c1,0,1.27.53,1.14,1.15-.1.46-.34,1.57-.34,1.57Zm.76-.55h1.4l.15-.71h-1c-.46,0-.66.09-.73.31a1.12,1.12,0,0,0-.05.2c0,.11,0,.21.27.21"/><path class="cls-1" d="M80,32.74c-1.22,0-1.34-.61-1.23-1.13a5,5,0,0,1,.14-.54c.22-.78.73-1.07,1.9-1.07h2.58l-.11.53h-2c-.67,0-.91.32-1,.56a3,3,0,0,0-.12.46c-.05.38.1.62.62.62h2.11l-.12.55Z"/><polygon class="cls-1" points="84.12 28.76 85.56 28.76 85.41 29.48 83.97 29.48 84.12 28.76"/><polygon class="cls-1" points="84.71 32.74 85.29 30.01 83.88 30.01 83.3 32.74 84.71 32.74"/><path class="cls-1" d="M89.94,31.15c-.11.53-.34,1.59-.34,1.59H88.2s.2-.87.29-1.32c.13-.64,0-.8-.78-.8h-.53l-.46,2.12H85.31L85.89,30h2.52c1.12,0,1.73.22,1.54,1.14"/><polygon class="cls-1" points="2.13 29.59 1.36 32.76 2.99 32.76 3.76 29.59 5.93 29.59 6.12 28.78 0.2 28.78 0 29.59 2.13 29.59"/><polygon class="cls-1" points="24.47 30.07 23.81 32.77 25.2 32.77 25.86 30.07 27.71 30.07 27.87 29.39 22.82 29.39 22.65 30.07 24.47 30.07"/><polygon class="cls-1" points="13.24 31.51 12.95 32.77 14.32 32.77 14.63 31.51 17.16 29.38 15.82 29.38 13.97 30.84 12.65 29.38 11.4 29.38 13.24 31.51"/><path class="cls-1" d="M90,34.25l.41-.71h1.17c1.29,0,1.45-.75,1.45-.75H91c-.46,0-.88-.16-.77-.82a5.45,5.45,0,0,1,.21-.91c.21-.63.89-1.05,2.18-1.05H95s-.26,1.51-.54,2.55c-.35,1.33-1.22,1.69-2.86,1.69Zm3.14-2.06.34-1.59H93c-.55,0-1.07.15-1.23.72a3.35,3.35,0,0,0-.1.48c0,.24.16.38.53.38Z"/><path class="cls-2" d="M74.23,29.65a2.48,2.48,0,0,1-.23.72,1.39,1.39,0,0,1-1.17.69,4.12,4.12,0,0,1-.52,0l1.18,1.67H71.75L70.11,30.4h1.57c.34,0,.79-.1.91-.33a.73.73,0,0,0,.09-.32c0-.16-.15-.29-.41-.29H69.71L68.9,32.7H67.25l1-4H73c.89,0,1.3.46,1.2,1"/><path class="cls-1" d="M41.79,30.38H39l-.26.76h1.37l-.22.74H37.76c-.46,0-.68-.11-.63-.46a5,5,0,0,1,.32-1.05c.27-.71.64-.89,2.22-.89H42l.25-.8H39.45c-2.31,0-3.1.27-3.55,1.4a9.9,9.9,0,0,0-.46,1.67c-.12.69.42,1,1,1,.78,0,4.71,0,4.71,0Z"/><polygon class="cls-1" points="28.98 0 22.58 25.44 68.66 25.44 75.06 0 28.98 0"/><polygon class="cls-2" points="51.8 0.68 51.33 0.68 45.27 24.77 67.93 24.77 73.99 0.68 51.8 0.68"/><polygon points="29.66 0.68 23.6 24.77 45.64 24.77 51.7 0.68 29.66 0.68"/><path class="cls-1" d="M69.15,13.74a7.71,7.71,0,0,1-.72,2.2A4.25,4.25,0,0,1,64.87,18a11.94,11.94,0,0,1-1.58.06l3.61,5.13H61.55l-5-7.13h4.82c1,0,2.42-.31,2.81-1a2.19,2.19,0,0,0,.28-1c0-.48-.46-.91-1.26-.91H55.33l-2.48,9.9H47.78L51,10.75H65.49c2.72,0,4,1.37,3.66,3"/><path class="cls-1" d="M46,15.86H37.64l-.78,2.34H41l-.68,2.27H33.65c-1.46,0-2.07-.36-1.93-1.37a15.51,15.51,0,0,1,1-3.2c.8-2.18,2-2.74,6.8-2.74h7.23l.77-2.45H38.83c-7.08,0-9.5.83-10.86,4.29a30.21,30.21,0,0,0-1.45,5.12c-.36,2.11,1.27,2.93,3,3,2.4.08,14.43,0,14.43,0Z"/></g></g></g></g></svg>