<svg xmlns="http://www.w3.org/2000/svg" viewBox="0 0 123 123"><defs><style>.cls-1{opacity:0;}.cls-2,.cls-3{fill:none;stroke:#fff;stroke-linecap:round;stroke-miterlimit:10;}.cls-2{stroke-width:3px;}.cls-3{stroke-width:2px;}</style></defs><g id="Layer_2" data-name="Layer 2"><g id="Icons"><rect class="cls-1" width="123" height="123"/><circle class="cls-2" cx="59.77" cy="35.17" r="13.04"/><line class="cls-2" x1="41.46" y1="81.31" x2="41.46" y2="69.97"/><line class="cls-2" x1="77.57" y1="69.97" x2="77.57" y2="81.31"/><line class="cls-2" x1="77.66" y1="69.97" x2="79.73" y2="81.31"/><line class="cls-2" x1="39.31" y1="81.31" x2="41.37" y2="69.97"/><path class="cls-2" d="M76.26,49.42c13.6,0,15.35,28.12,15.68,31.89"/><path class="cls-2" d="M27.06,81.31c1.51-16.25,4.73-32,15.63-31.89"/><line class="cls-2" x1="27.06" y1="81.31" x2="39.31" y2="81.31"/><line class="cls-2" x1="41.46" y1="81.31" x2="39.31" y2="81.31"/><line class="cls-2" x1="79.73" y1="81.31" x2="77.57" y2="81.31"/><polyline class="cls-2" points="27.06 81.31 91.94 81.31 79.73 81.31"/><line class="cls-2" x1="41.46" y1="81.31" x2="77.57" y2="81.31"/><line class="cls-3" x1="27.06" y1="95.86" x2="91.94" y2="95.86"/><line class="cls-3" x1="27.06" y1="100.88" x2="27.06" y2="90.7"/><line class="cls-3" x1="91.94" y1="100.51" x2="91.94" y2="90.34"/></g></g></svg>