<svg xmlns="http://www.w3.org/2000/svg" viewBox="0 0 123 123"><defs><style>.cls-1{opacity:0;}.cls-2,.cls-3{fill:none;stroke:#fff;stroke-linecap:round;stroke-miterlimit:10;}.cls-2{stroke-width:2px;}.cls-3{stroke-width:3px;}</style></defs><g id="Layer_2" data-name="Layer 2"><g id="Icons"><rect class="cls-1" width="123" height="123"/><line class="cls-2" x1="103.73" y1="82.68" x2="103.73" y2="22.74"/><line class="cls-2" x1="108.69" y1="82.68" x2="98.64" y2="82.68"/><line class="cls-2" x1="108.33" y1="22.74" x2="98.28" y2="22.74"/><circle class="cls-3" cx="59.76" cy="36.15" r="12.88"/><line class="cls-3" x1="41.68" y1="81.73" x2="41.68" y2="70.52"/><line class="cls-3" x1="77.35" y1="70.52" x2="77.35" y2="81.73"/><line class="cls-3" x1="77.44" y1="70.52" x2="79.48" y2="81.73"/><line class="cls-3" x1="39.55" y1="81.73" x2="41.6" y2="70.52"/><path class="cls-3" d="M76.06,50.23c13.43,0,15.16,27.78,15.48,31.5"/><path class="cls-3" d="M27.46,81.73C29,65.67,32.13,50.1,42.89,50.23"/><line class="cls-3" x1="27.46" y1="81.73" x2="39.55" y2="81.73"/><line class="cls-3" x1="41.68" y1="81.73" x2="39.55" y2="81.73"/><line class="cls-3" x1="79.48" y1="81.73" x2="77.35" y2="81.73"/><polyline class="cls-3" points="27.46 81.73 91.54 81.73 79.48 81.73"/><line class="cls-3" x1="41.68" y1="81.73" x2="77.35" y2="81.73"/></g></g></svg>