<?xml version="1.0" encoding="utf-8"?>
<!-- Generator: Adobe Illustrator 22.1.0, SVG Export Plug-In . SVG Version: 6.00 Build 0)  -->
<svg version="1.1" id="svgnext" xmlns="http://www.w3.org/2000/svg" xmlns:xlink="http://www.w3.org/1999/xlink" x="0px" y="0px"
	 viewBox="0 0 70 46.1" style="enable-background:new 0 0 70 46.1;" xml:space="preserve" width="70">
<style type="text/css">
	.st0{fill:#f6265c;}
</style>
<path class="st0" d="M69.8,24.2c0.1-0.3,0.2-0.7,0.2-1c0-0.4-0.1-0.8-0.2-1.1c-0.1-0.3-0.3-0.6-0.6-0.9L48.8,0.8c-1-1-2.7-1-3.8,0
	c-1.1,1-1.1,2.7,0,3.8c0,0,0,0,0,0l15.8,15.8H2.7C1.2,20.3,0,21.5,0,23s1.2,2.7,2.7,2.7h58.1L45,41.5c-1,1-1,2.7,0,3.8
	c0.5,0.5,1.2,0.8,1.9,0.8c0.7,0,1.4-0.3,1.9-0.8l20.4-20.3C69.4,24.7,69.6,24.5,69.8,24.2z"/>
</svg>
