<?xml version="1.0" encoding="utf-8"?>
<!-- Generator: Adobe Illustrator 22.1.0, SVG Export Plug-In . SVG Version: 6.00 Build 0)  -->
<svg version="1.1" id="Livello_1" xmlns="http://www.w3.org/2000/svg" xmlns:xlink="http://www.w3.org/1999/xlink" x="0px" y="0px"
	 viewBox="0 0 33.2 70" style="enable-background:new 0 0 33.2 70;" xml:space="preserve" height="70">
<style type="text/css">
	.st0{fill:#f6265c;}
</style>
<path class="st0" d="M3.5,0L3.5,0C5.4,0,7,1.6,7,3.5v63C7,68.4,5.4,70,3.5,70l0,0C1.6,70,0,68.4,0,66.5v-63C0,1.6,1.6,0,3.5,0z"/>
<path class="st0" d="M29.8,0L29.8,0c1.9,0,3.5,1.6,3.5,3.5v63c0,1.9-1.6,3.5-3.5,3.5l0,0c-1.9,0-3.5-1.6-3.5-3.5v-63
	C26.2,1.6,27.8,0,29.8,0z"/>
</svg>
