{
    "asset" : {
        "generator" : "Khronos glTF Blender I/O v1.1.46",
        "version" : "2.0"
    },
    "scene" : 0,
    "scenes" : [
        {
            "name" : "Scene",
            "nodes" : [
                1
            ]
        }
    ],
    "nodes" : [
        {
            "mesh" : 0,
            "name" : "heat_shield"
        },
        {
            "children" : [
                0
            ],
            "mesh" : 1,
            "name" : "_root_heatshield"
        }
    ],
    "materials" : [
        {
            "doubleSided" : true,
            "emissiveFactor" : [
                0,
                0,
                0
            ],
            "name" : "heat_shield_AO",
            "normalTexture" : {
                "index" : 0,
                "texCoord" : 0
            },
            "pbrMetallicRoughness" : {
                "baseColorTexture" : {
                    "index" : 1,
                    "texCoord" : 0
                },
                "metallicFactor" : 0,
                "roughnessFactor" : 0.75
            }
        },
        {
            "doubleSided" : true,
            "emissiveFactor" : [
                0,
                0,
                0
            ],
            "name" : "heatshield_inside",
            "pbrMetallicRoughness" : {
                "baseColorTexture" : {
                    "index" : 2,
                    "texCoord" : 0
                },
                "metallicFactor" : 0.5,
                "roughnessFactor" : 0.5
            }
        }
    ],
    "meshes" : [
        {
            "name" : "Circle.003",
            "primitives" : [
                {
                    "attributes" : {
                        "POSITION" : 0,
                        "NORMAL" : 1,
                        "TEXCOORD_0" : 2
                    },
                    "indices" : 3,
                    "material" : 0
                },
                {
                    "attributes" : {
                        "POSITION" : 4,
                        "NORMAL" : 5,
                        "TEXCOORD_0" : 6
                    },
                    "indices" : 7,
                    "material" : 1
                }
            ]
        },
        {
            "name" : "Cube.022",
            "primitives" : [
                {
                    "attributes" : {
                        "POSITION" : 8,
                        "NORMAL" : 9
                    },
                    "indices" : 10
                }
            ]
        }
    ],
    "textures" : [
        {
            "source" : 0
        },
        {
            "source" : 1
        },
        {
            "source" : 2
        }
    ],
    "images" : [
        {
            "mimeType" : "image/png",
            "name" : "heat_shield_n",
            "uri" : "heat_shield_n.png"
        },
        {
            "mimeType" : "image/png",
            "name" : "heat_shield_AO",
            "uri" : "heat_shield_AO.png"
        },
        {
            "mimeType" : "image/png",
            "name" : "heat_shield_inside",
            "uri" : "heat_shield_inside.png"
        }
    ],
    "accessors" : [
        {
            "bufferView" : 0,
            "componentType" : 5126,
            "count" : 673,
            "max" : [
                2.2508935928344727,
                -0.7290312647819519,
                2.250896453857422
            ],
            "min" : [
                -2.2508955001831055,
                -1.6535590887069702,
                -2.250894546508789
            ],
            "type" : "VEC3"
        },
        {
            "bufferView" : 1,
            "componentType" : 5126,
            "count" : 673,
            "type" : "VEC3"
        },
        {
            "bufferView" : 2,
            "componentType" : 5126,
            "count" : 673,
            "type" : "VEC2"
        },
        {
            "bufferView" : 3,
            "componentType" : 5123,
            "count" : 3600,
            "type" : "SCALAR"
        },
        {
            "bufferView" : 4,
            "componentType" : 5126,
            "count" : 577,
            "max" : [
                2.203566551208496,
                -0.7290314435958862,
                2.2035694122314453
            ],
            "min" : [
                -2.2035679817199707,
                -1.6177527904510498,
                -2.2035679817199707
            ],
            "type" : "VEC3"
        },
        {
            "bufferView" : 5,
            "componentType" : 5126,
            "count" : 577,
            "type" : "VEC3"
        },
        {
            "bufferView" : 6,
            "componentType" : 5126,
            "count" : 577,
            "type" : "VEC2"
        },
        {
            "bufferView" : 7,
            "componentType" : 5123,
            "count" : 2160,
            "type" : "SCALAR"
        },
        {
            "bufferView" : 8,
            "componentType" : 5126,
            "count" : 8,
            "max" : [
                0.5000002384185791,
                0.5,
                0.5000002980232239
            ],
            "min" : [
                -0.5000001788139343,
                -0.5,
                -0.5000001788139343
            ],
            "type" : "VEC3"
        },
        {
            "bufferView" : 9,
            "componentType" : 5126,
            "count" : 8,
            "type" : "VEC3"
        },
        {
            "bufferView" : 10,
            "componentType" : 5123,
            "count" : 36,
            "type" : "SCALAR"
        }
    ],
    "bufferViews" : [
        {
            "buffer" : 0,
            "byteLength" : 8076,
            "byteOffset" : 0
        },
        {
            "buffer" : 0,
            "byteLength" : 8076,
            "byteOffset" : 8076
        },
        {
            "buffer" : 0,
            "byteLength" : 5384,
            "byteOffset" : 16152
        },
        {
            "buffer" : 0,
            "byteLength" : 7200,
            "byteOffset" : 21536
        },
        {
            "buffer" : 0,
            "byteLength" : 6924,
            "byteOffset" : 28736
        },
        {
            "buffer" : 0,
            "byteLength" : 6924,
            "byteOffset" : 35660
        },
        {
            "buffer" : 0,
            "byteLength" : 4616,
            "byteOffset" : 42584
        },
        {
            "buffer" : 0,
            "byteLength" : 4320,
            "byteOffset" : 47200
        },
        {
            "buffer" : 0,
            "byteLength" : 96,
            "byteOffset" : 51520
        },
        {
            "buffer" : 0,
            "byteLength" : 96,
            "byteOffset" : 51616
        },
        {
            "buffer" : 0,
            "byteLength" : 72,
            "byteOffset" : 51712
        }
    ],
    "buffers" : [
        {
            "byteLength" : 51784,
            "uri" : "edl2020_heatshield.bin"
        }
    ]
}
