{
    "asset" : {
        "generator" : "Khronos glTF Blender I/O v0.9.36",
        "version" : "2.0"
    },
    "scene" : 0,
    "scenes" : [
        {
            "name" : "Scene",
            "nodes" : [
                0
            ]
        }
    ],
    "nodes" : [
        {
            "mesh" : 0,
            "name" : "phobos"
        }
    ],
    "materials" : [
        {
            "doubleSided" : true,
            "name" : "phobos_tex_01",
            "pbrMetallicRoughness" : {
                "baseColorTexture" : {
                    "index" : 0,
                    "texCoord" : 0
                },
                "metallicFactor" : 0,
                "roughnessFactor" : 0.800000011920929
            }
        }
    ],
    "meshes" : [
        {
            "name" : "phobos",
            "primitives" : [
                {
                    "attributes" : {
                        "POSITION" : 0,
                        "NORMAL" : 1,
                        "TEXCOORD_0" : 2
                    },
                    "indices" : 3,
                    "material" : 0
                }
            ]
        }
    ],
    "textures" : [
        {
            "source" : 0
        }
    ],
    "images" : [
        {
            "mimeType" : "image/jpeg",
            "name" : "phobos_tex_01",
            "uri" : "phobos_tex_01.jpg"
        }
    ],
    "accessors" : [
        {
            "bufferView" : 0,
            "componentType" : 5126,
            "count" : 16449,
            "max" : [
                12.054115295410156,
                10.538873672485352,
                12.80151653289795
            ],
            "min" : [
                -12.317031860351562,
                -9.982095718383789,
                -14.236000061035156
            ],
            "type" : "VEC3"
        },
        {
            "bufferView" : 1,
            "componentType" : 5126,
            "count" : 16449,
            "type" : "VEC3"
        },
        {
            "bufferView" : 2,
            "componentType" : 5126,
            "count" : 16449,
            "type" : "VEC2"
        },
        {
            "bufferView" : 3,
            "componentType" : 5123,
            "count" : 96120,
            "type" : "SCALAR"
        }
    ],
    "bufferViews" : [
        {
            "buffer" : 0,
            "byteLength" : 197388,
            "byteOffset" : 0
        },
        {
            "buffer" : 0,
            "byteLength" : 197388,
            "byteOffset" : 197388
        },
        {
            "buffer" : 0,
            "byteLength" : 131592,
            "byteOffset" : 394776
        },
        {
            "buffer" : 0,
            "byteLength" : 192240,
            "byteOffset" : 526368
        }
    ],
    "buffers" : [
        {
            "byteLength" : 718608,
            "uri" : "phobos.bin"
        }
    ]
}
