<?xml version="1.0" encoding="UTF-8" standalone="no"?>
<!-- Generator: Adobe Illustrator 19.1.0, SVG Export Plug-In . SVG Version: 6.00 Build 0)  -->
<svg id="svg2" xmlns:rdf="http://www.w3.org/1999/02/22-rdf-syntax-ns#" xmlns="http://www.w3.org/2000/svg" xml:space="preserve" height="344.8" width="645.2" version="1.1" y="0px" x="0px" xmlns:cc="http://creativecommons.org/ns#" xmlns:dc="http://purl.org/dc/elements/1.1/" viewBox="0 0 645.20221 344.79999"><metadata id="metadata22"><rdf:RDF><cc:Work rdf:about=""><dc:format>image/svg+xml</dc:format><dc:type rdf:resource="http://purl.org/dc/dcmitype/StillImage"/><dc:title/></cc:Work></rdf:RDF></metadata>
<style id="style4" type="text/css">
	.st0{fill:#42CBF8;}
</style>
<g id="ARK" transform="translate(-49.3,-44.6)">
	<path id="path7" fill="#42cbf8" class="st0" d="m493.4 213.1h21.3c1.1 0.2 2.2 0.5 3.3 0.7 11.6 2.4 18 13.3 14 23.9-1.5 4.1-4.6 6.8-8.6 8.8 0.4 0.4 0.7 0.6 0.9 0.9 3.3 4.5 6.6 9.1 9.8 13.6h-13.7c-1.7-2.5-3.3-5-5-7.4-2.2-3.1-5.6-4.2-9.7-3.1v5.2 5.3h-12.2c-0.1-16-0.1-31.9-0.1-47.9zm12.4 26c3 0 5.8 0.2 8.6 0 4.5-0.4 7-3.1 7.1-7 0.1-4.1-2.2-7.1-6.7-7.7-2.9-0.4-5.9-0.1-9-0.1v14.8zm174.4-26c-3.4 5-6.8 10-10.1 15.1-1.8 2.8-4.5 3.3-7.9 2.8v-17.9h-12.2v47.9h12.2v-18.3c4-0.8 5.9-0.3 7.9 2.6 3.5 5.2 7 10.4 10.4 15.7h13.7c-0.3-0.5-0.5-1.1-0.8-1.6-3.4-5.1-6.8-10.3-10.4-15.4-1.9-2.7-4-5.2-5.6-7.3 0.8-0.9 1.8-2.1 2.7-3.3 4.6-6.8 9.2-13.6 13.8-20.3h-13.7zm-328.3 0h7.6c2 4.7 4 9.5 6 14.2 4.7 11.2 9.5 22.4 14.2 33.7h-13.7c-0.7-1.8-1.4-3.6-2-5.5-0.3-1-0.9-1.2-1.8-1.2h-13.1c-1 0-1.5 0.3-1.8 1.2-0.6 1.8-1.4 3.6-2.1 5.4h-13.7c4.7-10.9 9.4-21.7 14.1-32.6 2-5 4.1-10.1 6.3-15.2zm-1.7 32.4h10.8c-1.8-4.5-3.5-8.8-5.4-13.7-1.9 4.9-3.6 9.1-5.4 13.7z"/>
</g>
<g id="Starmap" transform="translate(-49.3,-44.6)">
	<path id="path10" fill="#42cbf8" class="st0" d="m583.1 283.5v36.3h-5.5v-25.4c-0.1 0-0.2-0.1-0.3-0.1-4 5-7.9 10-12 15.1-4.1-5.1-8.1-10.1-12.3-15.4v25.9h-5.6v-36.3c1.8-0.2 3.3-0.3 4.6 1.5 3.9 5.3 8.1 10.4 12.2 15.6 0.3 0.4 0.6 0.8 1 1.3 2.8-3.5 5.6-7 8.3-10.5 1.6-2.1 3.4-4.1 4.9-6.3 1.3-1.9 2.8-2.1 4.7-1.7zm-72 24.3c2.8-1.6 4.8-4.1 5.6-7.7 1.6-7.6-2.1-14.9-8.9-16.1-4.6-0.8-9.4-0.4-14.1-0.6-0.1 0-0.1 0.1-0.2 0.1v36.3h4.7v-9.4h5.7c1.9 0.1 3.4 1.2 4.4 3 1.1 1.9 2.2 3.8 3.3 5.7 0.2 0.3 0.5 0.8 0.8 0.8 1.6 0.1 3.2 0 4.8 0-1.4-3.7-4.9-9.1-7.4-11.5 0.6-0.2 1-0.4 1.3-0.6zm-12.8-8.4v-9.6c0-0.4 0.4-1.1 0.6-1.1 2.8 0.1 5.6-0.1 8.3 0.5 4.2 0.9 6.2 5.2 5.1 10-0.7 2.9-2.4 4.6-4.8 5.2-1.9 0.5-3.9 0.4-5.9 0.6-1.1 0.1-2.1 0-3.4 0 0.1-2 0.1-3.8 0.1-5.6zm-167.3 14c4.2 7.2 15 9.2 20.9 3.9 2.6-2.4 3.7-5.6 3.3-9.5-0.4-4-2.3-6.6-5.3-7.8-2.1-0.8-4.3-1.1-6.4-1.7-1.8-0.5-3.7-0.7-5.4-1.5-2.1-0.9-2.6-3.7-1.2-5.7 0.7-0.9 1.7-1.8 2.7-2.1 4-1.5 7.6-0.1 10.9 2.7 0.3 0.2 0.6 0.5 0.9 0.8 1.1-1.2 2-2.3 3-3.4-1.9-2.4-4-4.1-6.5-5-4.5-1.7-8.9-1.6-12.9 1.7-2.6 2.2-3.7 5.3-3.4 9.1s2.4 6 5.2 7.1c1.5 0.6 3.1 0.9 4.6 1.3 2.2 0.5 4.4 0.8 6.6 1.5 1.6 0.5 2.6 1.9 2.7 4 0.1 2.2-0.6 3.9-2.2 4.8-1.2 0.7-2.5 1.2-3.8 1.3-4.4 0.4-8.2-1.1-10.9-5.6l-3 3.3c-0.1 0.3 0 0.5 0.2 0.8zm133.8 5.6l-13.2-34.8c-0.5-1.4-1.4-0.7-2.2-0.9-0.7-0.1-1.2 0-1.6 0.9-3.4 9.1-6.9 18.2-10.4 27.3-1 2.7-2.1 5.4-3.2 8.3h4.8c0.7 0 1-0.3 1.3-1 0.8-2.1 1.6-4.2 2.3-6.3 0.3-0.7 0.6-1 1.3-1h11.4c0.7 0 1 0.2 1.2 0.9 0.7 2.2 1.6 4.3 2.4 6.4 0.1 0.4 0.5 0.8 0.8 0.8 1.7 0.1 3.4 0 5.1 0 0.1-0.1 0.1-0.3 0-0.6zm-10.3-12.7h-9.5c1.6-4.2 3.1-8.2 4.7-12.6 1.7 4.3 3.2 8.4 4.8 12.6zm-62-17.7c1 0 1.3 0.3 1.3 1.5v28.2 1.5h4.8v-31.2h8.9v-5.2h-22.6v5.2c2.6 0.1 5.1 0.1 7.6 0zm279.1 31.3h3.4c0.3 0 0.6-0.3 0.6-0.7v-7.7c0-0.4 0.3-0.7 0.6-0.7h1.9c2.3-0.2 4.7 0 7-0.6 5.8-1.3 9.3-6.3 9.4-13 0.1-6.4-3.2-11.4-8.8-13.2-0.9-0.3-1.8-0.5-2.7-0.7h-0.1-11.2c-0.3 0-0.6 0.3-0.6 0.7v35.1c-0.1 0.5 0.2 0.8 0.5 0.8zm4.1-24.7v-5.6c0-0.3 0.4-0.9 0.6-0.9 2.7 0.1 5.4-0.1 8 0.5 4.3 0.9 6.5 5.3 5.4 10.2-0.6 2.8-2.2 4.6-4.4 5.3-1.8 0.6-3.7 0.6-5.5 0.8-1.1 0.1-2.3 0-3.5 0-0.3 0-0.6-0.3-0.6-0.7v-9.6zm-52-10.2c-0.7 2-1.5 4-2.3 6-3.6 9.3-7.3 18.6-10.9 27.9-0.2 0.5 0.2 1 0.6 1h4.5c0.3 0 0.5-0.2 0.6-0.5 0.9-2.4 1.8-4.8 2.7-7.1 0.1-0.3 0.6-0.6 0.9-0.6h12c0.3 0 0.8 0.2 0.9 0.4 0.9 2.4 1.8 4.8 2.7 7.3 0.1 0.3 0.4 0.5 0.6 0.5h4.5c0.5 0 0.8-0.5 0.6-1-1.4-3.8-2.8-7.5-4.3-11.3-2.9-7.5-5.9-15.1-8.8-22.6h-4.3zm-2.2 20.3c1.3-3.3 2.5-6.6 3.8-10 0.2-0.6 1-0.6 1.3 0 1.3 3.4 2.6 6.7 3.9 10 0.2 0.5-0.1 1-0.6 1h-7.7c-0.5 0-0.9-0.5-0.7-1z"/>
</g>
<g id="Shap" transform="translate(-49.3,-44.6)">
	<path id="path13" fill="#42cbf8" class="st0" d="m130.5 136.4v-72l-72.7 70.2v80.3l81.1 78.3v96.2l-89.5-86.4v-46.5h0.1l8.2 8.2v34.7l72.7 70.2v-72.9l-81.1-78.3v-87.4l89.4-86.4v95.1l-47.3 48.7v-12l39.1-40zm124.7 128.4v34.7l-72.7 70.2v-72.9l81.1-78.3v-87.5l-89.4-86.4v95.1l47.3 48.7v-12l-39-40.1v-71.9l72.7 70.2v80.3l-81.1 78.3v96.2l89.4-86.4v-46.5h-0.1l-8.2 8.3z"/>
</g>
<g id="Star" transform="translate(-49.3,-44.6)">
	<path id="path16" fill="#42cbf8" class="st0" d="m142.6 212.8c4.7-0.5 8.9-4.6 9.3-9.2l3.8-38c0.5-4.6 1.2-4.6 1.7 0l3.8 38c0.5 4.6 4.7 8.8 9.3 9.2l38.5 3.7c4.7 0.5 4.7 1.2 0 1.7l-38.5 3.7c-4.7 0.5-8.9 4.6-9.3 9.2l-3.8 38c-0.5 4.6-1.2 4.6-1.7 0l-3.8-38c-0.5-4.6-4.7-8.8-9.3-9.2l-38.5-3.7c-4.7-0.5-4.7-1.2 0-1.7l38.5-3.7z"/>
</g>
</svg>
