<?xml version="1.0" encoding="utf-8"?>
<svg version="1.1" xmlns="http://www.w3.org/2000/svg" xmlns:xlink="http://www.w3.org/1999/xlink" x="0px" y="0px"
	 viewBox="0 0 309 364" xml:space="preserve">
	 <g id="sc-logo-background">
		<path style="fill-rule:evenodd;clip-rule:evenodd;fill:#347BA3;" d="M213,41c0-6.1,0-12,0-18.2c-4-0.3-7.9-0.5-12.1-0.8
			c-0.2,7.7,0.2,15.3,0.1,22.8c0,7.5,0,15,0,22.6c-3.1-1.1-6.2-2.2-9.5-3.4c-0.2-16.1-0.4-32.4-0.6-48.7c0.8-0.1,1.4-0.1,2.1-0.1
			c7.5,0,15,0,22.5,0c1.1,0,2.3,0.1,3.4,0.3c2,0.4,3.3,1.6,3.7,3.6c0.2,1,0.3,2.1,0.3,3.2c0,7.2,0,14.4,0,21.6c0,0.9-0.1,1.8-0.3,2.7
			c-0.4,1.7-1.4,2.4-3.1,2.2c-1.1-0.1-2.2-0.5-3.3-0.7c-0.6-0.1-1.2-0.3-2.1-0.5c3.8,10.9,7.3,21.6,10.3,32.8c-0.8-0.4-1.2-0.7-1.7-1
			c-2.3-1.5-4.6-3.1-6.9-4.5c-0.9-0.6-1.4-1.3-1.7-2.3c-3.2-9.1-6.4-18.1-9.7-27.1c-0.7-2-0.8-4.1-0.6-6.5
			C206.8,39.7,209.9,40.3,213,41z M116.4,30.8c0-4,0.1-7.9,0-11.7c0-1.8-1.3-3.1-3.2-3.5c-1.2-0.3-2.5-0.4-3.8-0.4
			c-6.2,0-12.4,0.1-18.7,0.1c-3.9,0-5.7,1.8-5.8,5.7c-0.1,4.9,0,9.9,0,14.8c0,2.2,0.8,4,2.8,5.1c3.7,2.1,7.3,4.4,10.9,6.5
			c2.4,1.4,5,2.6,7.3,3.9c0,3.5,0,6.9,0,10.2c-3.8,1.7-7.5,3.3-11.5,5c0-4,0-7.7,0-11.5c-2,0.3-7.6,2.7-9.6,4.1c0,5.3,0,10.7,0,16
			c0,0.4,0.1,0.8,0.2,1.2c0.4,1.5,1.3,2,2.7,1.5c1-0.3,1.9-0.8,2.8-1.4c6.1-3.9,12.5-7.2,19.2-9.9c1.3-0.5,2.5-1.3,3.7-2.1
			c1.5-1.1,2.3-2.7,2.3-4.6c0-4,0-8.1,0.1-12.1c0-1.6-0.7-2.7-2.1-3.4c-1.1-0.5-2.1-1.1-3.2-1.7c-4.9-2.9-9.7-5.7-14.6-8.7
			c-0.6-0.4-1.4-1.1-1.4-1.6c-0.1-3.2-0.1-6.5-0.1-9.8c4.1-0.5,7.9-0.7,11.9-0.7c0,3.4,0,6.5,0,9.8C109.9,31.6,113.1,31.2,116.4,30.8
			z M257,333c-0.2,0-0.4,0.1-0.6,0.1c-1.4-2.7-2.9-5.5-4.3-8.2c-1.7-3.3-3.4-6.5-5.1-9.8c-0.3-0.6-0.9-1.3-1.4-1.4
			c-1.8-0.2-3.6-0.1-5.5-0.1c0,11.9,0,23.5,0,35.2c2.3,0,4.5,0,6.9,0c0-6.8,0-13.4,0-20c0.1,0,0.3,0,0.4-0.1
			c3.4,6.7,6.8,13.4,10.3,20.2c2.1,0,4.1,0.1,6.1-0.1c0-11.9,0-23.4,0-35.1c-2.3,0-4.4,0-6.8,0C257,320.2,257,326.6,257,333z
			M152.5,15.3c-10.4,0-20.7,0-31.1,0c-0.2,2.2-0.2,4.2,0,6.3c3.7,0.1,7.1-0.3,10.7,0c-0.1,13.1-0.3,26-0.4,39c3.5-0.5,6.7-1,9.9-1.4
			c0-0.7,0.1-1.2,0.1-1.8c0.1-7,0.1-14,0.1-21c0-4.4,0-8.9,0.1-13.3c0-0.6,0.1-1.2,0.2-2c3.6,0,7,0,10.5,0
			C152.5,19,152.5,17.2,152.5,15.3z M61.5,336.9c0,2.5,0,4.8,0,7.2c-3.1,0-6,0-8.8,0c-0.5-3-0.3-24.4,0.2-25.9c2.8,0,5.6,0,8.6,0
			c0,2.3,0,4.5,0,6.8c2.4,0,4.6,0,6.9,0c0-3,0-5.9,0-8.8c0-1.2-0.8-2-1.9-2.3c-0.7-0.2-1.5-0.3-2.3-0.3c-4.9,0-9.9,0-14.8,0
			c-2.5,0-4.1,0.7-4.1,4.1c0.1,7.9,0,15.8,0,23.8c0,1.4,0,2.8,0,4.2c0.1,1.8,0.7,2.6,2.4,3c0.8,0.2,1.5,0.3,2.3,0.3
			c4.5,0,8.9,0,13.4,0c0.8,0,1.7-0.1,2.5-0.3c1.7-0.4,2.4-1.2,2.4-3c0-2.4,0-4.8,0-7.2c0-0.5-0.1-1.1-0.2-1.6
			C66,336.9,63.9,336.9,61.5,336.9z M207.8,313.7c0,11.8,0,23.4,0,35.1c6.5,0,12.9,0,19.4,0c0-1.6,0-3,0-4.7c-2.2,0-4.2,0-6.2,0
			c-2-0.1-4,0.3-6-0.2c0-3.6,0-7,0-10.7c3.5,0,7,0,10.3,0c0-1.7,0-3,0-4.6c-3.5,0-6.9,0-10.2,0c-0.4-2.4-0.4-8.5,0.1-10.2
			c3.9,0,7.8,0,11.8,0c0-1.6,0-3.1,0-4.6C220.5,313.7,214.2,313.7,207.8,313.7z M172.8,348.8c7.2,0,14.2,0,21.3,0c0-1.7,0-3.2,0-4.9
			c-4.3,0-8.4,0-12.8,0c0.3-0.7,0.5-1.1,0.7-1.6c3.8-8,7.7-16.1,11.5-24.1c0.7-1.5,0.9-2.9,0.5-4.4c-2.9-0.5-18.8-0.3-20.2,0.1
			c0,1.5,0,2.9,0,4.5c3.9,0,7.7,0,11.8,0c-0.5,1.1-0.8,1.9-1.2,2.7c-3.7,7.8-7.4,15.6-11.1,23.3C172.6,345.9,172.4,347.2,172.8,348.8
			z M129.9,318.3c2.7,0,5.1,0,7.6,0c0-1.7,0-3.1,0-4.6c-7.5,0-14.8,0-22.3,0c0,1.6,0,3,0,4.7c2.6,0,5,0,7.6,0c0,2.8,0,5.3,0,7.8
			c0,2.5,0,4.9,0,7.4c0,2.5,0,5.1,0,7.6c0,2.5-0.1,5,0.1,7.6c2.5,0,4.7,0.1,7-0.1C129.9,338.6,129.9,328.7,129.9,318.3z M89.3,313.7
			c0,11.8,0,23.4,0,35.1c2.4,0,4.6,0,6.9,0c0-11.8,0-23.4,0-35.1C93.9,313.7,91.6,313.7,89.3,313.7z M159,313.7c-2.4,0-4.6,0-6.9,0
			c0,11.7,0,23.4,0,35.1c2.3,0,4.6,0,6.9,0C159,337.1,159,325.5,159,313.7z M172.9,15.3c-3.6,0-6.9,0-10.3,0
			c-4.2,14.4-8.5,28.7-12.8,43.2c3.4,0,6.6,0,9.9,0c0.7-2.6,1.3-5.2,2.1-8c4.1,0.3,8.1,0.7,12.2,1c0.8,3.1,1.5,6,2.2,8.9
			c3.3,0.7,6.4,1.4,9.9,2.1C181.8,46.3,177.5,30.7,172.9,15.3z M167.5,26.8c-1.4,5.9-2.9,11.9-4.4,18c3.1,0.2,6.1,0.5,9.5,0.7
			c-1.6-6.4-3.1-12.6-4.6-18.7C167.8,26.8,167.6,26.8,167.5,26.8z"/>
		<path style="fill-rule:evenodd;clip-rule:evenodd;fill:#347BA3;" d="M88.9,304.5c2.6,0.7,4.8,0.7,7.7,0.1
			c6.7-1.3,12.5-4.4,17.6-8.8c1-0.8,1.8-1.8,2.6-2.8c0.5-0.7,0.8-1.6,1.1-2.4c-1.5-1.2-3-1-4.5-0.9c-4.8,0.5-9.2,2.1-13.4,4.3
			c-3.8,2-7.1,4.6-9.7,8C89.8,302.9,89.4,303.7,88.9,304.5z"/>
		<path style="fill-rule:evenodd;clip-rule:evenodd;fill:#347BA3;" d="M191.5,290.7c0.2,1.9,1.4,3.1,2.6,4.2c5.4,5,11.6,8.5,18.9,9.8
			c2.4,0.4,4.8,0.6,7.6-0.2c-1.3-1.6-2.2-3.1-3.4-4.3c-3.7-4-8.4-6.6-13.5-8.5c-2.9-1-5.8-1.8-8.9-1.9
			C193.7,289.8,192.4,289.7,191.5,290.7z"/>
		<path style="fill-rule:evenodd;clip-rule:evenodd;fill:#347BA3;" d="M204.8,285.9c0.5,1.7,0.7,2.3,2.5,3.5c2.5,1.7,5.1,3.2,7.9,4.5
			c4.6,2.1,9.5,3.1,14.6,2.9c1.7-0.1,3.4-0.3,5.3-1.1c-1.1-1.2-1.9-2.3-3-3.1c-6.8-5.8-14.8-8-23.5-7.9
			C207.3,284.6,205.8,284.7,204.8,285.9z"/>
		<path style="fill-rule:evenodd;clip-rule:evenodd;fill:#347BA3;" d="M74.2,295.8c1,0.3,1.7,0.5,2.4,0.6c9.9,1.4,18.5-1.7,26.2-7.7
			c0.4-0.3,0.8-0.8,1.1-1.3c0.9-1.3,0.7-2-0.9-2.5c-0.3-0.1-0.7-0.2-1-0.2c-2.2,0-4.5-0.1-6.7,0.1c-6.1,0.7-11.7,2.7-16.6,6.3
			C77,292.5,75.5,293.9,74.2,295.8z"/>
		<path style="fill-rule:evenodd;clip-rule:evenodd;fill:#347BA3;" d="M247.6,285.1c-1.4-1.1-2.6-2.1-3.9-2.9
			c-6.2-3.8-13-4.9-20.1-4.5c-1.5,0.1-3.1,0.3-4.6,0.7c-1,0.2-2.1,0.5-2.5,1.6C220,286.5,239.6,289.9,247.6,285.1z"/>
		<path style="fill-rule:evenodd;clip-rule:evenodd;fill:#347BA3;" d="M92.9,279.8c-0.8-1-1.9-1.4-3-1.6c-3.5-0.8-7.1-0.8-10.7-0.4
			c-5,0.5-9.7,1.9-13.9,4.6c-1.2,0.8-2.4,1.6-3.4,3.1c1.2,0.5,2.2,0.9,3.3,1.2c3.4,1,6.8,1.1,10.3,0.7c4.8-0.5,9.4-1.8,13.7-4.1
			C90.6,282.5,92.2,281.7,92.9,279.8z"/>
		<path style="fill-rule:evenodd;clip-rule:evenodd;fill:#347BA3;" d="M227.8,272.4c0.8,1.4,2,2.1,3.2,2.5c2.8,0.8,5.7,1.7,8.6,2.1
			c5.3,0.8,10.6,0.5,15.6-1.5c1.3-0.5,2.4-1.2,4-2c-1.3-0.8-2.1-1.4-3-1.9c-3.5-1.9-7.2-2.7-11.1-3c-4.6-0.4-9.2,0-13.6,1.4
			C230.1,270.4,228.7,270.9,227.8,272.4z"/>
		<path style="fill-rule:evenodd;clip-rule:evenodd;fill:#347BA3;" d="M50.2,273.6c1.6,0.8,2.8,1.5,4.1,2c5,2,10.2,2.2,15.4,1.5
			c3-0.4,5.9-1.4,8.8-2.2c1.3-0.4,2.4-1.1,3.1-2.5c-1.1-1.6-2.8-2.1-4.5-2.6c-5.9-1.6-11.8-1.8-17.8-0.4
			C56.1,270,53.1,271.2,50.2,273.6z"/>
		<path style="fill-rule:evenodd;clip-rule:evenodd;fill:#347BA3;" d="M238.5,264c1.1,0.5,1.9,1.2,2.9,1.4c1.8,0.5,3.6,0.9,5.4,1
			c6.4,0.6,12.7-0.2,18.5-3.2c1.4-0.7,2.7-1.7,4.5-2.9c-1.8-0.7-3-1.4-4.3-1.8c-5.4-1.7-10.9-1.5-16.3-0.2c-2.5,0.6-5,1.5-7.4,2.5
			C240.4,261.4,239.2,262.1,238.5,264z"/>
		<path style="fill-rule:evenodd;clip-rule:evenodd;fill:#347BA3;" d="M40,260.4c1.9,2,4.2,3.2,6.6,4c6.6,2.4,13.3,2.8,20.2,1.3
			c0.9-0.2,1.8-0.5,2.6-0.9c1.6-0.8,1.7-1.6,0.3-2.7c-0.7-0.6-1.5-1.1-2.3-1.5c-6.5-2.9-13.3-4-20.4-2.9
			C44.5,258.3,42.2,258.9,40,260.4z"/>
		<path style="fill-rule:evenodd;clip-rule:evenodd;fill:#347BA3;" d="M31.8,246.4c1.2,1.1,2.1,2.1,3.1,2.8c7,5.1,14.9,6.6,23.3,5.9
			c1.2-0.1,2.5-0.3,3.3-1.5C58.7,247,40.4,242.4,31.8,246.4z"/>
		<path style="fill-rule:evenodd;clip-rule:evenodd;fill:#347BA3;" d="M277.6,246.2c-1.2-0.4-1.8-0.6-2.5-0.8
			c-3.1-0.8-6.3-0.9-9.4-0.5c-5.3,0.7-10.2,2.4-14.6,5.2c-1,0.6-1.9,1.5-2.7,2.3c-0.8,0.9-0.6,1.6,0.5,2c1.2,0.4,2.6,0.8,3.9,0.8
			c2.8,0,5.7-0.1,8.4-0.5c5.4-0.9,10.5-2.9,14.7-6.6C276.3,247.6,276.8,247,277.6,246.2z"/>
		<path style="fill-rule:evenodd;clip-rule:evenodd;fill:#347BA3;" d="M53.6,242.5c-0.4-1.9-1.7-3-3-4.1c-5.1-4.1-10.9-6.8-17.4-7.6
			c-2.5-0.3-5-0.4-7.7,0.5c1,1.7,2.1,3,3.4,4.2c6,5.1,13,7.6,20.7,8.1C50.9,243.6,52.3,243.6,53.6,242.5z"/>
		<path style="fill-rule:evenodd;clip-rule:evenodd;fill:#347BA3;" d="M283.8,231.6c-0.1-0.2-0.2-0.4-0.2-0.6
			c-1.1-0.1-2.2-0.4-3.3-0.4c-8.5-0.2-15.7,3-22.1,8.3c-0.8,0.7-1.5,1.5-2,2.4c-0.6,1-0.3,1.6,0.8,1.9c0.9,0.2,2,0.4,2.9,0.3
			c7.7-0.5,14.6-2.9,20.5-8.1C281.6,234.4,282.7,232.9,283.8,231.6z"/>
		<path style="fill-rule:evenodd;clip-rule:evenodd;fill:#347BA3;" d="M20.9,215.1c0.8,2.3,2.2,4,3.7,5.6c4.6,4.9,10.3,7.8,16.7,9.4
			c1.1,0.3,2.2,0.4,3.3,0.4c0.7,0,1.4-0.3,2.1-0.4c-0.2-2-0.5-2.6-1.9-4.1c-4.7-5.1-10.3-8.8-17.1-10.5
			C25.6,215,23.4,214.7,20.9,215.1z"/>
		<path style="fill-rule:evenodd;clip-rule:evenodd;fill:#347BA3;" d="M262.1,229.9c1.9,1.1,3.6,0.8,5.1,0.5
			c4.5-0.9,8.6-2.8,12.4-5.3c3.2-2.1,6-4.7,8-8.1c0.3-0.6,0.6-1.2,0.9-2c-1-0.1-1.6-0.1-2.2-0.1c-0.8,0-1.7,0.1-2.5,0.2
			c-7.9,1.3-14.2,5.3-19.4,11.2C263.4,227.3,262.9,228.5,262.1,229.9z"/>
		<path style="fill-rule:evenodd;clip-rule:evenodd;fill:#347BA3;" d="M18.5,199c0.4,2.3,1.2,3.8,2.2,5.3c4.1,6.3,10,10.4,17,13
			c1,0.4,2.1,0.4,3.1,0.5c0.9,0,1.3-0.5,1.1-1.4c-0.3-0.9-0.6-1.9-1.1-2.7c-4.4-6.6-10.2-11.5-17.8-13.8
			C21.6,199.4,20.2,199.3,18.5,199z"/>
		<path style="fill-rule:evenodd;clip-rule:evenodd;fill:#347BA3;" d="M290.9,199.2c-1.2,0.1-2.1,0.1-3,0.3
			c-6.3,1.3-11.4,4.8-15.7,9.5c-1.6,1.7-2.9,3.7-4.2,5.6c-0.6,0.8-1,1.9-0.5,3c1.7,0.7,3.2,0,4.7-0.5c4.9-1.8,9.2-4.6,12.8-8.4
			c2-2.1,3.8-4.4,4.9-7.1C290.3,200.9,290.5,200.2,290.9,199.2z"/>
		<path style="fill-rule:evenodd;clip-rule:evenodd;fill:#347BA3;" d="M18.2,183.3c-0.1,0.7-0.2,0.9-0.1,1.1c0.2,0.8,0.3,1.5,0.6,2.2
			c3,8.1,8.8,13.6,16.3,17.5c0.5,0.3,1.1,0.4,1.6,0.5c0.6,0.1,1.2,0,1.8,0c0.3-1.7,0.3-2.4-0.6-4.2c-3.2-6.4-7.7-11.6-14.1-15.1
			C22,184.5,20.1,184,18.2,183.3z"/>
		<path style="fill-rule:evenodd;clip-rule:evenodd;fill:#347BA3;" d="M291.2,183.5c-0.8,0.2-1.3,0.2-1.8,0.4
			c-8.9,3.1-14.6,9.5-18.3,18c-0.3,0.8-0.2,1.7-0.3,2.6c2,0.3,2.5,0.3,4.3-0.6c6.4-3.4,11.5-8.2,14.7-14.8
			C290.5,187.4,291.3,185.7,291.2,183.5z"/>
		<path style="fill-rule:evenodd;clip-rule:evenodd;fill:#347BA3;" d="M36.7,190.5c-0.1-1.2,0-2.4-0.3-3.5c-0.4-1.5-0.9-3-1.6-4.4
			c-2.7-5.7-6.4-10.6-11.9-13.9c-1.1-0.6-2.2-1.1-3.5-1.7c0,1.1-0.1,1.9,0,2.6c1.7,8.7,6.7,15.2,13.9,20.2
			C34.1,190.4,35,191,36.7,190.5z"/>
		<path style="fill-rule:evenodd;clip-rule:evenodd;fill:#347BA3;" d="M273.3,190.9c0.8-0.3,1.8-0.5,2.5-1
			c7.3-4.8,12.2-11.2,14.1-19.8c0.2-0.9,0.1-1.9,0.2-3.2c-1.3,0.6-2.2,0.9-3.1,1.3c-2.7,1.4-5,3.4-7,5.7c-3.5,4.1-6.1,8.6-7.3,13.9
			C272.5,188.9,272.4,189.8,273.3,190.9z"/>
		<path style="fill-rule:evenodd;clip-rule:evenodd;fill:#347BA3;" d="M22.1,151.2c-0.1,1.2-0.3,2.1-0.2,3
			c0.7,8.4,4.5,15.2,10.5,20.9c0.8,0.8,2,1.2,3.1,1.9c1.2-1.7,1-3.4,0.7-4.9c-1.2-6.4-3.9-12.1-8.4-16.8
			C26.2,153.6,24.5,152.2,22.1,151.2z"/>
		<path style="fill-rule:evenodd;clip-rule:evenodd;fill:#347BA3;" d="M287.1,151.1c-1.2,0.8-2.3,1.3-3.2,2.1
			c-6.4,5.3-9.6,12.4-10.9,20.5c-0.2,1-0.1,2.1,0.7,2.9C280.5,175.3,288.7,160,287.1,151.1z"/>
		<path style="fill-rule:evenodd;clip-rule:evenodd;fill:#347BA3;" d="M36.4,160.7c0.3-1,0.7-1.8,0.7-2.7c0.2-8.6-2.4-16.3-8.5-22.5
			c-0.6-0.6-1.3-1.1-2.1-1.7c-0.2,0.6-0.4,0.9-0.5,1.3c-0.6,2.7-0.5,5.3,0,8c1,5.5,3.2,10.5,6.7,14.9
			C33.5,159.2,34.4,160.3,36.4,160.7z"/>
		<path style="fill-rule:evenodd;clip-rule:evenodd;fill:#347BA3;" d="M282.9,133.8c-0.8,0.6-1.4,1-1.9,1.5
			c-6.3,6.1-8.7,13.8-8.8,22.4c0,1,0.2,2.1,1.1,3c1.6-0.2,2.5-1.4,3.4-2.5c3.6-4.6,5.9-9.8,6.7-15.5
			C283.8,139.8,283.9,136.9,282.9,133.8z"/>
		<path style="fill-rule:evenodd;clip-rule:evenodd;fill:#347BA3;" d="M39.3,146.2c1.2-0.9,1.4-2.1,1.6-3.4c0.5-2.8,0.3-5.6,0-8.4
			c-0.6-4.8-2.1-9.4-5-13.3c-0.7-0.9-1.5-1.6-2.3-2.6c-0.3,0.8-0.5,1.2-0.7,1.7c-1,3-1.1,6.1-0.9,9.2c0.4,4.9,1.8,9.5,4.3,13.8
			C36.9,144.4,37.7,145.7,39.3,146.2z"/>
		<path style="fill-rule:evenodd;clip-rule:evenodd;fill:#347BA3;" d="M275.7,118.7c-0.7,0.7-1.4,1.4-2,2.2c-2.7,3.5-4.2,7.6-5,12
			c-0.6,3.6-0.8,7.3-0.1,10.9c0.2,1,0.4,1.9,1.4,2.4C276.2,143.1,279.8,125.5,275.7,118.7z"/>
		<path style="fill-rule:evenodd;clip-rule:evenodd;fill:#347BA3;" d="M44,132.8c1.6-1,2-2.2,2.3-3.4c1.2-4.6,1.4-9.2,0.7-13.8
			c-0.5-3.4-1.6-6.6-3.5-9.4c-0.3-0.4-0.7-0.8-1.2-1.3c-0.5,1.1-1,1.8-1.3,2.7c-2.8,7.9-2,15.5,1.3,23C42.6,131.3,43.4,132,44,132.8z
			"/>
		<path style="fill-rule:evenodd;clip-rule:evenodd;fill:#347BA3;" d="M265,132.6c1.2-0.4,1.8-1.4,2.2-2.4c3-7.2,3.8-14.5,1.4-22.1
			c-0.4-1.1-1-2.1-1.7-3.5c-0.8,1.1-1.4,1.8-1.8,2.6c-3.9,7.5-4.2,15.2-1.9,23.2C263.6,131.2,264,132.2,265,132.6z"/>
		<path style="fill-rule:evenodd;clip-rule:evenodd;fill:#347BA3;" d="M244,78.7c-0.4,1.2-0.8,2.1-1,3.1c-1.6,8,0.3,15.3,4.4,22.1
			c0.5,0.8,1.4,1.5,2.2,2.2c1.3-1.4,1.5-1.8,1.8-3.5c0.8-5.8-0.1-11.4-2.4-16.8C247.9,83.2,246.4,80.9,244,78.7z"/>
		<path style="fill-rule:evenodd;clip-rule:evenodd;fill:#347BA3;" d="M59.8,106.1c0.8-0.8,1.7-1.5,2.2-2.3
			c4.1-6.8,5.9-14.2,4.3-22.1c-0.2-0.9-0.6-1.8-1.1-3.1c-1.1,1.3-2.1,2.3-2.8,3.4c-4.1,6.2-5.2,13.2-4.5,20.5
			C58.1,103.7,58.3,105,59.8,106.1z"/>
		<path style="fill-rule:evenodd;clip-rule:evenodd;fill:#347BA3;" d="M256.3,91.2c-0.6,1.2-1.1,2-1.4,3c-2.6,7.7-1.9,15.1,1.3,22.5
			c0.4,0.9,1,1.9,2.2,2.3c1.4-0.9,1.8-2.4,2.1-3.9c1.1-4.4,1.2-9,0.4-13.4C260.2,97.9,259.1,94.4,256.3,91.2z"/>
		<path style="fill-rule:evenodd;clip-rule:evenodd;fill:#347BA3;" d="M51,118.9c5.6-3.9,6.7-21.4,1.7-27.6c-0.7,1.1-1.4,2-1.9,3
			c-3.4,7-3.6,14.3-1.7,21.7C49.4,117.2,49.8,118.3,51,118.9z"/>
		<path style="fill-rule:evenodd;clip-rule:evenodd;fill:#347BA3;" d="M79.2,69.1c-0.7,0.5-1.2,0.9-1.7,1.3
			C71.4,76.3,69.1,83.7,69,92c0,1,0.1,2.1,1.1,2.8C76.4,92.4,82,76.7,79.2,69.1z"/>
		<path style="fill-rule:evenodd;clip-rule:evenodd;fill:#347BA3;" d="M230,69.3c-0.9,3-1,4.7-0.4,8.7c0.9,5.4,3.1,10.2,6.5,14.5
			c0.8,1,1.7,2.1,3.1,2.3C243,89.6,236.9,72.8,230,69.3z"/>
		<path style="fill:#347BA3;" d="M199.7,172.9c-16.8-2.6-28-6.1-33.6-17.6c-5.6-11.6-7.8-28.8-8.8-41.7c-1-12.9-2.6-46.2-2.6-46.2
			s-1.7,33.2-2.6,46.1c-1,12.9-3.2,30.1-8.8,41.7c-5.6,11.6-16.8,15-33.6,17.6s-54.4,4.4-54.4,4.4c62.6,4,83.4,2.3,91.7,32.3
			c6.7,24.1,7.6,72.1,7.7,90v0c0,4.4,0,7,0,7s0-2.6,0-7c0.1-18,1-65.9,7.7-90c8.3-29.9,29.1-28.3,91.7-32.3
			C254.1,177.3,216.6,175.5,199.7,172.9z"/>
		<path style="fill:#347BA3;" d="M261.9,135.5c-2.9-6.8-6.5-13.3-10.7-19.4c-4.2-6-8.9-11.7-14.2-16.9c-5.3-5.2-11-9.9-17.2-13.9
			c-1.3-0.9-2.6-1.7-4-2.5c30.7,20.2,51,55.2,51,95c0,0.4,0,0.7,0,1.1c0,0.4,0,0.7,0,1.1c0,28.9-11.3,55.1-29.8,74.8
			c-20.5,22.3-49.7,36.3-82.2,36.3s-61.7-14-82.2-36.3C54,235.1,42.7,208.8,42.7,180c0-0.4,0-0.7,0-1.1c0-0.4,0-0.7,0-1.1
			c0-39.8,20.3-74.8,51-95c-1.4,0.8-2.7,1.7-4,2.5c-6.2,4.1-11.9,8.8-17.2,13.9c-5.3,5.2-10,10.9-14.2,16.9
			c-4.2,6.1-7.8,12.6-10.7,19.4c-6.1,14.1-9.1,29-9.1,44.5s3.1,30.4,9.1,44.5c2.9,6.8,6.5,13.3,10.7,19.4c4.2,6,8.9,11.7,14.2,16.9
			c5.3,5.2,11,9.9,17.2,13.9c6.2,4.1,12.9,7.7,19.8,10.5c14.3,6,29.6,9,45.3,9s30.9-3,45.3-9c6.9-2.9,13.5-6.4,19.8-10.5
			c6.2-4.1,11.9-8.8,17.2-13.9c5.3-5.2,10-10.9,14.2-16.9c4.2-6.1,7.8-12.6,10.7-19.4c6.1-14.1,9.1-29,9.1-44.5
			S267.9,149.6,261.9,135.5z"/>
		<path style="fill:#347BA3;" d="M154.7,74.6c57.1,0,103.3,46.3,103.3,103.3s-46.3,103.3-103.3,103.3S51.4,234.9,51.4,177.9
			S97.7,74.6,154.7,74.6 M154.7,72.5c-14.2,0-28,2.8-41,8.3c-12.6,5.3-23.8,12.9-33.5,22.6c-9.7,9.7-17.3,21-22.6,33.5
			c-5.5,13-8.3,26.8-8.3,41s2.8,28,8.3,41c5.3,12.6,12.9,23.8,22.6,33.5c9.7,9.7,21,17.3,33.5,22.6c13,5.5,26.8,8.3,41,8.3
			c14.2,0,28-2.8,41-8.3c12.6-5.3,23.8-12.9,33.5-22.6c9.7-9.7,17.3-21,22.6-33.5c5.5-13,8.3-26.8,8.3-41s-2.8-28-8.3-41
			c-5.3-12.6-12.9-23.8-22.6-33.5c-9.7-9.7-21-17.3-33.5-22.6C182.8,75.2,169,72.5,154.7,72.5z"/>
		<path style="fill:#347BA3;" d="M154.7,84.6c51.5,0,93.3,41.8,93.3,93.3s-41.8,93.3-93.3,93.3s-93.3-41.8-93.3-93.3
			S103.2,84.6,154.7,84.6 M154.7,81.4c-13,0-25.7,2.6-37.6,7.6c-11.5,4.9-21.8,11.8-30.7,20.7c-8.9,8.9-15.8,19.2-20.7,30.7
			c-5,11.9-7.6,24.5-7.6,37.6c0,13,2.6,25.7,7.6,37.6c4.9,11.5,11.8,21.8,20.7,30.7s19.2,15.8,30.7,20.7c11.9,5,24.5,7.6,37.6,7.6
			c13,0,25.7-2.6,37.6-7.6c11.5-4.9,21.8-11.8,30.7-20.7c8.9-8.9,15.8-19.2,20.7-30.7c5-11.9,7.6-24.5,7.6-37.6
			c0-13-2.6-25.7-7.6-37.6c-4.9-11.5-11.8-21.8-20.7-30.7c-8.9-8.9-19.2-15.8-30.7-20.7C180.4,83.9,167.8,81.4,154.7,81.4z"/>
		<path style="fill:#347BA3;" d="M154.7,114.1c35.3,0,63.8,28.6,63.8,63.8s-28.6,63.8-63.8,63.8s-63.8-28.6-63.8-63.8
			S119.5,114.1,154.7,114.1 M154.7,107.7c-9.5,0-18.7,1.9-27.3,5.5c-8.4,3.5-15.9,8.6-22.3,15c-6.4,6.4-11.5,14-15,22.3
			c-3.7,8.7-5.5,17.9-5.5,27.3s1.9,18.7,5.5,27.3c3.5,8.4,8.6,15.9,15,22.3c6.4,6.4,14,11.5,22.3,15c8.7,3.7,17.9,5.5,27.3,5.5
			s18.7-1.9,27.3-5.5c8.4-3.5,15.9-8.6,22.3-15c6.4-6.4,11.5-14,15-22.3c3.7-8.7,5.5-17.9,5.5-27.3s-1.9-18.7-5.5-27.3
			c-3.5-8.4-8.6-15.9-15-22.3c-6.4-6.4-14-11.5-22.3-15C173.4,109.5,164.2,107.7,154.7,107.7z"/>
		<path style="fill:#347BA3;" d="M128.1,296c-1.2,0.3-2,1.6-1.7,2.8l0.5,1.9c0.3,1.2,1.6,2,2.8,1.7l24.7-6.3c0.1,0,0.2-0.1,0.4-0.1
			c0.1,0,0.2,0.1,0.4,0.1l24.7,6.3c1.2,0.3,2.5-0.4,2.8-1.7l0.5-1.9c0.3-1.2-0.4-2.5-1.7-2.8l-13.3-3.4h-26.7L128.1,296z"/>
	</g>
	<g id="sc-logo-text">
		<path style="fill-rule:evenodd;clip-rule:evenodd;fill:none;stroke:#347BA3;stroke-miterlimit:10;" d="M213,41c0-6.1,0-12,0-18.2
			c-4-0.3-7.9-0.5-12.1-0.8c-0.2,7.7,0.2,15.3,0.1,22.8c0,7.5,0,15,0,22.6c-3.1-1.1-6.2-2.2-9.5-3.4c-0.2-16.1-0.4-32.4-0.6-48.7
			c0.8-0.1,1.4-0.1,2.1-0.1c7.5,0,15,0,22.5,0c1.1,0,2.3,0.1,3.4,0.3c2,0.4,3.3,1.6,3.7,3.6c0.2,1,0.3,2.1,0.3,3.2
			c0,7.2,0,14.4,0,21.6c0,0.9-0.1,1.8-0.3,2.7c-0.4,1.7-1.4,2.4-3.1,2.2c-1.1-0.1-2.2-0.5-3.3-0.7c-0.6-0.1-1.2-0.3-2.1-0.5
			c3.8,10.9,7.3,21.6,10.3,32.8c-0.8-0.4-1.2-0.7-1.7-1c-2.3-1.5-4.6-3.1-6.9-4.5c-0.9-0.6-1.4-1.3-1.7-2.3
			c-3.2-9.1-6.4-18.1-9.7-27.1c-0.7-2-0.8-4.1-0.6-6.5C206.8,39.7,209.9,40.3,213,41z M116.4,30.8c0-4,0.1-7.9,0-11.7
			c0-1.8-1.3-3.1-3.2-3.5c-1.2-0.3-2.5-0.4-3.8-0.4c-6.2,0-12.4,0.1-18.7,0.1c-3.9,0-5.7,1.8-5.8,5.7c-0.1,4.9,0,9.9,0,14.8
			c0,2.2,0.8,4,2.8,5.1c3.7,2.1,7.3,4.4,10.9,6.5c2.4,1.4,5,2.6,7.3,3.9c0,3.5,0,6.9,0,10.2c-3.8,1.7-7.5,3.3-11.5,5
			c0-4,0-7.7,0-11.5c-2,0.3-7.6,2.7-9.6,4.1c0,5.3,0,10.7,0,16c0,0.4,0.1,0.8,0.2,1.2c0.4,1.5,1.3,2,2.7,1.5c1-0.3,1.9-0.8,2.8-1.4
			c6.1-3.9,12.5-7.2,19.2-9.9c1.3-0.5,2.5-1.3,3.7-2.1c1.5-1.1,2.3-2.7,2.3-4.6c0-4,0-8.1,0.1-12.1c0-1.6-0.7-2.7-2.1-3.4
			c-1.1-0.5-2.1-1.1-3.2-1.7c-4.9-2.9-9.7-5.7-14.6-8.7c-0.6-0.4-1.4-1.1-1.4-1.6c-0.1-3.2-0.1-6.5-0.1-9.8c4.1-0.5,7.9-0.7,11.9-0.7
			c0,3.4,0,6.5,0,9.8C109.9,31.6,113.1,31.2,116.4,30.8z M257,333c-0.2,0-0.4,0.1-0.6,0.1c-1.4-2.7-2.9-5.5-4.3-8.2
			c-1.7-3.3-3.4-6.5-5.1-9.8c-0.3-0.6-0.9-1.3-1.4-1.4c-1.8-0.2-3.6-0.1-5.5-0.1c0,11.9,0,23.5,0,35.2c2.3,0,4.5,0,6.9,0
			c0-6.8,0-13.4,0-20c0.1,0,0.3,0,0.4-0.1c3.4,6.7,6.8,13.4,10.3,20.2c2.1,0,4.1,0.1,6.1-0.1c0-11.9,0-23.4,0-35.1
			c-2.3,0-4.4,0-6.8,0C257,320.2,257,326.6,257,333z M152.5,15.3c-10.4,0-20.7,0-31.1,0c-0.2,2.2-0.2,4.2,0,6.3
			c3.7,0.1,7.1-0.3,10.7,0c-0.1,13.1-0.3,26-0.4,39c3.5-0.5,6.7-1,9.9-1.4c0-0.7,0.1-1.2,0.1-1.8c0.1-7,0.1-14,0.1-21
			c0-4.4,0-8.9,0.1-13.3c0-0.6,0.1-1.2,0.2-2c3.6,0,7,0,10.5,0C152.5,19,152.5,17.2,152.5,15.3z M61.5,336.9c0,2.5,0,4.8,0,7.2
			c-3.1,0-6,0-8.8,0c-0.5-3-0.3-24.4,0.2-25.9c2.8,0,5.6,0,8.6,0c0,2.3,0,4.5,0,6.8c2.4,0,4.6,0,6.9,0c0-3,0-5.9,0-8.8
			c0-1.2-0.8-2-1.9-2.3c-0.7-0.2-1.5-0.3-2.3-0.3c-4.9,0-9.9,0-14.8,0c-2.5,0-4.1,0.7-4.1,4.1c0.1,7.9,0,15.8,0,23.8
			c0,1.4,0,2.8,0,4.2c0.1,1.8,0.7,2.6,2.4,3c0.8,0.2,1.5,0.3,2.3,0.3c4.5,0,8.9,0,13.4,0c0.8,0,1.7-0.1,2.5-0.3
			c1.7-0.4,2.4-1.2,2.4-3c0-2.4,0-4.8,0-7.2c0-0.5-0.1-1.1-0.2-1.6C66,336.9,63.9,336.9,61.5,336.9z M207.8,313.7
			c0,11.8,0,23.4,0,35.1c6.5,0,12.9,0,19.4,0c0-1.6,0-3,0-4.7c-2.2,0-4.2,0-6.2,0c-2-0.1-4,0.3-6-0.2c0-3.6,0-7,0-10.7
			c3.5,0,7,0,10.3,0c0-1.7,0-3,0-4.6c-3.5,0-6.9,0-10.2,0c-0.4-2.4-0.4-8.5,0.1-10.2c3.9,0,7.8,0,11.8,0c0-1.6,0-3.1,0-4.6
			C220.5,313.7,214.2,313.7,207.8,313.7z M172.8,348.8c7.2,0,14.2,0,21.3,0c0-1.7,0-3.2,0-4.9c-4.3,0-8.4,0-12.8,0
			c0.3-0.7,0.5-1.1,0.7-1.6c3.8-8,7.7-16.1,11.5-24.1c0.7-1.5,0.9-2.9,0.5-4.4c-2.9-0.5-18.8-0.3-20.2,0.1c0,1.5,0,2.9,0,4.5
			c3.9,0,7.7,0,11.8,0c-0.5,1.1-0.8,1.9-1.2,2.7c-3.7,7.8-7.4,15.6-11.1,23.3C172.6,345.9,172.4,347.2,172.8,348.8z M129.9,318.3
			c2.7,0,5.1,0,7.6,0c0-1.7,0-3.1,0-4.6c-7.5,0-14.8,0-22.3,0c0,1.6,0,3,0,4.7c2.6,0,5,0,7.6,0c0,2.8,0,5.3,0,7.8c0,2.5,0,4.9,0,7.4
			c0,2.5,0,5.1,0,7.6c0,2.5-0.1,5,0.1,7.6c2.5,0,4.7,0.1,7-0.1C129.9,338.6,129.9,328.7,129.9,318.3z M89.3,313.7
			c0,11.8,0,23.4,0,35.1c2.4,0,4.6,0,6.9,0c0-11.8,0-23.4,0-35.1C93.9,313.7,91.6,313.7,89.3,313.7z M159,313.7c-2.4,0-4.6,0-6.9,0
			c0,11.7,0,23.4,0,35.1c2.3,0,4.6,0,6.9,0C159,337.1,159,325.5,159,313.7z M172.9,15.3c-3.6,0-6.9,0-10.3,0
			c-4.2,14.4-8.5,28.7-12.8,43.2c3.4,0,6.6,0,9.9,0c0.7-2.6,1.3-5.2,2.1-8c4.1,0.3,8.1,0.7,12.2,1c0.8,3.1,1.5,6,2.2,8.9
			c3.3,0.7,6.4,1.4,9.9,2.1C181.8,46.3,177.5,30.7,172.9,15.3z M167.5,26.8c-1.4,5.9-2.9,11.9-4.4,18c3.1,0.2,6.1,0.5,9.5,0.7
			c-1.6-6.4-3.1-12.6-4.6-18.7C167.8,26.8,167.6,26.8,167.5,26.8z"/>
	</g>
	<g id="sc-logo-chevrons">
		<g id="sc-logo-chevron-pair-18">
			<path style="fill-rule:evenodd;clip-rule:evenodd;fill:none;stroke:#347BA3;stroke-miterlimit:10;" d="M88.9,304.5
				c2.6,0.7,4.8,0.7,7.7,0.1c6.7-1.3,12.5-4.4,17.6-8.8c1-0.8,1.8-1.8,2.6-2.8c0.5-0.7,0.8-1.6,1.1-2.4c-1.5-1.2-3-1-4.5-0.9
				c-4.8,0.5-9.2,2.1-13.4,4.3c-3.8,2-7.1,4.6-9.7,8C89.8,302.9,89.4,303.7,88.9,304.5z"/>
			<path style="fill-rule:evenodd;clip-rule:evenodd;fill:none;stroke:#347BA3;stroke-miterlimit:10;" d="M191.5,290.7
				c0.2,1.9,1.4,3.1,2.6,4.2c5.4,5,11.6,8.5,18.9,9.8c2.4,0.4,4.8,0.6,7.6-0.2c-1.3-1.6-2.2-3.1-3.4-4.3c-3.7-4-8.4-6.6-13.5-8.5
				c-2.9-1-5.8-1.8-8.9-1.9C193.7,289.8,192.4,289.7,191.5,290.7z"/>
		</g>
		<g id="sc-logo-chevron-pair-17">
			<path style="fill-rule:evenodd;clip-rule:evenodd;fill:none;stroke:#347BA3;stroke-miterlimit:10;" d="M204.8,285.9
				c0.5,1.7,0.7,2.3,2.5,3.5c2.5,1.7,5.1,3.2,7.9,4.5c4.6,2.1,9.5,3.1,14.6,2.9c1.7-0.1,3.4-0.3,5.3-1.1c-1.1-1.2-1.9-2.3-3-3.1
				c-6.8-5.8-14.8-8-23.5-7.9C207.3,284.6,205.8,284.7,204.8,285.9z"/>
			<path style="fill-rule:evenodd;clip-rule:evenodd;fill:none;stroke:#347BA3;stroke-miterlimit:10;" d="M74.2,295.8
				c1,0.3,1.7,0.5,2.4,0.6c9.9,1.4,18.5-1.7,26.2-7.7c0.4-0.3,0.8-0.8,1.1-1.3c0.9-1.3,0.7-2-0.9-2.5c-0.3-0.1-0.7-0.2-1-0.2
				c-2.2,0-4.5-0.1-6.7,0.1c-6.1,0.7-11.7,2.7-16.6,6.3C77,292.5,75.5,293.9,74.2,295.8z"/>
		</g>
		<g id="sc-logo-chevron-pair-16">
			<path style="fill-rule:evenodd;clip-rule:evenodd;fill:none;stroke:#347BA3;stroke-miterlimit:10;" d="M247.6,285.1
				c-1.4-1.1-2.6-2.1-3.9-2.9c-6.2-3.8-13-4.9-20.1-4.5c-1.5,0.1-3.1,0.3-4.6,0.7c-1,0.2-2.1,0.5-2.5,1.6
				C220,286.5,239.6,289.9,247.6,285.1z"/>
			<path style="fill-rule:evenodd;clip-rule:evenodd;fill:none;stroke:#347BA3;stroke-miterlimit:10;" d="M92.9,279.8
				c-0.8-1-1.9-1.4-3-1.6c-3.5-0.8-7.1-0.8-10.7-0.4c-5,0.5-9.7,1.9-13.9,4.6c-1.2,0.8-2.4,1.6-3.4,3.1c1.2,0.5,2.2,0.9,3.3,1.2
				c3.4,1,6.8,1.1,10.3,0.7c4.8-0.5,9.4-1.8,13.7-4.1C90.6,282.5,92.2,281.7,92.9,279.8z"/>
		</g>
		<g id="sc-logo-chevron-pair-15">
			<path style="fill-rule:evenodd;clip-rule:evenodd;fill:none;stroke:#347BA3;stroke-miterlimit:10;" d="M227.8,272.4
				c0.8,1.4,2,2.1,3.2,2.5c2.8,0.8,5.7,1.7,8.6,2.1c5.3,0.8,10.6,0.5,15.6-1.5c1.3-0.5,2.4-1.2,4-2c-1.3-0.8-2.1-1.4-3-1.9
				c-3.5-1.9-7.2-2.7-11.1-3c-4.6-0.4-9.2,0-13.6,1.4C230.1,270.4,228.7,270.9,227.8,272.4z"/>
			<path style="fill-rule:evenodd;clip-rule:evenodd;fill:none;stroke:#347BA3;stroke-miterlimit:10;" d="M50.2,273.6
				c1.6,0.8,2.8,1.5,4.1,2c5,2,10.2,2.2,15.4,1.5c3-0.4,5.9-1.4,8.8-2.2c1.3-0.4,2.4-1.1,3.1-2.5c-1.1-1.6-2.8-2.1-4.5-2.6
				c-5.9-1.6-11.8-1.8-17.8-0.4C56.1,270,53.1,271.2,50.2,273.6z"/>
		</g>
		<g id="sc-logo-chevron-pair-14">
			<path style="fill-rule:evenodd;clip-rule:evenodd;fill:none;stroke:#347BA3;stroke-miterlimit:10;" d="M238.5,264
				c1.1,0.5,1.9,1.2,2.9,1.4c1.8,0.5,3.6,0.9,5.4,1c6.4,0.6,12.7-0.2,18.5-3.2c1.4-0.7,2.7-1.7,4.5-2.9c-1.8-0.7-3-1.4-4.3-1.8
				c-5.4-1.7-10.9-1.5-16.3-0.2c-2.5,0.6-5,1.5-7.4,2.5C240.4,261.4,239.2,262.1,238.5,264z"/>
			<path style="fill-rule:evenodd;clip-rule:evenodd;fill:none;stroke:#347BA3;stroke-miterlimit:10;" d="M40,260.4
				c1.9,2,4.2,3.2,6.6,4c6.6,2.4,13.3,2.8,20.2,1.3c0.9-0.2,1.8-0.5,2.6-0.9c1.6-0.8,1.7-1.6,0.3-2.7c-0.7-0.6-1.5-1.1-2.3-1.5
				c-6.5-2.9-13.3-4-20.4-2.9C44.5,258.3,42.2,258.9,40,260.4z"/>
		</g>
		<g id="sc-logo-chevron-pair-13">
			<path style="fill-rule:evenodd;clip-rule:evenodd;fill:none;stroke:#347BA3;stroke-miterlimit:10;" d="M31.8,246.4
				c1.2,1.1,2.1,2.1,3.1,2.8c7,5.1,14.9,6.6,23.3,5.9c1.2-0.1,2.5-0.3,3.3-1.5C58.7,247,40.4,242.4,31.8,246.4z"/>
			<path style="fill-rule:evenodd;clip-rule:evenodd;fill:none;stroke:#347BA3;stroke-miterlimit:10;" d="M277.6,246.2
				c-1.2-0.4-1.8-0.6-2.5-0.8c-3.1-0.8-6.3-0.9-9.4-0.5c-5.3,0.7-10.2,2.4-14.6,5.2c-1,0.6-1.9,1.5-2.7,2.3c-0.8,0.9-0.6,1.6,0.5,2
				c1.2,0.4,2.6,0.8,3.9,0.8c2.8,0,5.7-0.1,8.4-0.5c5.4-0.9,10.5-2.9,14.7-6.6C276.3,247.6,276.8,247,277.6,246.2z"/>
		</g>
		<g id="sc-logo-chevron-pair-12">
			<path style="fill-rule:evenodd;clip-rule:evenodd;fill:none;stroke:#347BA3;stroke-miterlimit:10;" d="M53.6,242.5
				c-0.4-1.9-1.7-3-3-4.1c-5.1-4.1-10.9-6.8-17.4-7.6c-2.5-0.3-5-0.4-7.7,0.5c1,1.7,2.1,3,3.4,4.2c6,5.1,13,7.6,20.7,8.1
				C50.9,243.6,52.3,243.6,53.6,242.5z"/>
			<path style="fill-rule:evenodd;clip-rule:evenodd;fill:none;stroke:#347BA3;stroke-miterlimit:10;" d="M283.8,231.6
				c-0.1-0.2-0.2-0.4-0.2-0.6c-1.1-0.1-2.2-0.4-3.3-0.4c-8.5-0.2-15.7,3-22.1,8.3c-0.8,0.7-1.5,1.5-2,2.4c-0.6,1-0.3,1.6,0.8,1.9
				c0.9,0.2,2,0.4,2.9,0.3c7.7-0.5,14.6-2.9,20.5-8.1C281.6,234.4,282.7,232.9,283.8,231.6z"/>
		</g>
		<g id="sc-logo-chevron-pair-11">
			<path style="fill-rule:evenodd;clip-rule:evenodd;fill:none;stroke:#347BA3;stroke-miterlimit:10;" d="M20.9,215.1
				c0.8,2.3,2.2,4,3.7,5.6c4.6,4.9,10.3,7.8,16.7,9.4c1.1,0.3,2.2,0.4,3.3,0.4c0.7,0,1.4-0.3,2.1-0.4c-0.2-2-0.5-2.6-1.9-4.1
				c-4.7-5.1-10.3-8.8-17.1-10.5C25.6,215,23.4,214.7,20.9,215.1z"/>
			<path style="fill-rule:evenodd;clip-rule:evenodd;fill:none;stroke:#347BA3;stroke-miterlimit:10;" d="M262.1,229.9
				c1.9,1.1,3.6,0.8,5.1,0.5c4.5-0.9,8.6-2.8,12.4-5.3c3.2-2.1,6-4.7,8-8.1c0.3-0.6,0.6-1.2,0.9-2c-1-0.1-1.6-0.1-2.2-0.1
				c-0.8,0-1.7,0.1-2.5,0.2c-7.9,1.3-14.2,5.3-19.4,11.2C263.4,227.3,262.9,228.5,262.1,229.9z"/>
		</g>
		<g id="sc-logo-chevron-pair-10">
			<path style="fill-rule:evenodd;clip-rule:evenodd;fill:none;stroke:#347BA3;stroke-miterlimit:10;" d="M18.5,199
				c0.4,2.3,1.2,3.8,2.2,5.3c4.1,6.3,10,10.4,17,13c1,0.4,2.1,0.4,3.1,0.5c0.9,0,1.3-0.5,1.1-1.4c-0.3-0.9-0.6-1.9-1.1-2.7
				c-4.4-6.6-10.2-11.5-17.8-13.8C21.6,199.4,20.2,199.3,18.5,199z"/>
			<path style="fill-rule:evenodd;clip-rule:evenodd;fill:none;stroke:#347BA3;stroke-miterlimit:10;" d="M290.9,199.2
				c-1.2,0.1-2.1,0.1-3,0.3c-6.3,1.3-11.4,4.8-15.7,9.5c-1.6,1.7-2.9,3.7-4.2,5.6c-0.6,0.8-1,1.9-0.5,3c1.7,0.7,3.2,0,4.7-0.5
				c4.9-1.8,9.2-4.6,12.8-8.4c2-2.1,3.8-4.4,4.9-7.1C290.3,200.9,290.5,200.2,290.9,199.2z"/>
		</g>
		<g id="sc-logo-chevron-pair-9">
			<path style="fill-rule:evenodd;clip-rule:evenodd;fill:none;stroke:#347BA3;stroke-miterlimit:10;" d="M18.2,183.3
				c-0.1,0.7-0.2,0.9-0.1,1.1c0.2,0.8,0.3,1.5,0.6,2.2c3,8.1,8.8,13.6,16.3,17.5c0.5,0.3,1.1,0.4,1.6,0.5c0.6,0.1,1.2,0,1.8,0
				c0.3-1.7,0.3-2.4-0.6-4.2c-3.2-6.4-7.7-11.6-14.1-15.1C22,184.5,20.1,184,18.2,183.3z"/>
			<path style="fill-rule:evenodd;clip-rule:evenodd;fill:none;stroke:#347BA3;stroke-miterlimit:10;" d="M291.2,183.5
				c-0.8,0.2-1.3,0.2-1.8,0.4c-8.9,3.1-14.6,9.5-18.3,18c-0.3,0.8-0.2,1.7-0.3,2.6c2,0.3,2.5,0.3,4.3-0.6c6.4-3.4,11.5-8.2,14.7-14.8
				C290.5,187.4,291.3,185.7,291.2,183.5z"/>
		</g>
		<g id="sc-logo-chevron-pair-8">
			<path style="fill-rule:evenodd;clip-rule:evenodd;fill:none;stroke:#347BA3;stroke-miterlimit:10;" d="M36.7,190.5
				c-0.1-1.2,0-2.4-0.3-3.5c-0.4-1.5-0.9-3-1.6-4.4c-2.7-5.7-6.4-10.6-11.9-13.9c-1.1-0.6-2.2-1.1-3.5-1.7c0,1.1-0.1,1.9,0,2.6
				c1.7,8.7,6.7,15.2,13.9,20.2C34.1,190.4,35,191,36.7,190.5z"/>
			<path style="fill-rule:evenodd;clip-rule:evenodd;fill:none;stroke:#347BA3;stroke-miterlimit:10;" d="M273.3,190.9
				c0.8-0.3,1.8-0.5,2.5-1c7.3-4.8,12.2-11.2,14.1-19.8c0.2-0.9,0.1-1.9,0.2-3.2c-1.3,0.6-2.2,0.9-3.1,1.3c-2.7,1.4-5,3.4-7,5.7
				c-3.5,4.1-6.1,8.6-7.3,13.9C272.5,188.9,272.4,189.8,273.3,190.9z"/>
		</g>
		<g id="sc-logo-chevron-pair-7">
			<path style="fill-rule:evenodd;clip-rule:evenodd;fill:none;stroke:#347BA3;stroke-miterlimit:10;" d="M22.1,151.2
				c-0.1,1.2-0.3,2.1-0.2,3c0.7,8.4,4.5,15.2,10.5,20.9c0.8,0.8,2,1.2,3.1,1.9c1.2-1.7,1-3.4,0.7-4.9c-1.2-6.4-3.9-12.1-8.4-16.8
				C26.2,153.6,24.5,152.2,22.1,151.2z"/>
			<path style="fill-rule:evenodd;clip-rule:evenodd;fill:none;stroke:#347BA3;stroke-miterlimit:10;" d="M287.1,151.1
				c-1.2,0.8-2.3,1.3-3.2,2.1c-6.4,5.3-9.6,12.4-10.9,20.5c-0.2,1-0.1,2.1,0.7,2.9C280.5,175.3,288.7,160,287.1,151.1z"/>
		</g>
		<g id="sc-logo-chevron-pair-6">
			<path style="fill-rule:evenodd;clip-rule:evenodd;fill:none;stroke:#347BA3;stroke-miterlimit:10;" d="M36.4,160.7
				c0.3-1,0.7-1.8,0.7-2.7c0.2-8.6-2.4-16.3-8.5-22.5c-0.6-0.6-1.3-1.1-2.1-1.7c-0.2,0.6-0.4,0.9-0.5,1.3c-0.6,2.7-0.5,5.3,0,8
				c1,5.5,3.2,10.5,6.7,14.9C33.5,159.2,34.4,160.3,36.4,160.7z"/>
			<path style="fill-rule:evenodd;clip-rule:evenodd;fill:none;stroke:#347BA3;stroke-miterlimit:10;" d="M282.9,133.8
				c-0.8,0.6-1.4,1-1.9,1.5c-6.3,6.1-8.7,13.8-8.8,22.4c0,1,0.2,2.1,1.1,3c1.6-0.2,2.5-1.4,3.4-2.5c3.6-4.6,5.9-9.8,6.7-15.5
				C283.8,139.8,283.9,136.9,282.9,133.8z"/>
		</g>
		<g id="sc-logo-chevron-pair-5">
			<path style="fill-rule:evenodd;clip-rule:evenodd;fill:none;stroke:#347BA3;stroke-miterlimit:10;" d="M39.3,146.2
				c1.2-0.9,1.4-2.1,1.6-3.4c0.5-2.8,0.3-5.6,0-8.4c-0.6-4.8-2.1-9.4-5-13.3c-0.7-0.9-1.5-1.6-2.3-2.6c-0.3,0.8-0.5,1.2-0.7,1.7
				c-1,3-1.1,6.1-0.9,9.2c0.4,4.9,1.8,9.5,4.3,13.8C36.9,144.4,37.7,145.7,39.3,146.2z"/>
			<path style="fill-rule:evenodd;clip-rule:evenodd;fill:none;stroke:#347BA3;stroke-miterlimit:10;" d="M275.7,118.7
				c-0.7,0.7-1.4,1.4-2,2.2c-2.7,3.5-4.2,7.6-5,12c-0.6,3.6-0.8,7.3-0.1,10.9c0.2,1,0.4,1.9,1.4,2.4
				C276.2,143.1,279.8,125.5,275.7,118.7z"/>
		</g>
		<g id="sc-logo-chevron-pair-4">
			<path style="fill-rule:evenodd;clip-rule:evenodd;fill:none;stroke:#347BA3;stroke-miterlimit:10;" d="M44,132.8
				c1.6-1,2-2.2,2.3-3.4c1.2-4.6,1.4-9.2,0.7-13.8c-0.5-3.4-1.6-6.6-3.5-9.4c-0.3-0.4-0.7-0.8-1.2-1.3c-0.5,1.1-1,1.8-1.3,2.7
				c-2.8,7.9-2,15.5,1.3,23C42.6,131.3,43.4,132,44,132.8z"/>
			<path style="fill-rule:evenodd;clip-rule:evenodd;fill:none;stroke:#347BA3;stroke-miterlimit:10;" d="M265,132.6
				c1.2-0.4,1.8-1.4,2.2-2.4c3-7.2,3.8-14.5,1.4-22.1c-0.4-1.1-1-2.1-1.7-3.5c-0.8,1.1-1.4,1.8-1.8,2.6c-3.9,7.5-4.2,15.2-1.9,23.2
				C263.6,131.2,264,132.2,265,132.6z"/>
		</g>
		<g id="sc-logo-chevron-pair-3">
			<path style="fill-rule:evenodd;clip-rule:evenodd;fill:none;stroke:#347BA3;stroke-miterlimit:10;" d="M244,78.7
				c-0.4,1.2-0.8,2.1-1,3.1c-1.6,8,0.3,15.3,4.4,22.1c0.5,0.8,1.4,1.5,2.2,2.2c1.3-1.4,1.5-1.8,1.8-3.5c0.8-5.8-0.1-11.4-2.4-16.8
				C247.9,83.2,246.4,80.9,244,78.7z"/>
			<path style="fill-rule:evenodd;clip-rule:evenodd;fill:none;stroke:#347BA3;stroke-miterlimit:10;" d="M59.8,106.1
				c0.8-0.8,1.7-1.5,2.2-2.3c4.1-6.8,5.9-14.2,4.3-22.1c-0.2-0.9-0.6-1.8-1.1-3.1c-1.1,1.3-2.1,2.3-2.8,3.4
				c-4.1,6.2-5.2,13.2-4.5,20.5C58.1,103.7,58.3,105,59.8,106.1z"/>
		</g>
		<g id="sc-logo-chevron-pair-2">
			<path style="fill-rule:evenodd;clip-rule:evenodd;fill:none;stroke:#347BA3;stroke-miterlimit:10;" d="M256.3,91.2
				c-0.6,1.2-1.1,2-1.4,3c-2.6,7.7-1.9,15.1,1.3,22.5c0.4,0.9,1,1.9,2.2,2.3c1.4-0.9,1.8-2.4,2.1-3.9c1.1-4.4,1.2-9,0.4-13.4
				C260.2,97.9,259.1,94.4,256.3,91.2z"/>
			<path style="fill-rule:evenodd;clip-rule:evenodd;fill:none;stroke:#347BA3;stroke-miterlimit:10;" d="M51,118.9
				c5.6-3.9,6.7-21.4,1.7-27.6c-0.7,1.1-1.4,2-1.9,3c-3.4,7-3.6,14.3-1.7,21.7C49.4,117.2,49.8,118.3,51,118.9z"/>
		</g>
		<g id="sc-logo-chevron-pair-1">
			<path style="fill-rule:evenodd;clip-rule:evenodd;fill:none;stroke:#347BA3;stroke-miterlimit:10;" d="M79.2,69.1
				c-0.7,0.5-1.2,0.9-1.7,1.3C71.4,76.3,69.1,83.7,69,92c0,1,0.1,2.1,1.1,2.8C76.4,92.4,82,76.7,79.2,69.1z"/>
			<path style="fill-rule:evenodd;clip-rule:evenodd;fill:none;stroke:#347BA3;stroke-miterlimit:10;" d="M230,69.3
				c-0.9,3-1,4.7-0.4,8.7c0.9,5.4,3.1,10.2,6.5,14.5c0.8,1,1.7,2.1,3.1,2.3C243,89.6,236.9,72.8,230,69.3z"/>
		</g>
	</g>
	<g id="sc-logo-star">
		<path style="fill:none;stroke:#347BA3;stroke-miterlimit:10;" d="M199.7,172.9c-16.8-2.6-28-6.1-33.6-17.6
			c-5.6-11.6-7.8-28.8-8.8-41.7c-1-12.9-2.6-46.2-2.6-46.2s-1.7,33.2-2.6,46.1c-1,12.9-3.2,30.1-8.8,41.7
			c-5.6,11.6-16.8,15-33.6,17.6s-54.4,4.4-54.4,4.4c62.6,4,83.4,2.3,91.7,32.3c6.7,24.1,7.6,72.1,7.7,90v0c0,4.4,0,7,0,7s0-2.6,0-7
			c0.1-18,1-65.9,7.7-90c8.3-29.9,29.1-28.3,91.7-32.3C254.1,177.3,216.6,175.5,199.7,172.9z"/>
	</g>
	<g id="sc-logo-arc-4">
		<path style="fill:none;stroke:#347BA3;stroke-miterlimit:10;" d="M261.9,135.5c-2.9-6.8-6.5-13.3-10.7-19.4
			c-4.2-6-8.9-11.7-14.2-16.9c-5.3-5.2-11-9.9-17.2-13.9c-1.3-0.9-2.6-1.7-4-2.5c30.7,20.2,51,55.2,51,95c0,0.4,0,0.7,0,1.1
			c0,0.4,0,0.7,0,1.1c0,28.9-11.3,55.1-29.8,74.8c-20.5,22.3-49.7,36.3-82.2,36.3s-61.7-14-82.2-36.3C54,235.1,42.7,208.8,42.7,180
			c0-0.4,0-0.7,0-1.1c0-0.4,0-0.7,0-1.1c0-39.8,20.3-74.8,51-95c-1.4,0.8-2.7,1.7-4,2.5c-6.2,4.1-11.9,8.8-17.2,13.9
			c-5.3,5.2-10,10.9-14.2,16.9c-4.2,6.1-7.8,12.6-10.7,19.4c-6.1,14.1-9.1,29-9.1,44.5s3.1,30.4,9.1,44.5c2.9,6.8,6.5,13.3,10.7,19.4
			c4.2,6,8.9,11.7,14.2,16.9c5.3,5.2,11,9.9,17.2,13.9c6.2,4.1,12.9,7.7,19.8,10.5c14.3,6,29.6,9,45.3,9s30.9-3,45.3-9
			c6.9-2.9,13.5-6.4,19.8-10.5c6.2-4.1,11.9-8.8,17.2-13.9c5.3-5.2,10-10.9,14.2-16.9c4.2-6.1,7.8-12.6,10.7-19.4
			c6.1-14.1,9.1-29,9.1-44.5S267.9,149.6,261.9,135.5z"/>
		<circle style="fill:none;" cx="154.8" cy="177.9" r="116.3"/>
	</g>
	<g id="sc-logo-arc-3">
		<path style="fill:none;stroke:#347BA3;stroke-miterlimit:10;" d="M154.7,74.6c57.1,0,103.3,46.3,103.3,103.3
			s-46.3,103.3-103.3,103.3S51.4,234.9,51.4,177.9S97.7,74.6,154.7,74.6 M154.7,72.5c-14.2,0-28,2.8-41,8.3
			c-12.6,5.3-23.8,12.9-33.5,22.6c-9.7,9.7-17.3,21-22.6,33.5c-5.5,13-8.3,26.8-8.3,41s2.8,28,8.3,41c5.3,12.6,12.9,23.8,22.6,33.5
			c9.7,9.7,21,17.3,33.5,22.6c13,5.5,26.8,8.3,41,8.3c14.2,0,28-2.8,41-8.3c12.6-5.3,23.8-12.9,33.5-22.6c9.7-9.7,17.3-21,22.6-33.5
			c5.5-13,8.3-26.8,8.3-41s-2.8-28-8.3-41c-5.3-12.6-12.9-23.8-22.6-33.5c-9.7-9.7-21-17.3-33.5-22.6C182.8,75.2,169,72.5,154.7,72.5
			z"/>
	</g>
	<g id="sc-logo-arc-2">
		<path style="fill:none;stroke:#347BA3;stroke-miterlimit:10;" d="M154.7,84.6c51.5,0,93.3,41.8,93.3,93.3s-41.8,93.3-93.3,93.3
			s-93.3-41.8-93.3-93.3S103.2,84.6,154.7,84.6 M154.7,81.4c-13,0-25.7,2.6-37.6,7.6c-11.5,4.9-21.8,11.8-30.7,20.7
			c-8.9,8.9-15.8,19.2-20.7,30.7c-5,11.9-7.6,24.5-7.6,37.6c0,13,2.6,25.7,7.6,37.6c4.9,11.5,11.8,21.8,20.7,30.7
			s19.2,15.8,30.7,20.7c11.9,5,24.5,7.6,37.6,7.6c13,0,25.7-2.6,37.6-7.6c11.5-4.9,21.8-11.8,30.7-20.7c8.9-8.9,15.8-19.2,20.7-30.7
			c5-11.9,7.6-24.5,7.6-37.6c0-13-2.6-25.7-7.6-37.6c-4.9-11.5-11.8-21.8-20.7-30.7c-8.9-8.9-19.2-15.8-30.7-20.7
			C180.4,83.9,167.8,81.4,154.7,81.4z"/>
	</g>
	<g id="sc-logo-arc-1">
		<path style="fill:none;stroke:#347BA3;stroke-miterlimit:10;" d="M154.7,114.1c35.3,0,63.8,28.6,63.8,63.8s-28.6,63.8-63.8,63.8
			s-63.8-28.6-63.8-63.8S119.5,114.1,154.7,114.1 M154.7,107.7c-9.5,0-18.7,1.9-27.3,5.5c-8.4,3.5-15.9,8.6-22.3,15
			c-6.4,6.4-11.5,14-15,22.3c-3.7,8.7-5.5,17.9-5.5,27.3s1.9,18.7,5.5,27.3c3.5,8.4,8.6,15.9,15,22.3c6.4,6.4,14,11.5,22.3,15
			c8.7,3.7,17.9,5.5,27.3,5.5s18.7-1.9,27.3-5.5c8.4-3.5,15.9-8.6,22.3-15c6.4-6.4,11.5-14,15-22.3c3.7-8.7,5.5-17.9,5.5-27.3
			s-1.9-18.7-5.5-27.3c-3.5-8.4-8.6-15.9-15-22.3c-6.4-6.4-14-11.5-22.3-15C173.4,109.5,164.2,107.7,154.7,107.7z"/>
	</g>
	<g id="sc-logo-bottom">
		<path style="fill:none;stroke:#347BA3;stroke-miterlimit:10;" d="M128.1,296c-1.2,0.3-2,1.6-1.7,2.8l0.5,1.9c0.3,1.2,1.6,2,2.8,1.7
			l24.7-6.3c0.1,0,0.2-0.1,0.4-0.1c0.1,0,0.2,0.1,0.4,0.1l24.7,6.3c1.2,0.3,2.5-0.4,2.8-1.7l0.5-1.9c0.3-1.2-0.4-2.5-1.7-2.8
			l-13.3-3.4h-26.7L128.1,296z"/>
	</g>
</svg>
