<svg xmlns="http://www.w3.org/2000/svg" xmlns:xlink="http://www.w3.org/1999/xlink" preserveAspectRatio="xMidYMid" width="124" height="111" viewBox="0 0 124 111">
  <defs>
    <style>
      .cls-1 {
        fill: #0a5688;
        opacity: 0.7;
        fill-rule: evenodd;
      }
    </style>
  </defs>
  <path d="M122.113,91.756 L73.355,7.133 L73.339,7.142 C72.728,5.898 71.939,4.730 70.909,3.695 C65.990,-1.233 58.010,-1.233 53.090,3.695 C52.197,4.589 51.463,5.591 50.908,6.650 L50.908,6.642 L2.183,91.284 L2.183,91.302 C1.414,92.434 0.803,93.712 0.436,95.117 C-1.367,101.860 2.622,108.792 9.343,110.589 C10.552,110.914 11.775,111.045 12.982,111.009 L110.474,110.992 L110.474,110.981 C115.143,111.306 119.801,109.036 122.307,104.710 C124.700,100.538 124.473,95.572 122.113,91.756 ZM67.773,92.160 C66.095,93.748 64.131,94.548 61.894,94.548 C59.616,94.548 57.624,93.748 55.961,92.160 C54.282,90.555 53.442,88.651 53.442,86.430 C53.442,84.222 54.282,82.310 55.961,80.678 C57.623,79.047 59.616,78.248 61.894,78.248 C64.131,78.248 66.097,79.047 67.773,80.678 C69.454,82.310 70.294,84.222 70.294,86.430 C70.296,88.652 69.454,90.555 67.773,92.160 ZM69.787,42.674 C69.366,44.657 68.821,46.974 68.178,49.639 C67.563,52.148 66.845,55.287 66.075,59.053 C65.269,62.803 64.448,67.454 63.556,72.978 L60.181,72.978 C59.304,67.392 58.463,62.742 57.659,59.021 C56.875,55.313 56.174,52.192 55.559,49.673 C54.998,47.366 54.495,45.115 54.022,42.894 C53.550,40.682 53.322,39.024 53.322,37.901 C53.322,35.665 54.144,33.745 55.821,32.141 C57.500,30.541 59.499,29.753 61.843,29.753 C64.153,29.753 66.162,30.541 67.860,32.141 C69.576,33.745 70.436,35.665 70.436,37.901 C70.436,39.112 70.208,40.700 69.787,42.674 Z" class="cls-1"/>
</svg>
