{
    "asset" : {
        "generator" : "Khronos glTF Blender I/O v1.1.46",
        "version" : "2.0"
    },
    "scene" : 0,
    "scenes" : [
        {
            "name" : "Scene",
            "nodes" : [
                1
            ]
        }
    ],
    "nodes" : [
        {
            "mesh" : 0,
            "name" : "chute_cap"
        },
        {
            "children" : [
                0
            ],
            "mesh" : 1,
            "name" : "_root_chutecap"
        }
    ],
    "materials" : [
        {
            "doubleSided" : true,
            "emissiveFactor" : [
                0,
                0,
                0
            ],
            "name" : "cone_AO",
            "pbrMetallicRoughness" : {
                "baseColorTexture" : {
                    "index" : 0,
                    "texCoord" : 0
                },
                "metallicFactor" : 0,
                "roughnessFactor" : 0.5
            }
        }
    ],
    "meshes" : [
        {
            "name" : "Circle.000",
            "primitives" : [
                {
                    "attributes" : {
                        "POSITION" : 0,
                        "NORMAL" : 1,
                        "TEXCOORD_0" : 2
                    },
                    "indices" : 3,
                    "material" : 0
                }
            ]
        },
        {
            "name" : "Cube.004",
            "primitives" : [
                {
                    "attributes" : {
                        "POSITION" : 4,
                        "NORMAL" : 5
                    },
                    "indices" : 6
                }
            ]
        }
    ],
    "textures" : [
        {
            "source" : 0
        }
    ],
    "images" : [
        {
            "mimeType" : "image/png",
            "name" : "cone_AO",
            "uri" : "cone_AO.png"
        }
    ],
    "accessors" : [
        {
            "bufferView" : 0,
            "componentType" : 5126,
            "count" : 786,
            "max" : [
                0.3814576268196106,
                1.292602300643921,
                0.38580137491226196
            ],
            "min" : [
                -0.38145750761032104,
                1.1966795921325684,
                -0.38145768642425537
            ],
            "type" : "VEC3"
        },
        {
            "bufferView" : 1,
            "componentType" : 5126,
            "count" : 786,
            "type" : "VEC3"
        },
        {
            "bufferView" : 2,
            "componentType" : 5126,
            "count" : 786,
            "type" : "VEC2"
        },
        {
            "bufferView" : 3,
            "componentType" : 5123,
            "count" : 3552,
            "type" : "SCALAR"
        },
        {
            "bufferView" : 4,
            "componentType" : 5126,
            "count" : 8,
            "max" : [
                0.5000002384185791,
                0.5,
                0.5000002980232239
            ],
            "min" : [
                -0.5000001788139343,
                -0.5,
                -0.5000001788139343
            ],
            "type" : "VEC3"
        },
        {
            "bufferView" : 5,
            "componentType" : 5126,
            "count" : 8,
            "type" : "VEC3"
        },
        {
            "bufferView" : 6,
            "componentType" : 5123,
            "count" : 36,
            "type" : "SCALAR"
        }
    ],
    "bufferViews" : [
        {
            "buffer" : 0,
            "byteLength" : 9432,
            "byteOffset" : 0
        },
        {
            "buffer" : 0,
            "byteLength" : 9432,
            "byteOffset" : 9432
        },
        {
            "buffer" : 0,
            "byteLength" : 6288,
            "byteOffset" : 18864
        },
        {
            "buffer" : 0,
            "byteLength" : 7104,
            "byteOffset" : 25152
        },
        {
            "buffer" : 0,
            "byteLength" : 96,
            "byteOffset" : 32256
        },
        {
            "buffer" : 0,
            "byteLength" : 96,
            "byteOffset" : 32352
        },
        {
            "buffer" : 0,
            "byteLength" : 72,
            "byteOffset" : 32448
        }
    ],
    "buffers" : [
        {
            "byteLength" : 32520,
            "uri" : "edl2020_chuteCap.bin"
        }
    ]
}
