<svg xmlns="http://www.w3.org/2000/svg" xmlns:xlink="http://www.w3.org/1999/xlink" viewBox="0 0 351 53" style="enable-background:new 0 0 351.4 53;" xml:space="preserve" preserveAspectRatio="xMidYMax meet">
	<title>Chanel</title>
	<path d="M27.1,10c6.5,0,11.9,3.2,14.5,8.6l9.2-5.1C46.2,5.3,37.2,0,27.1,0C12.3,0,0,11,0,26.5S12.2,53,27.1,53 c10.2,0,19.1-5.3,23.7-13.5l-9.2-5.1c-2.7,5.3-8.1,8.6-14.5,8.6c-9.3,0-16.3-6.7-16.3-16.4C10.7,16.7,17.8,10,27.1,10z M100.2,19.9h-26V1.2H63.8v50.4h10.4V30h26v21.6h10.4V1.2h-10.4V19.9z M144,1.2l-23,50.4h11.4l5.1-11.5h27.2l5.1,11.5h11.4 l-23-50.4C158.2,1.2,144,1.2,144,1.2z M141.6,30.7L151,9.5l9.4,21.2H141.6z M228.6,34.6L205.2,1.2h-13.7v50.4h9.6V11.9l27.8,39.7 h9.3V1.2h-9.6L228.6,34.6L228.6,34.6z M267.9,30.7h23.7v-9.4h-23.7V10.5h27.5V1.1h-37.1v50.4h38.6v-9.4H268V30.7H267.9z M323.9,41.5V1.2h-10.4v50.4h37.9V41.5H323.9z"/>
</svg>
