<svg xmlns="http://www.w3.org/2000/svg" viewBox="0 0 23.3 22.1"><title>sound</title><path d="M8.1,22.1H3V12.5H8.1v9.6ZM4.1,21H6.9V13.7H4.1V21Z" style="fill:#8996a2"/><path d="M20.3,22.1H15.2V12.5h5.1v9.6ZM16.3,21h2.8V13.7H16.3V21Z" style="fill:#8996a2"/><polygon points="23.3 17.9 19.7 17.9 19.7 16.8 22.1 16.8 22.1 4.6 17.6 1.1 5.7 1.1 1.1 4.6 1.1 16.8 3.6 16.8 3.6 17.9 0 17.9 0 4 5.3 0 18 0 23.3 4 23.3 17.9" style="fill:#8996a2"/><path d="M0.6,4.3" style="fill:#8996a2;stroke:#231815;stroke-miterlimit:10;stroke-width:1.13451943010216px"/></svg>
