<svg xmlns="http://www.w3.org/2000/svg" viewBox="0 0 377.01 198.43"><g data-name="Layer 2"><path d="M377 198.43V138.9a19.84 19.84 0 00-19.84-19.84v79.37zM357.17 79.37H377V19.84A19.84 19.84 0 00357.17 0v79.37zm-39.69 119.06h19.84V99.21h-19.84v99.22zm19.84-119.06V39.69a19.84 19.84 0 100 39.68zm-19.84-59.53h19.84V0a19.84 19.84 0 00-19.84 19.84zm-19.84 158.74v-19.84H277.8v39.69a19.85 19.85 0 0019.84-19.85zm0-59.52H277.8v19.84a19.85 19.85 0 0019.84-19.84zM277.8 39.69h19.84V19.84A19.84 19.84 0 00277.8 0v39.69zM258 198.43V99.21h-19.89v79.37A19.85 19.85 0 00258 198.43zM238.11 79.37H258V0h-19.89v79.37zm-19.84-59.53A19.84 19.84 0 00198.43 0v39.69a19.85 19.85 0 0019.84-19.85zm-59.53 178.59h19.84v-79.37h-19.84v79.37zm19.84-119.06V0a19.84 19.84 0 00-19.84 19.84v39.69a19.84 19.84 0 0019.84 19.84zm-39.68 99.21V138.9a19.84 19.84 0 00-19.84-19.84v79.37a19.85 19.85 0 0019.84-19.85zm0-119V19.84A19.84 19.84 0 00119.06 0v79.37a19.84 19.84 0 0019.84-19.84zM99.21 198.43v-79.37a19.84 19.84 0 00-19.84 19.84v39.68a19.85 19.85 0 0019.84 19.85zM79.37 99.21h19.84V0H79.37v99.21zm-39.69 99.22h19.85V138.9a19.85 19.85 0 00-19.85-19.84v79.37zm19.85-138.9V19.84A19.84 19.84 0 0039.69 0v79.37a19.84 19.84 0 0019.84-19.84zM19.84 79.37V0A19.84 19.84 0 000 19.84v39.69a19.84 19.84 0 0019.84 19.84zm0 39.69H0v79.37h19.84v-79.37zm198.43-59.53h-19.84v19.84a19.84 19.84 0 0019.84-19.84zm-19.84 59.53v39.68h19.84V138.9a19.84 19.84 0 00-19.84-19.84z" fill="#fff" data-name="Layer 1"/></g></svg>