{
    "asset" : {
        "generator" : "Khronos glTF Blender I/O v1.1.46",
        "version" : "2.0"
    },
    "scene" : 0,
    "scenes" : [
        {
            "name" : "Scene",
            "nodes" : [
                8
            ]
        }
    ],
    "nodes" : [
        {
            "mesh" : 0,
            "name" : "descent_thrust_01",
            "translation" : [
                -0.7475374937057495,
                -0.8282063603401184,
                -1.3797906637191772
            ]
        },
        {
            "mesh" : 1,
            "name" : "descent_thrust_02",
            "translation" : [
                -0.9665157198905945,
                -0.8190509080886841,
                -1.4129489660263062
            ]
        },
        {
            "mesh" : 2,
            "name" : "descent_thrust_03",
            "translation" : [
                0.7475753426551819,
                -0.8283033967018127,
                -1.3797751665115356
            ]
        },
        {
            "mesh" : 3,
            "name" : "descent_thrust_04",
            "translation" : [
                0.9663117527961731,
                -0.8191588521003723,
                -1.412928581237793
            ]
        },
        {
            "mesh" : 4,
            "name" : "descent_thrust_05",
            "translation" : [
                0.9665616750717163,
                -0.8193157315254211,
                1.412950873374939
            ]
        },
        {
            "mesh" : 5,
            "name" : "descent_thrust_06",
            "translation" : [
                0.7475911974906921,
                -0.8281676173210144,
                1.3797736167907715
            ]
        },
        {
            "mesh" : 6,
            "name" : "descent_thrust_07",
            "translation" : [
                -0.747963011264801,
                -0.8267825245857239,
                1.3798608779907227
            ]
        },
        {
            "mesh" : 7,
            "name" : "descent_thrust_08",
            "translation" : [
                -0.9664877653121948,
                -0.819053053855896,
                1.4129066467285156
            ]
        },
        {
            "children" : [
                0,
                1,
                2,
                3,
                4,
                5,
                6,
                7
            ],
            "name" : "_root_thrusters"
        }
    ],
    "materials" : [
        {
            "alphaMode" : "BLEND",
            "doubleSided" : true,
            "emissiveFactor" : [
                0,
                0,
                0
            ],
            "name" : "effects",
            "pbrMetallicRoughness" : {
                "baseColorTexture" : {
                    "index" : 0,
                    "texCoord" : 0
                },
                "metallicFactor" : 0,
                "roughnessFactor" : 0.75
            }
        }
    ],
    "meshes" : [
        {
            "name" : "Plane",
            "primitives" : [
                {
                    "attributes" : {
                        "POSITION" : 0,
                        "NORMAL" : 1,
                        "TEXCOORD_0" : 2
                    },
                    "indices" : 3,
                    "material" : 0
                }
            ]
        },
        {
            "name" : "Plane.020",
            "primitives" : [
                {
                    "attributes" : {
                        "POSITION" : 4,
                        "NORMAL" : 5,
                        "TEXCOORD_0" : 6
                    },
                    "indices" : 7,
                    "material" : 0
                }
            ]
        },
        {
            "name" : "Plane.019",
            "primitives" : [
                {
                    "attributes" : {
                        "POSITION" : 8,
                        "NORMAL" : 9,
                        "TEXCOORD_0" : 10
                    },
                    "indices" : 11,
                    "material" : 0
                }
            ]
        },
        {
            "name" : "Plane.018",
            "primitives" : [
                {
                    "attributes" : {
                        "POSITION" : 12,
                        "NORMAL" : 13,
                        "TEXCOORD_0" : 14
                    },
                    "indices" : 15,
                    "material" : 0
                }
            ]
        },
        {
            "name" : "Plane.017",
            "primitives" : [
                {
                    "attributes" : {
                        "POSITION" : 16,
                        "NORMAL" : 17,
                        "TEXCOORD_0" : 18
                    },
                    "indices" : 7,
                    "material" : 0
                }
            ]
        },
        {
            "name" : "Plane.016",
            "primitives" : [
                {
                    "attributes" : {
                        "POSITION" : 19,
                        "NORMAL" : 20,
                        "TEXCOORD_0" : 21
                    },
                    "indices" : 22,
                    "material" : 0
                }
            ]
        },
        {
            "name" : "Plane.008",
            "primitives" : [
                {
                    "attributes" : {
                        "POSITION" : 23,
                        "NORMAL" : 24,
                        "TEXCOORD_0" : 25
                    },
                    "indices" : 11,
                    "material" : 0
                }
            ]
        },
        {
            "name" : "Plane.006",
            "primitives" : [
                {
                    "attributes" : {
                        "POSITION" : 26,
                        "NORMAL" : 27,
                        "TEXCOORD_0" : 28
                    },
                    "indices" : 15,
                    "material" : 0
                }
            ]
        }
    ],
    "textures" : [
        {
            "source" : 0
        }
    ],
    "images" : [
        {
            "mimeType" : "image/png",
            "name" : "effects",
            "uri" : "effects.png"
        }
    ],
    "accessors" : [
        {
            "bufferView" : 0,
            "componentType" : 5126,
            "count" : 12,
            "max" : [
                0.11114665865898132,
                0.006722587626427412,
                0.07382425665855408
            ],
            "min" : [
                -0.11119082570075989,
                -0.9636811017990112,
                -0.19727998971939087
            ],
            "type" : "VEC3"
        },
        {
            "bufferView" : 1,
            "componentType" : 5126,
            "count" : 12,
            "type" : "VEC3"
        },
        {
            "bufferView" : 2,
            "componentType" : 5126,
            "count" : 12,
            "type" : "VEC2"
        },
        {
            "bufferView" : 3,
            "componentType" : 5123,
            "count" : 18,
            "type" : "SCALAR"
        },
        {
            "bufferView" : 4,
            "componentType" : 5126,
            "count" : 12,
            "max" : [
                0.1111469641327858,
                0.02837102860212326,
                0.06848592311143875
            ],
            "min" : [
                -0.11119064688682556,
                -0.9228140711784363,
                -0.46731534600257874
            ],
            "type" : "VEC3"
        },
        {
            "bufferView" : 5,
            "componentType" : 5126,
            "count" : 12,
            "type" : "VEC3"
        },
        {
            "bufferView" : 6,
            "componentType" : 5126,
            "count" : 12,
            "type" : "VEC2"
        },
        {
            "bufferView" : 7,
            "componentType" : 5123,
            "count" : 18,
            "type" : "SCALAR"
        },
        {
            "bufferView" : 8,
            "componentType" : 5126,
            "count" : 12,
            "max" : [
                0.11115267127752304,
                0.00681956484913826,
                0.07380866259336472
            ],
            "min" : [
                -0.11118479073047638,
                -0.9635842442512512,
                -0.1972954273223877
            ],
            "type" : "VEC3"
        },
        {
            "bufferView" : 9,
            "componentType" : 5126,
            "count" : 12,
            "type" : "VEC3"
        },
        {
            "bufferView" : 10,
            "componentType" : 5126,
            "count" : 12,
            "type" : "VEC2"
        },
        {
            "bufferView" : 11,
            "componentType" : 5123,
            "count" : 18,
            "type" : "SCALAR"
        },
        {
            "bufferView" : 12,
            "componentType" : 5126,
            "count" : 12,
            "max" : [
                0.11139418184757233,
                0.028479181230068207,
                0.06846541911363602
            ],
            "min" : [
                -0.11094334721565247,
                -0.9227058291435242,
                -0.4673358201980591
            ],
            "type" : "VEC3"
        },
        {
            "bufferView" : 13,
            "componentType" : 5126,
            "count" : 12,
            "type" : "VEC3"
        },
        {
            "bufferView" : 14,
            "componentType" : 5126,
            "count" : 12,
            "type" : "VEC2"
        },
        {
            "bufferView" : 15,
            "componentType" : 5123,
            "count" : 18,
            "type" : "SCALAR"
        },
        {
            "bufferView" : 16,
            "componentType" : 5126,
            "count" : 12,
            "max" : [
                0.11114431172609329,
                0.028636032715439796,
                0.4673137664794922
            ],
            "min" : [
                -0.1111932247877121,
                -0.9225490689277649,
                -0.06848762929439545
            ],
            "type" : "VEC3"
        },
        {
            "bufferView" : 17,
            "componentType" : 5126,
            "count" : 12,
            "type" : "VEC3"
        },
        {
            "bufferView" : 18,
            "componentType" : 5126,
            "count" : 12,
            "type" : "VEC2"
        },
        {
            "bufferView" : 19,
            "componentType" : 5126,
            "count" : 12,
            "max" : [
                0.11113692820072174,
                0.006683940999209881,
                0.19729724526405334
            ],
            "min" : [
                -0.1112004816532135,
                -0.9637198448181152,
                -0.07380708307027817
            ],
            "type" : "VEC3"
        },
        {
            "bufferView" : 20,
            "componentType" : 5126,
            "count" : 12,
            "type" : "VEC3"
        },
        {
            "bufferView" : 21,
            "componentType" : 5126,
            "count" : 12,
            "type" : "VEC2"
        },
        {
            "bufferView" : 22,
            "componentType" : 5123,
            "count" : 18,
            "type" : "SCALAR"
        },
        {
            "bufferView" : 23,
            "componentType" : 5126,
            "count" : 12,
            "max" : [
                0.1115725114941597,
                0.005298883654177189,
                0.19720980525016785
            ],
            "min" : [
                -0.11076496541500092,
                -0.965104877948761,
                -0.07389452308416367
            ],
            "type" : "VEC3"
        },
        {
            "bufferView" : 24,
            "componentType" : 5126,
            "count" : 12,
            "type" : "VEC3"
        },
        {
            "bufferView" : 25,
            "componentType" : 5126,
            "count" : 12,
            "type" : "VEC2"
        },
        {
            "bufferView" : 26,
            "componentType" : 5126,
            "count" : 12,
            "max" : [
                0.11111938953399658,
                0.028373008593916893,
                0.4673577547073364
            ],
            "min" : [
                -0.11121822148561478,
                -0.9228121042251587,
                -0.06844356656074524
            ],
            "type" : "VEC3"
        },
        {
            "bufferView" : 27,
            "componentType" : 5126,
            "count" : 12,
            "type" : "VEC3"
        },
        {
            "bufferView" : 28,
            "componentType" : 5126,
            "count" : 12,
            "type" : "VEC2"
        }
    ],
    "bufferViews" : [
        {
            "buffer" : 0,
            "byteLength" : 144,
            "byteOffset" : 0
        },
        {
            "buffer" : 0,
            "byteLength" : 144,
            "byteOffset" : 144
        },
        {
            "buffer" : 0,
            "byteLength" : 96,
            "byteOffset" : 288
        },
        {
            "buffer" : 0,
            "byteLength" : 36,
            "byteOffset" : 384
        },
        {
            "buffer" : 0,
            "byteLength" : 144,
            "byteOffset" : 420
        },
        {
            "buffer" : 0,
            "byteLength" : 144,
            "byteOffset" : 564
        },
        {
            "buffer" : 0,
            "byteLength" : 96,
            "byteOffset" : 708
        },
        {
            "buffer" : 0,
            "byteLength" : 36,
            "byteOffset" : 804
        },
        {
            "buffer" : 0,
            "byteLength" : 144,
            "byteOffset" : 840
        },
        {
            "buffer" : 0,
            "byteLength" : 144,
            "byteOffset" : 984
        },
        {
            "buffer" : 0,
            "byteLength" : 96,
            "byteOffset" : 1128
        },
        {
            "buffer" : 0,
            "byteLength" : 36,
            "byteOffset" : 1224
        },
        {
            "buffer" : 0,
            "byteLength" : 144,
            "byteOffset" : 1260
        },
        {
            "buffer" : 0,
            "byteLength" : 144,
            "byteOffset" : 1404
        },
        {
            "buffer" : 0,
            "byteLength" : 96,
            "byteOffset" : 1548
        },
        {
            "buffer" : 0,
            "byteLength" : 36,
            "byteOffset" : 1644
        },
        {
            "buffer" : 0,
            "byteLength" : 144,
            "byteOffset" : 1680
        },
        {
            "buffer" : 0,
            "byteLength" : 144,
            "byteOffset" : 1824
        },
        {
            "buffer" : 0,
            "byteLength" : 96,
            "byteOffset" : 1968
        },
        {
            "buffer" : 0,
            "byteLength" : 144,
            "byteOffset" : 2064
        },
        {
            "buffer" : 0,
            "byteLength" : 144,
            "byteOffset" : 2208
        },
        {
            "buffer" : 0,
            "byteLength" : 96,
            "byteOffset" : 2352
        },
        {
            "buffer" : 0,
            "byteLength" : 36,
            "byteOffset" : 2448
        },
        {
            "buffer" : 0,
            "byteLength" : 144,
            "byteOffset" : 2484
        },
        {
            "buffer" : 0,
            "byteLength" : 144,
            "byteOffset" : 2628
        },
        {
            "buffer" : 0,
            "byteLength" : 96,
            "byteOffset" : 2772
        },
        {
            "buffer" : 0,
            "byteLength" : 144,
            "byteOffset" : 2868
        },
        {
            "buffer" : 0,
            "byteLength" : 144,
            "byteOffset" : 3012
        },
        {
            "buffer" : 0,
            "byteLength" : 96,
            "byteOffset" : 3156
        }
    ],
    "buffers" : [
        {
            "byteLength" : 3252,
            "uri" : "edl2020_skyCraneThrusters.bin"
        }
    ]
}
