<?xml version="1.0" encoding="utf-8"?>
<!-- Generator: Adobe Illustrator 22.1.0, SVG Export Plug-In . SVG Version: 6.00 Build 0)  -->
<svg version="1.1" id="Livello_1" xmlns="http://www.w3.org/2000/svg" xmlns:xlink="http://www.w3.org/1999/xlink" x="0px" y="0px"
	 viewBox="0 0 225.1 17.7" style="enable-background:new 0 0 225.1 17.7;" xml:space="preserve">
<style type="text/css">
	.st0{fill:#FFFFFF;}
</style>
<path id="_x23_MaxMaraBearingGifts" class="st0" d="M8.4,6.3L7.9,8.4h1.9L9.3,10H7.5l-0.8,3.3H5L5.8,10H3.6l-0.8,3.3H1.1L1.9,10H0
	l0.4-1.6h1.9l0.5-2.1H0.9l0.4-1.6h1.9l0.8-3.3h1.7L4.8,4.7h2.2l0.8-3.3h1.7L8.7,4.7h1.9l-0.4,1.6H8.4z M6.7,6.3H4.5L4,8.4h2.2
	L6.7,6.3z M27,0.7v12.6h-2V4l-3.5,7h-1.3l-3.5-7v9.4h-1.9V0.7h2.2l3.9,7.6l3.9-7.6H27z M34.9,3.2c1.3,0,2.3,0.3,3,1
	c0.7,0.7,1,1.6,1,2.9v6.2h-1.9v-1.6c-0.3,0.6-0.8,1-1.3,1.3c-0.5,0.3-1.1,0.5-1.6,0.5l-0.3,0c-1,0-1.8-0.3-2.4-0.8
	c-0.6-0.6-0.9-1.3-0.9-2.2c0-1.1,0.5-2,1.6-2.5c1-0.5,2.7-0.8,5-0.8V7c0-0.7-0.2-1.2-0.5-1.6c-0.3-0.3-0.8-0.5-1.5-0.5l-0.3,0
	c-0.5,0-1,0.1-1.5,0.3S32.2,5.7,31.9,6l-1.1-1.2c0.5-0.5,1-0.9,1.8-1.2c0.6-0.3,1.3-0.4,2-0.5L34.9,3.2z M34,11.9
	c0.6,0,1-0.1,1.5-0.4c0.4-0.3,0.8-0.7,1-1.2c0.2-0.5,0.4-1.1,0.4-1.7c-1.6,0-2.8,0.2-3.5,0.5s-1.1,0.8-1.1,1.4
	c0,0.4,0.2,0.8,0.5,1.1c0.3,0.2,0.6,0.4,1.1,0.4L34,11.9z M48.8,13.3l-2.5-3.5l-2.5,3.5h-2.2l3.6-5l-3.5-4.9H44l2.4,3.4l2.4-3.4H51
	l-3.5,4.9l3.6,5H48.8z M66.2,0.7v12.6h-2V4l-3.5,7h-1.3l-3.5-7v9.4H54V0.7h2.2l3.9,7.6L64,0.7H66.2z M74.1,3.2c1.3,0,2.3,0.3,3,1
	c0.7,0.7,1,1.6,1,2.9v6.2h-1.9v-1.6c-0.3,0.6-0.8,1-1.3,1.3c-0.5,0.3-1.1,0.5-1.6,0.5l-0.3,0c-1,0-1.8-0.3-2.4-0.8
	c-0.6-0.6-0.9-1.3-0.9-2.2c0-1.1,0.5-2,1.6-2.5s2.7-0.8,5-0.8V7c0-0.7-0.2-1.2-0.5-1.6c-0.3-0.3-0.8-0.5-1.5-0.5l-0.3,0
	c-0.5,0-1,0.1-1.5,0.3S71.5,5.7,71.2,6L70,4.8c0.5-0.5,1.1-0.9,1.8-1.2c0.6-0.3,1.3-0.4,2-0.5L74.1,3.2z M73.3,11.9
	c0.6,0,1.1-0.1,1.5-0.4c0.4-0.3,0.8-0.7,1-1.2c0.2-0.5,0.4-1.1,0.4-1.7c-1.6,0-2.8,0.2-3.5,0.5s-1.1,0.8-1.1,1.4
	c0,0.4,0.2,0.8,0.5,1.1c0.3,0.2,0.6,0.4,1.1,0.4L73.3,11.9z M87.2,3.2V5H87c-1,0-1.8,0.3-2.3,1s-0.8,1.5-0.8,2.7v4.7h-1.9V3.4h1.9V5
	c0.3-0.6,0.7-1,1.2-1.3c0.5-0.3,1-0.4,1.5-0.5l0.3,0L87.2,3.2z M94.1,3.2c1.3,0,2.3,0.3,3,1c0.7,0.7,1,1.6,1,2.9v6.2h-1.9v-1.6
	c-0.3,0.6-0.8,1-1.3,1.3c-0.5,0.3-1.1,0.5-1.6,0.5l-0.3,0c-1,0-1.8-0.3-2.4-0.8c-0.6-0.6-0.9-1.3-0.9-2.2c0-1.1,0.5-2,1.6-2.5
	c1.1-0.5,2.7-0.8,5-0.8V7c0-0.7-0.2-1.2-0.5-1.6c-0.3-0.3-0.8-0.5-1.5-0.5l-0.3,0c-0.5,0-1,0.1-1.5,0.3c-0.5,0.2-0.9,0.5-1.3,0.8
	L90,4.8c0.5-0.5,1-0.9,1.8-1.2c0.6-0.3,1.3-0.4,2-0.5L94.1,3.2z M93.3,11.9c0.6,0,1-0.1,1.5-0.4c0.4-0.3,0.8-0.7,1-1.2
	c0.2-0.5,0.4-1.1,0.4-1.7c-1.6,0-2.8,0.2-3.5,0.5s-1.1,0.8-1.1,1.4c0,0.4,0.2,0.8,0.5,1.1c0.3,0.2,0.6,0.4,1.1,0.4L93.3,11.9z
	 M109.9,6.5c1.3,0.6,2,1.6,2,3.2c0,1.1-0.3,2-1,2.7s-1.7,1-3.2,1h-5.6V0.7h5.3c2.6,0,4,1.1,4,3.2c0,0.6-0.1,1.1-0.4,1.6
	C110.8,5.9,110.4,6.2,109.9,6.5z M109.4,4.2c0-0.6-0.2-1-0.5-1.3s-0.9-0.4-1.6-0.4H104v3.4h3.2c0.8,0,1.3-0.1,1.7-0.4
	C109.2,5.2,109.4,4.8,109.4,4.2z M107.6,11.5c0.8,0,1.3-0.2,1.7-0.5c0.4-0.4,0.5-0.8,0.5-1.4c0-0.6-0.2-1.1-0.6-1.4
	s-0.9-0.5-1.7-0.5H104v3.9H107.6z M124.1,9h-7.5c0.1,0.9,0.4,1.6,1,2.1c0.5,0.5,1.2,0.8,2.1,0.8h0.1c0.6,0,1.1-0.1,1.6-0.3
	c0.5-0.2,0.9-0.5,1.3-1l1.1,1.2c-0.4,0.6-1,1-1.7,1.3c-0.7,0.3-1.5,0.5-2.3,0.5c-1,0-1.9-0.2-2.6-0.6c-0.8-0.4-1.3-1-1.8-1.8
	s-0.6-1.7-0.6-2.7V8.3c0-1,0.2-1.9,0.6-2.7c0.4-0.8,1-1.4,1.7-1.8c0.7-0.4,1.5-0.6,2.5-0.6h0.1c0.9,0,1.7,0.2,2.4,0.6s1.2,1,1.6,1.8
	c0.4,0.8,0.6,1.7,0.6,2.7V9z M119.5,4.8c-0.8,0-1.4,0.2-1.9,0.7c-0.5,0.5-0.8,1.1-0.9,1.9h5.5c-0.1-0.9-0.4-1.5-0.8-2
	C120.9,5.1,120.3,4.8,119.5,4.8L119.5,4.8z M131.4,3.2c1.3,0,2.3,0.3,3,1c0.7,0.7,1,1.6,1,2.9v6.2h-1.9v-1.6c-0.3,0.6-0.8,1-1.3,1.3
	c-0.5,0.3-1.1,0.5-1.6,0.5l-0.3,0c-1,0-1.8-0.3-2.4-0.8c-0.6-0.6-0.9-1.3-0.9-2.2c0-1.1,0.5-2,1.6-2.5c1.1-0.5,2.7-0.8,5-0.8V7
	c0-0.7-0.2-1.2-0.5-1.6c-0.3-0.3-0.8-0.5-1.5-0.5l-0.3,0c-0.5,0-1,0.1-1.5,0.3c-0.5,0.2-0.9,0.5-1.3,0.8l-1.1-1.2
	c0.5-0.5,1-0.9,1.8-1.2c0.6-0.3,1.3-0.4,2-0.5L131.4,3.2z M130.6,11.9c0.6,0,1-0.1,1.5-0.4c0.4-0.3,0.8-0.7,1-1.2
	c0.2-0.5,0.4-1.1,0.4-1.7c-1.6,0-2.8,0.2-3.5,0.5s-1.1,0.8-1.1,1.4c0,0.4,0.2,0.8,0.5,1.1c0.3,0.2,0.6,0.4,1.1,0.4L130.6,11.9z
	 M144.5,3.2V5h-0.3c-1,0-1.8,0.3-2.3,1s-0.8,1.5-0.8,2.7v4.7h-1.9V3.4h1.9V5c0.3-0.6,0.7-1,1.2-1.3c0.5-0.3,1-0.4,1.5-0.5l0.3,0
	L144.5,3.2z M148.7,0c0.4,0,0.6,0.1,0.9,0.3c0.2,0.2,0.3,0.5,0.3,0.8c0,0.3-0.1,0.6-0.3,0.8s-0.5,0.3-0.9,0.3
	c-0.4,0-0.7-0.1-0.9-0.3s-0.3-0.5-0.3-0.8c0-0.3,0.1-0.6,0.3-0.8C148,0.1,148.3,0,148.7,0z M149.6,13.3h-1.9V3.4h1.9V13.3z
	 M158.8,3.2c1.1,0,2,0.3,2.6,1c0.6,0.6,0.9,1.6,0.9,2.8v6.4h-1.9V7.1c0-0.7-0.2-1.2-0.5-1.6c-0.3-0.3-0.7-0.5-1.3-0.5l-0.2,0
	c-0.8,0-1.5,0.3-1.9,0.9s-0.7,1.4-0.7,2.5v5h-1.9V3.4h1.9v1.3c0.3-0.5,0.7-0.9,1.3-1.2c0.5-0.3,1-0.4,1.5-0.4L158.8,3.2z M175.1,3.4
	v9.3c0,1-0.2,1.9-0.6,2.6c-0.4,0.8-1,1.3-1.7,1.7s-1.6,0.6-2.5,0.6c-1.7,0-3.1-0.6-4.2-1.7l1.2-1.2c0.9,0.9,1.8,1.3,3,1.3
	c0.9,0,1.7-0.3,2.2-0.8c0.6-0.6,0.8-1.3,0.8-2.3v-1c-0.3,0.5-0.8,0.9-1.4,1.2c-0.6,0.3-1.2,0.4-1.9,0.4h-0.1c-0.9,0-1.6-0.2-2.3-0.7
	c-0.7-0.4-1.2-1-1.5-1.8c-0.4-0.8-0.5-1.7-0.5-2.6V8.3c0-1,0.2-1.8,0.5-2.6c0.4-0.8,0.9-1.4,1.5-1.8c0.7-0.4,1.4-0.7,2.3-0.7h0.1
	c0.7,0,1.3,0.1,1.9,0.4c0.6,0.3,1,0.7,1.4,1.2V3.4H175.1z M170.4,11.8c0.6,0,1-0.1,1.5-0.4c0.4-0.3,0.8-0.7,1-1.2
	c0.2-0.4,0.3-0.9,0.4-1.5l0-0.3c0-1-0.3-1.9-0.8-2.5c-0.5-0.6-1.2-0.9-2.1-0.9h-0.1c-0.8,0-1.5,0.3-2,0.9c-0.5,0.6-0.7,1.3-0.8,2.2
	l0,0.3c0,1,0.3,1.9,0.8,2.5c0.5,0.6,1.2,0.9,2,0.9H170.4z M190,6.6v6.7h-1.7v-1.7c-0.4,0.6-0.9,1.1-1.6,1.5
	c-0.7,0.3-1.4,0.5-2.2,0.5c-1.1,0-2.1-0.3-3-0.8c-0.9-0.5-1.6-1.3-2-2.3c-0.5-1-0.7-2.1-0.7-3.4V6.9c0-1.3,0.2-2.4,0.7-3.4
	c0.5-1,1.2-1.7,2.1-2.3c0.9-0.5,1.9-0.8,3.1-0.8h0.1c1,0,1.9,0.2,2.7,0.6c0.9,0.4,1.6,1,2.1,1.7l-1.2,1.3c-0.6-0.6-1.1-1.1-1.7-1.4
	c-0.5-0.2-1.1-0.4-1.7-0.4l-0.3,0c-0.8,0-1.5,0.2-2.1,0.6c-0.6,0.4-1.1,0.9-1.4,1.6s-0.5,1.5-0.5,2.4v0.2c0,0.9,0.2,1.7,0.5,2.4
	c0.3,0.7,0.8,1.3,1.4,1.6c0.6,0.4,1.3,0.6,2.1,0.6c0.6,0,1.2-0.1,1.8-0.4c0.5-0.3,0.9-0.7,1.3-1.2c0.3-0.5,0.5-1.1,0.5-1.8h-3.7V6.6
	H190z M195.2,0c0.4,0,0.6,0.1,0.9,0.3c0.2,0.2,0.3,0.5,0.3,0.8c0,0.3-0.1,0.6-0.3,0.8s-0.5,0.3-0.9,0.3c-0.4,0-0.7-0.1-0.9-0.3
	c-0.2-0.2-0.3-0.5-0.3-0.8c0-0.3,0.1-0.6,0.3-0.8C194.5,0.1,194.8,0,195.2,0z M196.2,13.3h-1.9V3.4h1.9V13.3z M204.2,1.7
	c-0.4,0-0.8,0.1-0.9,0.2S203,2.3,203,2.7v0.7h2.4v1.7H203v8.2h-1.9V5.1h-1.5V3.4h1.5V2.9c0-1,0.2-1.7,0.7-2.1
	c0.5-0.4,1.2-0.6,2.2-0.6l0.3,0c0.3,0,0.7,0,1.2,0.1v1.5L204.2,1.7z M211.5,5.1v5.7c0,0.4,0.1,0.7,0.3,0.8s0.5,0.2,1,0.2l1.2,0v1.6
	c-0.6,0.1-1.2,0.2-1.7,0.2c-0.9,0-1.6-0.2-2-0.7c-0.5-0.5-0.7-1.2-0.7-2.2V5.1h-1.5V3.4h1.5V1.8l1.9-0.3v1.9h2.5v1.7H211.5z
	 M221,3.2c1.7,0,3,0.5,3.9,1.5l-1.1,1.2c-0.4-0.3-0.8-0.6-1.3-0.8c-0.4-0.2-0.9-0.2-1.5-0.2c-0.6,0-1,0.1-1.4,0.4
	c-0.4,0.3-0.5,0.6-0.5,1c0,0.2,0.1,0.4,0.2,0.5c0.1,0.1,0.4,0.3,0.7,0.4c0.3,0.1,0.7,0.2,1.2,0.3l0.2,0c1.3,0.3,2.2,0.6,2.8,1.1
	c0.6,0.5,0.8,1.1,0.8,2c0,0.6-0.2,1.1-0.5,1.6c-0.3,0.5-0.8,0.8-1.4,1.1c-0.6,0.3-1.3,0.4-2,0.4c-0.9,0-1.7-0.2-2.5-0.5
	c-0.8-0.3-1.4-0.8-1.9-1.4l1.1-1.2c0.9,1,2,1.5,3.2,1.5c0.6,0,1.1-0.1,1.5-0.4s0.6-0.6,0.6-1c0-0.3-0.1-0.5-0.2-0.6
	c-0.1-0.2-0.4-0.3-0.7-0.4c-0.3-0.1-0.7-0.2-1.1-0.3l-0.2-0.1c-1.3-0.3-2.3-0.6-2.9-1.1c-0.6-0.5-0.9-1.1-0.9-1.9
	c0-0.9,0.3-1.6,1-2.2S219.8,3.2,221,3.2z"/>
</svg>
