{
    "asset" : {
        "generator" : "Khronos glTF Blender I/O v0.9.36",
        "version" : "2.0"
    },
    "scene" : 0,
    "scenes" : [
        {
            "name" : "Scene",
            "nodes" : [
                0
            ]
        }
    ],
    "nodes" : [
        {
            "mesh" : 0,
            "name" : "deimos"
        }
    ],
    "materials" : [
        {
            "doubleSided" : true,
            "name" : "deimos_tex_01",
            "pbrMetallicRoughness" : {
                "baseColorTexture" : {
                    "index" : 0,
                    "texCoord" : 0
                },
                "metallicFactor" : 0,
                "roughnessFactor" : 0.800000011920929
            }
        }
    ],
    "meshes" : [
        {
            "name" : "Sphere.028",
            "primitives" : [
                {
                    "attributes" : {
                        "POSITION" : 0,
                        "NORMAL" : 1,
                        "TEXCOORD_0" : 2
                    },
                    "indices" : 3,
                    "material" : 0
                }
            ]
        }
    ],
    "textures" : [
        {
            "source" : 0
        }
    ],
    "images" : [
        {
            "mimeType" : "image/jpeg",
            "name" : "deimos_tex_01",
            "uri" : "deimos_tex_01.jpg"
        }
    ],
    "accessors" : [
        {
            "bufferView" : 0,
            "componentType" : 5126,
            "count" : 16649,
            "max" : [
                7.780735015869141,
                5.581928730010986,
                5.074018955230713
            ],
            "min" : [
                -7.231721878051758,
                -6.287788391113281,
                -5.431387424468994
            ],
            "type" : "VEC3"
        },
        {
            "bufferView" : 1,
            "componentType" : 5126,
            "count" : 16649,
            "type" : "VEC3"
        },
        {
            "bufferView" : 2,
            "componentType" : 5126,
            "count" : 16649,
            "type" : "VEC2"
        },
        {
            "bufferView" : 3,
            "componentType" : 5123,
            "count" : 97536,
            "type" : "SCALAR"
        }
    ],
    "bufferViews" : [
        {
            "buffer" : 0,
            "byteLength" : 199788,
            "byteOffset" : 0
        },
        {
            "buffer" : 0,
            "byteLength" : 199788,
            "byteOffset" : 199788
        },
        {
            "buffer" : 0,
            "byteLength" : 133192,
            "byteOffset" : 399576
        },
        {
            "buffer" : 0,
            "byteLength" : 195072,
            "byteOffset" : 532768
        }
    ],
    "buffers" : [
        {
            "byteLength" : 727840,
            "uri" : "deimos.bin"
        }
    ]
}
