<svg width="56" height="20" viewBox="0 0 56 20" fill="none" xmlns="http://www.w3.org/2000/svg">
<path d="M3.52148 15C3.77539 15 3.92188 14.8633 3.92188 14.5996V10.2637C3.92188 10 4.05859 9.86328 4.32227 9.86328H7.01758C10.2012 9.86328 12.1836 7.7832 12.1836 4.98047C12.1836 2.23633 10.2012 0 7.01758 0H0.601562C0.337891 0 0.201172 0.136719 0.201172 0.400391V14.5996C0.201172 14.8633 0.337891 15 0.601562 15H3.52148ZM4.32227 6.77734C4.05859 6.77734 3.92188 6.64062 3.92188 6.37695V3.47656C3.92188 3.22266 4.05859 3.07617 4.32227 3.07617H6.23633C7.7793 3.07617 8.46289 3.81836 8.46289 4.92188C8.46289 6.08398 7.7793 6.77734 6.23633 6.77734H4.32227ZM17.4 15.1953C19.9391 15.1953 21.6187 14.082 22.4781 12.8223C22.5758 12.6953 22.4781 12.5586 22.2633 12.4609L19.7047 11.3574C19.4801 11.2598 19.3434 11.3184 19.1969 11.5234C18.7965 12.0996 18.1617 12.4219 17.3805 12.4219C16.4234 12.4219 15.6031 11.9629 15.2223 11.0645C15.1246 10.8008 15.2613 10.6445 15.5152 10.6445H22.9762C23.2008 10.6445 23.3375 10.5176 23.357 10.3027C23.3766 10.1367 23.3766 9.98047 23.3766 9.82422C23.3766 6.62109 20.8961 4.46289 17.4 4.46289C13.8355 4.46289 11.3844 6.62109 11.3844 9.84375C11.3844 12.8418 13.5621 15.1953 17.4 15.1953ZM15.6422 8.4375C15.3785 8.4375 15.2418 8.26172 15.3785 8.01758C15.7789 7.34375 16.4625 7.02148 17.3805 7.02148C18.2984 7.02148 18.9625 7.38281 19.3629 8.01758C19.4996 8.26172 19.3629 8.4375 19.0797 8.4375H15.6422ZM29.0812 15.1953C31.6203 15.1953 33.3 14.082 34.1594 12.8223C34.257 12.6953 34.1594 12.5586 33.9445 12.4609L31.3859 11.3574C31.1613 11.2598 31.0246 11.3184 30.8781 11.5234C30.4777 12.0996 29.843 12.4219 29.0617 12.4219C28.1047 12.4219 27.2844 11.9629 26.9035 11.0645C26.8059 10.8008 26.9426 10.6445 27.1965 10.6445H34.6574C34.882 10.6445 35.0187 10.5176 35.0383 10.3027C35.0578 10.1367 35.0578 9.98047 35.0578 9.82422C35.0578 6.62109 32.5773 4.46289 29.0812 4.46289C25.5168 4.46289 23.0656 6.62109 23.0656 9.84375C23.0656 12.8418 25.2434 15.1953 29.0812 15.1953ZM27.3234 8.4375C27.0598 8.4375 26.923 8.26172 27.0598 8.01758C27.4602 7.34375 28.1437 7.02148 29.0617 7.02148C29.9797 7.02148 30.6437 7.38281 31.0441 8.01758C31.1809 8.26172 31.0441 8.4375 30.7609 8.4375H27.3234ZM41.7977 4.46289C40.8602 4.46289 39.9813 4.69727 39.2391 5.25391C38.9754 5.45898 38.7996 5.38086 38.7996 5.07812V5.01953C38.7996 4.79492 38.6531 4.6582 38.4383 4.6582H35.5574C35.3328 4.6582 35.1961 4.79492 35.1961 5.01953V19.2969C35.1961 19.5215 35.3328 19.6582 35.5574 19.6582H38.4383C38.6531 19.6582 38.7996 19.5215 38.7996 19.2969V14.5801C38.7996 14.2773 38.9754 14.1992 39.2195 14.375C39.9617 14.9609 40.8406 15.1953 41.7977 15.1953C44.7566 15.1953 46.993 12.9004 46.993 9.83398C46.993 6.77734 44.7566 4.46289 41.7977 4.46289ZM40.9969 7.42188C42.3348 7.42188 43.3992 8.32031 43.3992 9.83398C43.3992 11.3379 42.3348 12.2363 40.9969 12.2363C39.6785 12.2363 38.5945 11.2988 38.5945 9.83398C38.5945 8.35938 39.6785 7.42188 40.9969 7.42188ZM51.1742 15.1953C53.8012 15.1953 55.3539 13.916 55.3539 11.7578C55.3539 9.54102 53.3812 8.75977 51.975 8.26172C51.2328 7.99805 50.6762 7.80273 50.6762 7.44141C50.6762 7.13867 50.9008 7.02148 51.2133 7.02148C51.7992 7.02148 52.6781 7.32422 53.3617 7.65625C53.557 7.7832 53.7133 7.72461 53.8402 7.53906L54.8754 5.87891C55.0023 5.68359 54.973 5.49805 54.7582 5.38086C53.6352 4.77539 52.3363 4.46289 51.1352 4.46289C48.6352 4.46289 47.0727 5.74219 47.0727 7.76367C47.0727 10.0195 48.9965 10.6836 50.559 11.2402C51.3402 11.5234 51.7602 11.6797 51.7602 12.041C51.7602 12.3633 51.4965 12.5195 50.9789 12.5195C50.1586 12.5195 49.1137 12.1191 48.2934 11.6016C48.0785 11.4844 47.9223 11.5039 47.7953 11.7188L46.7602 13.6035C46.6527 13.7988 46.682 13.9648 46.8773 14.082C48.1176 14.8047 49.7191 15.1953 51.1742 15.1953Z" fill="#00B2B2"/>
</svg>
