{
    "asset" : {
        "generator" : "Khronos glTF Blender I/O v1.1.46",
        "version" : "2.0"
    },
    "scene" : 0,
    "scenes" : [
        {
            "name" : "Scene",
            "nodes" : [
                8
            ]
        }
    ],
    "nodes" : [
        {
            "mesh" : 0,
            "name" : "Plane.004",
            "translation" : [
                0.9663117527961731,
                -0.8191588521003723,
                -1.412928581237793
            ]
        },
        {
            "mesh" : 1,
            "name" : "Plane.005",
            "translation" : [
                0.7475752830505371,
                -0.8283033967018127,
                -1.3797751665115356
            ]
        },
        {
            "mesh" : 2,
            "name" : "Plane.006",
            "translation" : [
                -0.7475866079330444,
                -0.828209638595581,
                -1.379760980606079
            ]
        },
        {
            "mesh" : 3,
            "name" : "Plane.007",
            "translation" : [
                -0.9665709137916565,
                -0.8190576434135437,
                -1.4129341840744019
            ]
        },
        {
            "mesh" : 4,
            "name" : "Plane.008",
            "translation" : [
                0.7475752830505371,
                -0.8283033967018127,
                1.3765020370483398
            ]
        },
        {
            "mesh" : 5,
            "name" : "Plane.009",
            "translation" : [
                0.9663117527961731,
                -0.8191588521003723,
                1.4096554517745972
            ]
        },
        {
            "mesh" : 6,
            "name" : "Plane.010",
            "translation" : [
                -0.7475866079330444,
                -0.828209638595581,
                1.3764878511428833
            ]
        },
        {
            "mesh" : 7,
            "name" : "Plane.011",
            "translation" : [
                -0.9665709137916565,
                -0.8190576434135437,
                1.409661054611206
            ]
        },
        {
            "children" : [
                0,
                1,
                2,
                3,
                4,
                5,
                6,
                7
            ],
            "name" : "_root_plumes"
        }
    ],
    "materials" : [
        {
            "alphaMode" : "BLEND",
            "doubleSided" : true,
            "emissiveFactor" : [
                0,
                0,
                0
            ],
            "name" : "Plumes2",
            "pbrMetallicRoughness" : {
                "baseColorTexture" : {
                    "index" : 0,
                    "texCoord" : 0
                },
                "metallicFactor" : 0,
                "roughnessFactor" : 0.5
            }
        }
    ],
    "meshes" : [
        {
            "name" : "Plane.024",
            "primitives" : [
                {
                    "attributes" : {
                        "POSITION" : 0,
                        "NORMAL" : 1,
                        "TEXCOORD_0" : 2
                    },
                    "indices" : 3,
                    "material" : 0
                }
            ]
        },
        {
            "name" : "Plane.023",
            "primitives" : [
                {
                    "attributes" : {
                        "POSITION" : 4,
                        "NORMAL" : 5,
                        "TEXCOORD_0" : 6
                    },
                    "indices" : 3,
                    "material" : 0
                }
            ]
        },
        {
            "name" : "Plane.027",
            "primitives" : [
                {
                    "attributes" : {
                        "POSITION" : 7,
                        "NORMAL" : 8,
                        "TEXCOORD_0" : 9
                    },
                    "indices" : 10,
                    "material" : 0
                }
            ]
        },
        {
            "name" : "Plane.028",
            "primitives" : [
                {
                    "attributes" : {
                        "POSITION" : 11,
                        "NORMAL" : 12,
                        "TEXCOORD_0" : 13
                    },
                    "indices" : 10,
                    "material" : 0
                }
            ]
        },
        {
            "name" : "Plane.029",
            "primitives" : [
                {
                    "attributes" : {
                        "POSITION" : 14,
                        "NORMAL" : 15,
                        "TEXCOORD_0" : 16
                    },
                    "indices" : 10,
                    "material" : 0
                }
            ]
        },
        {
            "name" : "Plane.030",
            "primitives" : [
                {
                    "attributes" : {
                        "POSITION" : 17,
                        "NORMAL" : 18,
                        "TEXCOORD_0" : 19
                    },
                    "indices" : 20,
                    "material" : 0
                }
            ]
        },
        {
            "name" : "Plane.031",
            "primitives" : [
                {
                    "attributes" : {
                        "POSITION" : 21,
                        "NORMAL" : 22,
                        "TEXCOORD_0" : 23
                    },
                    "indices" : 3,
                    "material" : 0
                }
            ]
        },
        {
            "name" : "Plane.032",
            "primitives" : [
                {
                    "attributes" : {
                        "POSITION" : 24,
                        "NORMAL" : 25,
                        "TEXCOORD_0" : 26
                    },
                    "indices" : 20,
                    "material" : 0
                }
            ]
        }
    ],
    "textures" : [
        {
            "source" : 0
        }
    ],
    "images" : [
        {
            "mimeType" : "image/png",
            "name" : "plumes3",
            "uri" : "plumes3.png"
        }
    ],
    "accessors" : [
        {
            "bufferView" : 0,
            "componentType" : 5126,
            "count" : 96,
            "max" : [
                1.100862979888916,
                0.03034721128642559,
                0.07366935163736343
            ],
            "min" : [
                -1.1008615493774414,
                -7.461656093597412,
                -3.9188907146453857
            ],
            "type" : "VEC3"
        },
        {
            "bufferView" : 1,
            "componentType" : 5126,
            "count" : 96,
            "type" : "VEC3"
        },
        {
            "bufferView" : 2,
            "componentType" : 5126,
            "count" : 96,
            "type" : "VEC2"
        },
        {
            "bufferView" : 3,
            "componentType" : 5123,
            "count" : 144,
            "type" : "SCALAR"
        },
        {
            "bufferView" : 4,
            "componentType" : 5126,
            "count" : 96,
            "max" : [
                1.1037129163742065,
                0.007088101468980312,
                0.4235236644744873
            ],
            "min" : [
                -1.103711485862732,
                -7.684360980987549,
                -1.7751935720443726
            ],
            "type" : "VEC3"
        },
        {
            "bufferView" : 5,
            "componentType" : 5126,
            "count" : 96,
            "type" : "VEC3"
        },
        {
            "bufferView" : 6,
            "componentType" : 5126,
            "count" : 96,
            "type" : "VEC2"
        },
        {
            "bufferView" : 7,
            "componentType" : 5126,
            "count" : 96,
            "max" : [
                1.1032562255859375,
                0.007085168734192848,
                0.4230691194534302
            ],
            "min" : [
                -1.103255271911621,
                -7.684320449829102,
                -1.7747390270233154
            ],
            "type" : "VEC3"
        },
        {
            "bufferView" : 8,
            "componentType" : 5126,
            "count" : 96,
            "type" : "VEC3"
        },
        {
            "bufferView" : 9,
            "componentType" : 5126,
            "count" : 96,
            "type" : "VEC2"
        },
        {
            "bufferView" : 10,
            "componentType" : 5123,
            "count" : 144,
            "type" : "SCALAR"
        },
        {
            "bufferView" : 11,
            "componentType" : 5126,
            "count" : 96,
            "max" : [
                1.0200694799423218,
                0.030690139159560204,
                0.07375729084014893
            ],
            "min" : [
                -1.1873894929885864,
                -7.459707260131836,
                -3.935086727142334
            ],
            "type" : "VEC3"
        },
        {
            "bufferView" : 12,
            "componentType" : 5126,
            "count" : 96,
            "type" : "VEC3"
        },
        {
            "bufferView" : 13,
            "componentType" : 5126,
            "count" : 96,
            "type" : "VEC2"
        },
        {
            "bufferView" : 14,
            "componentType" : 5126,
            "count" : 96,
            "max" : [
                1.1037129163742065,
                0.007088101468980312,
                1.7751935720443726
            ],
            "min" : [
                -1.103711485862732,
                -7.684360980987549,
                -0.4235236644744873
            ],
            "type" : "VEC3"
        },
        {
            "bufferView" : 15,
            "componentType" : 5126,
            "count" : 96,
            "type" : "VEC3"
        },
        {
            "bufferView" : 16,
            "componentType" : 5126,
            "count" : 96,
            "type" : "VEC2"
        },
        {
            "bufferView" : 17,
            "componentType" : 5126,
            "count" : 96,
            "max" : [
                1.100862979888916,
                0.03034721128642559,
                3.9188907146453857
            ],
            "min" : [
                -1.1008615493774414,
                -7.461656093597412,
                -0.07366935163736343
            ],
            "type" : "VEC3"
        },
        {
            "bufferView" : 18,
            "componentType" : 5126,
            "count" : 96,
            "type" : "VEC3"
        },
        {
            "bufferView" : 19,
            "componentType" : 5126,
            "count" : 96,
            "type" : "VEC2"
        },
        {
            "bufferView" : 20,
            "componentType" : 5123,
            "count" : 144,
            "type" : "SCALAR"
        },
        {
            "bufferView" : 21,
            "componentType" : 5126,
            "count" : 96,
            "max" : [
                1.1032562255859375,
                0.007085168734192848,
                1.7747390270233154
            ],
            "min" : [
                -1.103255271911621,
                -7.684320449829102,
                -0.4230691194534302
            ],
            "type" : "VEC3"
        },
        {
            "bufferView" : 22,
            "componentType" : 5126,
            "count" : 96,
            "type" : "VEC3"
        },
        {
            "bufferView" : 23,
            "componentType" : 5126,
            "count" : 96,
            "type" : "VEC2"
        },
        {
            "bufferView" : 24,
            "componentType" : 5126,
            "count" : 96,
            "max" : [
                1.0200694799423218,
                0.030690139159560204,
                3.935086727142334
            ],
            "min" : [
                -1.1873894929885864,
                -7.459707260131836,
                -0.07375729084014893
            ],
            "type" : "VEC3"
        },
        {
            "bufferView" : 25,
            "componentType" : 5126,
            "count" : 96,
            "type" : "VEC3"
        },
        {
            "bufferView" : 26,
            "componentType" : 5126,
            "count" : 96,
            "type" : "VEC2"
        }
    ],
    "bufferViews" : [
        {
            "buffer" : 0,
            "byteLength" : 1152,
            "byteOffset" : 0
        },
        {
            "buffer" : 0,
            "byteLength" : 1152,
            "byteOffset" : 1152
        },
        {
            "buffer" : 0,
            "byteLength" : 768,
            "byteOffset" : 2304
        },
        {
            "buffer" : 0,
            "byteLength" : 288,
            "byteOffset" : 3072
        },
        {
            "buffer" : 0,
            "byteLength" : 1152,
            "byteOffset" : 3360
        },
        {
            "buffer" : 0,
            "byteLength" : 1152,
            "byteOffset" : 4512
        },
        {
            "buffer" : 0,
            "byteLength" : 768,
            "byteOffset" : 5664
        },
        {
            "buffer" : 0,
            "byteLength" : 1152,
            "byteOffset" : 6432
        },
        {
            "buffer" : 0,
            "byteLength" : 1152,
            "byteOffset" : 7584
        },
        {
            "buffer" : 0,
            "byteLength" : 768,
            "byteOffset" : 8736
        },
        {
            "buffer" : 0,
            "byteLength" : 288,
            "byteOffset" : 9504
        },
        {
            "buffer" : 0,
            "byteLength" : 1152,
            "byteOffset" : 9792
        },
        {
            "buffer" : 0,
            "byteLength" : 1152,
            "byteOffset" : 10944
        },
        {
            "buffer" : 0,
            "byteLength" : 768,
            "byteOffset" : 12096
        },
        {
            "buffer" : 0,
            "byteLength" : 1152,
            "byteOffset" : 12864
        },
        {
            "buffer" : 0,
            "byteLength" : 1152,
            "byteOffset" : 14016
        },
        {
            "buffer" : 0,
            "byteLength" : 768,
            "byteOffset" : 15168
        },
        {
            "buffer" : 0,
            "byteLength" : 1152,
            "byteOffset" : 15936
        },
        {
            "buffer" : 0,
            "byteLength" : 1152,
            "byteOffset" : 17088
        },
        {
            "buffer" : 0,
            "byteLength" : 768,
            "byteOffset" : 18240
        },
        {
            "buffer" : 0,
            "byteLength" : 288,
            "byteOffset" : 19008
        },
        {
            "buffer" : 0,
            "byteLength" : 1152,
            "byteOffset" : 19296
        },
        {
            "buffer" : 0,
            "byteLength" : 1152,
            "byteOffset" : 20448
        },
        {
            "buffer" : 0,
            "byteLength" : 768,
            "byteOffset" : 21600
        },
        {
            "buffer" : 0,
            "byteLength" : 1152,
            "byteOffset" : 22368
        },
        {
            "buffer" : 0,
            "byteLength" : 1152,
            "byteOffset" : 23520
        },
        {
            "buffer" : 0,
            "byteLength" : 768,
            "byteOffset" : 24672
        }
    ],
    "buffers" : [
        {
            "byteLength" : 25440,
            "uri" : "edl2020_skyCranePlumes.bin"
        }
    ]
}
